<?xml version="1.0" encoding="utf-8" standalone="no"?>
<!DOCTYPE svg PUBLIC "-//W3C//DTD SVG 1.1//EN"
  "http://www.w3.org/Graphics/SVG/1.1/DTD/svg11.dtd">
<!-- Created with matplotlib (http://matplotlib.org/) -->
<svg height="345pt" version="1.1" viewBox="0 0 460 345" width="460pt" xmlns="http://www.w3.org/2000/svg" xmlns:xlink="http://www.w3.org/1999/xlink">
 <defs>
  <style type="text/css">
*{stroke-linecap:butt;stroke-linejoin:round;}
  </style>
 </defs>
 <g id="figure_1">
  <g id="patch_1">
   <path d="M 0 345.6 
L 460.8 345.6 
L 460.8 0 
L 0 0 
z
" style="fill:#ffffff;"/>
  </g>
  <g id="axes_1">
   <g id="patch_2">
    <path d="M 57.6 307.584 
L 414.72 307.584 
L 414.72 41.472 
L 57.6 41.472 
z
" style="fill:#ffffff;"/>
   </g>
   <g id="matplotlib.axis_1">
    <g id="xtick_1">
     <g id="line2d_1">
      <path clip-path="url(#p992859c3ee)" d="M 109.94558 307.584 
L 109.94558 41.472 
" style="fill:none;stroke:#b0b0b0;stroke-linecap:square;stroke-width:0.8;"/>
     </g>
     <g id="line2d_2">
      <defs>
       <path d="M 0 0 
L 0 3.5 
" id="m7c2d6fdbfe" style="stroke:#000000;stroke-width:0.8;"/>
      </defs>
      <g>
       <use style="stroke:#000000;stroke-width:0.8;" x="109.94558" xlink:href="#m7c2d6fdbfe" y="307.584"/>
      </g>
     </g>
     <g id="text_1">
      <!-- 0.2 -->
      <defs>
       <path d="M 31.78125 66.40625 
Q 24.171875 66.40625 20.328125 58.90625 
Q 16.5 51.421875 16.5 36.375 
Q 16.5 21.390625 20.328125 13.890625 
Q 24.171875 6.390625 31.78125 6.390625 
Q 39.453125 6.390625 43.28125 13.890625 
Q 47.125 21.390625 47.125 36.375 
Q 47.125 51.421875 43.28125 58.90625 
Q 39.453125 66.40625 31.78125 66.40625 
z
M 31.78125 74.21875 
Q 44.046875 74.21875 50.515625 64.515625 
Q 56.984375 54.828125 56.984375 36.375 
Q 56.984375 17.96875 50.515625 8.265625 
Q 44.046875 -1.421875 31.78125 -1.421875 
Q 19.53125 -1.421875 13.0625 8.265625 
Q 6.59375 17.96875 6.59375 36.375 
Q 6.59375 54.828125 13.0625 64.515625 
Q 19.53125 74.21875 31.78125 74.21875 
z
" id="DejaVuSans-30"/>
       <path d="M 10.6875 12.40625 
L 21 12.40625 
L 21 0 
L 10.6875 0 
z
" id="DejaVuSans-2e"/>
       <path d="M 19.1875 8.296875 
L 53.609375 8.296875 
L 53.609375 0 
L 7.328125 0 
L 7.328125 8.296875 
Q 12.9375 14.109375 22.625 23.890625 
Q 32.328125 33.6875 34.8125 36.53125 
Q 39.546875 41.84375 41.421875 45.53125 
Q 43.3125 49.21875 43.3125 52.78125 
Q 43.3125 58.59375 39.234375 62.25 
Q 35.15625 65.921875 28.609375 65.921875 
Q 23.96875 65.921875 18.8125 64.3125 
Q 13.671875 62.703125 7.8125 59.421875 
L 7.8125 69.390625 
Q 13.765625 71.78125 18.9375 73 
Q 24.125 74.21875 28.421875 74.21875 
Q 39.75 74.21875 46.484375 68.546875 
Q 53.21875 62.890625 53.21875 53.421875 
Q 53.21875 48.921875 51.53125 44.890625 
Q 49.859375 40.875 45.40625 35.40625 
Q 44.1875 33.984375 37.640625 27.21875 
Q 31.109375 20.453125 19.1875 8.296875 
z
" id="DejaVuSans-32"/>
      </defs>
      <g transform="translate(101.994017 322.182437)scale(0.1 -0.1)">
       <use xlink:href="#DejaVuSans-30"/>
       <use x="63.623047" xlink:href="#DejaVuSans-2e"/>
       <use x="95.410156" xlink:href="#DejaVuSans-32"/>
      </g>
     </g>
    </g>
    <g id="xtick_2">
     <g id="line2d_3">
      <path clip-path="url(#p992859c3ee)" d="M 182.171285 307.584 
L 182.171285 41.472 
" style="fill:none;stroke:#b0b0b0;stroke-linecap:square;stroke-width:0.8;"/>
     </g>
     <g id="line2d_4">
      <g>
       <use style="stroke:#000000;stroke-width:0.8;" x="182.171285" xlink:href="#m7c2d6fdbfe" y="307.584"/>
      </g>
     </g>
     <g id="text_2">
      <!-- 0.4 -->
      <defs>
       <path d="M 37.796875 64.3125 
L 12.890625 25.390625 
L 37.796875 25.390625 
z
M 35.203125 72.90625 
L 47.609375 72.90625 
L 47.609375 25.390625 
L 58.015625 25.390625 
L 58.015625 17.1875 
L 47.609375 17.1875 
L 47.609375 0 
L 37.796875 0 
L 37.796875 17.1875 
L 4.890625 17.1875 
L 4.890625 26.703125 
z
" id="DejaVuSans-34"/>
      </defs>
      <g transform="translate(174.219723 322.182437)scale(0.1 -0.1)">
       <use xlink:href="#DejaVuSans-30"/>
       <use x="63.623047" xlink:href="#DejaVuSans-2e"/>
       <use x="95.410156" xlink:href="#DejaVuSans-34"/>
      </g>
     </g>
    </g>
    <g id="xtick_3">
     <g id="line2d_5">
      <path clip-path="url(#p992859c3ee)" d="M 254.396991 307.584 
L 254.396991 41.472 
" style="fill:none;stroke:#b0b0b0;stroke-linecap:square;stroke-width:0.8;"/>
     </g>
     <g id="line2d_6">
      <g>
       <use style="stroke:#000000;stroke-width:0.8;" x="254.396991" xlink:href="#m7c2d6fdbfe" y="307.584"/>
      </g>
     </g>
     <g id="text_3">
      <!-- 0.6 -->
      <defs>
       <path d="M 33.015625 40.375 
Q 26.375 40.375 22.484375 35.828125 
Q 18.609375 31.296875 18.609375 23.390625 
Q 18.609375 15.53125 22.484375 10.953125 
Q 26.375 6.390625 33.015625 6.390625 
Q 39.65625 6.390625 43.53125 10.953125 
Q 47.40625 15.53125 47.40625 23.390625 
Q 47.40625 31.296875 43.53125 35.828125 
Q 39.65625 40.375 33.015625 40.375 
z
M 52.59375 71.296875 
L 52.59375 62.3125 
Q 48.875 64.0625 45.09375 64.984375 
Q 41.3125 65.921875 37.59375 65.921875 
Q 27.828125 65.921875 22.671875 59.328125 
Q 17.53125 52.734375 16.796875 39.40625 
Q 19.671875 43.65625 24.015625 45.921875 
Q 28.375 48.1875 33.59375 48.1875 
Q 44.578125 48.1875 50.953125 41.515625 
Q 57.328125 34.859375 57.328125 23.390625 
Q 57.328125 12.15625 50.6875 5.359375 
Q 44.046875 -1.421875 33.015625 -1.421875 
Q 20.359375 -1.421875 13.671875 8.265625 
Q 6.984375 17.96875 6.984375 36.375 
Q 6.984375 53.65625 15.1875 63.9375 
Q 23.390625 74.21875 37.203125 74.21875 
Q 40.921875 74.21875 44.703125 73.484375 
Q 48.484375 72.75 52.59375 71.296875 
z
" id="DejaVuSans-36"/>
      </defs>
      <g transform="translate(246.445428 322.182437)scale(0.1 -0.1)">
       <use xlink:href="#DejaVuSans-30"/>
       <use x="63.623047" xlink:href="#DejaVuSans-2e"/>
       <use x="95.410156" xlink:href="#DejaVuSans-36"/>
      </g>
     </g>
    </g>
    <g id="xtick_4">
     <g id="line2d_7">
      <path clip-path="url(#p992859c3ee)" d="M 326.622696 307.584 
L 326.622696 41.472 
" style="fill:none;stroke:#b0b0b0;stroke-linecap:square;stroke-width:0.8;"/>
     </g>
     <g id="line2d_8">
      <g>
       <use style="stroke:#000000;stroke-width:0.8;" x="326.622696" xlink:href="#m7c2d6fdbfe" y="307.584"/>
      </g>
     </g>
     <g id="text_4">
      <!-- 0.8 -->
      <defs>
       <path d="M 31.78125 34.625 
Q 24.75 34.625 20.71875 30.859375 
Q 16.703125 27.09375 16.703125 20.515625 
Q 16.703125 13.921875 20.71875 10.15625 
Q 24.75 6.390625 31.78125 6.390625 
Q 38.8125 6.390625 42.859375 10.171875 
Q 46.921875 13.96875 46.921875 20.515625 
Q 46.921875 27.09375 42.890625 30.859375 
Q 38.875 34.625 31.78125 34.625 
z
M 21.921875 38.8125 
Q 15.578125 40.375 12.03125 44.71875 
Q 8.5 49.078125 8.5 55.328125 
Q 8.5 64.0625 14.71875 69.140625 
Q 20.953125 74.21875 31.78125 74.21875 
Q 42.671875 74.21875 48.875 69.140625 
Q 55.078125 64.0625 55.078125 55.328125 
Q 55.078125 49.078125 51.53125 44.71875 
Q 48 40.375 41.703125 38.8125 
Q 48.828125 37.15625 52.796875 32.3125 
Q 56.78125 27.484375 56.78125 20.515625 
Q 56.78125 9.90625 50.3125 4.234375 
Q 43.84375 -1.421875 31.78125 -1.421875 
Q 19.734375 -1.421875 13.25 4.234375 
Q 6.78125 9.90625 6.78125 20.515625 
Q 6.78125 27.484375 10.78125 32.3125 
Q 14.796875 37.15625 21.921875 38.8125 
z
M 18.3125 54.390625 
Q 18.3125 48.734375 21.84375 45.5625 
Q 25.390625 42.390625 31.78125 42.390625 
Q 38.140625 42.390625 41.71875 45.5625 
Q 45.3125 48.734375 45.3125 54.390625 
Q 45.3125 60.0625 41.71875 63.234375 
Q 38.140625 66.40625 31.78125 66.40625 
Q 25.390625 66.40625 21.84375 63.234375 
Q 18.3125 60.0625 18.3125 54.390625 
z
" id="DejaVuSans-38"/>
      </defs>
      <g transform="translate(318.671133 322.182437)scale(0.1 -0.1)">
       <use xlink:href="#DejaVuSans-30"/>
       <use x="63.623047" xlink:href="#DejaVuSans-2e"/>
       <use x="95.410156" xlink:href="#DejaVuSans-38"/>
      </g>
     </g>
    </g>
    <g id="xtick_5">
     <g id="line2d_9">
      <path clip-path="url(#p992859c3ee)" d="M 398.848401 307.584 
L 398.848401 41.472 
" style="fill:none;stroke:#b0b0b0;stroke-linecap:square;stroke-width:0.8;"/>
     </g>
     <g id="line2d_10">
      <g>
       <use style="stroke:#000000;stroke-width:0.8;" x="398.848401" xlink:href="#m7c2d6fdbfe" y="307.584"/>
      </g>
     </g>
     <g id="text_5">
      <!-- 1.0 -->
      <defs>
       <path d="M 12.40625 8.296875 
L 28.515625 8.296875 
L 28.515625 63.921875 
L 10.984375 60.40625 
L 10.984375 69.390625 
L 28.421875 72.90625 
L 38.28125 72.90625 
L 38.28125 8.296875 
L 54.390625 8.296875 
L 54.390625 0 
L 12.40625 0 
z
" id="DejaVuSans-31"/>
      </defs>
      <g transform="translate(390.896839 322.182437)scale(0.1 -0.1)">
       <use xlink:href="#DejaVuSans-31"/>
       <use x="63.623047" xlink:href="#DejaVuSans-2e"/>
       <use x="95.410156" xlink:href="#DejaVuSans-30"/>
      </g>
     </g>
    </g>
    <g id="text_6">
     <!-- Traffic Intnesity -->
     <defs>
      <path d="M -0.296875 72.90625 
L 61.375 72.90625 
L 61.375 64.59375 
L 35.5 64.59375 
L 35.5 0 
L 25.59375 0 
L 25.59375 64.59375 
L -0.296875 64.59375 
z
" id="DejaVuSans-54"/>
      <path d="M 41.109375 46.296875 
Q 39.59375 47.171875 37.8125 47.578125 
Q 36.03125 48 33.890625 48 
Q 26.265625 48 22.1875 43.046875 
Q 18.109375 38.09375 18.109375 28.8125 
L 18.109375 0 
L 9.078125 0 
L 9.078125 54.6875 
L 18.109375 54.6875 
L 18.109375 46.1875 
Q 20.953125 51.171875 25.484375 53.578125 
Q 30.03125 56 36.53125 56 
Q 37.453125 56 38.578125 55.875 
Q 39.703125 55.765625 41.0625 55.515625 
z
" id="DejaVuSans-72"/>
      <path d="M 34.28125 27.484375 
Q 23.390625 27.484375 19.1875 25 
Q 14.984375 22.515625 14.984375 16.5 
Q 14.984375 11.71875 18.140625 8.90625 
Q 21.296875 6.109375 26.703125 6.109375 
Q 34.1875 6.109375 38.703125 11.40625 
Q 43.21875 16.703125 43.21875 25.484375 
L 43.21875 27.484375 
z
M 52.203125 31.203125 
L 52.203125 0 
L 43.21875 0 
L 43.21875 8.296875 
Q 40.140625 3.328125 35.546875 0.953125 
Q 30.953125 -1.421875 24.3125 -1.421875 
Q 15.921875 -1.421875 10.953125 3.296875 
Q 6 8.015625 6 15.921875 
Q 6 25.140625 12.171875 29.828125 
Q 18.359375 34.515625 30.609375 34.515625 
L 43.21875 34.515625 
L 43.21875 35.40625 
Q 43.21875 41.609375 39.140625 45 
Q 35.0625 48.390625 27.6875 48.390625 
Q 23 48.390625 18.546875 47.265625 
Q 14.109375 46.140625 10.015625 43.890625 
L 10.015625 52.203125 
Q 14.9375 54.109375 19.578125 55.046875 
Q 24.21875 56 28.609375 56 
Q 40.484375 56 46.34375 49.84375 
Q 52.203125 43.703125 52.203125 31.203125 
z
" id="DejaVuSans-61"/>
      <path d="M 37.109375 75.984375 
L 37.109375 68.5 
L 28.515625 68.5 
Q 23.6875 68.5 21.796875 66.546875 
Q 19.921875 64.59375 19.921875 59.515625 
L 19.921875 54.6875 
L 34.71875 54.6875 
L 34.71875 47.703125 
L 19.921875 47.703125 
L 19.921875 0 
L 10.890625 0 
L 10.890625 47.703125 
L 2.296875 47.703125 
L 2.296875 54.6875 
L 10.890625 54.6875 
L 10.890625 58.5 
Q 10.890625 67.625 15.140625 71.796875 
Q 19.390625 75.984375 28.609375 75.984375 
z
" id="DejaVuSans-66"/>
      <path d="M 9.421875 54.6875 
L 18.40625 54.6875 
L 18.40625 0 
L 9.421875 0 
z
M 9.421875 75.984375 
L 18.40625 75.984375 
L 18.40625 64.59375 
L 9.421875 64.59375 
z
" id="DejaVuSans-69"/>
      <path d="M 48.78125 52.59375 
L 48.78125 44.1875 
Q 44.96875 46.296875 41.140625 47.34375 
Q 37.3125 48.390625 33.40625 48.390625 
Q 24.65625 48.390625 19.8125 42.84375 
Q 14.984375 37.3125 14.984375 27.296875 
Q 14.984375 17.28125 19.8125 11.734375 
Q 24.65625 6.203125 33.40625 6.203125 
Q 37.3125 6.203125 41.140625 7.25 
Q 44.96875 8.296875 48.78125 10.40625 
L 48.78125 2.09375 
Q 45.015625 0.34375 40.984375 -0.53125 
Q 36.96875 -1.421875 32.421875 -1.421875 
Q 20.0625 -1.421875 12.78125 6.34375 
Q 5.515625 14.109375 5.515625 27.296875 
Q 5.515625 40.671875 12.859375 48.328125 
Q 20.21875 56 33.015625 56 
Q 37.15625 56 41.109375 55.140625 
Q 45.0625 54.296875 48.78125 52.59375 
z
" id="DejaVuSans-63"/>
      <path id="DejaVuSans-20"/>
      <path d="M 9.8125 72.90625 
L 19.671875 72.90625 
L 19.671875 0 
L 9.8125 0 
z
" id="DejaVuSans-49"/>
      <path d="M 54.890625 33.015625 
L 54.890625 0 
L 45.90625 0 
L 45.90625 32.71875 
Q 45.90625 40.484375 42.875 44.328125 
Q 39.84375 48.1875 33.796875 48.1875 
Q 26.515625 48.1875 22.3125 43.546875 
Q 18.109375 38.921875 18.109375 30.90625 
L 18.109375 0 
L 9.078125 0 
L 9.078125 54.6875 
L 18.109375 54.6875 
L 18.109375 46.1875 
Q 21.34375 51.125 25.703125 53.5625 
Q 30.078125 56 35.796875 56 
Q 45.21875 56 50.046875 50.171875 
Q 54.890625 44.34375 54.890625 33.015625 
z
" id="DejaVuSans-6e"/>
      <path d="M 18.3125 70.21875 
L 18.3125 54.6875 
L 36.8125 54.6875 
L 36.8125 47.703125 
L 18.3125 47.703125 
L 18.3125 18.015625 
Q 18.3125 11.328125 20.140625 9.421875 
Q 21.96875 7.515625 27.59375 7.515625 
L 36.8125 7.515625 
L 36.8125 0 
L 27.59375 0 
Q 17.1875 0 13.234375 3.875 
Q 9.28125 7.765625 9.28125 18.015625 
L 9.28125 47.703125 
L 2.6875 47.703125 
L 2.6875 54.6875 
L 9.28125 54.6875 
L 9.28125 70.21875 
z
" id="DejaVuSans-74"/>
      <path d="M 56.203125 29.59375 
L 56.203125 25.203125 
L 14.890625 25.203125 
Q 15.484375 15.921875 20.484375 11.0625 
Q 25.484375 6.203125 34.421875 6.203125 
Q 39.59375 6.203125 44.453125 7.46875 
Q 49.3125 8.734375 54.109375 11.28125 
L 54.109375 2.78125 
Q 49.265625 0.734375 44.1875 -0.34375 
Q 39.109375 -1.421875 33.890625 -1.421875 
Q 20.796875 -1.421875 13.15625 6.1875 
Q 5.515625 13.8125 5.515625 26.8125 
Q 5.515625 40.234375 12.765625 48.109375 
Q 20.015625 56 32.328125 56 
Q 43.359375 56 49.78125 48.890625 
Q 56.203125 41.796875 56.203125 29.59375 
z
M 47.21875 32.234375 
Q 47.125 39.59375 43.09375 43.984375 
Q 39.0625 48.390625 32.421875 48.390625 
Q 24.90625 48.390625 20.390625 44.140625 
Q 15.875 39.890625 15.1875 32.171875 
z
" id="DejaVuSans-65"/>
      <path d="M 44.28125 53.078125 
L 44.28125 44.578125 
Q 40.484375 46.53125 36.375 47.5 
Q 32.28125 48.484375 27.875 48.484375 
Q 21.1875 48.484375 17.84375 46.4375 
Q 14.5 44.390625 14.5 40.28125 
Q 14.5 37.15625 16.890625 35.375 
Q 19.28125 33.59375 26.515625 31.984375 
L 29.59375 31.296875 
Q 39.15625 29.25 43.1875 25.515625 
Q 47.21875 21.78125 47.21875 15.09375 
Q 47.21875 7.46875 41.1875 3.015625 
Q 35.15625 -1.421875 24.609375 -1.421875 
Q 20.21875 -1.421875 15.453125 -0.5625 
Q 10.6875 0.296875 5.421875 2 
L 5.421875 11.28125 
Q 10.40625 8.6875 15.234375 7.390625 
Q 20.0625 6.109375 24.8125 6.109375 
Q 31.15625 6.109375 34.5625 8.28125 
Q 37.984375 10.453125 37.984375 14.40625 
Q 37.984375 18.0625 35.515625 20.015625 
Q 33.0625 21.96875 24.703125 23.78125 
L 21.578125 24.515625 
Q 13.234375 26.265625 9.515625 29.90625 
Q 5.8125 33.546875 5.8125 39.890625 
Q 5.8125 47.609375 11.28125 51.796875 
Q 16.75 56 26.8125 56 
Q 31.78125 56 36.171875 55.265625 
Q 40.578125 54.546875 44.28125 53.078125 
z
" id="DejaVuSans-73"/>
      <path d="M 32.171875 -5.078125 
Q 28.375 -14.84375 24.75 -17.8125 
Q 21.140625 -20.796875 15.09375 -20.796875 
L 7.90625 -20.796875 
L 7.90625 -13.28125 
L 13.1875 -13.28125 
Q 16.890625 -13.28125 18.9375 -11.515625 
Q 21 -9.765625 23.484375 -3.21875 
L 25.09375 0.875 
L 2.984375 54.6875 
L 12.5 54.6875 
L 29.59375 11.921875 
L 46.6875 54.6875 
L 56.203125 54.6875 
z
" id="DejaVuSans-79"/>
     </defs>
     <g transform="translate(196.987344 335.860562)scale(0.1 -0.1)">
      <use xlink:href="#DejaVuSans-54"/>
      <use x="60.865234" xlink:href="#DejaVuSans-72"/>
      <use x="101.978516" xlink:href="#DejaVuSans-61"/>
      <use x="163.257812" xlink:href="#DejaVuSans-66"/>
      <use x="198.462891" xlink:href="#DejaVuSans-66"/>
      <use x="233.667969" xlink:href="#DejaVuSans-69"/>
      <use x="261.451172" xlink:href="#DejaVuSans-63"/>
      <use x="316.431641" xlink:href="#DejaVuSans-20"/>
      <use x="348.21875" xlink:href="#DejaVuSans-49"/>
      <use x="377.710938" xlink:href="#DejaVuSans-6e"/>
      <use x="441.089844" xlink:href="#DejaVuSans-74"/>
      <use x="480.298828" xlink:href="#DejaVuSans-6e"/>
      <use x="543.677734" xlink:href="#DejaVuSans-65"/>
      <use x="605.201172" xlink:href="#DejaVuSans-73"/>
      <use x="657.300781" xlink:href="#DejaVuSans-69"/>
      <use x="685.083984" xlink:href="#DejaVuSans-74"/>
      <use x="724.292969" xlink:href="#DejaVuSans-79"/>
     </g>
    </g>
   </g>
   <g id="matplotlib.axis_2">
    <g id="ytick_1">
     <g id="line2d_11">
      <path clip-path="url(#p992859c3ee)" d="M 57.6 295.488997 
L 414.72 295.488997 
" style="fill:none;stroke:#b0b0b0;stroke-linecap:square;stroke-width:0.8;"/>
     </g>
     <g id="line2d_12">
      <defs>
       <path d="M 0 0 
L -3.5 0 
" id="mb936546f82" style="stroke:#000000;stroke-width:0.8;"/>
      </defs>
      <g>
       <use style="stroke:#000000;stroke-width:0.8;" x="57.6" xlink:href="#mb936546f82" y="295.488997"/>
      </g>
     </g>
     <g id="text_7">
      <!-- 0 -->
      <g transform="translate(44.2375 299.288215)scale(0.1 -0.1)">
       <use xlink:href="#DejaVuSans-30"/>
      </g>
     </g>
    </g>
    <g id="ytick_2">
     <g id="line2d_13">
      <path clip-path="url(#p992859c3ee)" d="M 57.6 250.556813 
L 414.72 250.556813 
" style="fill:none;stroke:#b0b0b0;stroke-linecap:square;stroke-width:0.8;"/>
     </g>
     <g id="line2d_14">
      <g>
       <use style="stroke:#000000;stroke-width:0.8;" x="57.6" xlink:href="#mb936546f82" y="250.556813"/>
      </g>
     </g>
     <g id="text_8">
      <!-- 500 -->
      <defs>
       <path d="M 10.796875 72.90625 
L 49.515625 72.90625 
L 49.515625 64.59375 
L 19.828125 64.59375 
L 19.828125 46.734375 
Q 21.96875 47.46875 24.109375 47.828125 
Q 26.265625 48.1875 28.421875 48.1875 
Q 40.625 48.1875 47.75 41.5 
Q 54.890625 34.8125 54.890625 23.390625 
Q 54.890625 11.625 47.5625 5.09375 
Q 40.234375 -1.421875 26.90625 -1.421875 
Q 22.3125 -1.421875 17.546875 -0.640625 
Q 12.796875 0.140625 7.71875 1.703125 
L 7.71875 11.625 
Q 12.109375 9.234375 16.796875 8.0625 
Q 21.484375 6.890625 26.703125 6.890625 
Q 35.15625 6.890625 40.078125 11.328125 
Q 45.015625 15.765625 45.015625 23.390625 
Q 45.015625 31 40.078125 35.4375 
Q 35.15625 39.890625 26.703125 39.890625 
Q 22.75 39.890625 18.8125 39.015625 
Q 14.890625 38.140625 10.796875 36.28125 
z
" id="DejaVuSans-35"/>
      </defs>
      <g transform="translate(31.5125 254.356031)scale(0.1 -0.1)">
       <use xlink:href="#DejaVuSans-35"/>
       <use x="63.623047" xlink:href="#DejaVuSans-30"/>
       <use x="127.246094" xlink:href="#DejaVuSans-30"/>
      </g>
     </g>
    </g>
    <g id="ytick_3">
     <g id="line2d_15">
      <path clip-path="url(#p992859c3ee)" d="M 57.6 205.624629 
L 414.72 205.624629 
" style="fill:none;stroke:#b0b0b0;stroke-linecap:square;stroke-width:0.8;"/>
     </g>
     <g id="line2d_16">
      <g>
       <use style="stroke:#000000;stroke-width:0.8;" x="57.6" xlink:href="#mb936546f82" y="205.624629"/>
      </g>
     </g>
     <g id="text_9">
      <!-- 1000 -->
      <g transform="translate(25.15 209.423847)scale(0.1 -0.1)">
       <use xlink:href="#DejaVuSans-31"/>
       <use x="63.623047" xlink:href="#DejaVuSans-30"/>
       <use x="127.246094" xlink:href="#DejaVuSans-30"/>
       <use x="190.869141" xlink:href="#DejaVuSans-30"/>
      </g>
     </g>
    </g>
    <g id="ytick_4">
     <g id="line2d_17">
      <path clip-path="url(#p992859c3ee)" d="M 57.6 160.692445 
L 414.72 160.692445 
" style="fill:none;stroke:#b0b0b0;stroke-linecap:square;stroke-width:0.8;"/>
     </g>
     <g id="line2d_18">
      <g>
       <use style="stroke:#000000;stroke-width:0.8;" x="57.6" xlink:href="#mb936546f82" y="160.692445"/>
      </g>
     </g>
     <g id="text_10">
      <!-- 1500 -->
      <g transform="translate(25.15 164.491664)scale(0.1 -0.1)">
       <use xlink:href="#DejaVuSans-31"/>
       <use x="63.623047" xlink:href="#DejaVuSans-35"/>
       <use x="127.246094" xlink:href="#DejaVuSans-30"/>
       <use x="190.869141" xlink:href="#DejaVuSans-30"/>
      </g>
     </g>
    </g>
    <g id="ytick_5">
     <g id="line2d_19">
      <path clip-path="url(#p992859c3ee)" d="M 57.6 115.760261 
L 414.72 115.760261 
" style="fill:none;stroke:#b0b0b0;stroke-linecap:square;stroke-width:0.8;"/>
     </g>
     <g id="line2d_20">
      <g>
       <use style="stroke:#000000;stroke-width:0.8;" x="57.6" xlink:href="#mb936546f82" y="115.760261"/>
      </g>
     </g>
     <g id="text_11">
      <!-- 2000 -->
      <g transform="translate(25.15 119.55948)scale(0.1 -0.1)">
       <use xlink:href="#DejaVuSans-32"/>
       <use x="63.623047" xlink:href="#DejaVuSans-30"/>
       <use x="127.246094" xlink:href="#DejaVuSans-30"/>
       <use x="190.869141" xlink:href="#DejaVuSans-30"/>
      </g>
     </g>
    </g>
    <g id="ytick_6">
     <g id="line2d_21">
      <path clip-path="url(#p992859c3ee)" d="M 57.6 70.828077 
L 414.72 70.828077 
" style="fill:none;stroke:#b0b0b0;stroke-linecap:square;stroke-width:0.8;"/>
     </g>
     <g id="line2d_22">
      <g>
       <use style="stroke:#000000;stroke-width:0.8;" x="57.6" xlink:href="#mb936546f82" y="70.828077"/>
      </g>
     </g>
     <g id="text_12">
      <!-- 2500 -->
      <g transform="translate(25.15 74.627296)scale(0.1 -0.1)">
       <use xlink:href="#DejaVuSans-32"/>
       <use x="63.623047" xlink:href="#DejaVuSans-35"/>
       <use x="127.246094" xlink:href="#DejaVuSans-30"/>
       <use x="190.869141" xlink:href="#DejaVuSans-30"/>
      </g>
     </g>
    </g>
    <g id="text_13">
     <!-- Average Total Queue Length - - E[Q11 + Q22 + Q12 + Q21] -->
     <defs>
      <path d="M 34.1875 63.1875 
L 20.796875 26.90625 
L 47.609375 26.90625 
z
M 28.609375 72.90625 
L 39.796875 72.90625 
L 67.578125 0 
L 57.328125 0 
L 50.6875 18.703125 
L 17.828125 18.703125 
L 11.1875 0 
L 0.78125 0 
z
" id="DejaVuSans-41"/>
      <path d="M 2.984375 54.6875 
L 12.5 54.6875 
L 29.59375 8.796875 
L 46.6875 54.6875 
L 56.203125 54.6875 
L 35.6875 0 
L 23.484375 0 
z
" id="DejaVuSans-76"/>
      <path d="M 45.40625 27.984375 
Q 45.40625 37.75 41.375 43.109375 
Q 37.359375 48.484375 30.078125 48.484375 
Q 22.859375 48.484375 18.828125 43.109375 
Q 14.796875 37.75 14.796875 27.984375 
Q 14.796875 18.265625 18.828125 12.890625 
Q 22.859375 7.515625 30.078125 7.515625 
Q 37.359375 7.515625 41.375 12.890625 
Q 45.40625 18.265625 45.40625 27.984375 
z
M 54.390625 6.78125 
Q 54.390625 -7.171875 48.1875 -13.984375 
Q 42 -20.796875 29.203125 -20.796875 
Q 24.46875 -20.796875 20.265625 -20.09375 
Q 16.0625 -19.390625 12.109375 -17.921875 
L 12.109375 -9.1875 
Q 16.0625 -11.328125 19.921875 -12.34375 
Q 23.78125 -13.375 27.78125 -13.375 
Q 36.625 -13.375 41.015625 -8.765625 
Q 45.40625 -4.15625 45.40625 5.171875 
L 45.40625 9.625 
Q 42.625 4.78125 38.28125 2.390625 
Q 33.9375 0 27.875 0 
Q 17.828125 0 11.671875 7.65625 
Q 5.515625 15.328125 5.515625 27.984375 
Q 5.515625 40.671875 11.671875 48.328125 
Q 17.828125 56 27.875 56 
Q 33.9375 56 38.28125 53.609375 
Q 42.625 51.21875 45.40625 46.390625 
L 45.40625 54.6875 
L 54.390625 54.6875 
z
" id="DejaVuSans-67"/>
      <path d="M 30.609375 48.390625 
Q 23.390625 48.390625 19.1875 42.75 
Q 14.984375 37.109375 14.984375 27.296875 
Q 14.984375 17.484375 19.15625 11.84375 
Q 23.34375 6.203125 30.609375 6.203125 
Q 37.796875 6.203125 41.984375 11.859375 
Q 46.1875 17.53125 46.1875 27.296875 
Q 46.1875 37.015625 41.984375 42.703125 
Q 37.796875 48.390625 30.609375 48.390625 
z
M 30.609375 56 
Q 42.328125 56 49.015625 48.375 
Q 55.71875 40.765625 55.71875 27.296875 
Q 55.71875 13.875 49.015625 6.21875 
Q 42.328125 -1.421875 30.609375 -1.421875 
Q 18.84375 -1.421875 12.171875 6.21875 
Q 5.515625 13.875 5.515625 27.296875 
Q 5.515625 40.765625 12.171875 48.375 
Q 18.84375 56 30.609375 56 
z
" id="DejaVuSans-6f"/>
      <path d="M 9.421875 75.984375 
L 18.40625 75.984375 
L 18.40625 0 
L 9.421875 0 
z
" id="DejaVuSans-6c"/>
      <path d="M 39.40625 66.21875 
Q 28.65625 66.21875 22.328125 58.203125 
Q 16.015625 50.203125 16.015625 36.375 
Q 16.015625 22.609375 22.328125 14.59375 
Q 28.65625 6.59375 39.40625 6.59375 
Q 50.140625 6.59375 56.421875 14.59375 
Q 62.703125 22.609375 62.703125 36.375 
Q 62.703125 50.203125 56.421875 58.203125 
Q 50.140625 66.21875 39.40625 66.21875 
z
M 53.21875 1.3125 
L 66.21875 -12.890625 
L 54.296875 -12.890625 
L 43.5 -1.21875 
Q 41.890625 -1.3125 41.03125 -1.359375 
Q 40.1875 -1.421875 39.40625 -1.421875 
Q 24.03125 -1.421875 14.8125 8.859375 
Q 5.609375 19.140625 5.609375 36.375 
Q 5.609375 53.65625 14.8125 63.9375 
Q 24.03125 74.21875 39.40625 74.21875 
Q 54.734375 74.21875 63.90625 63.9375 
Q 73.09375 53.65625 73.09375 36.375 
Q 73.09375 23.6875 67.984375 14.640625 
Q 62.890625 5.609375 53.21875 1.3125 
z
" id="DejaVuSans-51"/>
      <path d="M 8.5 21.578125 
L 8.5 54.6875 
L 17.484375 54.6875 
L 17.484375 21.921875 
Q 17.484375 14.15625 20.5 10.265625 
Q 23.53125 6.390625 29.59375 6.390625 
Q 36.859375 6.390625 41.078125 11.03125 
Q 45.3125 15.671875 45.3125 23.6875 
L 45.3125 54.6875 
L 54.296875 54.6875 
L 54.296875 0 
L 45.3125 0 
L 45.3125 8.40625 
Q 42.046875 3.421875 37.71875 1 
Q 33.40625 -1.421875 27.6875 -1.421875 
Q 18.265625 -1.421875 13.375 4.4375 
Q 8.5 10.296875 8.5 21.578125 
z
M 31.109375 56 
z
" id="DejaVuSans-75"/>
      <path d="M 9.8125 72.90625 
L 19.671875 72.90625 
L 19.671875 8.296875 
L 55.171875 8.296875 
L 55.171875 0 
L 9.8125 0 
z
" id="DejaVuSans-4c"/>
      <path d="M 54.890625 33.015625 
L 54.890625 0 
L 45.90625 0 
L 45.90625 32.71875 
Q 45.90625 40.484375 42.875 44.328125 
Q 39.84375 48.1875 33.796875 48.1875 
Q 26.515625 48.1875 22.3125 43.546875 
Q 18.109375 38.921875 18.109375 30.90625 
L 18.109375 0 
L 9.078125 0 
L 9.078125 75.984375 
L 18.109375 75.984375 
L 18.109375 46.1875 
Q 21.34375 51.125 25.703125 53.5625 
Q 30.078125 56 35.796875 56 
Q 45.21875 56 50.046875 50.171875 
Q 54.890625 44.34375 54.890625 33.015625 
z
" id="DejaVuSans-68"/>
      <path d="M 4.890625 31.390625 
L 31.203125 31.390625 
L 31.203125 23.390625 
L 4.890625 23.390625 
z
" id="DejaVuSans-2d"/>
      <path d="M 9.8125 72.90625 
L 55.90625 72.90625 
L 55.90625 64.59375 
L 19.671875 64.59375 
L 19.671875 43.015625 
L 54.390625 43.015625 
L 54.390625 34.71875 
L 19.671875 34.71875 
L 19.671875 8.296875 
L 56.78125 8.296875 
L 56.78125 0 
L 9.8125 0 
z
" id="DejaVuSans-45"/>
      <path d="M 8.59375 75.984375 
L 29.296875 75.984375 
L 29.296875 69 
L 17.578125 69 
L 17.578125 -6.203125 
L 29.296875 -6.203125 
L 29.296875 -13.1875 
L 8.59375 -13.1875 
z
" id="DejaVuSans-5b"/>
      <path d="M 46 62.703125 
L 46 35.5 
L 73.1875 35.5 
L 73.1875 27.203125 
L 46 27.203125 
L 46 0 
L 37.796875 0 
L 37.796875 27.203125 
L 10.59375 27.203125 
L 10.59375 35.5 
L 37.796875 35.5 
L 37.796875 62.703125 
z
" id="DejaVuSans-2b"/>
      <path d="M 30.421875 75.984375 
L 30.421875 -13.1875 
L 9.71875 -13.1875 
L 9.71875 -6.203125 
L 21.390625 -6.203125 
L 21.390625 69 
L 9.71875 69 
L 9.71875 75.984375 
z
" id="DejaVuSans-5d"/>
     </defs>
     <g transform="translate(19.070312 323.535813)rotate(-90)scale(0.1 -0.1)">
      <use xlink:href="#DejaVuSans-41"/>
      <use x="68.330078" xlink:href="#DejaVuSans-76"/>
      <use x="127.509766" xlink:href="#DejaVuSans-65"/>
      <use x="189.033203" xlink:href="#DejaVuSans-72"/>
      <use x="230.146484" xlink:href="#DejaVuSans-61"/>
      <use x="291.425781" xlink:href="#DejaVuSans-67"/>
      <use x="354.902344" xlink:href="#DejaVuSans-65"/>
      <use x="416.425781" xlink:href="#DejaVuSans-20"/>
      <use x="448.212891" xlink:href="#DejaVuSans-54"/>
      <use x="509.03125" xlink:href="#DejaVuSans-6f"/>
      <use x="570.212891" xlink:href="#DejaVuSans-74"/>
      <use x="609.421875" xlink:href="#DejaVuSans-61"/>
      <use x="670.701172" xlink:href="#DejaVuSans-6c"/>
      <use x="698.484375" xlink:href="#DejaVuSans-20"/>
      <use x="730.271484" xlink:href="#DejaVuSans-51"/>
      <use x="808.982422" xlink:href="#DejaVuSans-75"/>
      <use x="872.361328" xlink:href="#DejaVuSans-65"/>
      <use x="933.884766" xlink:href="#DejaVuSans-75"/>
      <use x="997.263672" xlink:href="#DejaVuSans-65"/>
      <use x="1058.787109" xlink:href="#DejaVuSans-20"/>
      <use x="1090.574219" xlink:href="#DejaVuSans-4c"/>
      <use x="1146.271484" xlink:href="#DejaVuSans-65"/>
      <use x="1207.794922" xlink:href="#DejaVuSans-6e"/>
      <use x="1271.173828" xlink:href="#DejaVuSans-67"/>
      <use x="1334.650391" xlink:href="#DejaVuSans-74"/>
      <use x="1373.859375" xlink:href="#DejaVuSans-68"/>
      <use x="1437.238281" xlink:href="#DejaVuSans-20"/>
      <use x="1469.025391" xlink:href="#DejaVuSans-2d"/>
      <use x="1505.109375" xlink:href="#DejaVuSans-2d"/>
      <use x="1541.193359" xlink:href="#DejaVuSans-20"/>
      <use x="1572.980469" xlink:href="#DejaVuSans-45"/>
      <use x="1636.164062" xlink:href="#DejaVuSans-5b"/>
      <use x="1675.177734" xlink:href="#DejaVuSans-51"/>
      <use x="1753.888672" xlink:href="#DejaVuSans-31"/>
      <use x="1817.511719" xlink:href="#DejaVuSans-31"/>
      <use x="1881.134766" xlink:href="#DejaVuSans-20"/>
      <use x="1912.921875" xlink:href="#DejaVuSans-2b"/>
      <use x="1996.710938" xlink:href="#DejaVuSans-20"/>
      <use x="2028.498047" xlink:href="#DejaVuSans-51"/>
      <use x="2107.208984" xlink:href="#DejaVuSans-32"/>
      <use x="2170.832031" xlink:href="#DejaVuSans-32"/>
      <use x="2234.455078" xlink:href="#DejaVuSans-20"/>
      <use x="2266.242188" xlink:href="#DejaVuSans-2b"/>
      <use x="2350.03125" xlink:href="#DejaVuSans-20"/>
      <use x="2381.818359" xlink:href="#DejaVuSans-51"/>
      <use x="2460.529297" xlink:href="#DejaVuSans-31"/>
      <use x="2524.152344" xlink:href="#DejaVuSans-32"/>
      <use x="2587.775391" xlink:href="#DejaVuSans-20"/>
      <use x="2619.5625" xlink:href="#DejaVuSans-2b"/>
      <use x="2703.351562" xlink:href="#DejaVuSans-20"/>
      <use x="2735.138672" xlink:href="#DejaVuSans-51"/>
      <use x="2813.849609" xlink:href="#DejaVuSans-32"/>
      <use x="2877.472656" xlink:href="#DejaVuSans-31"/>
      <use x="2941.095703" xlink:href="#DejaVuSans-5d"/>
     </g>
    </g>
   </g>
   <g id="line2d_23">
    <path clip-path="url(#p992859c3ee)" d="M 73.832727 295.488 
L 109.94558 295.484531 
L 146.058433 295.477674 
L 182.171285 295.466132 
L 218.284138 295.447459 
L 254.396991 295.417324 
L 290.509843 295.365226 
L 326.622696 295.258 
L 362.735549 294.930567 
L 366.346834 294.856165 
L 366.707962 294.84698 
L 367.069091 294.841148 
L 367.430219 294.828949 
L 367.791348 294.821776 
L 368.152476 294.812397 
L 368.513605 294.802773 
L 368.874734 294.795004 
L 369.235862 294.785859 
L 369.596991 294.776753 
L 369.958119 294.765593 
L 370.319248 294.754435 
L 370.680376 294.74109 
L 371.041505 294.731763 
L 371.402633 294.718546 
L 371.763762 294.703143 
L 372.12489 294.696865 
L 372.486019 294.679005 
L 372.847147 294.671004 
L 373.208276 294.658448 
L 373.569404 294.644736 
L 373.930533 294.62913 
L 374.291661 294.617864 
L 374.65279 294.602342 
L 375.013918 294.587001 
L 375.375047 294.572354 
L 375.736176 294.555169 
L 376.097304 294.539621 
L 376.458433 294.528371 
L 376.819561 294.500247 
L 377.18069 294.4758 
L 377.541818 294.463418 
L 377.902947 294.454392 
L 378.264075 294.430787 
L 378.625204 294.406216 
L 378.986332 294.383505 
L 379.347461 294.365393 
L 379.708589 294.339308 
L 380.069718 294.310814 
L 380.430846 294.287886 
L 380.791975 294.26193 
L 381.153103 294.232166 
L 381.514232 294.197065 
L 381.875361 294.18768 
L 382.236489 294.148532 
L 382.597618 294.114531 
L 382.958746 294.089183 
L 383.319875 294.029004 
L 383.681003 294.005791 
L 384.042132 293.97474 
L 384.40326 293.923762 
L 384.764389 293.895918 
L 385.125517 293.834774 
L 385.486646 293.809484 
L 385.847774 293.745366 
L 386.208903 293.672221 
L 386.570031 293.60229 
L 386.93116 293.564528 
L 387.292288 293.514911 
L 387.653417 293.448533 
L 388.014545 293.368515 
L 388.375674 293.289685 
L 388.736803 293.249243 
L 389.097931 293.129997 
L 389.45906 293.002325 
L 389.820188 292.916506 
L 390.181317 292.817425 
L 390.542445 292.716559 
L 390.903574 292.592351 
L 391.264702 292.37754 
L 391.625831 292.186714 
L 391.986959 292.002621 
L 392.348088 291.836196 
L 392.709216 291.617057 
L 393.070345 291.386108 
L 393.431473 291.162473 
L 393.792602 290.782466 
L 394.15373 290.400506 
L 394.514859 290.227 
L 394.875987 289.253289 
L 395.237116 288.915845 
L 395.598245 288.254552 
L 395.959373 287.098709 
L 396.320502 285.607469 
L 396.68163 283.536754 
L 397.042759 281.352831 
L 397.403887 279.472336 
L 397.765016 268.301011 
L 398.126144 258.903709 
L 398.487273 225.471808 
" style="fill:none;stroke:#1f77b4;stroke-linecap:square;stroke-width:4;"/>
   </g>
   <g id="line2d_24">
    <path clip-path="url(#p992859c3ee)" d="M 73.832727 295.488 
L 109.94558 295.484529 
L 146.058433 295.47761 
L 182.171285 295.465724 
L 218.284138 295.446359 
L 254.396991 295.414227 
L 290.509843 295.358473 
L 326.622696 295.245736 
L 362.735549 294.907811 
L 366.346834 294.829968 
L 366.707962 294.825834 
L 367.069091 294.817208 
L 367.430219 294.807058 
L 367.791348 294.795334 
L 368.152476 294.788063 
L 368.513605 294.779742 
L 368.874734 294.772414 
L 369.235862 294.758554 
L 369.596991 294.75061 
L 369.958119 294.737692 
L 370.319248 294.725612 
L 370.680376 294.719027 
L 371.041505 294.704488 
L 371.402633 294.690792 
L 371.763762 294.681057 
L 372.12489 294.672254 
L 372.486019 294.657912 
L 372.847147 294.639078 
L 373.208276 294.63299 
L 373.569404 294.621265 
L 373.930533 294.600307 
L 374.291661 294.59347 
L 374.65279 294.573888 
L 375.013918 294.55528 
L 375.375047 294.547378 
L 375.736176 294.527782 
L 376.097304 294.508104 
L 376.458433 294.499493 
L 376.819561 294.465415 
L 377.18069 294.45936 
L 377.541818 294.429516 
L 377.902947 294.414318 
L 378.264075 294.397436 
L 378.625204 294.372184 
L 378.986332 294.361159 
L 379.347461 294.337361 
L 379.708589 294.309177 
L 380.069718 294.278424 
L 380.430846 294.25988 
L 380.791975 294.222752 
L 381.153103 294.204721 
L 381.514232 294.169522 
L 381.875361 294.143378 
L 382.236489 294.115157 
L 382.597618 294.057559 
L 382.958746 294.055969 
L 383.319875 294.01588 
L 383.681003 293.980215 
L 384.042132 293.92849 
L 384.40326 293.899444 
L 384.764389 293.873677 
L 385.125517 293.799188 
L 385.486646 293.740935 
L 385.847774 293.714933 
L 386.208903 293.665114 
L 386.570031 293.58643 
L 386.93116 293.544568 
L 387.292288 293.433575 
L 387.653417 293.39674 
L 388.014545 293.323811 
L 388.375674 293.216214 
L 388.736803 293.191416 
L 389.097931 293.094841 
L 389.45906 292.990744 
L 389.820188 292.920285 
L 390.181317 292.777222 
L 390.542445 292.596443 
L 390.903574 292.461528 
L 391.264702 292.369244 
L 391.625831 292.24809 
L 391.986959 292.052362 
L 392.348088 291.871171 
L 392.709216 291.563133 
L 393.070345 291.517371 
L 393.431473 290.920667 
L 393.792602 290.686451 
L 394.15373 290.447549 
L 394.514859 289.938911 
L 394.875987 289.341222 
L 395.237116 288.892426 
L 395.598245 287.955119 
L 395.959373 287.362995 
L 396.320502 285.960044 
L 396.68163 284.592847 
L 397.042759 282.79753 
L 397.403887 277.170469 
L 397.765016 272.36536 
L 398.126144 263.911687 
L 398.487273 228.463192 
" style="fill:none;stroke:#ff7f0e;stroke-linecap:square;stroke-width:2;"/>
   </g>
   <g id="line2d_25">
    <path clip-path="url(#p992859c3ee)" d="M 73.832727 295.487995 
L 109.94558 295.484521 
L 146.058433 295.477522 
L 182.171285 295.465308 
L 218.284138 295.444654 
L 254.396991 295.409 
L 290.509843 295.341321 
L 326.622696 295.184459 
L 362.735549 294.601517 
L 366.346834 294.430797 
L 366.707962 294.401675 
L 367.069091 294.39357 
L 367.430219 294.365035 
L 367.791348 294.351319 
L 368.152476 294.33838 
L 368.513605 294.335188 
L 368.874734 294.304414 
L 369.235862 294.294241 
L 369.596991 294.255391 
L 369.958119 294.223792 
L 370.319248 294.188975 
L 370.680376 294.152946 
L 371.041505 294.164904 
L 371.402633 294.142174 
L 371.763762 294.117536 
L 372.12489 294.058683 
L 372.486019 294.021321 
L 372.847147 294.022364 
L 373.208276 293.969986 
L 373.569404 293.988128 
L 373.930533 293.930441 
L 374.291661 293.896054 
L 374.65279 293.835013 
L 375.013918 293.795603 
L 375.375047 293.746008 
L 375.736176 293.724129 
L 376.097304 293.692058 
L 376.458433 293.689443 
L 376.819561 293.568647 
L 377.18069 293.562908 
L 377.541818 293.502455 
L 377.902947 293.482364 
L 378.264075 293.37623 
L 378.625204 293.360482 
L 378.986332 293.378597 
L 379.347461 293.154293 
L 379.708589 293.192878 
L 380.069718 293.159734 
L 380.430846 293.120928 
L 380.791975 293.011868 
L 381.153103 292.987417 
L 381.514232 292.798262 
L 381.875361 292.655127 
L 382.236489 292.605614 
L 382.597618 292.482966 
L 382.958746 292.502481 
L 383.319875 292.211138 
L 383.681003 292.108563 
L 384.042132 292.319039 
L 384.40326 292.033768 
L 384.764389 291.919531 
L 385.125517 291.670541 
L 385.486646 291.667282 
L 385.847774 291.331428 
L 386.208903 291.373468 
L 386.570031 290.944235 
L 386.93116 291.172592 
L 387.292288 290.456781 
L 387.653417 290.365625 
L 388.014545 290.570485 
L 388.375674 289.290852 
L 388.736803 289.898913 
L 389.097931 288.835924 
L 389.45906 288.684649 
L 389.820188 288.118793 
L 390.181317 288.252484 
L 390.542445 287.476839 
L 390.903574 286.225983 
L 391.264702 287.106143 
L 391.625831 286.767292 
L 391.986959 283.838674 
L 392.348088 284.446737 
L 392.709216 283.67792 
L 393.070345 281.95077 
L 393.431473 282.550544 
L 393.792602 277.36198 
L 394.15373 277.741222 
L 394.514859 276.123099 
L 394.875987 276.3704 
L 395.237116 252.118443 
L 395.598245 269.756429 
L 395.959373 252.492484 
L 396.320502 253.042448 
L 396.68163 250.199611 
L 397.042759 239.464935 
L 397.403887 238.438932 
L 397.765016 234.701875 
L 398.126144 195.011719 
L 398.487273 104.055315 
" style="fill:none;stroke:#2ca02c;stroke-linecap:square;stroke-width:2;"/>
   </g>
   <g id="line2d_26">
    <path clip-path="url(#p992859c3ee)" d="M 73.832727 295.487997 
L 109.94558 295.484558 
L 146.058433 295.477732 
L 182.171285 295.466224 
L 218.284138 295.447953 
L 254.396991 295.419211 
L 290.509843 295.370846 
L 326.622696 295.275316 
L 362.735549 294.989697 
L 366.346834 294.923935 
L 366.707962 294.920849 
L 367.069091 294.910966 
L 367.430219 294.905244 
L 367.791348 294.894793 
L 368.152476 294.8878 
L 368.513605 294.880742 
L 368.874734 294.872736 
L 369.235862 294.867766 
L 369.596991 294.855055 
L 369.958119 294.847877 
L 370.319248 294.836299 
L 370.680376 294.826066 
L 371.041505 294.820902 
L 371.402633 294.807171 
L 371.763762 294.801057 
L 372.12489 294.788388 
L 372.486019 294.77862 
L 372.847147 294.766764 
L 373.208276 294.751608 
L 373.569404 294.742766 
L 373.930533 294.733046 
L 374.291661 294.720489 
L 374.65279 294.702231 
L 375.013918 294.696673 
L 375.375047 294.678866 
L 375.736176 294.665034 
L 376.097304 294.651784 
L 376.458433 294.634586 
L 376.819561 294.622778 
L 377.18069 294.60454 
L 377.541818 294.592364 
L 377.902947 294.573483 
L 378.264075 294.556999 
L 378.625204 294.536704 
L 378.986332 294.520517 
L 379.347461 294.496141 
L 379.708589 294.476875 
L 380.069718 294.467115 
L 380.430846 294.434264 
L 380.791975 294.415381 
L 381.153103 294.39289 
L 381.514232 294.368287 
L 381.875361 294.344787 
L 382.236489 294.318468 
L 382.597618 294.283005 
L 382.958746 294.261766 
L 383.319875 294.234645 
L 383.681003 294.201429 
L 384.042132 294.180574 
L 384.40326 294.114564 
L 384.764389 294.097678 
L 385.125517 294.05499 
L 385.486646 294.020427 
L 385.847774 293.97047 
L 386.208903 293.921229 
L 386.570031 293.857344 
L 386.93116 293.814774 
L 387.292288 293.785682 
L 387.653417 293.699086 
L 388.014545 293.642867 
L 388.375674 293.596946 
L 388.736803 293.493064 
L 389.097931 293.439405 
L 389.45906 293.339508 
L 389.820188 293.256447 
L 390.181317 293.182341 
L 390.542445 293.07451 
L 390.903574 292.941341 
L 391.264702 292.807967 
L 391.625831 292.702529 
L 391.986959 292.494144 
L 392.348088 292.378896 
L 392.709216 292.134655 
L 393.070345 291.897688 
L 393.431473 291.634091 
L 393.792602 291.497124 
L 394.15373 291.11788 
L 394.514859 290.765981 
L 394.875987 290.254163 
L 395.237116 289.633327 
L 395.598245 289.086443 
L 395.959373 288.324112 
L 396.320502 287.647643 
L 396.68163 285.883325 
L 397.042759 283.503308 
L 397.403887 280.353725 
L 397.765016 277.15708 
L 398.126144 270.704453 
L 398.487273 220.888577 
" style="fill:none;stroke:#d62728;stroke-linecap:square;stroke-width:2;"/>
   </g>
   <g id="line2d_27">
    <path clip-path="url(#p992859c3ee)" d="M 73.832727 295.487998 
L 109.94558 295.484517 
L 146.058433 295.477526 
L 182.171285 295.465203 
L 218.284138 295.444022 
L 254.396991 295.406192 
L 290.509843 295.333131 
L 326.622696 295.159915 
L 362.735549 294.501925 
L 366.346834 294.328174 
L 366.707962 294.308248 
L 367.069091 294.298286 
L 367.430219 294.299266 
L 367.791348 294.251139 
L 368.152476 294.22873 
L 368.513605 294.2043 
L 368.874734 294.183372 
L 369.235862 294.177322 
L 369.596991 294.156116 
L 369.958119 294.126788 
L 370.319248 294.076571 
L 370.680376 294.046165 
L 371.041505 294.032957 
L 371.402633 294.001335 
L 371.763762 293.977318 
L 372.12489 293.919058 
L 372.486019 293.898396 
L 372.847147 293.870538 
L 373.208276 293.834445 
L 373.569404 293.798973 
L 373.930533 293.760524 
L 374.291661 293.713029 
L 374.65279 293.693777 
L 375.013918 293.683544 
L 375.375047 293.615384 
L 375.736176 293.59072 
L 376.097304 293.560589 
L 376.458433 293.478437 
L 376.819561 293.42538 
L 377.18069 293.376652 
L 377.541818 293.397995 
L 377.902947 293.283462 
L 378.264075 293.216127 
L 378.625204 293.107869 
L 378.986332 293.111286 
L 379.347461 293.052051 
L 379.708589 292.970191 
L 380.069718 292.863021 
L 380.430846 292.805316 
L 380.791975 292.725134 
L 381.153103 292.698858 
L 381.514232 292.568769 
L 381.875361 292.531825 
L 382.236489 292.420073 
L 382.597618 292.341367 
L 382.958746 292.120247 
L 383.319875 292.072751 
L 383.681003 291.911964 
L 384.042132 291.991675 
L 384.40326 291.636116 
L 384.764389 291.362248 
L 385.125517 291.517361 
L 385.486646 291.451921 
L 385.847774 290.930461 
L 386.208903 290.730907 
L 386.570031 290.479537 
L 386.93116 290.538981 
L 387.292288 290.328229 
L 387.653417 290.293296 
L 388.014545 289.723732 
L 388.375674 289.611015 
L 388.736803 288.945064 
L 389.097931 289.273696 
L 389.45906 288.210768 
L 389.820188 288.076888 
L 390.181317 287.624133 
L 390.542445 287.73176 
L 390.903574 286.237491 
L 391.264702 285.985354 
L 391.625831 285.15088 
L 391.986959 284.313367 
L 392.348088 281.929178 
L 392.709216 282.648108 
L 393.070345 279.794224 
L 393.431473 280.841461 
L 393.792602 280.208508 
L 394.15373 274.201392 
L 394.514859 276.061762 
L 394.875987 273.26888 
L 395.237116 270.239292 
L 395.598245 266.963228 
L 395.959373 264.405264 
L 396.320502 270.014521 
L 396.68163 255.394816 
L 397.042759 185.385206 
L 397.403887 209.931152 
L 397.765016 240.080321 
L 398.126144 202.451226 
L 398.487273 53.568 
" style="fill:none;stroke:#9467bd;stroke-linecap:square;stroke-width:2;"/>
   </g>
   <g id="line2d_28">
    <path clip-path="url(#p992859c3ee)" d="M 73.832727 295.487997 
L 109.94558 295.484523 
L 146.058433 295.477662 
L 182.171285 295.465934 
L 218.284138 295.446944 
L 254.396991 295.416041 
L 290.509843 295.362053 
L 326.622696 295.252256 
L 362.735549 294.92207 
L 366.346834 294.848189 
L 366.707962 294.839152 
L 367.069091 294.83102 
L 367.430219 294.819893 
L 367.791348 294.817092 
L 368.152476 294.804064 
L 368.513605 294.797251 
L 368.874734 294.785681 
L 369.235862 294.776203 
L 369.596991 294.765469 
L 369.958119 294.756476 
L 370.319248 294.74764 
L 370.680376 294.735218 
L 371.041505 294.724273 
L 371.402633 294.714174 
L 371.763762 294.69617 
L 372.12489 294.690794 
L 372.486019 294.673434 
L 372.847147 294.662079 
L 373.208276 294.649121 
L 373.569404 294.636374 
L 373.930533 294.622076 
L 374.291661 294.607736 
L 374.65279 294.596483 
L 375.013918 294.57935 
L 375.375047 294.573078 
L 375.736176 294.542131 
L 376.097304 294.524882 
L 376.458433 294.516487 
L 376.819561 294.489404 
L 377.18069 294.486667 
L 377.541818 294.460169 
L 377.902947 294.437918 
L 378.264075 294.42752 
L 378.625204 294.396225 
L 378.986332 294.390438 
L 379.347461 294.36426 
L 379.708589 294.327148 
L 380.069718 294.303695 
L 380.430846 294.286121 
L 380.791975 294.257423 
L 381.153103 294.233121 
L 381.514232 294.203391 
L 381.875361 294.164986 
L 382.236489 294.141351 
L 382.597618 294.111227 
L 382.958746 294.070666 
L 383.319875 294.052168 
L 383.681003 294.0014 
L 384.042132 293.966542 
L 384.40326 293.917292 
L 384.764389 293.877029 
L 385.125517 293.838228 
L 385.486646 293.779517 
L 385.847774 293.744402 
L 386.208903 293.678725 
L 386.570031 293.60805 
L 386.93116 293.534106 
L 387.292288 293.497061 
L 387.653417 293.440026 
L 388.014545 293.354829 
L 388.375674 293.295759 
L 388.736803 293.200895 
L 389.097931 293.121926 
L 389.45906 293.022816 
L 389.820188 292.881302 
L 390.181317 292.829339 
L 390.542445 292.683603 
L 390.903574 292.545157 
L 391.264702 292.366513 
L 391.625831 292.22524 
L 391.986959 292.043813 
L 392.348088 291.799274 
L 392.709216 291.610848 
L 393.070345 291.499836 
L 393.431473 291.149387 
L 393.792602 290.860093 
L 394.15373 290.507172 
L 394.514859 290.070091 
L 394.875987 289.360907 
L 395.237116 288.908247 
L 395.598245 288.332933 
L 395.959373 287.085631 
L 396.320502 285.587525 
L 396.68163 284.436912 
L 397.042759 281.979121 
L 397.403887 278.413081 
L 397.765016 270.547767 
L 398.126144 260.57341 
L 398.487273 233.178285 
" style="fill:none;stroke:#8c564b;stroke-linecap:square;stroke-width:2;"/>
   </g>
   <g id="patch_3">
    <path d="M 57.6 307.584 
L 57.6 41.472 
" style="fill:none;stroke:#000000;stroke-linecap:square;stroke-linejoin:miter;stroke-width:0.8;"/>
   </g>
   <g id="patch_4">
    <path d="M 414.72 307.584 
L 414.72 41.472 
" style="fill:none;stroke:#000000;stroke-linecap:square;stroke-linejoin:miter;stroke-width:0.8;"/>
   </g>
   <g id="patch_5">
    <path d="M 57.6 307.584 
L 414.72 307.584 
" style="fill:none;stroke:#000000;stroke-linecap:square;stroke-linejoin:miter;stroke-width:0.8;"/>
   </g>
   <g id="patch_6">
    <path d="M 57.6 41.472 
L 414.72 41.472 
" style="fill:none;stroke:#000000;stroke-linecap:square;stroke-linejoin:miter;stroke-width:0.8;"/>
   </g>
   <g id="text_14">
    <!-- E[Q11 + Q22 + Q12 + Q21] vs Traffic Intensity, Vs Value: [0.5, 0.5, 0.5, 0.5] -->
    <defs>
     <path d="M 11.71875 12.40625 
L 22.015625 12.40625 
L 22.015625 4 
L 14.015625 -11.625 
L 7.71875 -11.625 
L 11.71875 4 
z
" id="DejaVuSans-2c"/>
     <path d="M 28.609375 0 
L 0.78125 72.90625 
L 11.078125 72.90625 
L 34.1875 11.53125 
L 57.328125 72.90625 
L 67.578125 72.90625 
L 39.796875 0 
z
" id="DejaVuSans-56"/>
     <path d="M 11.71875 12.40625 
L 22.015625 12.40625 
L 22.015625 0 
L 11.71875 0 
z
M 11.71875 51.703125 
L 22.015625 51.703125 
L 22.015625 39.3125 
L 11.71875 39.3125 
z
" id="DejaVuSans-3a"/>
    </defs>
    <g transform="translate(6.126563 35.472)scale(0.12 -0.12)">
     <use xlink:href="#DejaVuSans-45"/>
     <use x="63.183594" xlink:href="#DejaVuSans-5b"/>
     <use x="102.197266" xlink:href="#DejaVuSans-51"/>
     <use x="180.908203" xlink:href="#DejaVuSans-31"/>
     <use x="244.53125" xlink:href="#DejaVuSans-31"/>
     <use x="308.154297" xlink:href="#DejaVuSans-20"/>
     <use x="339.941406" xlink:href="#DejaVuSans-2b"/>
     <use x="423.730469" xlink:href="#DejaVuSans-20"/>
     <use x="455.517578" xlink:href="#DejaVuSans-51"/>
     <use x="534.228516" xlink:href="#DejaVuSans-32"/>
     <use x="597.851562" xlink:href="#DejaVuSans-32"/>
     <use x="661.474609" xlink:href="#DejaVuSans-20"/>
     <use x="693.261719" xlink:href="#DejaVuSans-2b"/>
     <use x="777.050781" xlink:href="#DejaVuSans-20"/>
     <use x="808.837891" xlink:href="#DejaVuSans-51"/>
     <use x="887.548828" xlink:href="#DejaVuSans-31"/>
     <use x="951.171875" xlink:href="#DejaVuSans-32"/>
     <use x="1014.794922" xlink:href="#DejaVuSans-20"/>
     <use x="1046.582031" xlink:href="#DejaVuSans-2b"/>
     <use x="1130.371094" xlink:href="#DejaVuSans-20"/>
     <use x="1162.158203" xlink:href="#DejaVuSans-51"/>
     <use x="1240.869141" xlink:href="#DejaVuSans-32"/>
     <use x="1304.492188" xlink:href="#DejaVuSans-31"/>
     <use x="1368.115234" xlink:href="#DejaVuSans-5d"/>
     <use x="1407.128906" xlink:href="#DejaVuSans-20"/>
     <use x="1438.916016" xlink:href="#DejaVuSans-76"/>
     <use x="1498.095703" xlink:href="#DejaVuSans-73"/>
     <use x="1550.195312" xlink:href="#DejaVuSans-20"/>
     <use x="1581.982422" xlink:href="#DejaVuSans-54"/>
     <use x="1642.847656" xlink:href="#DejaVuSans-72"/>
     <use x="1683.960938" xlink:href="#DejaVuSans-61"/>
     <use x="1745.240234" xlink:href="#DejaVuSans-66"/>
     <use x="1780.445312" xlink:href="#DejaVuSans-66"/>
     <use x="1815.650391" xlink:href="#DejaVuSans-69"/>
     <use x="1843.433594" xlink:href="#DejaVuSans-63"/>
     <use x="1898.414062" xlink:href="#DejaVuSans-20"/>
     <use x="1930.201172" xlink:href="#DejaVuSans-49"/>
     <use x="1959.693359" xlink:href="#DejaVuSans-6e"/>
     <use x="2023.072266" xlink:href="#DejaVuSans-74"/>
     <use x="2062.28125" xlink:href="#DejaVuSans-65"/>
     <use x="2123.804688" xlink:href="#DejaVuSans-6e"/>
     <use x="2187.183594" xlink:href="#DejaVuSans-73"/>
     <use x="2239.283203" xlink:href="#DejaVuSans-69"/>
     <use x="2267.066406" xlink:href="#DejaVuSans-74"/>
     <use x="2306.275391" xlink:href="#DejaVuSans-79"/>
     <use x="2365.455078" xlink:href="#DejaVuSans-2c"/>
     <use x="2397.242188" xlink:href="#DejaVuSans-20"/>
     <use x="2429.029297" xlink:href="#DejaVuSans-56"/>
     <use x="2497.4375" xlink:href="#DejaVuSans-73"/>
     <use x="2549.537109" xlink:href="#DejaVuSans-20"/>
     <use x="2581.324219" xlink:href="#DejaVuSans-56"/>
     <use x="2649.623047" xlink:href="#DejaVuSans-61"/>
     <use x="2710.902344" xlink:href="#DejaVuSans-6c"/>
     <use x="2738.685547" xlink:href="#DejaVuSans-75"/>
     <use x="2802.064453" xlink:href="#DejaVuSans-65"/>
     <use x="2863.587891" xlink:href="#DejaVuSans-3a"/>
     <use x="2897.279297" xlink:href="#DejaVuSans-20"/>
     <use x="2929.066406" xlink:href="#DejaVuSans-5b"/>
     <use x="2968.080078" xlink:href="#DejaVuSans-30"/>
     <use x="3031.703125" xlink:href="#DejaVuSans-2e"/>
     <use x="3063.490234" xlink:href="#DejaVuSans-35"/>
     <use x="3127.113281" xlink:href="#DejaVuSans-2c"/>
     <use x="3158.900391" xlink:href="#DejaVuSans-20"/>
     <use x="3190.6875" xlink:href="#DejaVuSans-30"/>
     <use x="3254.310547" xlink:href="#DejaVuSans-2e"/>
     <use x="3286.097656" xlink:href="#DejaVuSans-35"/>
     <use x="3349.720703" xlink:href="#DejaVuSans-2c"/>
     <use x="3381.507812" xlink:href="#DejaVuSans-20"/>
     <use x="3413.294922" xlink:href="#DejaVuSans-30"/>
     <use x="3476.917969" xlink:href="#DejaVuSans-2e"/>
     <use x="3508.705078" xlink:href="#DejaVuSans-35"/>
     <use x="3572.328125" xlink:href="#DejaVuSans-2c"/>
     <use x="3604.115234" xlink:href="#DejaVuSans-20"/>
     <use x="3635.902344" xlink:href="#DejaVuSans-30"/>
     <use x="3699.525391" xlink:href="#DejaVuSans-2e"/>
     <use x="3731.3125" xlink:href="#DejaVuSans-35"/>
     <use x="3794.935547" xlink:href="#DejaVuSans-5d"/>
    </g>
   </g>
   <g id="legend_1">
    <g id="patch_7">
     <path d="M 64.6 138.931375 
L 202.339062 138.931375 
Q 204.339062 138.931375 204.339062 136.931375 
L 204.339062 48.472 
Q 204.339062 46.472 202.339062 46.472 
L 64.6 46.472 
Q 62.6 46.472 62.6 48.472 
L 62.6 136.931375 
Q 62.6 138.931375 64.6 138.931375 
z
" style="fill:#ffffff;opacity:0.8;stroke:#cccccc;stroke-linejoin:miter;"/>
    </g>
    <g id="line2d_29">
     <path d="M 66.6 54.570438 
L 86.6 54.570438 
" style="fill:none;stroke:#1f77b4;stroke-linecap:square;stroke-width:4;"/>
    </g>
    <g id="line2d_30"/>
    <g id="text_15">
     <!-- MaxWt -->
     <defs>
      <path d="M 9.8125 72.90625 
L 24.515625 72.90625 
L 43.109375 23.296875 
L 61.8125 72.90625 
L 76.515625 72.90625 
L 76.515625 0 
L 66.890625 0 
L 66.890625 64.015625 
L 48.09375 14.015625 
L 38.1875 14.015625 
L 19.390625 64.015625 
L 19.390625 0 
L 9.8125 0 
z
" id="DejaVuSans-4d"/>
      <path d="M 54.890625 54.6875 
L 35.109375 28.078125 
L 55.90625 0 
L 45.3125 0 
L 29.390625 21.484375 
L 13.484375 0 
L 2.875 0 
L 24.125 28.609375 
L 4.6875 54.6875 
L 15.28125 54.6875 
L 29.78125 35.203125 
L 44.28125 54.6875 
z
" id="DejaVuSans-78"/>
      <path d="M 3.328125 72.90625 
L 13.28125 72.90625 
L 28.609375 11.28125 
L 43.890625 72.90625 
L 54.984375 72.90625 
L 70.3125 11.28125 
L 85.59375 72.90625 
L 95.609375 72.90625 
L 77.296875 0 
L 64.890625 0 
L 49.515625 63.28125 
L 33.984375 0 
L 21.578125 0 
z
" id="DejaVuSans-57"/>
     </defs>
     <g transform="translate(94.6 58.070438)scale(0.1 -0.1)">
      <use xlink:href="#DejaVuSans-4d"/>
      <use x="86.279297" xlink:href="#DejaVuSans-61"/>
      <use x="147.558594" xlink:href="#DejaVuSans-78"/>
      <use x="206.738281" xlink:href="#DejaVuSans-57"/>
      <use x="305.615234" xlink:href="#DejaVuSans-74"/>
     </g>
    </g>
    <g id="line2d_31">
     <path d="M 66.6 69.248563 
L 86.6 69.248563 
" style="fill:none;stroke:#ff7f0e;stroke-linecap:square;stroke-width:2;"/>
    </g>
    <g id="line2d_32"/>
    <g id="text_16">
     <!-- MaxSize_random -->
     <defs>
      <path d="M 53.515625 70.515625 
L 53.515625 60.890625 
Q 47.90625 63.578125 42.921875 64.890625 
Q 37.9375 66.21875 33.296875 66.21875 
Q 25.25 66.21875 20.875 63.09375 
Q 16.5 59.96875 16.5 54.203125 
Q 16.5 49.359375 19.40625 46.890625 
Q 22.3125 44.4375 30.421875 42.921875 
L 36.375 41.703125 
Q 47.40625 39.59375 52.65625 34.296875 
Q 57.90625 29 57.90625 20.125 
Q 57.90625 9.515625 50.796875 4.046875 
Q 43.703125 -1.421875 29.984375 -1.421875 
Q 24.8125 -1.421875 18.96875 -0.25 
Q 13.140625 0.921875 6.890625 3.21875 
L 6.890625 13.375 
Q 12.890625 10.015625 18.65625 8.296875 
Q 24.421875 6.59375 29.984375 6.59375 
Q 38.421875 6.59375 43.015625 9.90625 
Q 47.609375 13.234375 47.609375 19.390625 
Q 47.609375 24.75 44.3125 27.78125 
Q 41.015625 30.8125 33.5 32.328125 
L 27.484375 33.5 
Q 16.453125 35.6875 11.515625 40.375 
Q 6.59375 45.0625 6.59375 53.421875 
Q 6.59375 63.09375 13.40625 68.65625 
Q 20.21875 74.21875 32.171875 74.21875 
Q 37.3125 74.21875 42.625 73.28125 
Q 47.953125 72.359375 53.515625 70.515625 
z
" id="DejaVuSans-53"/>
      <path d="M 5.515625 54.6875 
L 48.1875 54.6875 
L 48.1875 46.484375 
L 14.40625 7.171875 
L 48.1875 7.171875 
L 48.1875 0 
L 4.296875 0 
L 4.296875 8.203125 
L 38.09375 47.515625 
L 5.515625 47.515625 
z
" id="DejaVuSans-7a"/>
      <path d="M 50.984375 -16.609375 
L 50.984375 -23.578125 
L -0.984375 -23.578125 
L -0.984375 -16.609375 
z
" id="DejaVuSans-5f"/>
      <path d="M 45.40625 46.390625 
L 45.40625 75.984375 
L 54.390625 75.984375 
L 54.390625 0 
L 45.40625 0 
L 45.40625 8.203125 
Q 42.578125 3.328125 38.25 0.953125 
Q 33.9375 -1.421875 27.875 -1.421875 
Q 17.96875 -1.421875 11.734375 6.484375 
Q 5.515625 14.40625 5.515625 27.296875 
Q 5.515625 40.1875 11.734375 48.09375 
Q 17.96875 56 27.875 56 
Q 33.9375 56 38.25 53.625 
Q 42.578125 51.265625 45.40625 46.390625 
z
M 14.796875 27.296875 
Q 14.796875 17.390625 18.875 11.75 
Q 22.953125 6.109375 30.078125 6.109375 
Q 37.203125 6.109375 41.296875 11.75 
Q 45.40625 17.390625 45.40625 27.296875 
Q 45.40625 37.203125 41.296875 42.84375 
Q 37.203125 48.484375 30.078125 48.484375 
Q 22.953125 48.484375 18.875 42.84375 
Q 14.796875 37.203125 14.796875 27.296875 
z
" id="DejaVuSans-64"/>
      <path d="M 52 44.1875 
Q 55.375 50.25 60.0625 53.125 
Q 64.75 56 71.09375 56 
Q 79.640625 56 84.28125 50.015625 
Q 88.921875 44.046875 88.921875 33.015625 
L 88.921875 0 
L 79.890625 0 
L 79.890625 32.71875 
Q 79.890625 40.578125 77.09375 44.375 
Q 74.3125 48.1875 68.609375 48.1875 
Q 61.625 48.1875 57.5625 43.546875 
Q 53.515625 38.921875 53.515625 30.90625 
L 53.515625 0 
L 44.484375 0 
L 44.484375 32.71875 
Q 44.484375 40.625 41.703125 44.40625 
Q 38.921875 48.1875 33.109375 48.1875 
Q 26.21875 48.1875 22.15625 43.53125 
Q 18.109375 38.875 18.109375 30.90625 
L 18.109375 0 
L 9.078125 0 
L 9.078125 54.6875 
L 18.109375 54.6875 
L 18.109375 46.1875 
Q 21.1875 51.21875 25.484375 53.609375 
Q 29.78125 56 35.6875 56 
Q 41.65625 56 45.828125 52.96875 
Q 50 49.953125 52 44.1875 
z
" id="DejaVuSans-6d"/>
     </defs>
     <g transform="translate(94.6 72.748563)scale(0.1 -0.1)">
      <use xlink:href="#DejaVuSans-4d"/>
      <use x="86.279297" xlink:href="#DejaVuSans-61"/>
      <use x="147.558594" xlink:href="#DejaVuSans-78"/>
      <use x="206.738281" xlink:href="#DejaVuSans-53"/>
      <use x="270.214844" xlink:href="#DejaVuSans-69"/>
      <use x="297.998047" xlink:href="#DejaVuSans-7a"/>
      <use x="350.488281" xlink:href="#DejaVuSans-65"/>
      <use x="412.011719" xlink:href="#DejaVuSans-5f"/>
      <use x="462.011719" xlink:href="#DejaVuSans-72"/>
      <use x="503.125" xlink:href="#DejaVuSans-61"/>
      <use x="564.404297" xlink:href="#DejaVuSans-6e"/>
      <use x="627.783203" xlink:href="#DejaVuSans-64"/>
      <use x="691.259766" xlink:href="#DejaVuSans-6f"/>
      <use x="752.441406" xlink:href="#DejaVuSans-6d"/>
     </g>
    </g>
    <g id="line2d_33">
     <path d="M 66.6 84.204813 
L 86.6 84.204813 
" style="fill:none;stroke:#2ca02c;stroke-linecap:square;stroke-width:2;"/>
    </g>
    <g id="line2d_34"/>
    <g id="text_17">
     <!-- MaxSize_Pri11_22 -->
     <defs>
      <path d="M 19.671875 64.796875 
L 19.671875 37.40625 
L 32.078125 37.40625 
Q 38.96875 37.40625 42.71875 40.96875 
Q 46.484375 44.53125 46.484375 51.125 
Q 46.484375 57.671875 42.71875 61.234375 
Q 38.96875 64.796875 32.078125 64.796875 
z
M 9.8125 72.90625 
L 32.078125 72.90625 
Q 44.34375 72.90625 50.609375 67.359375 
Q 56.890625 61.8125 56.890625 51.125 
Q 56.890625 40.328125 50.609375 34.8125 
Q 44.34375 29.296875 32.078125 29.296875 
L 19.671875 29.296875 
L 19.671875 0 
L 9.8125 0 
z
" id="DejaVuSans-50"/>
     </defs>
     <g transform="translate(94.6 87.704813)scale(0.1 -0.1)">
      <use xlink:href="#DejaVuSans-4d"/>
      <use x="86.279297" xlink:href="#DejaVuSans-61"/>
      <use x="147.558594" xlink:href="#DejaVuSans-78"/>
      <use x="206.738281" xlink:href="#DejaVuSans-53"/>
      <use x="270.214844" xlink:href="#DejaVuSans-69"/>
      <use x="297.998047" xlink:href="#DejaVuSans-7a"/>
      <use x="350.488281" xlink:href="#DejaVuSans-65"/>
      <use x="412.011719" xlink:href="#DejaVuSans-5f"/>
      <use x="462.011719" xlink:href="#DejaVuSans-50"/>
      <use x="522.298828" xlink:href="#DejaVuSans-72"/>
      <use x="563.412109" xlink:href="#DejaVuSans-69"/>
      <use x="591.195312" xlink:href="#DejaVuSans-31"/>
      <use x="654.818359" xlink:href="#DejaVuSans-31"/>
      <use x="718.441406" xlink:href="#DejaVuSans-5f"/>
      <use x="768.441406" xlink:href="#DejaVuSans-32"/>
      <use x="832.064453" xlink:href="#DejaVuSans-32"/>
     </g>
    </g>
    <g id="line2d_35">
     <path d="M 66.6 99.161063 
L 86.6 99.161063 
" style="fill:none;stroke:#d62728;stroke-linecap:square;stroke-width:2;"/>
    </g>
    <g id="line2d_36"/>
    <g id="text_18">
     <!-- MaxSize_PriMaxWt -->
     <g transform="translate(94.6 102.661063)scale(0.1 -0.1)">
      <use xlink:href="#DejaVuSans-4d"/>
      <use x="86.279297" xlink:href="#DejaVuSans-61"/>
      <use x="147.558594" xlink:href="#DejaVuSans-78"/>
      <use x="206.738281" xlink:href="#DejaVuSans-53"/>
      <use x="270.214844" xlink:href="#DejaVuSans-69"/>
      <use x="297.998047" xlink:href="#DejaVuSans-7a"/>
      <use x="350.488281" xlink:href="#DejaVuSans-65"/>
      <use x="412.011719" xlink:href="#DejaVuSans-5f"/>
      <use x="462.011719" xlink:href="#DejaVuSans-50"/>
      <use x="522.298828" xlink:href="#DejaVuSans-72"/>
      <use x="563.412109" xlink:href="#DejaVuSans-69"/>
      <use x="591.195312" xlink:href="#DejaVuSans-4d"/>
      <use x="677.474609" xlink:href="#DejaVuSans-61"/>
      <use x="738.753906" xlink:href="#DejaVuSans-78"/>
      <use x="797.933594" xlink:href="#DejaVuSans-57"/>
      <use x="896.810547" xlink:href="#DejaVuSans-74"/>
     </g>
    </g>
    <g id="line2d_37">
     <path d="M 66.6 114.117313 
L 86.6 114.117313 
" style="fill:none;stroke:#9467bd;stroke-linecap:square;stroke-width:2;"/>
    </g>
    <g id="line2d_38"/>
    <g id="text_19">
     <!-- MaxSize_PriMinWt -->
     <g transform="translate(94.6 117.617313)scale(0.1 -0.1)">
      <use xlink:href="#DejaVuSans-4d"/>
      <use x="86.279297" xlink:href="#DejaVuSans-61"/>
      <use x="147.558594" xlink:href="#DejaVuSans-78"/>
      <use x="206.738281" xlink:href="#DejaVuSans-53"/>
      <use x="270.214844" xlink:href="#DejaVuSans-69"/>
      <use x="297.998047" xlink:href="#DejaVuSans-7a"/>
      <use x="350.488281" xlink:href="#DejaVuSans-65"/>
      <use x="412.011719" xlink:href="#DejaVuSans-5f"/>
      <use x="462.011719" xlink:href="#DejaVuSans-50"/>
      <use x="522.298828" xlink:href="#DejaVuSans-72"/>
      <use x="563.412109" xlink:href="#DejaVuSans-69"/>
      <use x="591.195312" xlink:href="#DejaVuSans-4d"/>
      <use x="677.474609" xlink:href="#DejaVuSans-69"/>
      <use x="705.257812" xlink:href="#DejaVuSans-6e"/>
      <use x="768.636719" xlink:href="#DejaVuSans-57"/>
      <use x="867.513672" xlink:href="#DejaVuSans-74"/>
     </g>
    </g>
    <g id="line2d_39">
     <path d="M 66.6 129.073563 
L 86.6 129.073563 
" style="fill:none;stroke:#8c564b;stroke-linecap:square;stroke-width:2;"/>
    </g>
    <g id="line2d_40"/>
    <g id="text_20">
     <!-- MaxArrival_PriMaxWt -->
     <g transform="translate(94.6 132.573563)scale(0.1 -0.1)">
      <use xlink:href="#DejaVuSans-4d"/>
      <use x="86.279297" xlink:href="#DejaVuSans-61"/>
      <use x="147.558594" xlink:href="#DejaVuSans-78"/>
      <use x="206.738281" xlink:href="#DejaVuSans-41"/>
      <use x="275.146484" xlink:href="#DejaVuSans-72"/>
      <use x="316.244141" xlink:href="#DejaVuSans-72"/>
      <use x="357.357422" xlink:href="#DejaVuSans-69"/>
      <use x="385.140625" xlink:href="#DejaVuSans-76"/>
      <use x="444.320312" xlink:href="#DejaVuSans-61"/>
      <use x="505.599609" xlink:href="#DejaVuSans-6c"/>
      <use x="533.382812" xlink:href="#DejaVuSans-5f"/>
      <use x="583.382812" xlink:href="#DejaVuSans-50"/>
      <use x="643.669922" xlink:href="#DejaVuSans-72"/>
      <use x="684.783203" xlink:href="#DejaVuSans-69"/>
      <use x="712.566406" xlink:href="#DejaVuSans-4d"/>
      <use x="798.845703" xlink:href="#DejaVuSans-61"/>
      <use x="860.125" xlink:href="#DejaVuSans-78"/>
      <use x="919.304688" xlink:href="#DejaVuSans-57"/>
      <use x="1018.181641" xlink:href="#DejaVuSans-74"/>
     </g>
    </g>
   </g>
  </g>
 </g>
 <defs>
  <clipPath id="p992859c3ee">
   <rect height="266.112" width="357.12" x="57.6" y="41.472"/>
  </clipPath>
 </defs>
</svg>
