<?xml version="1.0" encoding="utf-8" standalone="no"?>
<!DOCTYPE svg PUBLIC "-//W3C//DTD SVG 1.1//EN"
  "http://www.w3.org/Graphics/SVG/1.1/DTD/svg11.dtd">
<!-- Created with matplotlib (http://matplotlib.org/) -->
<svg height="345pt" version="1.1" viewBox="0 0 460 345" width="460pt" xmlns="http://www.w3.org/2000/svg" xmlns:xlink="http://www.w3.org/1999/xlink">
 <defs>
  <style type="text/css">
*{stroke-linecap:butt;stroke-linejoin:round;}
  </style>
 </defs>
 <g id="figure_1">
  <g id="patch_1">
   <path d="M 0 345.6 
L 460.8 345.6 
L 460.8 0 
L 0 0 
z
" style="fill:#ffffff;"/>
  </g>
  <g id="axes_1">
   <g id="patch_2">
    <path d="M 57.6 307.584 
L 414.72 307.584 
L 414.72 41.472 
L 57.6 41.472 
z
" style="fill:#ffffff;"/>
   </g>
   <g id="matplotlib.axis_1">
    <g id="xtick_1">
     <g id="line2d_1">
      <path clip-path="url(#p4233f07bfb)" d="M 109.94558 307.584 
L 109.94558 41.472 
" style="fill:none;stroke:#b0b0b0;stroke-linecap:square;stroke-width:0.8;"/>
     </g>
     <g id="line2d_2">
      <defs>
       <path d="M 0 0 
L 0 3.5 
" id="m59c31bd2f9" style="stroke:#000000;stroke-width:0.8;"/>
      </defs>
      <g>
       <use style="stroke:#000000;stroke-width:0.8;" x="109.94558" xlink:href="#m59c31bd2f9" y="307.584"/>
      </g>
     </g>
     <g id="text_1">
      <!-- 0.2 -->
      <defs>
       <path d="M 31.78125 66.40625 
Q 24.171875 66.40625 20.328125 58.90625 
Q 16.5 51.421875 16.5 36.375 
Q 16.5 21.390625 20.328125 13.890625 
Q 24.171875 6.390625 31.78125 6.390625 
Q 39.453125 6.390625 43.28125 13.890625 
Q 47.125 21.390625 47.125 36.375 
Q 47.125 51.421875 43.28125 58.90625 
Q 39.453125 66.40625 31.78125 66.40625 
z
M 31.78125 74.21875 
Q 44.046875 74.21875 50.515625 64.515625 
Q 56.984375 54.828125 56.984375 36.375 
Q 56.984375 17.96875 50.515625 8.265625 
Q 44.046875 -1.421875 31.78125 -1.421875 
Q 19.53125 -1.421875 13.0625 8.265625 
Q 6.59375 17.96875 6.59375 36.375 
Q 6.59375 54.828125 13.0625 64.515625 
Q 19.53125 74.21875 31.78125 74.21875 
z
" id="DejaVuSans-30"/>
       <path d="M 10.6875 12.40625 
L 21 12.40625 
L 21 0 
L 10.6875 0 
z
" id="DejaVuSans-2e"/>
       <path d="M 19.1875 8.296875 
L 53.609375 8.296875 
L 53.609375 0 
L 7.328125 0 
L 7.328125 8.296875 
Q 12.9375 14.109375 22.625 23.890625 
Q 32.328125 33.6875 34.8125 36.53125 
Q 39.546875 41.84375 41.421875 45.53125 
Q 43.3125 49.21875 43.3125 52.78125 
Q 43.3125 58.59375 39.234375 62.25 
Q 35.15625 65.921875 28.609375 65.921875 
Q 23.96875 65.921875 18.8125 64.3125 
Q 13.671875 62.703125 7.8125 59.421875 
L 7.8125 69.390625 
Q 13.765625 71.78125 18.9375 73 
Q 24.125 74.21875 28.421875 74.21875 
Q 39.75 74.21875 46.484375 68.546875 
Q 53.21875 62.890625 53.21875 53.421875 
Q 53.21875 48.921875 51.53125 44.890625 
Q 49.859375 40.875 45.40625 35.40625 
Q 44.1875 33.984375 37.640625 27.21875 
Q 31.109375 20.453125 19.1875 8.296875 
z
" id="DejaVuSans-32"/>
      </defs>
      <g transform="translate(101.994017 322.182437)scale(0.1 -0.1)">
       <use xlink:href="#DejaVuSans-30"/>
       <use x="63.623047" xlink:href="#DejaVuSans-2e"/>
       <use x="95.410156" xlink:href="#DejaVuSans-32"/>
      </g>
     </g>
    </g>
    <g id="xtick_2">
     <g id="line2d_3">
      <path clip-path="url(#p4233f07bfb)" d="M 182.171285 307.584 
L 182.171285 41.472 
" style="fill:none;stroke:#b0b0b0;stroke-linecap:square;stroke-width:0.8;"/>
     </g>
     <g id="line2d_4">
      <g>
       <use style="stroke:#000000;stroke-width:0.8;" x="182.171285" xlink:href="#m59c31bd2f9" y="307.584"/>
      </g>
     </g>
     <g id="text_2">
      <!-- 0.4 -->
      <defs>
       <path d="M 37.796875 64.3125 
L 12.890625 25.390625 
L 37.796875 25.390625 
z
M 35.203125 72.90625 
L 47.609375 72.90625 
L 47.609375 25.390625 
L 58.015625 25.390625 
L 58.015625 17.1875 
L 47.609375 17.1875 
L 47.609375 0 
L 37.796875 0 
L 37.796875 17.1875 
L 4.890625 17.1875 
L 4.890625 26.703125 
z
" id="DejaVuSans-34"/>
      </defs>
      <g transform="translate(174.219723 322.182437)scale(0.1 -0.1)">
       <use xlink:href="#DejaVuSans-30"/>
       <use x="63.623047" xlink:href="#DejaVuSans-2e"/>
       <use x="95.410156" xlink:href="#DejaVuSans-34"/>
      </g>
     </g>
    </g>
    <g id="xtick_3">
     <g id="line2d_5">
      <path clip-path="url(#p4233f07bfb)" d="M 254.396991 307.584 
L 254.396991 41.472 
" style="fill:none;stroke:#b0b0b0;stroke-linecap:square;stroke-width:0.8;"/>
     </g>
     <g id="line2d_6">
      <g>
       <use style="stroke:#000000;stroke-width:0.8;" x="254.396991" xlink:href="#m59c31bd2f9" y="307.584"/>
      </g>
     </g>
     <g id="text_3">
      <!-- 0.6 -->
      <defs>
       <path d="M 33.015625 40.375 
Q 26.375 40.375 22.484375 35.828125 
Q 18.609375 31.296875 18.609375 23.390625 
Q 18.609375 15.53125 22.484375 10.953125 
Q 26.375 6.390625 33.015625 6.390625 
Q 39.65625 6.390625 43.53125 10.953125 
Q 47.40625 15.53125 47.40625 23.390625 
Q 47.40625 31.296875 43.53125 35.828125 
Q 39.65625 40.375 33.015625 40.375 
z
M 52.59375 71.296875 
L 52.59375 62.3125 
Q 48.875 64.0625 45.09375 64.984375 
Q 41.3125 65.921875 37.59375 65.921875 
Q 27.828125 65.921875 22.671875 59.328125 
Q 17.53125 52.734375 16.796875 39.40625 
Q 19.671875 43.65625 24.015625 45.921875 
Q 28.375 48.1875 33.59375 48.1875 
Q 44.578125 48.1875 50.953125 41.515625 
Q 57.328125 34.859375 57.328125 23.390625 
Q 57.328125 12.15625 50.6875 5.359375 
Q 44.046875 -1.421875 33.015625 -1.421875 
Q 20.359375 -1.421875 13.671875 8.265625 
Q 6.984375 17.96875 6.984375 36.375 
Q 6.984375 53.65625 15.1875 63.9375 
Q 23.390625 74.21875 37.203125 74.21875 
Q 40.921875 74.21875 44.703125 73.484375 
Q 48.484375 72.75 52.59375 71.296875 
z
" id="DejaVuSans-36"/>
      </defs>
      <g transform="translate(246.445428 322.182437)scale(0.1 -0.1)">
       <use xlink:href="#DejaVuSans-30"/>
       <use x="63.623047" xlink:href="#DejaVuSans-2e"/>
       <use x="95.410156" xlink:href="#DejaVuSans-36"/>
      </g>
     </g>
    </g>
    <g id="xtick_4">
     <g id="line2d_7">
      <path clip-path="url(#p4233f07bfb)" d="M 326.622696 307.584 
L 326.622696 41.472 
" style="fill:none;stroke:#b0b0b0;stroke-linecap:square;stroke-width:0.8;"/>
     </g>
     <g id="line2d_8">
      <g>
       <use style="stroke:#000000;stroke-width:0.8;" x="326.622696" xlink:href="#m59c31bd2f9" y="307.584"/>
      </g>
     </g>
     <g id="text_4">
      <!-- 0.8 -->
      <defs>
       <path d="M 31.78125 34.625 
Q 24.75 34.625 20.71875 30.859375 
Q 16.703125 27.09375 16.703125 20.515625 
Q 16.703125 13.921875 20.71875 10.15625 
Q 24.75 6.390625 31.78125 6.390625 
Q 38.8125 6.390625 42.859375 10.171875 
Q 46.921875 13.96875 46.921875 20.515625 
Q 46.921875 27.09375 42.890625 30.859375 
Q 38.875 34.625 31.78125 34.625 
z
M 21.921875 38.8125 
Q 15.578125 40.375 12.03125 44.71875 
Q 8.5 49.078125 8.5 55.328125 
Q 8.5 64.0625 14.71875 69.140625 
Q 20.953125 74.21875 31.78125 74.21875 
Q 42.671875 74.21875 48.875 69.140625 
Q 55.078125 64.0625 55.078125 55.328125 
Q 55.078125 49.078125 51.53125 44.71875 
Q 48 40.375 41.703125 38.8125 
Q 48.828125 37.15625 52.796875 32.3125 
Q 56.78125 27.484375 56.78125 20.515625 
Q 56.78125 9.90625 50.3125 4.234375 
Q 43.84375 -1.421875 31.78125 -1.421875 
Q 19.734375 -1.421875 13.25 4.234375 
Q 6.78125 9.90625 6.78125 20.515625 
Q 6.78125 27.484375 10.78125 32.3125 
Q 14.796875 37.15625 21.921875 38.8125 
z
M 18.3125 54.390625 
Q 18.3125 48.734375 21.84375 45.5625 
Q 25.390625 42.390625 31.78125 42.390625 
Q 38.140625 42.390625 41.71875 45.5625 
Q 45.3125 48.734375 45.3125 54.390625 
Q 45.3125 60.0625 41.71875 63.234375 
Q 38.140625 66.40625 31.78125 66.40625 
Q 25.390625 66.40625 21.84375 63.234375 
Q 18.3125 60.0625 18.3125 54.390625 
z
" id="DejaVuSans-38"/>
      </defs>
      <g transform="translate(318.671133 322.182437)scale(0.1 -0.1)">
       <use xlink:href="#DejaVuSans-30"/>
       <use x="63.623047" xlink:href="#DejaVuSans-2e"/>
       <use x="95.410156" xlink:href="#DejaVuSans-38"/>
      </g>
     </g>
    </g>
    <g id="xtick_5">
     <g id="line2d_9">
      <path clip-path="url(#p4233f07bfb)" d="M 398.848401 307.584 
L 398.848401 41.472 
" style="fill:none;stroke:#b0b0b0;stroke-linecap:square;stroke-width:0.8;"/>
     </g>
     <g id="line2d_10">
      <g>
       <use style="stroke:#000000;stroke-width:0.8;" x="398.848401" xlink:href="#m59c31bd2f9" y="307.584"/>
      </g>
     </g>
     <g id="text_5">
      <!-- 1.0 -->
      <defs>
       <path d="M 12.40625 8.296875 
L 28.515625 8.296875 
L 28.515625 63.921875 
L 10.984375 60.40625 
L 10.984375 69.390625 
L 28.421875 72.90625 
L 38.28125 72.90625 
L 38.28125 8.296875 
L 54.390625 8.296875 
L 54.390625 0 
L 12.40625 0 
z
" id="DejaVuSans-31"/>
      </defs>
      <g transform="translate(390.896839 322.182437)scale(0.1 -0.1)">
       <use xlink:href="#DejaVuSans-31"/>
       <use x="63.623047" xlink:href="#DejaVuSans-2e"/>
       <use x="95.410156" xlink:href="#DejaVuSans-30"/>
      </g>
     </g>
    </g>
    <g id="text_6">
     <!-- Traffic Intnesity -->
     <defs>
      <path d="M -0.296875 72.90625 
L 61.375 72.90625 
L 61.375 64.59375 
L 35.5 64.59375 
L 35.5 0 
L 25.59375 0 
L 25.59375 64.59375 
L -0.296875 64.59375 
z
" id="DejaVuSans-54"/>
      <path d="M 41.109375 46.296875 
Q 39.59375 47.171875 37.8125 47.578125 
Q 36.03125 48 33.890625 48 
Q 26.265625 48 22.1875 43.046875 
Q 18.109375 38.09375 18.109375 28.8125 
L 18.109375 0 
L 9.078125 0 
L 9.078125 54.6875 
L 18.109375 54.6875 
L 18.109375 46.1875 
Q 20.953125 51.171875 25.484375 53.578125 
Q 30.03125 56 36.53125 56 
Q 37.453125 56 38.578125 55.875 
Q 39.703125 55.765625 41.0625 55.515625 
z
" id="DejaVuSans-72"/>
      <path d="M 34.28125 27.484375 
Q 23.390625 27.484375 19.1875 25 
Q 14.984375 22.515625 14.984375 16.5 
Q 14.984375 11.71875 18.140625 8.90625 
Q 21.296875 6.109375 26.703125 6.109375 
Q 34.1875 6.109375 38.703125 11.40625 
Q 43.21875 16.703125 43.21875 25.484375 
L 43.21875 27.484375 
z
M 52.203125 31.203125 
L 52.203125 0 
L 43.21875 0 
L 43.21875 8.296875 
Q 40.140625 3.328125 35.546875 0.953125 
Q 30.953125 -1.421875 24.3125 -1.421875 
Q 15.921875 -1.421875 10.953125 3.296875 
Q 6 8.015625 6 15.921875 
Q 6 25.140625 12.171875 29.828125 
Q 18.359375 34.515625 30.609375 34.515625 
L 43.21875 34.515625 
L 43.21875 35.40625 
Q 43.21875 41.609375 39.140625 45 
Q 35.0625 48.390625 27.6875 48.390625 
Q 23 48.390625 18.546875 47.265625 
Q 14.109375 46.140625 10.015625 43.890625 
L 10.015625 52.203125 
Q 14.9375 54.109375 19.578125 55.046875 
Q 24.21875 56 28.609375 56 
Q 40.484375 56 46.34375 49.84375 
Q 52.203125 43.703125 52.203125 31.203125 
z
" id="DejaVuSans-61"/>
      <path d="M 37.109375 75.984375 
L 37.109375 68.5 
L 28.515625 68.5 
Q 23.6875 68.5 21.796875 66.546875 
Q 19.921875 64.59375 19.921875 59.515625 
L 19.921875 54.6875 
L 34.71875 54.6875 
L 34.71875 47.703125 
L 19.921875 47.703125 
L 19.921875 0 
L 10.890625 0 
L 10.890625 47.703125 
L 2.296875 47.703125 
L 2.296875 54.6875 
L 10.890625 54.6875 
L 10.890625 58.5 
Q 10.890625 67.625 15.140625 71.796875 
Q 19.390625 75.984375 28.609375 75.984375 
z
" id="DejaVuSans-66"/>
      <path d="M 9.421875 54.6875 
L 18.40625 54.6875 
L 18.40625 0 
L 9.421875 0 
z
M 9.421875 75.984375 
L 18.40625 75.984375 
L 18.40625 64.59375 
L 9.421875 64.59375 
z
" id="DejaVuSans-69"/>
      <path d="M 48.78125 52.59375 
L 48.78125 44.1875 
Q 44.96875 46.296875 41.140625 47.34375 
Q 37.3125 48.390625 33.40625 48.390625 
Q 24.65625 48.390625 19.8125 42.84375 
Q 14.984375 37.3125 14.984375 27.296875 
Q 14.984375 17.28125 19.8125 11.734375 
Q 24.65625 6.203125 33.40625 6.203125 
Q 37.3125 6.203125 41.140625 7.25 
Q 44.96875 8.296875 48.78125 10.40625 
L 48.78125 2.09375 
Q 45.015625 0.34375 40.984375 -0.53125 
Q 36.96875 -1.421875 32.421875 -1.421875 
Q 20.0625 -1.421875 12.78125 6.34375 
Q 5.515625 14.109375 5.515625 27.296875 
Q 5.515625 40.671875 12.859375 48.328125 
Q 20.21875 56 33.015625 56 
Q 37.15625 56 41.109375 55.140625 
Q 45.0625 54.296875 48.78125 52.59375 
z
" id="DejaVuSans-63"/>
      <path id="DejaVuSans-20"/>
      <path d="M 9.8125 72.90625 
L 19.671875 72.90625 
L 19.671875 0 
L 9.8125 0 
z
" id="DejaVuSans-49"/>
      <path d="M 54.890625 33.015625 
L 54.890625 0 
L 45.90625 0 
L 45.90625 32.71875 
Q 45.90625 40.484375 42.875 44.328125 
Q 39.84375 48.1875 33.796875 48.1875 
Q 26.515625 48.1875 22.3125 43.546875 
Q 18.109375 38.921875 18.109375 30.90625 
L 18.109375 0 
L 9.078125 0 
L 9.078125 54.6875 
L 18.109375 54.6875 
L 18.109375 46.1875 
Q 21.34375 51.125 25.703125 53.5625 
Q 30.078125 56 35.796875 56 
Q 45.21875 56 50.046875 50.171875 
Q 54.890625 44.34375 54.890625 33.015625 
z
" id="DejaVuSans-6e"/>
      <path d="M 18.3125 70.21875 
L 18.3125 54.6875 
L 36.8125 54.6875 
L 36.8125 47.703125 
L 18.3125 47.703125 
L 18.3125 18.015625 
Q 18.3125 11.328125 20.140625 9.421875 
Q 21.96875 7.515625 27.59375 7.515625 
L 36.8125 7.515625 
L 36.8125 0 
L 27.59375 0 
Q 17.1875 0 13.234375 3.875 
Q 9.28125 7.765625 9.28125 18.015625 
L 9.28125 47.703125 
L 2.6875 47.703125 
L 2.6875 54.6875 
L 9.28125 54.6875 
L 9.28125 70.21875 
z
" id="DejaVuSans-74"/>
      <path d="M 56.203125 29.59375 
L 56.203125 25.203125 
L 14.890625 25.203125 
Q 15.484375 15.921875 20.484375 11.0625 
Q 25.484375 6.203125 34.421875 6.203125 
Q 39.59375 6.203125 44.453125 7.46875 
Q 49.3125 8.734375 54.109375 11.28125 
L 54.109375 2.78125 
Q 49.265625 0.734375 44.1875 -0.34375 
Q 39.109375 -1.421875 33.890625 -1.421875 
Q 20.796875 -1.421875 13.15625 6.1875 
Q 5.515625 13.8125 5.515625 26.8125 
Q 5.515625 40.234375 12.765625 48.109375 
Q 20.015625 56 32.328125 56 
Q 43.359375 56 49.78125 48.890625 
Q 56.203125 41.796875 56.203125 29.59375 
z
M 47.21875 32.234375 
Q 47.125 39.59375 43.09375 43.984375 
Q 39.0625 48.390625 32.421875 48.390625 
Q 24.90625 48.390625 20.390625 44.140625 
Q 15.875 39.890625 15.1875 32.171875 
z
" id="DejaVuSans-65"/>
      <path d="M 44.28125 53.078125 
L 44.28125 44.578125 
Q 40.484375 46.53125 36.375 47.5 
Q 32.28125 48.484375 27.875 48.484375 
Q 21.1875 48.484375 17.84375 46.4375 
Q 14.5 44.390625 14.5 40.28125 
Q 14.5 37.15625 16.890625 35.375 
Q 19.28125 33.59375 26.515625 31.984375 
L 29.59375 31.296875 
Q 39.15625 29.25 43.1875 25.515625 
Q 47.21875 21.78125 47.21875 15.09375 
Q 47.21875 7.46875 41.1875 3.015625 
Q 35.15625 -1.421875 24.609375 -1.421875 
Q 20.21875 -1.421875 15.453125 -0.5625 
Q 10.6875 0.296875 5.421875 2 
L 5.421875 11.28125 
Q 10.40625 8.6875 15.234375 7.390625 
Q 20.0625 6.109375 24.8125 6.109375 
Q 31.15625 6.109375 34.5625 8.28125 
Q 37.984375 10.453125 37.984375 14.40625 
Q 37.984375 18.0625 35.515625 20.015625 
Q 33.0625 21.96875 24.703125 23.78125 
L 21.578125 24.515625 
Q 13.234375 26.265625 9.515625 29.90625 
Q 5.8125 33.546875 5.8125 39.890625 
Q 5.8125 47.609375 11.28125 51.796875 
Q 16.75 56 26.8125 56 
Q 31.78125 56 36.171875 55.265625 
Q 40.578125 54.546875 44.28125 53.078125 
z
" id="DejaVuSans-73"/>
      <path d="M 32.171875 -5.078125 
Q 28.375 -14.84375 24.75 -17.8125 
Q 21.140625 -20.796875 15.09375 -20.796875 
L 7.90625 -20.796875 
L 7.90625 -13.28125 
L 13.1875 -13.28125 
Q 16.890625 -13.28125 18.9375 -11.515625 
Q 21 -9.765625 23.484375 -3.21875 
L 25.09375 0.875 
L 2.984375 54.6875 
L 12.5 54.6875 
L 29.59375 11.921875 
L 46.6875 54.6875 
L 56.203125 54.6875 
z
" id="DejaVuSans-79"/>
     </defs>
     <g transform="translate(196.987344 335.860562)scale(0.1 -0.1)">
      <use xlink:href="#DejaVuSans-54"/>
      <use x="60.865234" xlink:href="#DejaVuSans-72"/>
      <use x="101.978516" xlink:href="#DejaVuSans-61"/>
      <use x="163.257812" xlink:href="#DejaVuSans-66"/>
      <use x="198.462891" xlink:href="#DejaVuSans-66"/>
      <use x="233.667969" xlink:href="#DejaVuSans-69"/>
      <use x="261.451172" xlink:href="#DejaVuSans-63"/>
      <use x="316.431641" xlink:href="#DejaVuSans-20"/>
      <use x="348.21875" xlink:href="#DejaVuSans-49"/>
      <use x="377.710938" xlink:href="#DejaVuSans-6e"/>
      <use x="441.089844" xlink:href="#DejaVuSans-74"/>
      <use x="480.298828" xlink:href="#DejaVuSans-6e"/>
      <use x="543.677734" xlink:href="#DejaVuSans-65"/>
      <use x="605.201172" xlink:href="#DejaVuSans-73"/>
      <use x="657.300781" xlink:href="#DejaVuSans-69"/>
      <use x="685.083984" xlink:href="#DejaVuSans-74"/>
      <use x="724.292969" xlink:href="#DejaVuSans-79"/>
     </g>
    </g>
   </g>
   <g id="matplotlib.axis_2">
    <g id="ytick_1">
     <g id="line2d_11">
      <path clip-path="url(#p4233f07bfb)" d="M 57.6 295.488957 
L 414.72 295.488957 
" style="fill:none;stroke:#b0b0b0;stroke-linecap:square;stroke-width:0.8;"/>
     </g>
     <g id="line2d_12">
      <defs>
       <path d="M 0 0 
L -3.5 0 
" id="mb5ac6be4bf" style="stroke:#000000;stroke-width:0.8;"/>
      </defs>
      <g>
       <use style="stroke:#000000;stroke-width:0.8;" x="57.6" xlink:href="#mb5ac6be4bf" y="295.488957"/>
      </g>
     </g>
     <g id="text_7">
      <!-- 0 -->
      <g transform="translate(44.2375 299.288176)scale(0.1 -0.1)">
       <use xlink:href="#DejaVuSans-30"/>
      </g>
     </g>
    </g>
    <g id="ytick_2">
     <g id="line2d_13">
      <path clip-path="url(#p4233f07bfb)" d="M 57.6 237.881097 
L 414.72 237.881097 
" style="fill:none;stroke:#b0b0b0;stroke-linecap:square;stroke-width:0.8;"/>
     </g>
     <g id="line2d_14">
      <g>
       <use style="stroke:#000000;stroke-width:0.8;" x="57.6" xlink:href="#mb5ac6be4bf" y="237.881097"/>
      </g>
     </g>
     <g id="text_8">
      <!-- 500 -->
      <defs>
       <path d="M 10.796875 72.90625 
L 49.515625 72.90625 
L 49.515625 64.59375 
L 19.828125 64.59375 
L 19.828125 46.734375 
Q 21.96875 47.46875 24.109375 47.828125 
Q 26.265625 48.1875 28.421875 48.1875 
Q 40.625 48.1875 47.75 41.5 
Q 54.890625 34.8125 54.890625 23.390625 
Q 54.890625 11.625 47.5625 5.09375 
Q 40.234375 -1.421875 26.90625 -1.421875 
Q 22.3125 -1.421875 17.546875 -0.640625 
Q 12.796875 0.140625 7.71875 1.703125 
L 7.71875 11.625 
Q 12.109375 9.234375 16.796875 8.0625 
Q 21.484375 6.890625 26.703125 6.890625 
Q 35.15625 6.890625 40.078125 11.328125 
Q 45.015625 15.765625 45.015625 23.390625 
Q 45.015625 31 40.078125 35.4375 
Q 35.15625 39.890625 26.703125 39.890625 
Q 22.75 39.890625 18.8125 39.015625 
Q 14.890625 38.140625 10.796875 36.28125 
z
" id="DejaVuSans-35"/>
      </defs>
      <g transform="translate(31.5125 241.680316)scale(0.1 -0.1)">
       <use xlink:href="#DejaVuSans-35"/>
       <use x="63.623047" xlink:href="#DejaVuSans-30"/>
       <use x="127.246094" xlink:href="#DejaVuSans-30"/>
      </g>
     </g>
    </g>
    <g id="ytick_3">
     <g id="line2d_15">
      <path clip-path="url(#p4233f07bfb)" d="M 57.6 180.273236 
L 414.72 180.273236 
" style="fill:none;stroke:#b0b0b0;stroke-linecap:square;stroke-width:0.8;"/>
     </g>
     <g id="line2d_16">
      <g>
       <use style="stroke:#000000;stroke-width:0.8;" x="57.6" xlink:href="#mb5ac6be4bf" y="180.273236"/>
      </g>
     </g>
     <g id="text_9">
      <!-- 1000 -->
      <g transform="translate(25.15 184.072455)scale(0.1 -0.1)">
       <use xlink:href="#DejaVuSans-31"/>
       <use x="63.623047" xlink:href="#DejaVuSans-30"/>
       <use x="127.246094" xlink:href="#DejaVuSans-30"/>
       <use x="190.869141" xlink:href="#DejaVuSans-30"/>
      </g>
     </g>
    </g>
    <g id="ytick_4">
     <g id="line2d_17">
      <path clip-path="url(#p4233f07bfb)" d="M 57.6 122.665376 
L 414.72 122.665376 
" style="fill:none;stroke:#b0b0b0;stroke-linecap:square;stroke-width:0.8;"/>
     </g>
     <g id="line2d_18">
      <g>
       <use style="stroke:#000000;stroke-width:0.8;" x="57.6" xlink:href="#mb5ac6be4bf" y="122.665376"/>
      </g>
     </g>
     <g id="text_10">
      <!-- 1500 -->
      <g transform="translate(25.15 126.464595)scale(0.1 -0.1)">
       <use xlink:href="#DejaVuSans-31"/>
       <use x="63.623047" xlink:href="#DejaVuSans-35"/>
       <use x="127.246094" xlink:href="#DejaVuSans-30"/>
       <use x="190.869141" xlink:href="#DejaVuSans-30"/>
      </g>
     </g>
    </g>
    <g id="ytick_5">
     <g id="line2d_19">
      <path clip-path="url(#p4233f07bfb)" d="M 57.6 65.057515 
L 414.72 65.057515 
" style="fill:none;stroke:#b0b0b0;stroke-linecap:square;stroke-width:0.8;"/>
     </g>
     <g id="line2d_20">
      <g>
       <use style="stroke:#000000;stroke-width:0.8;" x="57.6" xlink:href="#mb5ac6be4bf" y="65.057515"/>
      </g>
     </g>
     <g id="text_11">
      <!-- 2000 -->
      <g transform="translate(25.15 68.856734)scale(0.1 -0.1)">
       <use xlink:href="#DejaVuSans-32"/>
       <use x="63.623047" xlink:href="#DejaVuSans-30"/>
       <use x="127.246094" xlink:href="#DejaVuSans-30"/>
       <use x="190.869141" xlink:href="#DejaVuSans-30"/>
      </g>
     </g>
    </g>
    <g id="text_12">
     <!-- Average Total Queue Length - - E[Q11 + Q22 + Q12 + Q21] -->
     <defs>
      <path d="M 34.1875 63.1875 
L 20.796875 26.90625 
L 47.609375 26.90625 
z
M 28.609375 72.90625 
L 39.796875 72.90625 
L 67.578125 0 
L 57.328125 0 
L 50.6875 18.703125 
L 17.828125 18.703125 
L 11.1875 0 
L 0.78125 0 
z
" id="DejaVuSans-41"/>
      <path d="M 2.984375 54.6875 
L 12.5 54.6875 
L 29.59375 8.796875 
L 46.6875 54.6875 
L 56.203125 54.6875 
L 35.6875 0 
L 23.484375 0 
z
" id="DejaVuSans-76"/>
      <path d="M 45.40625 27.984375 
Q 45.40625 37.75 41.375 43.109375 
Q 37.359375 48.484375 30.078125 48.484375 
Q 22.859375 48.484375 18.828125 43.109375 
Q 14.796875 37.75 14.796875 27.984375 
Q 14.796875 18.265625 18.828125 12.890625 
Q 22.859375 7.515625 30.078125 7.515625 
Q 37.359375 7.515625 41.375 12.890625 
Q 45.40625 18.265625 45.40625 27.984375 
z
M 54.390625 6.78125 
Q 54.390625 -7.171875 48.1875 -13.984375 
Q 42 -20.796875 29.203125 -20.796875 
Q 24.46875 -20.796875 20.265625 -20.09375 
Q 16.0625 -19.390625 12.109375 -17.921875 
L 12.109375 -9.1875 
Q 16.0625 -11.328125 19.921875 -12.34375 
Q 23.78125 -13.375 27.78125 -13.375 
Q 36.625 -13.375 41.015625 -8.765625 
Q 45.40625 -4.15625 45.40625 5.171875 
L 45.40625 9.625 
Q 42.625 4.78125 38.28125 2.390625 
Q 33.9375 0 27.875 0 
Q 17.828125 0 11.671875 7.65625 
Q 5.515625 15.328125 5.515625 27.984375 
Q 5.515625 40.671875 11.671875 48.328125 
Q 17.828125 56 27.875 56 
Q 33.9375 56 38.28125 53.609375 
Q 42.625 51.21875 45.40625 46.390625 
L 45.40625 54.6875 
L 54.390625 54.6875 
z
" id="DejaVuSans-67"/>
      <path d="M 30.609375 48.390625 
Q 23.390625 48.390625 19.1875 42.75 
Q 14.984375 37.109375 14.984375 27.296875 
Q 14.984375 17.484375 19.15625 11.84375 
Q 23.34375 6.203125 30.609375 6.203125 
Q 37.796875 6.203125 41.984375 11.859375 
Q 46.1875 17.53125 46.1875 27.296875 
Q 46.1875 37.015625 41.984375 42.703125 
Q 37.796875 48.390625 30.609375 48.390625 
z
M 30.609375 56 
Q 42.328125 56 49.015625 48.375 
Q 55.71875 40.765625 55.71875 27.296875 
Q 55.71875 13.875 49.015625 6.21875 
Q 42.328125 -1.421875 30.609375 -1.421875 
Q 18.84375 -1.421875 12.171875 6.21875 
Q 5.515625 13.875 5.515625 27.296875 
Q 5.515625 40.765625 12.171875 48.375 
Q 18.84375 56 30.609375 56 
z
" id="DejaVuSans-6f"/>
      <path d="M 9.421875 75.984375 
L 18.40625 75.984375 
L 18.40625 0 
L 9.421875 0 
z
" id="DejaVuSans-6c"/>
      <path d="M 39.40625 66.21875 
Q 28.65625 66.21875 22.328125 58.203125 
Q 16.015625 50.203125 16.015625 36.375 
Q 16.015625 22.609375 22.328125 14.59375 
Q 28.65625 6.59375 39.40625 6.59375 
Q 50.140625 6.59375 56.421875 14.59375 
Q 62.703125 22.609375 62.703125 36.375 
Q 62.703125 50.203125 56.421875 58.203125 
Q 50.140625 66.21875 39.40625 66.21875 
z
M 53.21875 1.3125 
L 66.21875 -12.890625 
L 54.296875 -12.890625 
L 43.5 -1.21875 
Q 41.890625 -1.3125 41.03125 -1.359375 
Q 40.1875 -1.421875 39.40625 -1.421875 
Q 24.03125 -1.421875 14.8125 8.859375 
Q 5.609375 19.140625 5.609375 36.375 
Q 5.609375 53.65625 14.8125 63.9375 
Q 24.03125 74.21875 39.40625 74.21875 
Q 54.734375 74.21875 63.90625 63.9375 
Q 73.09375 53.65625 73.09375 36.375 
Q 73.09375 23.6875 67.984375 14.640625 
Q 62.890625 5.609375 53.21875 1.3125 
z
" id="DejaVuSans-51"/>
      <path d="M 8.5 21.578125 
L 8.5 54.6875 
L 17.484375 54.6875 
L 17.484375 21.921875 
Q 17.484375 14.15625 20.5 10.265625 
Q 23.53125 6.390625 29.59375 6.390625 
Q 36.859375 6.390625 41.078125 11.03125 
Q 45.3125 15.671875 45.3125 23.6875 
L 45.3125 54.6875 
L 54.296875 54.6875 
L 54.296875 0 
L 45.3125 0 
L 45.3125 8.40625 
Q 42.046875 3.421875 37.71875 1 
Q 33.40625 -1.421875 27.6875 -1.421875 
Q 18.265625 -1.421875 13.375 4.4375 
Q 8.5 10.296875 8.5 21.578125 
z
M 31.109375 56 
z
" id="DejaVuSans-75"/>
      <path d="M 9.8125 72.90625 
L 19.671875 72.90625 
L 19.671875 8.296875 
L 55.171875 8.296875 
L 55.171875 0 
L 9.8125 0 
z
" id="DejaVuSans-4c"/>
      <path d="M 54.890625 33.015625 
L 54.890625 0 
L 45.90625 0 
L 45.90625 32.71875 
Q 45.90625 40.484375 42.875 44.328125 
Q 39.84375 48.1875 33.796875 48.1875 
Q 26.515625 48.1875 22.3125 43.546875 
Q 18.109375 38.921875 18.109375 30.90625 
L 18.109375 0 
L 9.078125 0 
L 9.078125 75.984375 
L 18.109375 75.984375 
L 18.109375 46.1875 
Q 21.34375 51.125 25.703125 53.5625 
Q 30.078125 56 35.796875 56 
Q 45.21875 56 50.046875 50.171875 
Q 54.890625 44.34375 54.890625 33.015625 
z
" id="DejaVuSans-68"/>
      <path d="M 4.890625 31.390625 
L 31.203125 31.390625 
L 31.203125 23.390625 
L 4.890625 23.390625 
z
" id="DejaVuSans-2d"/>
      <path d="M 9.8125 72.90625 
L 55.90625 72.90625 
L 55.90625 64.59375 
L 19.671875 64.59375 
L 19.671875 43.015625 
L 54.390625 43.015625 
L 54.390625 34.71875 
L 19.671875 34.71875 
L 19.671875 8.296875 
L 56.78125 8.296875 
L 56.78125 0 
L 9.8125 0 
z
" id="DejaVuSans-45"/>
      <path d="M 8.59375 75.984375 
L 29.296875 75.984375 
L 29.296875 69 
L 17.578125 69 
L 17.578125 -6.203125 
L 29.296875 -6.203125 
L 29.296875 -13.1875 
L 8.59375 -13.1875 
z
" id="DejaVuSans-5b"/>
      <path d="M 46 62.703125 
L 46 35.5 
L 73.1875 35.5 
L 73.1875 27.203125 
L 46 27.203125 
L 46 0 
L 37.796875 0 
L 37.796875 27.203125 
L 10.59375 27.203125 
L 10.59375 35.5 
L 37.796875 35.5 
L 37.796875 62.703125 
z
" id="DejaVuSans-2b"/>
      <path d="M 30.421875 75.984375 
L 30.421875 -13.1875 
L 9.71875 -13.1875 
L 9.71875 -6.203125 
L 21.390625 -6.203125 
L 21.390625 69 
L 9.71875 69 
L 9.71875 75.984375 
z
" id="DejaVuSans-5d"/>
     </defs>
     <g transform="translate(19.070312 323.535813)rotate(-90)scale(0.1 -0.1)">
      <use xlink:href="#DejaVuSans-41"/>
      <use x="68.330078" xlink:href="#DejaVuSans-76"/>
      <use x="127.509766" xlink:href="#DejaVuSans-65"/>
      <use x="189.033203" xlink:href="#DejaVuSans-72"/>
      <use x="230.146484" xlink:href="#DejaVuSans-61"/>
      <use x="291.425781" xlink:href="#DejaVuSans-67"/>
      <use x="354.902344" xlink:href="#DejaVuSans-65"/>
      <use x="416.425781" xlink:href="#DejaVuSans-20"/>
      <use x="448.212891" xlink:href="#DejaVuSans-54"/>
      <use x="509.03125" xlink:href="#DejaVuSans-6f"/>
      <use x="570.212891" xlink:href="#DejaVuSans-74"/>
      <use x="609.421875" xlink:href="#DejaVuSans-61"/>
      <use x="670.701172" xlink:href="#DejaVuSans-6c"/>
      <use x="698.484375" xlink:href="#DejaVuSans-20"/>
      <use x="730.271484" xlink:href="#DejaVuSans-51"/>
      <use x="808.982422" xlink:href="#DejaVuSans-75"/>
      <use x="872.361328" xlink:href="#DejaVuSans-65"/>
      <use x="933.884766" xlink:href="#DejaVuSans-75"/>
      <use x="997.263672" xlink:href="#DejaVuSans-65"/>
      <use x="1058.787109" xlink:href="#DejaVuSans-20"/>
      <use x="1090.574219" xlink:href="#DejaVuSans-4c"/>
      <use x="1146.271484" xlink:href="#DejaVuSans-65"/>
      <use x="1207.794922" xlink:href="#DejaVuSans-6e"/>
      <use x="1271.173828" xlink:href="#DejaVuSans-67"/>
      <use x="1334.650391" xlink:href="#DejaVuSans-74"/>
      <use x="1373.859375" xlink:href="#DejaVuSans-68"/>
      <use x="1437.238281" xlink:href="#DejaVuSans-20"/>
      <use x="1469.025391" xlink:href="#DejaVuSans-2d"/>
      <use x="1505.109375" xlink:href="#DejaVuSans-2d"/>
      <use x="1541.193359" xlink:href="#DejaVuSans-20"/>
      <use x="1572.980469" xlink:href="#DejaVuSans-45"/>
      <use x="1636.164062" xlink:href="#DejaVuSans-5b"/>
      <use x="1675.177734" xlink:href="#DejaVuSans-51"/>
      <use x="1753.888672" xlink:href="#DejaVuSans-31"/>
      <use x="1817.511719" xlink:href="#DejaVuSans-31"/>
      <use x="1881.134766" xlink:href="#DejaVuSans-20"/>
      <use x="1912.921875" xlink:href="#DejaVuSans-2b"/>
      <use x="1996.710938" xlink:href="#DejaVuSans-20"/>
      <use x="2028.498047" xlink:href="#DejaVuSans-51"/>
      <use x="2107.208984" xlink:href="#DejaVuSans-32"/>
      <use x="2170.832031" xlink:href="#DejaVuSans-32"/>
      <use x="2234.455078" xlink:href="#DejaVuSans-20"/>
      <use x="2266.242188" xlink:href="#DejaVuSans-2b"/>
      <use x="2350.03125" xlink:href="#DejaVuSans-20"/>
      <use x="2381.818359" xlink:href="#DejaVuSans-51"/>
      <use x="2460.529297" xlink:href="#DejaVuSans-31"/>
      <use x="2524.152344" xlink:href="#DejaVuSans-32"/>
      <use x="2587.775391" xlink:href="#DejaVuSans-20"/>
      <use x="2619.5625" xlink:href="#DejaVuSans-2b"/>
      <use x="2703.351562" xlink:href="#DejaVuSans-20"/>
      <use x="2735.138672" xlink:href="#DejaVuSans-51"/>
      <use x="2813.849609" xlink:href="#DejaVuSans-32"/>
      <use x="2877.472656" xlink:href="#DejaVuSans-31"/>
      <use x="2941.095703" xlink:href="#DejaVuSans-5d"/>
     </g>
    </g>
   </g>
   <g id="line2d_21">
    <path clip-path="url(#p4233f07bfb)" d="M 73.832727 295.487978 
L 109.94558 295.484437 
L 146.058433 295.477244 
L 182.171285 295.464681 
L 218.284138 295.444497 
L 254.396991 295.41265 
L 290.509843 295.359408 
L 326.622696 295.254905 
L 362.735549 294.941317 
L 366.346834 294.869317 
L 366.707962 294.859117 
L 367.069091 294.850837 
L 367.430219 294.844378 
L 367.791348 294.835227 
L 368.152476 294.828517 
L 368.513605 294.817086 
L 368.874734 294.809378 
L 369.235862 294.797219 
L 369.596991 294.789529 
L 369.958119 294.778959 
L 370.319248 294.767638 
L 370.680376 294.757863 
L 371.041505 294.748693 
L 371.402633 294.734082 
L 371.763762 294.731878 
L 372.12489 294.717584 
L 372.486019 294.701593 
L 372.847147 294.686577 
L 373.208276 294.673686 
L 373.569404 294.664356 
L 373.930533 294.650914 
L 374.291661 294.637859 
L 374.65279 294.628888 
L 375.013918 294.607365 
L 375.375047 294.59847 
L 375.736176 294.585408 
L 376.097304 294.555317 
L 376.458433 294.548521 
L 376.819561 294.531218 
L 377.18069 294.511147 
L 377.541818 294.497826 
L 377.902947 294.482876 
L 378.264075 294.462238 
L 378.625204 294.437879 
L 378.986332 294.41245 
L 379.347461 294.396656 
L 379.708589 294.370622 
L 380.069718 294.351179 
L 380.430846 294.325052 
L 380.791975 294.291502 
L 381.153103 294.278846 
L 381.514232 294.248868 
L 381.875361 294.214447 
L 382.236489 294.188239 
L 382.597618 294.15751 
L 382.958746 294.126768 
L 383.319875 294.087323 
L 383.681003 294.044505 
L 384.042132 294.023482 
L 384.40326 293.969935 
L 384.764389 293.940775 
L 385.125517 293.883972 
L 385.486646 293.850819 
L 385.847774 293.818389 
L 386.208903 293.749888 
L 386.570031 293.696456 
L 386.93116 293.638052 
L 387.292288 293.566305 
L 387.653417 293.51365 
L 388.014545 293.442428 
L 388.375674 293.377961 
L 388.736803 293.282788 
L 389.097931 293.181821 
L 389.45906 293.116065 
L 389.820188 293.026538 
L 390.181317 292.91049 
L 390.542445 292.74276 
L 390.903574 292.589561 
L 391.264702 292.551296 
L 391.625831 292.336305 
L 391.986959 292.173802 
L 392.348088 291.955836 
L 392.709216 291.787328 
L 393.070345 291.517475 
L 393.431473 291.365827 
L 393.792602 290.986735 
L 394.15373 290.623314 
L 394.514859 290.13 
L 394.875987 289.640877 
L 395.237116 288.994576 
L 395.598245 288.135505 
L 395.959373 287.441752 
L 396.320502 286.421382 
L 396.68163 284.858147 
L 397.042759 282.949572 
L 397.403887 279.672124 
L 397.765016 273.48401 
L 398.126144 261.454656 
L 398.487273 236.679931 
" style="fill:none;stroke:#1f77b4;stroke-linecap:square;stroke-width:4;"/>
   </g>
   <g id="line2d_22">
    <path clip-path="url(#p4233f07bfb)" d="M 73.832727 295.488 
L 109.94558 295.484641 
L 146.058433 295.477993 
L 182.171285 295.466408 
L 218.284138 295.447483 
L 254.396991 295.416156 
L 290.509843 295.360892 
L 326.622696 295.250061 
L 362.735549 294.919511 
L 366.346834 294.849835 
L 366.707962 294.838498 
L 367.069091 294.832485 
L 367.430219 294.824572 
L 367.791348 294.814376 
L 368.152476 294.805658 
L 368.513605 294.792927 
L 368.874734 294.786153 
L 369.235862 294.775662 
L 369.596991 294.768761 
L 369.958119 294.760101 
L 370.319248 294.748841 
L 370.680376 294.73605 
L 371.041505 294.724594 
L 371.402633 294.711297 
L 371.763762 294.704179 
L 372.12489 294.696619 
L 372.486019 294.675675 
L 372.847147 294.66521 
L 373.208276 294.650313 
L 373.569404 294.637552 
L 373.930533 294.625305 
L 374.291661 294.613151 
L 374.65279 294.59643 
L 375.013918 294.586451 
L 375.375047 294.571873 
L 375.736176 294.549706 
L 376.097304 294.539216 
L 376.458433 294.525372 
L 376.819561 294.501227 
L 377.18069 294.485815 
L 377.541818 294.460325 
L 377.902947 294.437613 
L 378.264075 294.426497 
L 378.625204 294.410676 
L 378.986332 294.378898 
L 379.347461 294.373608 
L 379.708589 294.341437 
L 380.069718 294.308203 
L 380.430846 294.289395 
L 380.791975 294.254221 
L 381.153103 294.240223 
L 381.514232 294.211251 
L 381.875361 294.188237 
L 382.236489 294.152282 
L 382.597618 294.112518 
L 382.958746 294.090289 
L 383.319875 294.064259 
L 383.681003 294.013712 
L 384.042132 293.973787 
L 384.40326 293.943486 
L 384.764389 293.901145 
L 385.125517 293.86811 
L 385.486646 293.821385 
L 385.847774 293.773666 
L 386.208903 293.713745 
L 386.570031 293.656396 
L 386.93116 293.591726 
L 387.292288 293.539072 
L 387.653417 293.509795 
L 388.014545 293.393695 
L 388.375674 293.330267 
L 388.736803 293.245639 
L 389.097931 293.148979 
L 389.45906 293.06343 
L 389.820188 292.96963 
L 390.181317 292.848102 
L 390.542445 292.788847 
L 390.903574 292.615122 
L 391.264702 292.528817 
L 391.625831 292.340651 
L 391.986959 292.15895 
L 392.348088 291.983283 
L 392.709216 291.884388 
L 393.070345 291.503766 
L 393.431473 291.213995 
L 393.792602 290.869086 
L 394.15373 290.682612 
L 394.514859 290.124963 
L 394.875987 289.728751 
L 395.237116 288.881042 
L 395.598245 288.614798 
L 395.959373 287.474016 
L 396.320502 286.024003 
L 396.68163 284.832027 
L 397.042759 282.067044 
L 397.403887 277.784661 
L 397.765016 274.018055 
L 398.126144 264.016034 
L 398.487273 234.043192 
" style="fill:none;stroke:#ff7f0e;stroke-linecap:square;stroke-width:2;"/>
   </g>
   <g id="line2d_23">
    <path clip-path="url(#p4233f07bfb)" d="M 73.832727 295.487969 
L 109.94558 295.484416 
L 146.058433 295.476993 
L 182.171285 295.463502 
L 218.284138 295.440055 
L 254.396991 295.398227 
L 290.509843 295.316075 
L 326.622696 295.117871 
L 362.735549 294.30645 
L 366.346834 294.118337 
L 366.707962 294.098948 
L 367.069091 294.08134 
L 367.430219 294.012545 
L 367.791348 294.006352 
L 368.152476 293.980381 
L 368.513605 293.943256 
L 368.874734 293.903416 
L 369.235862 293.885149 
L 369.596991 293.831201 
L 369.958119 293.817914 
L 370.319248 293.836128 
L 370.680376 293.748653 
L 371.041505 293.715615 
L 371.402633 293.669507 
L 371.763762 293.642147 
L 372.12489 293.5915 
L 372.486019 293.589861 
L 372.847147 293.486327 
L 373.208276 293.561396 
L 373.569404 293.400578 
L 373.930533 293.429762 
L 374.291661 293.315512 
L 374.65279 293.349231 
L 375.013918 293.191048 
L 375.375047 293.18391 
L 375.736176 293.022119 
L 376.097304 293.081922 
L 376.458433 292.896407 
L 376.819561 292.89542 
L 377.18069 292.892905 
L 377.541818 292.691496 
L 377.902947 292.712792 
L 378.264075 292.663904 
L 378.625204 292.674609 
L 378.986332 292.52728 
L 379.347461 292.280984 
L 379.708589 292.329719 
L 380.069718 292.343539 
L 380.430846 292.244407 
L 380.791975 292.125476 
L 381.153103 291.990757 
L 381.514232 291.761731 
L 381.875361 291.907141 
L 382.236489 291.557912 
L 382.597618 291.321108 
L 382.958746 291.070402 
L 383.319875 291.178764 
L 383.681003 291.157509 
L 384.042132 290.952864 
L 384.40326 291.082892 
L 384.764389 289.942598 
L 385.125517 290.247916 
L 385.486646 290.015692 
L 385.847774 289.600814 
L 386.208903 289.624456 
L 386.570031 289.122744 
L 386.93116 289.270676 
L 387.292288 289.332859 
L 387.653417 287.58159 
L 388.014545 288.346147 
L 388.375674 287.902983 
L 388.736803 286.377409 
L 389.097931 285.477805 
L 389.45906 286.103307 
L 389.820188 285.634797 
L 390.181317 281.693814 
L 390.542445 283.887896 
L 390.903574 284.920286 
L 391.264702 283.172003 
L 391.625831 283.693561 
L 391.986959 282.890257 
L 392.348088 275.367914 
L 392.709216 268.413012 
L 393.070345 273.938611 
L 393.431473 269.266714 
L 393.792602 272.388585 
L 394.15373 267.158115 
L 394.514859 272.487381 
L 394.875987 271.104321 
L 395.237116 262.745807 
L 395.598245 256.433244 
L 395.959373 253.258485 
L 396.320502 196.063375 
L 396.68163 243.139316 
L 397.042759 198.221353 
L 397.403887 219.576176 
L 397.765016 55.328525 
L 398.126144 53.568 
L 398.487273 206.729367 
" style="fill:none;stroke:#2ca02c;stroke-linecap:square;stroke-width:2;"/>
   </g>
   <g id="line2d_24">
    <path clip-path="url(#p4233f07bfb)" d="M 73.832727 295.487965 
L 109.94558 295.484458 
L 146.058433 295.4772 
L 182.171285 295.464768 
L 218.284138 295.444952 
L 254.396991 295.413889 
L 290.509843 295.363923 
L 326.622696 295.268609 
L 362.735549 294.992087 
L 366.346834 294.930163 
L 366.707962 294.923287 
L 367.069091 294.914883 
L 367.430219 294.909861 
L 367.791348 294.906693 
L 368.152476 294.893268 
L 368.513605 294.887983 
L 368.874734 294.879884 
L 369.235862 294.873545 
L 369.596991 294.860846 
L 369.958119 294.856394 
L 370.319248 294.84337 
L 370.680376 294.837131 
L 371.041505 294.828032 
L 371.402633 294.817121 
L 371.763762 294.812356 
L 372.12489 294.796916 
L 372.486019 294.789991 
L 372.847147 294.782482 
L 373.208276 294.766506 
L 373.569404 294.756467 
L 373.930533 294.744421 
L 374.291661 294.729235 
L 374.65279 294.723938 
L 375.013918 294.70779 
L 375.375047 294.698159 
L 375.736176 294.680809 
L 376.097304 294.670172 
L 376.458433 294.65108 
L 376.819561 294.637538 
L 377.18069 294.626979 
L 377.541818 294.609159 
L 377.902947 294.592108 
L 378.264075 294.581573 
L 378.625204 294.562629 
L 378.986332 294.543801 
L 379.347461 294.528113 
L 379.708589 294.50991 
L 380.069718 294.483396 
L 380.430846 294.46061 
L 380.791975 294.436998 
L 381.153103 294.4135 
L 381.514232 294.390536 
L 381.875361 294.367948 
L 382.236489 294.347324 
L 382.597618 294.325173 
L 382.958746 294.297149 
L 383.319875 294.253962 
L 383.681003 294.236786 
L 384.042132 294.193922 
L 384.40326 294.153333 
L 384.764389 294.125166 
L 385.125517 294.090165 
L 385.486646 294.066268 
L 385.847774 294.011565 
L 386.208903 293.970533 
L 386.570031 293.914226 
L 386.93116 293.871694 
L 387.292288 293.83017 
L 387.653417 293.77593 
L 388.014545 293.690061 
L 388.375674 293.655559 
L 388.736803 293.54839 
L 389.097931 293.478205 
L 389.45906 293.425819 
L 389.820188 293.35275 
L 390.181317 293.233022 
L 390.542445 293.138441 
L 390.903574 293.021355 
L 391.264702 292.922147 
L 391.625831 292.773272 
L 391.986959 292.594511 
L 392.348088 292.446508 
L 392.709216 292.326622 
L 393.070345 292.094821 
L 393.431473 291.91531 
L 393.792602 291.559636 
L 394.15373 291.222449 
L 394.514859 290.92677 
L 394.875987 290.383499 
L 395.237116 289.989435 
L 395.598245 289.435331 
L 395.959373 288.929114 
L 396.320502 287.017945 
L 396.68163 285.721146 
L 397.042759 283.260801 
L 397.403887 282.107638 
L 397.765016 278.174684 
L 398.126144 267.714778 
L 398.487273 238.308675 
" style="fill:none;stroke:#d62728;stroke-linecap:square;stroke-width:2;"/>
   </g>
   <g id="line2d_25">
    <path clip-path="url(#p4233f07bfb)" d="M 73.832727 295.487976 
L 109.94558 295.484423 
L 146.058433 295.477012 
L 182.171285 295.463545 
L 218.284138 295.440015 
L 254.396991 295.398396 
L 290.509843 295.317458 
L 326.622696 295.126553 
L 362.735549 294.373575 
L 366.346834 294.169038 
L 366.707962 294.150922 
L 367.069091 294.152752 
L 367.430219 294.094536 
L 367.791348 294.086049 
L 368.152476 294.08017 
L 368.513605 294.03969 
L 368.874734 294.013457 
L 369.235862 293.959738 
L 369.596991 293.931974 
L 369.958119 293.934802 
L 370.319248 293.883027 
L 370.680376 293.853435 
L 371.041505 293.819125 
L 371.402633 293.858089 
L 371.763762 293.697522 
L 372.12489 293.763951 
L 372.486019 293.631817 
L 372.847147 293.616304 
L 373.208276 293.625521 
L 373.569404 293.575896 
L 373.930533 293.558025 
L 374.291661 293.48266 
L 374.65279 293.449664 
L 375.013918 293.314297 
L 375.375047 293.301141 
L 375.736176 293.267059 
L 376.097304 293.230663 
L 376.458433 293.202179 
L 376.819561 293.089231 
L 377.18069 293.011066 
L 377.541818 293.017085 
L 377.902947 292.917029 
L 378.264075 292.868327 
L 378.625204 292.690871 
L 378.986332 292.731615 
L 379.347461 292.644427 
L 379.708589 292.700411 
L 380.069718 292.560908 
L 380.430846 292.252187 
L 380.791975 292.436117 
L 381.153103 292.154146 
L 381.514232 292.001008 
L 381.875361 292.05527 
L 382.236489 291.726203 
L 382.597618 291.649253 
L 382.958746 291.773332 
L 383.319875 291.622514 
L 383.681003 291.137998 
L 384.042132 291.151962 
L 384.40326 291.327795 
L 384.764389 291.12198 
L 385.125517 290.521294 
L 385.486646 289.922124 
L 385.847774 289.988777 
L 386.208903 290.233817 
L 386.570031 289.920422 
L 386.93116 288.861847 
L 387.292288 289.644946 
L 387.653417 288.743003 
L 388.014545 289.26728 
L 388.375674 288.920176 
L 388.736803 288.65168 
L 389.097931 286.454177 
L 389.45906 284.103089 
L 389.820188 284.403165 
L 390.181317 286.789937 
L 390.542445 282.381921 
L 390.903574 283.417644 
L 391.264702 279.950819 
L 391.625831 284.130658 
L 391.986959 283.855577 
L 392.348088 280.443762 
L 392.709216 279.6557 
L 393.070345 281.14319 
L 393.431473 277.707167 
L 393.792602 277.687814 
L 394.15373 275.269927 
L 394.514859 273.188662 
L 394.875987 261.547765 
L 395.237116 211.334968 
L 395.598245 225.12289 
L 395.959373 251.185641 
L 396.320502 236.548071 
L 396.68163 221.418565 
L 397.042759 244.251688 
L 397.403887 235.37282 
L 397.765016 198.415841 
L 398.126144 109.030203 
L 398.487273 162.738478 
" style="fill:none;stroke:#9467bd;stroke-linecap:square;stroke-width:2;"/>
   </g>
   <g id="line2d_26">
    <path clip-path="url(#p4233f07bfb)" d="M 73.832727 295.487976 
L 109.94558 295.484426 
L 146.058433 295.477184 
L 182.171285 295.464432 
L 218.284138 295.443188 
L 254.396991 295.407598 
L 290.509843 295.343906 
L 326.622696 295.210483 
L 362.735549 294.803413 
L 366.346834 294.712676 
L 366.707962 294.701452 
L 367.069091 294.688277 
L 367.430219 294.680658 
L 367.791348 294.666852 
L 368.152476 294.659387 
L 368.513605 294.649816 
L 368.874734 294.638676 
L 369.235862 294.622595 
L 369.596991 294.613909 
L 369.958119 294.599296 
L 370.319248 294.584736 
L 370.680376 294.578538 
L 371.041505 294.561574 
L 371.402633 294.550392 
L 371.763762 294.534818 
L 372.12489 294.522477 
L 372.486019 294.504796 
L 372.847147 294.498431 
L 373.208276 294.473994 
L 373.569404 294.463402 
L 373.930533 294.441622 
L 374.291661 294.429228 
L 374.65279 294.40828 
L 375.013918 294.391545 
L 375.375047 294.374757 
L 375.736176 294.35076 
L 376.097304 294.335464 
L 376.458433 294.311409 
L 376.819561 294.286521 
L 377.18069 294.273364 
L 377.541818 294.24989 
L 377.902947 294.231711 
L 378.264075 294.197651 
L 378.625204 294.17841 
L 378.986332 294.15339 
L 379.347461 294.125577 
L 379.708589 294.10818 
L 380.069718 294.069338 
L 380.430846 294.049093 
L 380.791975 294.02091 
L 381.153103 293.976957 
L 381.514232 293.963933 
L 381.875361 293.924088 
L 382.236489 293.874461 
L 382.597618 293.841677 
L 382.958746 293.799429 
L 383.319875 293.766809 
L 383.681003 293.728975 
L 384.042132 293.687324 
L 384.40326 293.633004 
L 384.764389 293.601722 
L 385.125517 293.554773 
L 385.486646 293.501995 
L 385.847774 293.446888 
L 386.208903 293.3648 
L 386.570031 293.32267 
L 386.93116 293.262548 
L 387.292288 293.19287 
L 387.653417 293.118413 
L 388.014545 293.012375 
L 388.375674 292.92967 
L 388.736803 292.87611 
L 389.097931 292.760738 
L 389.45906 292.652593 
L 389.820188 292.544745 
L 390.181317 292.436072 
L 390.542445 292.286648 
L 390.903574 292.119629 
L 391.264702 292.072668 
L 391.625831 291.837084 
L 391.986959 291.642727 
L 392.348088 291.476115 
L 392.709216 291.304474 
L 393.070345 291.013614 
L 393.431473 290.791795 
L 393.792602 290.240284 
L 394.15373 290.027774 
L 394.514859 289.57777 
L 394.875987 289.118079 
L 395.237116 288.274125 
L 395.598245 287.702323 
L 395.959373 287.223222 
L 396.320502 285.587072 
L 396.68163 284.380327 
L 397.042759 281.511652 
L 397.403887 278.023357 
L 397.765016 273.324043 
L 398.126144 264.597697 
L 398.487273 236.868494 
" style="fill:none;stroke:#8c564b;stroke-linecap:square;stroke-width:2;"/>
   </g>
   <g id="patch_3">
    <path d="M 57.6 307.584 
L 57.6 41.472 
" style="fill:none;stroke:#000000;stroke-linecap:square;stroke-linejoin:miter;stroke-width:0.8;"/>
   </g>
   <g id="patch_4">
    <path d="M 414.72 307.584 
L 414.72 41.472 
" style="fill:none;stroke:#000000;stroke-linecap:square;stroke-linejoin:miter;stroke-width:0.8;"/>
   </g>
   <g id="patch_5">
    <path d="M 57.6 307.584 
L 414.72 307.584 
" style="fill:none;stroke:#000000;stroke-linecap:square;stroke-linejoin:miter;stroke-width:0.8;"/>
   </g>
   <g id="patch_6">
    <path d="M 57.6 41.472 
L 414.72 41.472 
" style="fill:none;stroke:#000000;stroke-linecap:square;stroke-linejoin:miter;stroke-width:0.8;"/>
   </g>
   <g id="text_13">
    <!-- E[Q11 + Q22 + Q12 + Q21] vs Traffic Intensity, Vs Value: [0.75, 0.75, 0.25, 0.25] -->
    <defs>
     <path d="M 11.71875 12.40625 
L 22.015625 12.40625 
L 22.015625 4 
L 14.015625 -11.625 
L 7.71875 -11.625 
L 11.71875 4 
z
" id="DejaVuSans-2c"/>
     <path d="M 28.609375 0 
L 0.78125 72.90625 
L 11.078125 72.90625 
L 34.1875 11.53125 
L 57.328125 72.90625 
L 67.578125 72.90625 
L 39.796875 0 
z
" id="DejaVuSans-56"/>
     <path d="M 11.71875 12.40625 
L 22.015625 12.40625 
L 22.015625 0 
L 11.71875 0 
z
M 11.71875 51.703125 
L 22.015625 51.703125 
L 22.015625 39.3125 
L 11.71875 39.3125 
z
" id="DejaVuSans-3a"/>
     <path d="M 8.203125 72.90625 
L 55.078125 72.90625 
L 55.078125 68.703125 
L 28.609375 0 
L 18.3125 0 
L 43.21875 64.59375 
L 8.203125 64.59375 
z
" id="DejaVuSans-37"/>
    </defs>
    <g transform="translate(-9.143438 35.472)scale(0.12 -0.12)">
     <use xlink:href="#DejaVuSans-45"/>
     <use x="63.183594" xlink:href="#DejaVuSans-5b"/>
     <use x="102.197266" xlink:href="#DejaVuSans-51"/>
     <use x="180.908203" xlink:href="#DejaVuSans-31"/>
     <use x="244.53125" xlink:href="#DejaVuSans-31"/>
     <use x="308.154297" xlink:href="#DejaVuSans-20"/>
     <use x="339.941406" xlink:href="#DejaVuSans-2b"/>
     <use x="423.730469" xlink:href="#DejaVuSans-20"/>
     <use x="455.517578" xlink:href="#DejaVuSans-51"/>
     <use x="534.228516" xlink:href="#DejaVuSans-32"/>
     <use x="597.851562" xlink:href="#DejaVuSans-32"/>
     <use x="661.474609" xlink:href="#DejaVuSans-20"/>
     <use x="693.261719" xlink:href="#DejaVuSans-2b"/>
     <use x="777.050781" xlink:href="#DejaVuSans-20"/>
     <use x="808.837891" xlink:href="#DejaVuSans-51"/>
     <use x="887.548828" xlink:href="#DejaVuSans-31"/>
     <use x="951.171875" xlink:href="#DejaVuSans-32"/>
     <use x="1014.794922" xlink:href="#DejaVuSans-20"/>
     <use x="1046.582031" xlink:href="#DejaVuSans-2b"/>
     <use x="1130.371094" xlink:href="#DejaVuSans-20"/>
     <use x="1162.158203" xlink:href="#DejaVuSans-51"/>
     <use x="1240.869141" xlink:href="#DejaVuSans-32"/>
     <use x="1304.492188" xlink:href="#DejaVuSans-31"/>
     <use x="1368.115234" xlink:href="#DejaVuSans-5d"/>
     <use x="1407.128906" xlink:href="#DejaVuSans-20"/>
     <use x="1438.916016" xlink:href="#DejaVuSans-76"/>
     <use x="1498.095703" xlink:href="#DejaVuSans-73"/>
     <use x="1550.195312" xlink:href="#DejaVuSans-20"/>
     <use x="1581.982422" xlink:href="#DejaVuSans-54"/>
     <use x="1642.847656" xlink:href="#DejaVuSans-72"/>
     <use x="1683.960938" xlink:href="#DejaVuSans-61"/>
     <use x="1745.240234" xlink:href="#DejaVuSans-66"/>
     <use x="1780.445312" xlink:href="#DejaVuSans-66"/>
     <use x="1815.650391" xlink:href="#DejaVuSans-69"/>
     <use x="1843.433594" xlink:href="#DejaVuSans-63"/>
     <use x="1898.414062" xlink:href="#DejaVuSans-20"/>
     <use x="1930.201172" xlink:href="#DejaVuSans-49"/>
     <use x="1959.693359" xlink:href="#DejaVuSans-6e"/>
     <use x="2023.072266" xlink:href="#DejaVuSans-74"/>
     <use x="2062.28125" xlink:href="#DejaVuSans-65"/>
     <use x="2123.804688" xlink:href="#DejaVuSans-6e"/>
     <use x="2187.183594" xlink:href="#DejaVuSans-73"/>
     <use x="2239.283203" xlink:href="#DejaVuSans-69"/>
     <use x="2267.066406" xlink:href="#DejaVuSans-74"/>
     <use x="2306.275391" xlink:href="#DejaVuSans-79"/>
     <use x="2365.455078" xlink:href="#DejaVuSans-2c"/>
     <use x="2397.242188" xlink:href="#DejaVuSans-20"/>
     <use x="2429.029297" xlink:href="#DejaVuSans-56"/>
     <use x="2497.4375" xlink:href="#DejaVuSans-73"/>
     <use x="2549.537109" xlink:href="#DejaVuSans-20"/>
     <use x="2581.324219" xlink:href="#DejaVuSans-56"/>
     <use x="2649.623047" xlink:href="#DejaVuSans-61"/>
     <use x="2710.902344" xlink:href="#DejaVuSans-6c"/>
     <use x="2738.685547" xlink:href="#DejaVuSans-75"/>
     <use x="2802.064453" xlink:href="#DejaVuSans-65"/>
     <use x="2863.587891" xlink:href="#DejaVuSans-3a"/>
     <use x="2897.279297" xlink:href="#DejaVuSans-20"/>
     <use x="2929.066406" xlink:href="#DejaVuSans-5b"/>
     <use x="2968.080078" xlink:href="#DejaVuSans-30"/>
     <use x="3031.703125" xlink:href="#DejaVuSans-2e"/>
     <use x="3063.490234" xlink:href="#DejaVuSans-37"/>
     <use x="3127.113281" xlink:href="#DejaVuSans-35"/>
     <use x="3190.736328" xlink:href="#DejaVuSans-2c"/>
     <use x="3222.523438" xlink:href="#DejaVuSans-20"/>
     <use x="3254.310547" xlink:href="#DejaVuSans-30"/>
     <use x="3317.933594" xlink:href="#DejaVuSans-2e"/>
     <use x="3349.720703" xlink:href="#DejaVuSans-37"/>
     <use x="3413.34375" xlink:href="#DejaVuSans-35"/>
     <use x="3476.966797" xlink:href="#DejaVuSans-2c"/>
     <use x="3508.753906" xlink:href="#DejaVuSans-20"/>
     <use x="3540.541016" xlink:href="#DejaVuSans-30"/>
     <use x="3604.164062" xlink:href="#DejaVuSans-2e"/>
     <use x="3635.951172" xlink:href="#DejaVuSans-32"/>
     <use x="3699.574219" xlink:href="#DejaVuSans-35"/>
     <use x="3763.197266" xlink:href="#DejaVuSans-2c"/>
     <use x="3794.984375" xlink:href="#DejaVuSans-20"/>
     <use x="3826.771484" xlink:href="#DejaVuSans-30"/>
     <use x="3890.394531" xlink:href="#DejaVuSans-2e"/>
     <use x="3922.181641" xlink:href="#DejaVuSans-32"/>
     <use x="3985.804688" xlink:href="#DejaVuSans-35"/>
     <use x="4049.427734" xlink:href="#DejaVuSans-5d"/>
    </g>
   </g>
   <g id="legend_1">
    <g id="patch_7">
     <path d="M 64.6 138.931375 
L 202.339062 138.931375 
Q 204.339062 138.931375 204.339062 136.931375 
L 204.339062 48.472 
Q 204.339062 46.472 202.339062 46.472 
L 64.6 46.472 
Q 62.6 46.472 62.6 48.472 
L 62.6 136.931375 
Q 62.6 138.931375 64.6 138.931375 
z
" style="fill:#ffffff;opacity:0.8;stroke:#cccccc;stroke-linejoin:miter;"/>
    </g>
    <g id="line2d_27">
     <path d="M 66.6 54.570438 
L 86.6 54.570438 
" style="fill:none;stroke:#1f77b4;stroke-linecap:square;stroke-width:4;"/>
    </g>
    <g id="line2d_28"/>
    <g id="text_14">
     <!-- MaxWt -->
     <defs>
      <path d="M 9.8125 72.90625 
L 24.515625 72.90625 
L 43.109375 23.296875 
L 61.8125 72.90625 
L 76.515625 72.90625 
L 76.515625 0 
L 66.890625 0 
L 66.890625 64.015625 
L 48.09375 14.015625 
L 38.1875 14.015625 
L 19.390625 64.015625 
L 19.390625 0 
L 9.8125 0 
z
" id="DejaVuSans-4d"/>
      <path d="M 54.890625 54.6875 
L 35.109375 28.078125 
L 55.90625 0 
L 45.3125 0 
L 29.390625 21.484375 
L 13.484375 0 
L 2.875 0 
L 24.125 28.609375 
L 4.6875 54.6875 
L 15.28125 54.6875 
L 29.78125 35.203125 
L 44.28125 54.6875 
z
" id="DejaVuSans-78"/>
      <path d="M 3.328125 72.90625 
L 13.28125 72.90625 
L 28.609375 11.28125 
L 43.890625 72.90625 
L 54.984375 72.90625 
L 70.3125 11.28125 
L 85.59375 72.90625 
L 95.609375 72.90625 
L 77.296875 0 
L 64.890625 0 
L 49.515625 63.28125 
L 33.984375 0 
L 21.578125 0 
z
" id="DejaVuSans-57"/>
     </defs>
     <g transform="translate(94.6 58.070438)scale(0.1 -0.1)">
      <use xlink:href="#DejaVuSans-4d"/>
      <use x="86.279297" xlink:href="#DejaVuSans-61"/>
      <use x="147.558594" xlink:href="#DejaVuSans-78"/>
      <use x="206.738281" xlink:href="#DejaVuSans-57"/>
      <use x="305.615234" xlink:href="#DejaVuSans-74"/>
     </g>
    </g>
    <g id="line2d_29">
     <path d="M 66.6 69.248563 
L 86.6 69.248563 
" style="fill:none;stroke:#ff7f0e;stroke-linecap:square;stroke-width:2;"/>
    </g>
    <g id="line2d_30"/>
    <g id="text_15">
     <!-- MaxSize_random -->
     <defs>
      <path d="M 53.515625 70.515625 
L 53.515625 60.890625 
Q 47.90625 63.578125 42.921875 64.890625 
Q 37.9375 66.21875 33.296875 66.21875 
Q 25.25 66.21875 20.875 63.09375 
Q 16.5 59.96875 16.5 54.203125 
Q 16.5 49.359375 19.40625 46.890625 
Q 22.3125 44.4375 30.421875 42.921875 
L 36.375 41.703125 
Q 47.40625 39.59375 52.65625 34.296875 
Q 57.90625 29 57.90625 20.125 
Q 57.90625 9.515625 50.796875 4.046875 
Q 43.703125 -1.421875 29.984375 -1.421875 
Q 24.8125 -1.421875 18.96875 -0.25 
Q 13.140625 0.921875 6.890625 3.21875 
L 6.890625 13.375 
Q 12.890625 10.015625 18.65625 8.296875 
Q 24.421875 6.59375 29.984375 6.59375 
Q 38.421875 6.59375 43.015625 9.90625 
Q 47.609375 13.234375 47.609375 19.390625 
Q 47.609375 24.75 44.3125 27.78125 
Q 41.015625 30.8125 33.5 32.328125 
L 27.484375 33.5 
Q 16.453125 35.6875 11.515625 40.375 
Q 6.59375 45.0625 6.59375 53.421875 
Q 6.59375 63.09375 13.40625 68.65625 
Q 20.21875 74.21875 32.171875 74.21875 
Q 37.3125 74.21875 42.625 73.28125 
Q 47.953125 72.359375 53.515625 70.515625 
z
" id="DejaVuSans-53"/>
      <path d="M 5.515625 54.6875 
L 48.1875 54.6875 
L 48.1875 46.484375 
L 14.40625 7.171875 
L 48.1875 7.171875 
L 48.1875 0 
L 4.296875 0 
L 4.296875 8.203125 
L 38.09375 47.515625 
L 5.515625 47.515625 
z
" id="DejaVuSans-7a"/>
      <path d="M 50.984375 -16.609375 
L 50.984375 -23.578125 
L -0.984375 -23.578125 
L -0.984375 -16.609375 
z
" id="DejaVuSans-5f"/>
      <path d="M 45.40625 46.390625 
L 45.40625 75.984375 
L 54.390625 75.984375 
L 54.390625 0 
L 45.40625 0 
L 45.40625 8.203125 
Q 42.578125 3.328125 38.25 0.953125 
Q 33.9375 -1.421875 27.875 -1.421875 
Q 17.96875 -1.421875 11.734375 6.484375 
Q 5.515625 14.40625 5.515625 27.296875 
Q 5.515625 40.1875 11.734375 48.09375 
Q 17.96875 56 27.875 56 
Q 33.9375 56 38.25 53.625 
Q 42.578125 51.265625 45.40625 46.390625 
z
M 14.796875 27.296875 
Q 14.796875 17.390625 18.875 11.75 
Q 22.953125 6.109375 30.078125 6.109375 
Q 37.203125 6.109375 41.296875 11.75 
Q 45.40625 17.390625 45.40625 27.296875 
Q 45.40625 37.203125 41.296875 42.84375 
Q 37.203125 48.484375 30.078125 48.484375 
Q 22.953125 48.484375 18.875 42.84375 
Q 14.796875 37.203125 14.796875 27.296875 
z
" id="DejaVuSans-64"/>
      <path d="M 52 44.1875 
Q 55.375 50.25 60.0625 53.125 
Q 64.75 56 71.09375 56 
Q 79.640625 56 84.28125 50.015625 
Q 88.921875 44.046875 88.921875 33.015625 
L 88.921875 0 
L 79.890625 0 
L 79.890625 32.71875 
Q 79.890625 40.578125 77.09375 44.375 
Q 74.3125 48.1875 68.609375 48.1875 
Q 61.625 48.1875 57.5625 43.546875 
Q 53.515625 38.921875 53.515625 30.90625 
L 53.515625 0 
L 44.484375 0 
L 44.484375 32.71875 
Q 44.484375 40.625 41.703125 44.40625 
Q 38.921875 48.1875 33.109375 48.1875 
Q 26.21875 48.1875 22.15625 43.53125 
Q 18.109375 38.875 18.109375 30.90625 
L 18.109375 0 
L 9.078125 0 
L 9.078125 54.6875 
L 18.109375 54.6875 
L 18.109375 46.1875 
Q 21.1875 51.21875 25.484375 53.609375 
Q 29.78125 56 35.6875 56 
Q 41.65625 56 45.828125 52.96875 
Q 50 49.953125 52 44.1875 
z
" id="DejaVuSans-6d"/>
     </defs>
     <g transform="translate(94.6 72.748563)scale(0.1 -0.1)">
      <use xlink:href="#DejaVuSans-4d"/>
      <use x="86.279297" xlink:href="#DejaVuSans-61"/>
      <use x="147.558594" xlink:href="#DejaVuSans-78"/>
      <use x="206.738281" xlink:href="#DejaVuSans-53"/>
      <use x="270.214844" xlink:href="#DejaVuSans-69"/>
      <use x="297.998047" xlink:href="#DejaVuSans-7a"/>
      <use x="350.488281" xlink:href="#DejaVuSans-65"/>
      <use x="412.011719" xlink:href="#DejaVuSans-5f"/>
      <use x="462.011719" xlink:href="#DejaVuSans-72"/>
      <use x="503.125" xlink:href="#DejaVuSans-61"/>
      <use x="564.404297" xlink:href="#DejaVuSans-6e"/>
      <use x="627.783203" xlink:href="#DejaVuSans-64"/>
      <use x="691.259766" xlink:href="#DejaVuSans-6f"/>
      <use x="752.441406" xlink:href="#DejaVuSans-6d"/>
     </g>
    </g>
    <g id="line2d_31">
     <path d="M 66.6 84.204813 
L 86.6 84.204813 
" style="fill:none;stroke:#2ca02c;stroke-linecap:square;stroke-width:2;"/>
    </g>
    <g id="line2d_32"/>
    <g id="text_16">
     <!-- MaxSize_Pri11_22 -->
     <defs>
      <path d="M 19.671875 64.796875 
L 19.671875 37.40625 
L 32.078125 37.40625 
Q 38.96875 37.40625 42.71875 40.96875 
Q 46.484375 44.53125 46.484375 51.125 
Q 46.484375 57.671875 42.71875 61.234375 
Q 38.96875 64.796875 32.078125 64.796875 
z
M 9.8125 72.90625 
L 32.078125 72.90625 
Q 44.34375 72.90625 50.609375 67.359375 
Q 56.890625 61.8125 56.890625 51.125 
Q 56.890625 40.328125 50.609375 34.8125 
Q 44.34375 29.296875 32.078125 29.296875 
L 19.671875 29.296875 
L 19.671875 0 
L 9.8125 0 
z
" id="DejaVuSans-50"/>
     </defs>
     <g transform="translate(94.6 87.704813)scale(0.1 -0.1)">
      <use xlink:href="#DejaVuSans-4d"/>
      <use x="86.279297" xlink:href="#DejaVuSans-61"/>
      <use x="147.558594" xlink:href="#DejaVuSans-78"/>
      <use x="206.738281" xlink:href="#DejaVuSans-53"/>
      <use x="270.214844" xlink:href="#DejaVuSans-69"/>
      <use x="297.998047" xlink:href="#DejaVuSans-7a"/>
      <use x="350.488281" xlink:href="#DejaVuSans-65"/>
      <use x="412.011719" xlink:href="#DejaVuSans-5f"/>
      <use x="462.011719" xlink:href="#DejaVuSans-50"/>
      <use x="522.298828" xlink:href="#DejaVuSans-72"/>
      <use x="563.412109" xlink:href="#DejaVuSans-69"/>
      <use x="591.195312" xlink:href="#DejaVuSans-31"/>
      <use x="654.818359" xlink:href="#DejaVuSans-31"/>
      <use x="718.441406" xlink:href="#DejaVuSans-5f"/>
      <use x="768.441406" xlink:href="#DejaVuSans-32"/>
      <use x="832.064453" xlink:href="#DejaVuSans-32"/>
     </g>
    </g>
    <g id="line2d_33">
     <path d="M 66.6 99.161063 
L 86.6 99.161063 
" style="fill:none;stroke:#d62728;stroke-linecap:square;stroke-width:2;"/>
    </g>
    <g id="line2d_34"/>
    <g id="text_17">
     <!-- MaxSize_PriMaxWt -->
     <g transform="translate(94.6 102.661063)scale(0.1 -0.1)">
      <use xlink:href="#DejaVuSans-4d"/>
      <use x="86.279297" xlink:href="#DejaVuSans-61"/>
      <use x="147.558594" xlink:href="#DejaVuSans-78"/>
      <use x="206.738281" xlink:href="#DejaVuSans-53"/>
      <use x="270.214844" xlink:href="#DejaVuSans-69"/>
      <use x="297.998047" xlink:href="#DejaVuSans-7a"/>
      <use x="350.488281" xlink:href="#DejaVuSans-65"/>
      <use x="412.011719" xlink:href="#DejaVuSans-5f"/>
      <use x="462.011719" xlink:href="#DejaVuSans-50"/>
      <use x="522.298828" xlink:href="#DejaVuSans-72"/>
      <use x="563.412109" xlink:href="#DejaVuSans-69"/>
      <use x="591.195312" xlink:href="#DejaVuSans-4d"/>
      <use x="677.474609" xlink:href="#DejaVuSans-61"/>
      <use x="738.753906" xlink:href="#DejaVuSans-78"/>
      <use x="797.933594" xlink:href="#DejaVuSans-57"/>
      <use x="896.810547" xlink:href="#DejaVuSans-74"/>
     </g>
    </g>
    <g id="line2d_35">
     <path d="M 66.6 114.117313 
L 86.6 114.117313 
" style="fill:none;stroke:#9467bd;stroke-linecap:square;stroke-width:2;"/>
    </g>
    <g id="line2d_36"/>
    <g id="text_18">
     <!-- MaxSize_PriMinWt -->
     <g transform="translate(94.6 117.617313)scale(0.1 -0.1)">
      <use xlink:href="#DejaVuSans-4d"/>
      <use x="86.279297" xlink:href="#DejaVuSans-61"/>
      <use x="147.558594" xlink:href="#DejaVuSans-78"/>
      <use x="206.738281" xlink:href="#DejaVuSans-53"/>
      <use x="270.214844" xlink:href="#DejaVuSans-69"/>
      <use x="297.998047" xlink:href="#DejaVuSans-7a"/>
      <use x="350.488281" xlink:href="#DejaVuSans-65"/>
      <use x="412.011719" xlink:href="#DejaVuSans-5f"/>
      <use x="462.011719" xlink:href="#DejaVuSans-50"/>
      <use x="522.298828" xlink:href="#DejaVuSans-72"/>
      <use x="563.412109" xlink:href="#DejaVuSans-69"/>
      <use x="591.195312" xlink:href="#DejaVuSans-4d"/>
      <use x="677.474609" xlink:href="#DejaVuSans-69"/>
      <use x="705.257812" xlink:href="#DejaVuSans-6e"/>
      <use x="768.636719" xlink:href="#DejaVuSans-57"/>
      <use x="867.513672" xlink:href="#DejaVuSans-74"/>
     </g>
    </g>
    <g id="line2d_37">
     <path d="M 66.6 129.073563 
L 86.6 129.073563 
" style="fill:none;stroke:#8c564b;stroke-linecap:square;stroke-width:2;"/>
    </g>
    <g id="line2d_38"/>
    <g id="text_19">
     <!-- MaxArrival_PriMaxWt -->
     <g transform="translate(94.6 132.573563)scale(0.1 -0.1)">
      <use xlink:href="#DejaVuSans-4d"/>
      <use x="86.279297" xlink:href="#DejaVuSans-61"/>
      <use x="147.558594" xlink:href="#DejaVuSans-78"/>
      <use x="206.738281" xlink:href="#DejaVuSans-41"/>
      <use x="275.146484" xlink:href="#DejaVuSans-72"/>
      <use x="316.244141" xlink:href="#DejaVuSans-72"/>
      <use x="357.357422" xlink:href="#DejaVuSans-69"/>
      <use x="385.140625" xlink:href="#DejaVuSans-76"/>
      <use x="444.320312" xlink:href="#DejaVuSans-61"/>
      <use x="505.599609" xlink:href="#DejaVuSans-6c"/>
      <use x="533.382812" xlink:href="#DejaVuSans-5f"/>
      <use x="583.382812" xlink:href="#DejaVuSans-50"/>
      <use x="643.669922" xlink:href="#DejaVuSans-72"/>
      <use x="684.783203" xlink:href="#DejaVuSans-69"/>
      <use x="712.566406" xlink:href="#DejaVuSans-4d"/>
      <use x="798.845703" xlink:href="#DejaVuSans-61"/>
      <use x="860.125" xlink:href="#DejaVuSans-78"/>
      <use x="919.304688" xlink:href="#DejaVuSans-57"/>
      <use x="1018.181641" xlink:href="#DejaVuSans-74"/>
     </g>
    </g>
   </g>
  </g>
 </g>
 <defs>
  <clipPath id="p4233f07bfb">
   <rect height="266.112" width="357.12" x="57.6" y="41.472"/>
  </clipPath>
 </defs>
</svg>
