<?xml version="1.0" encoding="utf-8" standalone="no"?>
<!DOCTYPE svg PUBLIC "-//W3C//DTD SVG 1.1//EN"
  "http://www.w3.org/Graphics/SVG/1.1/DTD/svg11.dtd">
<!-- Created with matplotlib (http://matplotlib.org/) -->
<svg height="345pt" version="1.1" viewBox="0 0 460 345" width="460pt" xmlns="http://www.w3.org/2000/svg" xmlns:xlink="http://www.w3.org/1999/xlink">
 <defs>
  <style type="text/css">
*{stroke-linecap:butt;stroke-linejoin:round;}
  </style>
 </defs>
 <g id="figure_1">
  <g id="patch_1">
   <path d="M 0 345.6 
L 460.8 345.6 
L 460.8 0 
L 0 0 
z
" style="fill:#ffffff;"/>
  </g>
  <g id="axes_1">
   <g id="patch_2">
    <path d="M 57.6 307.584 
L 414.72 307.584 
L 414.72 41.472 
L 57.6 41.472 
z
" style="fill:#ffffff;"/>
   </g>
   <g id="matplotlib.axis_1">
    <g id="xtick_1">
     <g id="line2d_1">
      <path clip-path="url(#p8837a0836f)" d="M 109.94558 307.584 
L 109.94558 41.472 
" style="fill:none;stroke:#b0b0b0;stroke-linecap:square;stroke-width:0.8;"/>
     </g>
     <g id="line2d_2">
      <defs>
       <path d="M 0 0 
L 0 3.5 
" id="mcfb756cc60" style="stroke:#000000;stroke-width:0.8;"/>
      </defs>
      <g>
       <use style="stroke:#000000;stroke-width:0.8;" x="109.94558" xlink:href="#mcfb756cc60" y="307.584"/>
      </g>
     </g>
     <g id="text_1">
      <!-- 0.2 -->
      <defs>
       <path d="M 31.78125 66.40625 
Q 24.171875 66.40625 20.328125 58.90625 
Q 16.5 51.421875 16.5 36.375 
Q 16.5 21.390625 20.328125 13.890625 
Q 24.171875 6.390625 31.78125 6.390625 
Q 39.453125 6.390625 43.28125 13.890625 
Q 47.125 21.390625 47.125 36.375 
Q 47.125 51.421875 43.28125 58.90625 
Q 39.453125 66.40625 31.78125 66.40625 
z
M 31.78125 74.21875 
Q 44.046875 74.21875 50.515625 64.515625 
Q 56.984375 54.828125 56.984375 36.375 
Q 56.984375 17.96875 50.515625 8.265625 
Q 44.046875 -1.421875 31.78125 -1.421875 
Q 19.53125 -1.421875 13.0625 8.265625 
Q 6.59375 17.96875 6.59375 36.375 
Q 6.59375 54.828125 13.0625 64.515625 
Q 19.53125 74.21875 31.78125 74.21875 
z
" id="DejaVuSans-30"/>
       <path d="M 10.6875 12.40625 
L 21 12.40625 
L 21 0 
L 10.6875 0 
z
" id="DejaVuSans-2e"/>
       <path d="M 19.1875 8.296875 
L 53.609375 8.296875 
L 53.609375 0 
L 7.328125 0 
L 7.328125 8.296875 
Q 12.9375 14.109375 22.625 23.890625 
Q 32.328125 33.6875 34.8125 36.53125 
Q 39.546875 41.84375 41.421875 45.53125 
Q 43.3125 49.21875 43.3125 52.78125 
Q 43.3125 58.59375 39.234375 62.25 
Q 35.15625 65.921875 28.609375 65.921875 
Q 23.96875 65.921875 18.8125 64.3125 
Q 13.671875 62.703125 7.8125 59.421875 
L 7.8125 69.390625 
Q 13.765625 71.78125 18.9375 73 
Q 24.125 74.21875 28.421875 74.21875 
Q 39.75 74.21875 46.484375 68.546875 
Q 53.21875 62.890625 53.21875 53.421875 
Q 53.21875 48.921875 51.53125 44.890625 
Q 49.859375 40.875 45.40625 35.40625 
Q 44.1875 33.984375 37.640625 27.21875 
Q 31.109375 20.453125 19.1875 8.296875 
z
" id="DejaVuSans-32"/>
      </defs>
      <g transform="translate(101.994017 322.182437)scale(0.1 -0.1)">
       <use xlink:href="#DejaVuSans-30"/>
       <use x="63.623047" xlink:href="#DejaVuSans-2e"/>
       <use x="95.410156" xlink:href="#DejaVuSans-32"/>
      </g>
     </g>
    </g>
    <g id="xtick_2">
     <g id="line2d_3">
      <path clip-path="url(#p8837a0836f)" d="M 182.171285 307.584 
L 182.171285 41.472 
" style="fill:none;stroke:#b0b0b0;stroke-linecap:square;stroke-width:0.8;"/>
     </g>
     <g id="line2d_4">
      <g>
       <use style="stroke:#000000;stroke-width:0.8;" x="182.171285" xlink:href="#mcfb756cc60" y="307.584"/>
      </g>
     </g>
     <g id="text_2">
      <!-- 0.4 -->
      <defs>
       <path d="M 37.796875 64.3125 
L 12.890625 25.390625 
L 37.796875 25.390625 
z
M 35.203125 72.90625 
L 47.609375 72.90625 
L 47.609375 25.390625 
L 58.015625 25.390625 
L 58.015625 17.1875 
L 47.609375 17.1875 
L 47.609375 0 
L 37.796875 0 
L 37.796875 17.1875 
L 4.890625 17.1875 
L 4.890625 26.703125 
z
" id="DejaVuSans-34"/>
      </defs>
      <g transform="translate(174.219723 322.182437)scale(0.1 -0.1)">
       <use xlink:href="#DejaVuSans-30"/>
       <use x="63.623047" xlink:href="#DejaVuSans-2e"/>
       <use x="95.410156" xlink:href="#DejaVuSans-34"/>
      </g>
     </g>
    </g>
    <g id="xtick_3">
     <g id="line2d_5">
      <path clip-path="url(#p8837a0836f)" d="M 254.396991 307.584 
L 254.396991 41.472 
" style="fill:none;stroke:#b0b0b0;stroke-linecap:square;stroke-width:0.8;"/>
     </g>
     <g id="line2d_6">
      <g>
       <use style="stroke:#000000;stroke-width:0.8;" x="254.396991" xlink:href="#mcfb756cc60" y="307.584"/>
      </g>
     </g>
     <g id="text_3">
      <!-- 0.6 -->
      <defs>
       <path d="M 33.015625 40.375 
Q 26.375 40.375 22.484375 35.828125 
Q 18.609375 31.296875 18.609375 23.390625 
Q 18.609375 15.53125 22.484375 10.953125 
Q 26.375 6.390625 33.015625 6.390625 
Q 39.65625 6.390625 43.53125 10.953125 
Q 47.40625 15.53125 47.40625 23.390625 
Q 47.40625 31.296875 43.53125 35.828125 
Q 39.65625 40.375 33.015625 40.375 
z
M 52.59375 71.296875 
L 52.59375 62.3125 
Q 48.875 64.0625 45.09375 64.984375 
Q 41.3125 65.921875 37.59375 65.921875 
Q 27.828125 65.921875 22.671875 59.328125 
Q 17.53125 52.734375 16.796875 39.40625 
Q 19.671875 43.65625 24.015625 45.921875 
Q 28.375 48.1875 33.59375 48.1875 
Q 44.578125 48.1875 50.953125 41.515625 
Q 57.328125 34.859375 57.328125 23.390625 
Q 57.328125 12.15625 50.6875 5.359375 
Q 44.046875 -1.421875 33.015625 -1.421875 
Q 20.359375 -1.421875 13.671875 8.265625 
Q 6.984375 17.96875 6.984375 36.375 
Q 6.984375 53.65625 15.1875 63.9375 
Q 23.390625 74.21875 37.203125 74.21875 
Q 40.921875 74.21875 44.703125 73.484375 
Q 48.484375 72.75 52.59375 71.296875 
z
" id="DejaVuSans-36"/>
      </defs>
      <g transform="translate(246.445428 322.182437)scale(0.1 -0.1)">
       <use xlink:href="#DejaVuSans-30"/>
       <use x="63.623047" xlink:href="#DejaVuSans-2e"/>
       <use x="95.410156" xlink:href="#DejaVuSans-36"/>
      </g>
     </g>
    </g>
    <g id="xtick_4">
     <g id="line2d_7">
      <path clip-path="url(#p8837a0836f)" d="M 326.622696 307.584 
L 326.622696 41.472 
" style="fill:none;stroke:#b0b0b0;stroke-linecap:square;stroke-width:0.8;"/>
     </g>
     <g id="line2d_8">
      <g>
       <use style="stroke:#000000;stroke-width:0.8;" x="326.622696" xlink:href="#mcfb756cc60" y="307.584"/>
      </g>
     </g>
     <g id="text_4">
      <!-- 0.8 -->
      <defs>
       <path d="M 31.78125 34.625 
Q 24.75 34.625 20.71875 30.859375 
Q 16.703125 27.09375 16.703125 20.515625 
Q 16.703125 13.921875 20.71875 10.15625 
Q 24.75 6.390625 31.78125 6.390625 
Q 38.8125 6.390625 42.859375 10.171875 
Q 46.921875 13.96875 46.921875 20.515625 
Q 46.921875 27.09375 42.890625 30.859375 
Q 38.875 34.625 31.78125 34.625 
z
M 21.921875 38.8125 
Q 15.578125 40.375 12.03125 44.71875 
Q 8.5 49.078125 8.5 55.328125 
Q 8.5 64.0625 14.71875 69.140625 
Q 20.953125 74.21875 31.78125 74.21875 
Q 42.671875 74.21875 48.875 69.140625 
Q 55.078125 64.0625 55.078125 55.328125 
Q 55.078125 49.078125 51.53125 44.71875 
Q 48 40.375 41.703125 38.8125 
Q 48.828125 37.15625 52.796875 32.3125 
Q 56.78125 27.484375 56.78125 20.515625 
Q 56.78125 9.90625 50.3125 4.234375 
Q 43.84375 -1.421875 31.78125 -1.421875 
Q 19.734375 -1.421875 13.25 4.234375 
Q 6.78125 9.90625 6.78125 20.515625 
Q 6.78125 27.484375 10.78125 32.3125 
Q 14.796875 37.15625 21.921875 38.8125 
z
M 18.3125 54.390625 
Q 18.3125 48.734375 21.84375 45.5625 
Q 25.390625 42.390625 31.78125 42.390625 
Q 38.140625 42.390625 41.71875 45.5625 
Q 45.3125 48.734375 45.3125 54.390625 
Q 45.3125 60.0625 41.71875 63.234375 
Q 38.140625 66.40625 31.78125 66.40625 
Q 25.390625 66.40625 21.84375 63.234375 
Q 18.3125 60.0625 18.3125 54.390625 
z
" id="DejaVuSans-38"/>
      </defs>
      <g transform="translate(318.671133 322.182437)scale(0.1 -0.1)">
       <use xlink:href="#DejaVuSans-30"/>
       <use x="63.623047" xlink:href="#DejaVuSans-2e"/>
       <use x="95.410156" xlink:href="#DejaVuSans-38"/>
      </g>
     </g>
    </g>
    <g id="xtick_5">
     <g id="line2d_9">
      <path clip-path="url(#p8837a0836f)" d="M 398.848401 307.584 
L 398.848401 41.472 
" style="fill:none;stroke:#b0b0b0;stroke-linecap:square;stroke-width:0.8;"/>
     </g>
     <g id="line2d_10">
      <g>
       <use style="stroke:#000000;stroke-width:0.8;" x="398.848401" xlink:href="#mcfb756cc60" y="307.584"/>
      </g>
     </g>
     <g id="text_5">
      <!-- 1.0 -->
      <defs>
       <path d="M 12.40625 8.296875 
L 28.515625 8.296875 
L 28.515625 63.921875 
L 10.984375 60.40625 
L 10.984375 69.390625 
L 28.421875 72.90625 
L 38.28125 72.90625 
L 38.28125 8.296875 
L 54.390625 8.296875 
L 54.390625 0 
L 12.40625 0 
z
" id="DejaVuSans-31"/>
      </defs>
      <g transform="translate(390.896839 322.182437)scale(0.1 -0.1)">
       <use xlink:href="#DejaVuSans-31"/>
       <use x="63.623047" xlink:href="#DejaVuSans-2e"/>
       <use x="95.410156" xlink:href="#DejaVuSans-30"/>
      </g>
     </g>
    </g>
    <g id="text_6">
     <!-- Traffic Intnesity -->
     <defs>
      <path d="M -0.296875 72.90625 
L 61.375 72.90625 
L 61.375 64.59375 
L 35.5 64.59375 
L 35.5 0 
L 25.59375 0 
L 25.59375 64.59375 
L -0.296875 64.59375 
z
" id="DejaVuSans-54"/>
      <path d="M 41.109375 46.296875 
Q 39.59375 47.171875 37.8125 47.578125 
Q 36.03125 48 33.890625 48 
Q 26.265625 48 22.1875 43.046875 
Q 18.109375 38.09375 18.109375 28.8125 
L 18.109375 0 
L 9.078125 0 
L 9.078125 54.6875 
L 18.109375 54.6875 
L 18.109375 46.1875 
Q 20.953125 51.171875 25.484375 53.578125 
Q 30.03125 56 36.53125 56 
Q 37.453125 56 38.578125 55.875 
Q 39.703125 55.765625 41.0625 55.515625 
z
" id="DejaVuSans-72"/>
      <path d="M 34.28125 27.484375 
Q 23.390625 27.484375 19.1875 25 
Q 14.984375 22.515625 14.984375 16.5 
Q 14.984375 11.71875 18.140625 8.90625 
Q 21.296875 6.109375 26.703125 6.109375 
Q 34.1875 6.109375 38.703125 11.40625 
Q 43.21875 16.703125 43.21875 25.484375 
L 43.21875 27.484375 
z
M 52.203125 31.203125 
L 52.203125 0 
L 43.21875 0 
L 43.21875 8.296875 
Q 40.140625 3.328125 35.546875 0.953125 
Q 30.953125 -1.421875 24.3125 -1.421875 
Q 15.921875 -1.421875 10.953125 3.296875 
Q 6 8.015625 6 15.921875 
Q 6 25.140625 12.171875 29.828125 
Q 18.359375 34.515625 30.609375 34.515625 
L 43.21875 34.515625 
L 43.21875 35.40625 
Q 43.21875 41.609375 39.140625 45 
Q 35.0625 48.390625 27.6875 48.390625 
Q 23 48.390625 18.546875 47.265625 
Q 14.109375 46.140625 10.015625 43.890625 
L 10.015625 52.203125 
Q 14.9375 54.109375 19.578125 55.046875 
Q 24.21875 56 28.609375 56 
Q 40.484375 56 46.34375 49.84375 
Q 52.203125 43.703125 52.203125 31.203125 
z
" id="DejaVuSans-61"/>
      <path d="M 37.109375 75.984375 
L 37.109375 68.5 
L 28.515625 68.5 
Q 23.6875 68.5 21.796875 66.546875 
Q 19.921875 64.59375 19.921875 59.515625 
L 19.921875 54.6875 
L 34.71875 54.6875 
L 34.71875 47.703125 
L 19.921875 47.703125 
L 19.921875 0 
L 10.890625 0 
L 10.890625 47.703125 
L 2.296875 47.703125 
L 2.296875 54.6875 
L 10.890625 54.6875 
L 10.890625 58.5 
Q 10.890625 67.625 15.140625 71.796875 
Q 19.390625 75.984375 28.609375 75.984375 
z
" id="DejaVuSans-66"/>
      <path d="M 9.421875 54.6875 
L 18.40625 54.6875 
L 18.40625 0 
L 9.421875 0 
z
M 9.421875 75.984375 
L 18.40625 75.984375 
L 18.40625 64.59375 
L 9.421875 64.59375 
z
" id="DejaVuSans-69"/>
      <path d="M 48.78125 52.59375 
L 48.78125 44.1875 
Q 44.96875 46.296875 41.140625 47.34375 
Q 37.3125 48.390625 33.40625 48.390625 
Q 24.65625 48.390625 19.8125 42.84375 
Q 14.984375 37.3125 14.984375 27.296875 
Q 14.984375 17.28125 19.8125 11.734375 
Q 24.65625 6.203125 33.40625 6.203125 
Q 37.3125 6.203125 41.140625 7.25 
Q 44.96875 8.296875 48.78125 10.40625 
L 48.78125 2.09375 
Q 45.015625 0.34375 40.984375 -0.53125 
Q 36.96875 -1.421875 32.421875 -1.421875 
Q 20.0625 -1.421875 12.78125 6.34375 
Q 5.515625 14.109375 5.515625 27.296875 
Q 5.515625 40.671875 12.859375 48.328125 
Q 20.21875 56 33.015625 56 
Q 37.15625 56 41.109375 55.140625 
Q 45.0625 54.296875 48.78125 52.59375 
z
" id="DejaVuSans-63"/>
      <path id="DejaVuSans-20"/>
      <path d="M 9.8125 72.90625 
L 19.671875 72.90625 
L 19.671875 0 
L 9.8125 0 
z
" id="DejaVuSans-49"/>
      <path d="M 54.890625 33.015625 
L 54.890625 0 
L 45.90625 0 
L 45.90625 32.71875 
Q 45.90625 40.484375 42.875 44.328125 
Q 39.84375 48.1875 33.796875 48.1875 
Q 26.515625 48.1875 22.3125 43.546875 
Q 18.109375 38.921875 18.109375 30.90625 
L 18.109375 0 
L 9.078125 0 
L 9.078125 54.6875 
L 18.109375 54.6875 
L 18.109375 46.1875 
Q 21.34375 51.125 25.703125 53.5625 
Q 30.078125 56 35.796875 56 
Q 45.21875 56 50.046875 50.171875 
Q 54.890625 44.34375 54.890625 33.015625 
z
" id="DejaVuSans-6e"/>
      <path d="M 18.3125 70.21875 
L 18.3125 54.6875 
L 36.8125 54.6875 
L 36.8125 47.703125 
L 18.3125 47.703125 
L 18.3125 18.015625 
Q 18.3125 11.328125 20.140625 9.421875 
Q 21.96875 7.515625 27.59375 7.515625 
L 36.8125 7.515625 
L 36.8125 0 
L 27.59375 0 
Q 17.1875 0 13.234375 3.875 
Q 9.28125 7.765625 9.28125 18.015625 
L 9.28125 47.703125 
L 2.6875 47.703125 
L 2.6875 54.6875 
L 9.28125 54.6875 
L 9.28125 70.21875 
z
" id="DejaVuSans-74"/>
      <path d="M 56.203125 29.59375 
L 56.203125 25.203125 
L 14.890625 25.203125 
Q 15.484375 15.921875 20.484375 11.0625 
Q 25.484375 6.203125 34.421875 6.203125 
Q 39.59375 6.203125 44.453125 7.46875 
Q 49.3125 8.734375 54.109375 11.28125 
L 54.109375 2.78125 
Q 49.265625 0.734375 44.1875 -0.34375 
Q 39.109375 -1.421875 33.890625 -1.421875 
Q 20.796875 -1.421875 13.15625 6.1875 
Q 5.515625 13.8125 5.515625 26.8125 
Q 5.515625 40.234375 12.765625 48.109375 
Q 20.015625 56 32.328125 56 
Q 43.359375 56 49.78125 48.890625 
Q 56.203125 41.796875 56.203125 29.59375 
z
M 47.21875 32.234375 
Q 47.125 39.59375 43.09375 43.984375 
Q 39.0625 48.390625 32.421875 48.390625 
Q 24.90625 48.390625 20.390625 44.140625 
Q 15.875 39.890625 15.1875 32.171875 
z
" id="DejaVuSans-65"/>
      <path d="M 44.28125 53.078125 
L 44.28125 44.578125 
Q 40.484375 46.53125 36.375 47.5 
Q 32.28125 48.484375 27.875 48.484375 
Q 21.1875 48.484375 17.84375 46.4375 
Q 14.5 44.390625 14.5 40.28125 
Q 14.5 37.15625 16.890625 35.375 
Q 19.28125 33.59375 26.515625 31.984375 
L 29.59375 31.296875 
Q 39.15625 29.25 43.1875 25.515625 
Q 47.21875 21.78125 47.21875 15.09375 
Q 47.21875 7.46875 41.1875 3.015625 
Q 35.15625 -1.421875 24.609375 -1.421875 
Q 20.21875 -1.421875 15.453125 -0.5625 
Q 10.6875 0.296875 5.421875 2 
L 5.421875 11.28125 
Q 10.40625 8.6875 15.234375 7.390625 
Q 20.0625 6.109375 24.8125 6.109375 
Q 31.15625 6.109375 34.5625 8.28125 
Q 37.984375 10.453125 37.984375 14.40625 
Q 37.984375 18.0625 35.515625 20.015625 
Q 33.0625 21.96875 24.703125 23.78125 
L 21.578125 24.515625 
Q 13.234375 26.265625 9.515625 29.90625 
Q 5.8125 33.546875 5.8125 39.890625 
Q 5.8125 47.609375 11.28125 51.796875 
Q 16.75 56 26.8125 56 
Q 31.78125 56 36.171875 55.265625 
Q 40.578125 54.546875 44.28125 53.078125 
z
" id="DejaVuSans-73"/>
      <path d="M 32.171875 -5.078125 
Q 28.375 -14.84375 24.75 -17.8125 
Q 21.140625 -20.796875 15.09375 -20.796875 
L 7.90625 -20.796875 
L 7.90625 -13.28125 
L 13.1875 -13.28125 
Q 16.890625 -13.28125 18.9375 -11.515625 
Q 21 -9.765625 23.484375 -3.21875 
L 25.09375 0.875 
L 2.984375 54.6875 
L 12.5 54.6875 
L 29.59375 11.921875 
L 46.6875 54.6875 
L 56.203125 54.6875 
z
" id="DejaVuSans-79"/>
     </defs>
     <g transform="translate(196.987344 335.860562)scale(0.1 -0.1)">
      <use xlink:href="#DejaVuSans-54"/>
      <use x="60.865234" xlink:href="#DejaVuSans-72"/>
      <use x="101.978516" xlink:href="#DejaVuSans-61"/>
      <use x="163.257812" xlink:href="#DejaVuSans-66"/>
      <use x="198.462891" xlink:href="#DejaVuSans-66"/>
      <use x="233.667969" xlink:href="#DejaVuSans-69"/>
      <use x="261.451172" xlink:href="#DejaVuSans-63"/>
      <use x="316.431641" xlink:href="#DejaVuSans-20"/>
      <use x="348.21875" xlink:href="#DejaVuSans-49"/>
      <use x="377.710938" xlink:href="#DejaVuSans-6e"/>
      <use x="441.089844" xlink:href="#DejaVuSans-74"/>
      <use x="480.298828" xlink:href="#DejaVuSans-6e"/>
      <use x="543.677734" xlink:href="#DejaVuSans-65"/>
      <use x="605.201172" xlink:href="#DejaVuSans-73"/>
      <use x="657.300781" xlink:href="#DejaVuSans-69"/>
      <use x="685.083984" xlink:href="#DejaVuSans-74"/>
      <use x="724.292969" xlink:href="#DejaVuSans-79"/>
     </g>
    </g>
   </g>
   <g id="matplotlib.axis_2">
    <g id="ytick_1">
     <g id="line2d_11">
      <path clip-path="url(#p8837a0836f)" d="M 57.6 295.882757 
L 414.72 295.882757 
" style="fill:none;stroke:#b0b0b0;stroke-linecap:square;stroke-width:0.8;"/>
     </g>
     <g id="line2d_12">
      <defs>
       <path d="M 0 0 
L -3.5 0 
" id="m4bc233b946" style="stroke:#000000;stroke-width:0.8;"/>
      </defs>
      <g>
       <use style="stroke:#000000;stroke-width:0.8;" x="57.6" xlink:href="#m4bc233b946" y="295.882757"/>
      </g>
     </g>
     <g id="text_7">
      <!-- 0 -->
      <g transform="translate(44.2375 299.681976)scale(0.1 -0.1)">
       <use xlink:href="#DejaVuSans-30"/>
      </g>
     </g>
    </g>
    <g id="ytick_2">
     <g id="line2d_13">
      <path clip-path="url(#p8837a0836f)" d="M 57.6 256.328329 
L 414.72 256.328329 
" style="fill:none;stroke:#b0b0b0;stroke-linecap:square;stroke-width:0.8;"/>
     </g>
     <g id="line2d_14">
      <g>
       <use style="stroke:#000000;stroke-width:0.8;" x="57.6" xlink:href="#m4bc233b946" y="256.328329"/>
      </g>
     </g>
     <g id="text_8">
      <!-- 1 -->
      <g transform="translate(44.2375 260.127548)scale(0.1 -0.1)">
       <use xlink:href="#DejaVuSans-31"/>
      </g>
     </g>
    </g>
    <g id="ytick_3">
     <g id="line2d_15">
      <path clip-path="url(#p8837a0836f)" d="M 57.6 216.773901 
L 414.72 216.773901 
" style="fill:none;stroke:#b0b0b0;stroke-linecap:square;stroke-width:0.8;"/>
     </g>
     <g id="line2d_16">
      <g>
       <use style="stroke:#000000;stroke-width:0.8;" x="57.6" xlink:href="#m4bc233b946" y="216.773901"/>
      </g>
     </g>
     <g id="text_9">
      <!-- 2 -->
      <g transform="translate(44.2375 220.573119)scale(0.1 -0.1)">
       <use xlink:href="#DejaVuSans-32"/>
      </g>
     </g>
    </g>
    <g id="ytick_4">
     <g id="line2d_17">
      <path clip-path="url(#p8837a0836f)" d="M 57.6 177.219472 
L 414.72 177.219472 
" style="fill:none;stroke:#b0b0b0;stroke-linecap:square;stroke-width:0.8;"/>
     </g>
     <g id="line2d_18">
      <g>
       <use style="stroke:#000000;stroke-width:0.8;" x="57.6" xlink:href="#m4bc233b946" y="177.219472"/>
      </g>
     </g>
     <g id="text_10">
      <!-- 3 -->
      <defs>
       <path d="M 40.578125 39.3125 
Q 47.65625 37.796875 51.625 33 
Q 55.609375 28.21875 55.609375 21.1875 
Q 55.609375 10.40625 48.1875 4.484375 
Q 40.765625 -1.421875 27.09375 -1.421875 
Q 22.515625 -1.421875 17.65625 -0.515625 
Q 12.796875 0.390625 7.625 2.203125 
L 7.625 11.71875 
Q 11.71875 9.328125 16.59375 8.109375 
Q 21.484375 6.890625 26.8125 6.890625 
Q 36.078125 6.890625 40.9375 10.546875 
Q 45.796875 14.203125 45.796875 21.1875 
Q 45.796875 27.640625 41.28125 31.265625 
Q 36.765625 34.90625 28.71875 34.90625 
L 20.21875 34.90625 
L 20.21875 43.015625 
L 29.109375 43.015625 
Q 36.375 43.015625 40.234375 45.921875 
Q 44.09375 48.828125 44.09375 54.296875 
Q 44.09375 59.90625 40.109375 62.90625 
Q 36.140625 65.921875 28.71875 65.921875 
Q 24.65625 65.921875 20.015625 65.03125 
Q 15.375 64.15625 9.8125 62.3125 
L 9.8125 71.09375 
Q 15.4375 72.65625 20.34375 73.4375 
Q 25.25 74.21875 29.59375 74.21875 
Q 40.828125 74.21875 47.359375 69.109375 
Q 53.90625 64.015625 53.90625 55.328125 
Q 53.90625 49.265625 50.4375 45.09375 
Q 46.96875 40.921875 40.578125 39.3125 
z
" id="DejaVuSans-33"/>
      </defs>
      <g transform="translate(44.2375 181.018691)scale(0.1 -0.1)">
       <use xlink:href="#DejaVuSans-33"/>
      </g>
     </g>
    </g>
    <g id="ytick_5">
     <g id="line2d_19">
      <path clip-path="url(#p8837a0836f)" d="M 57.6 137.665044 
L 414.72 137.665044 
" style="fill:none;stroke:#b0b0b0;stroke-linecap:square;stroke-width:0.8;"/>
     </g>
     <g id="line2d_20">
      <g>
       <use style="stroke:#000000;stroke-width:0.8;" x="57.6" xlink:href="#m4bc233b946" y="137.665044"/>
      </g>
     </g>
     <g id="text_11">
      <!-- 4 -->
      <g transform="translate(44.2375 141.464263)scale(0.1 -0.1)">
       <use xlink:href="#DejaVuSans-34"/>
      </g>
     </g>
    </g>
    <g id="ytick_6">
     <g id="line2d_21">
      <path clip-path="url(#p8837a0836f)" d="M 57.6 98.110616 
L 414.72 98.110616 
" style="fill:none;stroke:#b0b0b0;stroke-linecap:square;stroke-width:0.8;"/>
     </g>
     <g id="line2d_22">
      <g>
       <use style="stroke:#000000;stroke-width:0.8;" x="57.6" xlink:href="#m4bc233b946" y="98.110616"/>
      </g>
     </g>
     <g id="text_12">
      <!-- 5 -->
      <defs>
       <path d="M 10.796875 72.90625 
L 49.515625 72.90625 
L 49.515625 64.59375 
L 19.828125 64.59375 
L 19.828125 46.734375 
Q 21.96875 47.46875 24.109375 47.828125 
Q 26.265625 48.1875 28.421875 48.1875 
Q 40.625 48.1875 47.75 41.5 
Q 54.890625 34.8125 54.890625 23.390625 
Q 54.890625 11.625 47.5625 5.09375 
Q 40.234375 -1.421875 26.90625 -1.421875 
Q 22.3125 -1.421875 17.546875 -0.640625 
Q 12.796875 0.140625 7.71875 1.703125 
L 7.71875 11.625 
Q 12.109375 9.234375 16.796875 8.0625 
Q 21.484375 6.890625 26.703125 6.890625 
Q 35.15625 6.890625 40.078125 11.328125 
Q 45.015625 15.765625 45.015625 23.390625 
Q 45.015625 31 40.078125 35.4375 
Q 35.15625 39.890625 26.703125 39.890625 
Q 22.75 39.890625 18.8125 39.015625 
Q 14.890625 38.140625 10.796875 36.28125 
z
" id="DejaVuSans-35"/>
      </defs>
      <g transform="translate(44.2375 101.909834)scale(0.1 -0.1)">
       <use xlink:href="#DejaVuSans-35"/>
      </g>
     </g>
    </g>
    <g id="ytick_7">
     <g id="line2d_23">
      <path clip-path="url(#p8837a0836f)" d="M 57.6 58.556187 
L 414.72 58.556187 
" style="fill:none;stroke:#b0b0b0;stroke-linecap:square;stroke-width:0.8;"/>
     </g>
     <g id="line2d_24">
      <g>
       <use style="stroke:#000000;stroke-width:0.8;" x="57.6" xlink:href="#m4bc233b946" y="58.556187"/>
      </g>
     </g>
     <g id="text_13">
      <!-- 6 -->
      <g transform="translate(44.2375 62.355406)scale(0.1 -0.1)">
       <use xlink:href="#DejaVuSans-36"/>
      </g>
     </g>
    </g>
    <g id="text_14">
     <!-- Epsilon Times Average Total Queue Length - - (1 - S) * E[Q11 + Q22 + Q12 + Q21] -->
     <defs>
      <path d="M 9.8125 72.90625 
L 55.90625 72.90625 
L 55.90625 64.59375 
L 19.671875 64.59375 
L 19.671875 43.015625 
L 54.390625 43.015625 
L 54.390625 34.71875 
L 19.671875 34.71875 
L 19.671875 8.296875 
L 56.78125 8.296875 
L 56.78125 0 
L 9.8125 0 
z
" id="DejaVuSans-45"/>
      <path d="M 18.109375 8.203125 
L 18.109375 -20.796875 
L 9.078125 -20.796875 
L 9.078125 54.6875 
L 18.109375 54.6875 
L 18.109375 46.390625 
Q 20.953125 51.265625 25.265625 53.625 
Q 29.59375 56 35.59375 56 
Q 45.5625 56 51.78125 48.09375 
Q 58.015625 40.1875 58.015625 27.296875 
Q 58.015625 14.40625 51.78125 6.484375 
Q 45.5625 -1.421875 35.59375 -1.421875 
Q 29.59375 -1.421875 25.265625 0.953125 
Q 20.953125 3.328125 18.109375 8.203125 
z
M 48.6875 27.296875 
Q 48.6875 37.203125 44.609375 42.84375 
Q 40.53125 48.484375 33.40625 48.484375 
Q 26.265625 48.484375 22.1875 42.84375 
Q 18.109375 37.203125 18.109375 27.296875 
Q 18.109375 17.390625 22.1875 11.75 
Q 26.265625 6.109375 33.40625 6.109375 
Q 40.53125 6.109375 44.609375 11.75 
Q 48.6875 17.390625 48.6875 27.296875 
z
" id="DejaVuSans-70"/>
      <path d="M 9.421875 75.984375 
L 18.40625 75.984375 
L 18.40625 0 
L 9.421875 0 
z
" id="DejaVuSans-6c"/>
      <path d="M 30.609375 48.390625 
Q 23.390625 48.390625 19.1875 42.75 
Q 14.984375 37.109375 14.984375 27.296875 
Q 14.984375 17.484375 19.15625 11.84375 
Q 23.34375 6.203125 30.609375 6.203125 
Q 37.796875 6.203125 41.984375 11.859375 
Q 46.1875 17.53125 46.1875 27.296875 
Q 46.1875 37.015625 41.984375 42.703125 
Q 37.796875 48.390625 30.609375 48.390625 
z
M 30.609375 56 
Q 42.328125 56 49.015625 48.375 
Q 55.71875 40.765625 55.71875 27.296875 
Q 55.71875 13.875 49.015625 6.21875 
Q 42.328125 -1.421875 30.609375 -1.421875 
Q 18.84375 -1.421875 12.171875 6.21875 
Q 5.515625 13.875 5.515625 27.296875 
Q 5.515625 40.765625 12.171875 48.375 
Q 18.84375 56 30.609375 56 
z
" id="DejaVuSans-6f"/>
      <path d="M 52 44.1875 
Q 55.375 50.25 60.0625 53.125 
Q 64.75 56 71.09375 56 
Q 79.640625 56 84.28125 50.015625 
Q 88.921875 44.046875 88.921875 33.015625 
L 88.921875 0 
L 79.890625 0 
L 79.890625 32.71875 
Q 79.890625 40.578125 77.09375 44.375 
Q 74.3125 48.1875 68.609375 48.1875 
Q 61.625 48.1875 57.5625 43.546875 
Q 53.515625 38.921875 53.515625 30.90625 
L 53.515625 0 
L 44.484375 0 
L 44.484375 32.71875 
Q 44.484375 40.625 41.703125 44.40625 
Q 38.921875 48.1875 33.109375 48.1875 
Q 26.21875 48.1875 22.15625 43.53125 
Q 18.109375 38.875 18.109375 30.90625 
L 18.109375 0 
L 9.078125 0 
L 9.078125 54.6875 
L 18.109375 54.6875 
L 18.109375 46.1875 
Q 21.1875 51.21875 25.484375 53.609375 
Q 29.78125 56 35.6875 56 
Q 41.65625 56 45.828125 52.96875 
Q 50 49.953125 52 44.1875 
z
" id="DejaVuSans-6d"/>
      <path d="M 34.1875 63.1875 
L 20.796875 26.90625 
L 47.609375 26.90625 
z
M 28.609375 72.90625 
L 39.796875 72.90625 
L 67.578125 0 
L 57.328125 0 
L 50.6875 18.703125 
L 17.828125 18.703125 
L 11.1875 0 
L 0.78125 0 
z
" id="DejaVuSans-41"/>
      <path d="M 2.984375 54.6875 
L 12.5 54.6875 
L 29.59375 8.796875 
L 46.6875 54.6875 
L 56.203125 54.6875 
L 35.6875 0 
L 23.484375 0 
z
" id="DejaVuSans-76"/>
      <path d="M 45.40625 27.984375 
Q 45.40625 37.75 41.375 43.109375 
Q 37.359375 48.484375 30.078125 48.484375 
Q 22.859375 48.484375 18.828125 43.109375 
Q 14.796875 37.75 14.796875 27.984375 
Q 14.796875 18.265625 18.828125 12.890625 
Q 22.859375 7.515625 30.078125 7.515625 
Q 37.359375 7.515625 41.375 12.890625 
Q 45.40625 18.265625 45.40625 27.984375 
z
M 54.390625 6.78125 
Q 54.390625 -7.171875 48.1875 -13.984375 
Q 42 -20.796875 29.203125 -20.796875 
Q 24.46875 -20.796875 20.265625 -20.09375 
Q 16.0625 -19.390625 12.109375 -17.921875 
L 12.109375 -9.1875 
Q 16.0625 -11.328125 19.921875 -12.34375 
Q 23.78125 -13.375 27.78125 -13.375 
Q 36.625 -13.375 41.015625 -8.765625 
Q 45.40625 -4.15625 45.40625 5.171875 
L 45.40625 9.625 
Q 42.625 4.78125 38.28125 2.390625 
Q 33.9375 0 27.875 0 
Q 17.828125 0 11.671875 7.65625 
Q 5.515625 15.328125 5.515625 27.984375 
Q 5.515625 40.671875 11.671875 48.328125 
Q 17.828125 56 27.875 56 
Q 33.9375 56 38.28125 53.609375 
Q 42.625 51.21875 45.40625 46.390625 
L 45.40625 54.6875 
L 54.390625 54.6875 
z
" id="DejaVuSans-67"/>
      <path d="M 39.40625 66.21875 
Q 28.65625 66.21875 22.328125 58.203125 
Q 16.015625 50.203125 16.015625 36.375 
Q 16.015625 22.609375 22.328125 14.59375 
Q 28.65625 6.59375 39.40625 6.59375 
Q 50.140625 6.59375 56.421875 14.59375 
Q 62.703125 22.609375 62.703125 36.375 
Q 62.703125 50.203125 56.421875 58.203125 
Q 50.140625 66.21875 39.40625 66.21875 
z
M 53.21875 1.3125 
L 66.21875 -12.890625 
L 54.296875 -12.890625 
L 43.5 -1.21875 
Q 41.890625 -1.3125 41.03125 -1.359375 
Q 40.1875 -1.421875 39.40625 -1.421875 
Q 24.03125 -1.421875 14.8125 8.859375 
Q 5.609375 19.140625 5.609375 36.375 
Q 5.609375 53.65625 14.8125 63.9375 
Q 24.03125 74.21875 39.40625 74.21875 
Q 54.734375 74.21875 63.90625 63.9375 
Q 73.09375 53.65625 73.09375 36.375 
Q 73.09375 23.6875 67.984375 14.640625 
Q 62.890625 5.609375 53.21875 1.3125 
z
" id="DejaVuSans-51"/>
      <path d="M 8.5 21.578125 
L 8.5 54.6875 
L 17.484375 54.6875 
L 17.484375 21.921875 
Q 17.484375 14.15625 20.5 10.265625 
Q 23.53125 6.390625 29.59375 6.390625 
Q 36.859375 6.390625 41.078125 11.03125 
Q 45.3125 15.671875 45.3125 23.6875 
L 45.3125 54.6875 
L 54.296875 54.6875 
L 54.296875 0 
L 45.3125 0 
L 45.3125 8.40625 
Q 42.046875 3.421875 37.71875 1 
Q 33.40625 -1.421875 27.6875 -1.421875 
Q 18.265625 -1.421875 13.375 4.4375 
Q 8.5 10.296875 8.5 21.578125 
z
M 31.109375 56 
z
" id="DejaVuSans-75"/>
      <path d="M 9.8125 72.90625 
L 19.671875 72.90625 
L 19.671875 8.296875 
L 55.171875 8.296875 
L 55.171875 0 
L 9.8125 0 
z
" id="DejaVuSans-4c"/>
      <path d="M 54.890625 33.015625 
L 54.890625 0 
L 45.90625 0 
L 45.90625 32.71875 
Q 45.90625 40.484375 42.875 44.328125 
Q 39.84375 48.1875 33.796875 48.1875 
Q 26.515625 48.1875 22.3125 43.546875 
Q 18.109375 38.921875 18.109375 30.90625 
L 18.109375 0 
L 9.078125 0 
L 9.078125 75.984375 
L 18.109375 75.984375 
L 18.109375 46.1875 
Q 21.34375 51.125 25.703125 53.5625 
Q 30.078125 56 35.796875 56 
Q 45.21875 56 50.046875 50.171875 
Q 54.890625 44.34375 54.890625 33.015625 
z
" id="DejaVuSans-68"/>
      <path d="M 4.890625 31.390625 
L 31.203125 31.390625 
L 31.203125 23.390625 
L 4.890625 23.390625 
z
" id="DejaVuSans-2d"/>
      <path d="M 31 75.875 
Q 24.46875 64.65625 21.28125 53.65625 
Q 18.109375 42.671875 18.109375 31.390625 
Q 18.109375 20.125 21.3125 9.0625 
Q 24.515625 -2 31 -13.1875 
L 23.1875 -13.1875 
Q 15.875 -1.703125 12.234375 9.375 
Q 8.59375 20.453125 8.59375 31.390625 
Q 8.59375 42.28125 12.203125 53.3125 
Q 15.828125 64.359375 23.1875 75.875 
z
" id="DejaVuSans-28"/>
      <path d="M 53.515625 70.515625 
L 53.515625 60.890625 
Q 47.90625 63.578125 42.921875 64.890625 
Q 37.9375 66.21875 33.296875 66.21875 
Q 25.25 66.21875 20.875 63.09375 
Q 16.5 59.96875 16.5 54.203125 
Q 16.5 49.359375 19.40625 46.890625 
Q 22.3125 44.4375 30.421875 42.921875 
L 36.375 41.703125 
Q 47.40625 39.59375 52.65625 34.296875 
Q 57.90625 29 57.90625 20.125 
Q 57.90625 9.515625 50.796875 4.046875 
Q 43.703125 -1.421875 29.984375 -1.421875 
Q 24.8125 -1.421875 18.96875 -0.25 
Q 13.140625 0.921875 6.890625 3.21875 
L 6.890625 13.375 
Q 12.890625 10.015625 18.65625 8.296875 
Q 24.421875 6.59375 29.984375 6.59375 
Q 38.421875 6.59375 43.015625 9.90625 
Q 47.609375 13.234375 47.609375 19.390625 
Q 47.609375 24.75 44.3125 27.78125 
Q 41.015625 30.8125 33.5 32.328125 
L 27.484375 33.5 
Q 16.453125 35.6875 11.515625 40.375 
Q 6.59375 45.0625 6.59375 53.421875 
Q 6.59375 63.09375 13.40625 68.65625 
Q 20.21875 74.21875 32.171875 74.21875 
Q 37.3125 74.21875 42.625 73.28125 
Q 47.953125 72.359375 53.515625 70.515625 
z
" id="DejaVuSans-53"/>
      <path d="M 8.015625 75.875 
L 15.828125 75.875 
Q 23.140625 64.359375 26.78125 53.3125 
Q 30.421875 42.28125 30.421875 31.390625 
Q 30.421875 20.453125 26.78125 9.375 
Q 23.140625 -1.703125 15.828125 -13.1875 
L 8.015625 -13.1875 
Q 14.5 -2 17.703125 9.0625 
Q 20.90625 20.125 20.90625 31.390625 
Q 20.90625 42.671875 17.703125 53.65625 
Q 14.5 64.65625 8.015625 75.875 
z
" id="DejaVuSans-29"/>
      <path d="M 47.015625 60.890625 
L 29.5 51.421875 
L 47.015625 41.890625 
L 44.1875 37.109375 
L 27.78125 47.015625 
L 27.78125 28.609375 
L 22.21875 28.609375 
L 22.21875 47.015625 
L 5.8125 37.109375 
L 2.984375 41.890625 
L 20.515625 51.421875 
L 2.984375 60.890625 
L 5.8125 65.71875 
L 22.21875 55.8125 
L 22.21875 74.21875 
L 27.78125 74.21875 
L 27.78125 55.8125 
L 44.1875 65.71875 
z
" id="DejaVuSans-2a"/>
      <path d="M 8.59375 75.984375 
L 29.296875 75.984375 
L 29.296875 69 
L 17.578125 69 
L 17.578125 -6.203125 
L 29.296875 -6.203125 
L 29.296875 -13.1875 
L 8.59375 -13.1875 
z
" id="DejaVuSans-5b"/>
      <path d="M 46 62.703125 
L 46 35.5 
L 73.1875 35.5 
L 73.1875 27.203125 
L 46 27.203125 
L 46 0 
L 37.796875 0 
L 37.796875 27.203125 
L 10.59375 27.203125 
L 10.59375 35.5 
L 37.796875 35.5 
L 37.796875 62.703125 
z
" id="DejaVuSans-2b"/>
      <path d="M 30.421875 75.984375 
L 30.421875 -13.1875 
L 9.71875 -13.1875 
L 9.71875 -6.203125 
L 21.390625 -6.203125 
L 21.390625 69 
L 9.71875 69 
L 9.71875 75.984375 
z
" id="DejaVuSans-5d"/>
     </defs>
     <g transform="translate(38.157812 380.567844)rotate(-90)scale(0.1 -0.1)">
      <use xlink:href="#DejaVuSans-45"/>
      <use x="63.183594" xlink:href="#DejaVuSans-70"/>
      <use x="126.660156" xlink:href="#DejaVuSans-73"/>
      <use x="178.759766" xlink:href="#DejaVuSans-69"/>
      <use x="206.542969" xlink:href="#DejaVuSans-6c"/>
      <use x="234.326172" xlink:href="#DejaVuSans-6f"/>
      <use x="295.507812" xlink:href="#DejaVuSans-6e"/>
      <use x="358.886719" xlink:href="#DejaVuSans-20"/>
      <use x="390.673828" xlink:href="#DejaVuSans-54"/>
      <use x="451.710938" xlink:href="#DejaVuSans-69"/>
      <use x="479.494141" xlink:href="#DejaVuSans-6d"/>
      <use x="576.90625" xlink:href="#DejaVuSans-65"/>
      <use x="638.429688" xlink:href="#DejaVuSans-73"/>
      <use x="690.529297" xlink:href="#DejaVuSans-20"/>
      <use x="722.316406" xlink:href="#DejaVuSans-41"/>
      <use x="790.646484" xlink:href="#DejaVuSans-76"/>
      <use x="849.826172" xlink:href="#DejaVuSans-65"/>
      <use x="911.349609" xlink:href="#DejaVuSans-72"/>
      <use x="952.462891" xlink:href="#DejaVuSans-61"/>
      <use x="1013.742188" xlink:href="#DejaVuSans-67"/>
      <use x="1077.21875" xlink:href="#DejaVuSans-65"/>
      <use x="1138.742188" xlink:href="#DejaVuSans-20"/>
      <use x="1170.529297" xlink:href="#DejaVuSans-54"/>
      <use x="1231.347656" xlink:href="#DejaVuSans-6f"/>
      <use x="1292.529297" xlink:href="#DejaVuSans-74"/>
      <use x="1331.738281" xlink:href="#DejaVuSans-61"/>
      <use x="1393.017578" xlink:href="#DejaVuSans-6c"/>
      <use x="1420.800781" xlink:href="#DejaVuSans-20"/>
      <use x="1452.587891" xlink:href="#DejaVuSans-51"/>
      <use x="1531.298828" xlink:href="#DejaVuSans-75"/>
      <use x="1594.677734" xlink:href="#DejaVuSans-65"/>
      <use x="1656.201172" xlink:href="#DejaVuSans-75"/>
      <use x="1719.580078" xlink:href="#DejaVuSans-65"/>
      <use x="1781.103516" xlink:href="#DejaVuSans-20"/>
      <use x="1812.890625" xlink:href="#DejaVuSans-4c"/>
      <use x="1868.587891" xlink:href="#DejaVuSans-65"/>
      <use x="1930.111328" xlink:href="#DejaVuSans-6e"/>
      <use x="1993.490234" xlink:href="#DejaVuSans-67"/>
      <use x="2056.966797" xlink:href="#DejaVuSans-74"/>
      <use x="2096.175781" xlink:href="#DejaVuSans-68"/>
      <use x="2159.554688" xlink:href="#DejaVuSans-20"/>
      <use x="2191.341797" xlink:href="#DejaVuSans-2d"/>
      <use x="2227.425781" xlink:href="#DejaVuSans-2d"/>
      <use x="2263.509766" xlink:href="#DejaVuSans-20"/>
      <use x="2295.296875" xlink:href="#DejaVuSans-28"/>
      <use x="2334.310547" xlink:href="#DejaVuSans-31"/>
      <use x="2397.933594" xlink:href="#DejaVuSans-20"/>
      <use x="2429.720703" xlink:href="#DejaVuSans-2d"/>
      <use x="2465.804688" xlink:href="#DejaVuSans-20"/>
      <use x="2497.591797" xlink:href="#DejaVuSans-53"/>
      <use x="2561.068359" xlink:href="#DejaVuSans-29"/>
      <use x="2600.082031" xlink:href="#DejaVuSans-20"/>
      <use x="2631.869141" xlink:href="#DejaVuSans-2a"/>
      <use x="2681.869141" xlink:href="#DejaVuSans-20"/>
      <use x="2713.65625" xlink:href="#DejaVuSans-45"/>
      <use x="2776.839844" xlink:href="#DejaVuSans-5b"/>
      <use x="2815.853516" xlink:href="#DejaVuSans-51"/>
      <use x="2894.564453" xlink:href="#DejaVuSans-31"/>
      <use x="2958.1875" xlink:href="#DejaVuSans-31"/>
      <use x="3021.810547" xlink:href="#DejaVuSans-20"/>
      <use x="3053.597656" xlink:href="#DejaVuSans-2b"/>
      <use x="3137.386719" xlink:href="#DejaVuSans-20"/>
      <use x="3169.173828" xlink:href="#DejaVuSans-51"/>
      <use x="3247.884766" xlink:href="#DejaVuSans-32"/>
      <use x="3311.507812" xlink:href="#DejaVuSans-32"/>
      <use x="3375.130859" xlink:href="#DejaVuSans-20"/>
      <use x="3406.917969" xlink:href="#DejaVuSans-2b"/>
      <use x="3490.707031" xlink:href="#DejaVuSans-20"/>
      <use x="3522.494141" xlink:href="#DejaVuSans-51"/>
      <use x="3601.205078" xlink:href="#DejaVuSans-31"/>
      <use x="3664.828125" xlink:href="#DejaVuSans-32"/>
      <use x="3728.451172" xlink:href="#DejaVuSans-20"/>
      <use x="3760.238281" xlink:href="#DejaVuSans-2b"/>
      <use x="3844.027344" xlink:href="#DejaVuSans-20"/>
      <use x="3875.814453" xlink:href="#DejaVuSans-51"/>
      <use x="3954.525391" xlink:href="#DejaVuSans-32"/>
      <use x="4018.148438" xlink:href="#DejaVuSans-31"/>
      <use x="4081.771484" xlink:href="#DejaVuSans-5d"/>
     </g>
    </g>
   </g>
   <g id="line2d_25">
    <path clip-path="url(#p8837a0836f)" d="M 73.832727 295.487953 
L 109.94558 294.310295 
L 146.058433 292.394106 
L 182.171285 289.844325 
L 218.284138 286.741219 
L 254.396991 283.263949 
L 290.509843 279.539241 
L 326.622696 275.547831 
L 362.735549 271.303109 
L 366.346834 270.813702 
L 366.707962 270.732433 
L 367.069091 270.789112 
L 367.430219 270.607132 
L 367.791348 270.626116 
L 368.152476 270.568926 
L 368.513605 270.510878 
L 368.874734 270.529115 
L 369.235862 270.504508 
L 369.596991 270.489342 
L 369.958119 270.409883 
L 370.319248 270.3403 
L 370.680376 270.205432 
L 371.041505 270.218531 
L 371.402633 270.109695 
L 371.763762 269.940342 
L 372.12489 270.081743 
L 372.486019 269.856539 
L 372.847147 269.959518 
L 373.208276 269.92718 
L 373.569404 269.870262 
L 373.930533 269.767903 
L 374.291661 269.809166 
L 374.65279 269.734853 
L 375.013918 269.67945 
L 375.375047 269.657419 
L 375.736176 269.576789 
L 376.097304 269.556666 
L 376.458433 269.667542 
L 376.819561 269.33525 
L 377.18069 269.124818 
L 377.541818 269.249244 
L 377.902947 269.470239 
L 378.264075 269.333386 
L 378.625204 269.193526 
L 378.986332 269.120321 
L 379.347461 269.176403 
L 379.708589 269.062448 
L 380.069718 268.916328 
L 380.430846 268.920225 
L 380.791975 268.877656 
L 381.153103 268.775827 
L 381.514232 268.587424 
L 381.875361 268.961928 
L 382.236489 268.742082 
L 382.597618 268.658636 
L 382.958746 268.772701 
L 383.319875 268.249849 
L 383.681003 268.463333 
L 384.042132 268.555818 
L 384.40326 268.324796 
L 384.764389 268.535772 
L 385.125517 268.214284 
L 385.486646 268.530535 
L 385.847774 268.253801 
L 386.208903 267.894429 
L 386.570031 267.647559 
L 386.93116 267.929511 
L 387.292288 268.077717 
L 387.653417 268.040906 
L 388.014545 267.882411 
L 388.375674 267.809534 
L 388.736803 268.279153 
L 389.097931 267.847849 
L 389.45906 267.425088 
L 389.820188 267.575261 
L 390.181317 267.660893 
L 390.542445 267.815684 
L 390.903574 267.833221 
L 391.264702 267.122645 
L 391.625831 266.812306 
L 391.986959 266.726262 
L 392.348088 266.942253 
L 392.709216 266.910318 
L 393.070345 266.988116 
L 393.431473 267.317514 
L 393.792602 266.880188 
L 394.15373 266.766208 
L 394.514859 268.089503 
L 394.875987 265.691167 
L 395.237116 266.950571 
L 395.598245 267.224136 
L 395.959373 266.338408 
L 396.320502 265.436796 
L 396.68163 264.317579 
L 397.042759 264.772099 
L 397.403887 267.683378 
L 397.765016 259.981813 
L 398.126144 263.676218 
L 398.487273 265.064203 
" style="fill:none;stroke:#1f77b4;stroke-linecap:square;stroke-width:4;"/>
   </g>
   <g id="line2d_26">
    <path clip-path="url(#p8837a0836f)" d="M 73.832727 295.488 
L 109.94558 294.309676 
L 146.058433 292.374589 
L 182.171285 289.736661 
L 218.284138 286.499181 
L 254.396991 282.718664 
L 290.509843 278.647532 
L 326.622696 274.46817 
L 362.735549 270.301465 
L 366.346834 269.7759 
L 366.707962 269.904042 
L 367.069091 269.861839 
L 367.430219 269.768836 
L 367.791348 269.625214 
L 368.152476 269.658509 
L 368.513605 269.659366 
L 368.874734 269.703821 
L 369.235862 269.518974 
L 369.596991 269.557291 
L 369.958119 269.427411 
L 370.319248 269.33803 
L 370.680376 269.447984 
L 371.041505 269.294118 
L 371.402633 269.181279 
L 371.763762 269.211249 
L 372.12489 269.280129 
L 372.486019 269.178802 
L 372.847147 268.947728 
L 373.208276 269.131579 
L 373.569404 269.14709 
L 373.930533 268.89253 
L 374.291661 269.079033 
L 374.65279 268.895737 
L 375.013918 268.75797 
L 375.375047 268.942872 
L 375.736176 268.805291 
L 376.097304 268.682721 
L 376.458433 268.879466 
L 376.819561 268.400035 
L 377.18069 268.690656 
L 377.541818 268.368833 
L 377.902947 268.447187 
L 378.264075 268.496658 
L 378.625204 268.354679 
L 378.986332 268.579345 
L 379.347461 268.510136 
L 379.708589 268.359559 
L 380.069718 268.174983 
L 380.430846 268.291536 
L 380.791975 268.015445 
L 381.153103 268.183909 
L 381.514232 268.005512 
L 381.875361 268.045438 
L 382.236489 268.066328 
L 382.597618 267.530178 
L 382.958746 268.129448 
L 383.319875 268.001446 
L 383.681003 267.990526 
L 384.042132 267.721175 
L 384.40326 267.896653 
L 384.764389 268.153979 
L 385.125517 267.619075 
L 385.486646 267.41417 
L 385.847774 267.771561 
L 386.208903 267.784949 
L 386.570031 267.410205 
L 386.93116 267.639585 
L 387.292288 266.9321 
L 387.653417 267.3342 
L 388.014545 267.292112 
L 388.375674 266.871707 
L 388.736803 267.566472 
L 389.097931 267.430043 
L 389.45906 267.29255 
L 389.820188 267.616855 
L 390.181317 267.2362 
L 390.542445 266.599671 
L 390.903574 266.566405 
L 391.264702 267.045956 
L 391.625831 267.352608 
L 391.986959 267.142245 
L 392.348088 267.21936 
L 392.709216 266.506819 
L 393.070345 267.912535 
L 393.431473 265.721027 
L 393.792602 266.288523 
L 394.15373 267.035392 
L 394.514859 266.567849 
L 394.875987 266.116913 
L 395.237116 266.84749 
L 395.598245 266.037958 
L 395.959373 267.269027 
L 396.320502 266.523112 
L 396.68163 267.10666 
L 397.042759 267.951569 
L 397.403887 263.630646 
L 397.765016 265.348667 
L 398.126144 268.084811 
L 398.487273 266.380882 
" style="fill:none;stroke:#ff7f0e;stroke-linecap:square;stroke-width:2;"/>
   </g>
   <g id="line2d_27">
    <path clip-path="url(#p8837a0836f)" d="M 73.832727 295.486161 
L 109.94558 294.306888 
L 146.058433 292.347424 
L 182.171285 289.626671 
L 218.284138 286.123933 
L 254.396991 281.798368 
L 290.509843 276.382636 
L 326.622696 269.073865 
L 362.735549 256.819721 
L 366.346834 253.9631 
L 366.707962 253.28805 
L 367.069091 253.452706 
L 367.430219 252.842165 
L 367.791348 252.817689 
L 368.152476 252.834351 
L 368.513605 253.222787 
L 368.874734 252.606355 
L 369.235862 252.760597 
L 369.596991 251.901363 
L 369.958119 251.331654 
L 370.319248 250.677892 
L 370.680376 250.013141 
L 371.041505 251.006485 
L 371.402633 250.828937 
L 371.763762 250.608429 
L 372.12489 249.295146 
L 372.486019 248.724205 
L 372.847147 249.403255 
L 373.208276 248.411928 
L 373.569404 249.639502 
L 373.930533 248.548135 
L 374.291661 248.2049 
L 374.65279 247.10593 
L 375.013918 246.689073 
L 375.375047 246.015494 
L 375.736176 246.166352 
L 376.097304 246.053861 
L 376.458433 246.773425 
L 376.819561 244.322183 
L 377.18069 245.01587 
L 377.541818 244.293738 
L 377.902947 244.655234 
L 378.264075 242.875674 
L 378.625204 243.41746 
L 378.986332 244.792876 
L 379.347461 240.390407 
L 379.708589 242.318178 
L 380.069718 242.570227 
L 380.430846 242.724347 
L 380.791975 241.366488 
L 381.153103 241.929466 
L 381.514232 239.034165 
L 381.875361 237.257422 
L 382.236489 237.502275 
L 382.597618 236.342114 
L 382.958746 238.043187 
L 383.319875 233.843546 
L 383.681003 233.390058 
L 384.042132 238.67632 
L 384.40326 235.049039 
L 384.764389 234.608878 
L 385.125517 232.015411 
L 385.486646 233.643053 
L 385.847774 230.003382 
L 386.208903 232.481006 
L 386.570031 227.868864 
L 386.93116 233.186209 
L 387.292288 225.003887 
L 387.653417 225.975033 
L 388.014545 230.935249 
L 388.375674 216.766212 
L 388.736803 226.988353 
L 389.097931 216.816061 
L 389.45906 218.013249 
L 389.820188 214.781596 
L 390.181317 219.437918 
L 390.542445 214.770791 
L 390.903574 206.184801 
L 391.264702 218.397561 
L 391.625831 219.104375 
L 391.986959 198.451316 
L 392.348088 208.396865 
L 392.709216 207.504385 
L 393.070345 200.539642 
L 393.431473 210.458507 
L 393.792602 184.180499 
L 394.15373 194.329271 
L 394.514859 193.594339 
L 394.875987 203.315737 
L 395.237116 104.98424 
L 395.598245 193.945436 
L 395.959373 144.481038 
L 396.320502 165.100746 
L 396.68163 176.276123 
L 397.042759 172.585851 
L 397.403887 195.438822 
L 397.765016 215.61513 
L 398.126144 207.431208 
L 398.487273 211.621887 
" style="fill:none;stroke:#2ca02c;stroke-linecap:square;stroke-width:2;"/>
   </g>
   <g id="line2d_28">
    <path clip-path="url(#p8837a0836f)" d="M 73.832727 295.486924 
L 109.94558 294.31971 
L 146.058433 292.41198 
L 182.171285 289.868625 
L 218.284138 286.849934 
L 254.396991 283.596208 
L 290.509843 280.281349 
L 326.622696 277.072136 
L 362.735549 273.90572 
L 366.346834 273.498341 
L 366.707962 273.62616 
L 367.069091 273.493439 
L 367.430219 273.528734 
L 367.791348 273.390085 
L 368.152476 273.389992 
L 368.513605 273.393664 
L 368.874734 273.368902 
L 369.235862 273.46078 
L 369.596991 273.281018 
L 369.958119 273.30729 
L 370.319248 273.186904 
L 370.680376 273.122863 
L 371.041505 273.239656 
L 371.402633 273.074394 
L 371.763762 273.172647 
L 372.12489 273.062791 
L 372.486019 273.057321 
L 372.847147 272.994275 
L 373.208276 272.838534 
L 373.569404 272.890657 
L 373.930533 272.923923 
L 374.291661 272.880814 
L 374.65279 272.680628 
L 375.013918 272.865478 
L 375.375047 272.704769 
L 375.736176 272.671701 
L 376.097304 272.666937 
L 376.458433 272.566123 
L 376.819561 272.62515 
L 377.18069 272.524772 
L 377.541818 272.597867 
L 377.902947 272.51052 
L 378.264075 272.499921 
L 378.625204 272.409902 
L 378.986332 272.437183 
L 379.347461 272.2841 
L 379.708589 272.271658 
L 380.069718 272.493778 
L 380.430846 272.20612 
L 380.791975 272.254798 
L 381.153103 272.242265 
L 381.514232 272.20492 
L 381.875361 272.21207 
L 382.236489 272.182813 
L 382.597618 271.995603 
L 382.958746 272.115104 
L 383.319875 272.141954 
L 383.681003 272.080029 
L 384.042132 272.270398 
L 384.40326 271.684113 
L 384.764389 271.999206 
L 385.125517 271.897622 
L 385.486646 271.965919 
L 385.847774 271.82071 
L 386.208903 271.730517 
L 386.570031 271.464532 
L 386.93116 271.564377 
L 387.292288 271.891533 
L 387.653417 271.459668 
L 388.014545 271.505149 
L 388.375674 271.731577 
L 388.736803 271.284092 
L 389.097931 271.524928 
L 389.45906 271.283832 
L 389.820188 271.315947 
L 390.181317 271.51578 
L 390.542445 271.439436 
L 390.903574 271.21265 
L 391.264702 271.101205 
L 391.625831 271.353096 
L 391.986959 270.836862 
L 392.348088 271.241977 
L 392.709216 270.783329 
L 393.070345 270.590928 
L 393.431473 270.431307 
L 393.792602 271.284051 
L 394.15373 270.871052 
L 394.514859 270.936337 
L 394.875987 270.537125 
L 395.237116 270.108621 
L 395.598245 270.519602 
L 395.959373 270.653367 
L 396.320502 271.722773 
L 396.68163 270.514738 
L 397.042759 269.504835 
L 397.403887 269.235176 
L 397.765016 271.675995 
L 398.126144 274.064578 
L 398.487273 263.046862 
" style="fill:none;stroke:#d62728;stroke-linecap:square;stroke-width:2;"/>
   </g>
   <g id="line2d_29">
    <path clip-path="url(#p8837a0836f)" d="M 73.832727 295.487165 
L 109.94558 294.305421 
L 146.058433 292.348694 
L 182.171285 289.599104 
L 218.284138 285.984754 
L 254.396991 281.303932 
L 290.509843 275.301109 
L 326.622696 266.913212 
L 362.735549 252.436101 
L 366.346834 249.897774 
L 366.707962 249.628165 
L 367.069091 249.762004 
L 367.430219 250.323616 
L 367.791348 249.02553 
L 368.152476 248.73197 
L 368.513605 248.383428 
L 368.874734 248.184353 
L 369.235862 248.540641 
L 369.596991 248.361966 
L 369.958119 247.915905 
L 370.319248 246.769341 
L 370.680376 246.34711 
L 371.041505 246.534523 
L 371.402633 246.117608 
L 371.763762 245.979572 
L 372.12489 244.747325 
L 372.486019 244.774453 
L 372.847147 244.591707 
L 373.208276 244.176134 
L 373.569404 243.811465 
L 373.930533 243.3876 
L 374.291661 242.726842 
L 374.65279 242.9408 
L 375.013918 243.433726 
L 375.375047 242.278317 
L 375.736176 242.408224 
L 376.097304 242.408242 
L 376.458433 241.015117 
L 376.819561 240.475537 
L 377.18069 240.096958 
L 377.541818 241.580984 
L 377.902947 239.577435 
L 378.264075 238.858863 
L 378.625204 237.19085 
L 378.986332 238.32163 
L 379.347461 237.960283 
L 379.708589 237.123262 
L 380.069718 235.779013 
L 380.430846 235.639475 
L 380.791975 235.05609 
L 381.153103 235.705917 
L 381.514232 234.185547 
L 381.875361 234.706642 
L 382.236489 233.745585 
L 382.597618 233.537464 
L 382.958746 230.640493 
L 383.319875 231.22433 
L 383.681003 229.755612 
L 384.042132 232.768561 
L 384.40326 228.047859 
L 384.764389 225.042485 
L 385.125517 229.45332 
L 385.486646 230.135719 
L 385.847774 223.649787 
L 386.208903 222.582037 
L 386.570031 220.914508 
L 386.93116 223.982895 
L 387.292288 223.193224 
L 387.653417 224.988115 
L 388.014545 219.754122 
L 388.375674 220.85296 
L 388.736803 215.232743 
L 389.097931 222.018641 
L 389.45906 212.590112 
L 389.820188 214.320476 
L 390.181317 212.800164 
L 390.542445 217.351518 
L 390.903574 206.296232 
L 391.264702 208.037774 
L 391.625831 204.874879 
L 391.986959 202.421164 
L 392.348088 188.45068 
L 392.709216 199.798645 
L 393.070345 185.352138 
L 393.431473 199.174535 
L 393.792602 201.721365 
L 394.15373 174.07422 
L 394.514859 193.270364 
L 394.875987 188.299026 
L 395.237116 184.744422 
L 395.598245 182.880414 
L 395.959373 186.428982 
L 396.320502 217.393381 
L 396.68163 189.996358 
L 397.042759 53.568 
L 397.403887 145.247228 
L 397.765016 222.717212 
L 398.126144 213.98031 
L 398.487273 189.399543 
" style="fill:none;stroke:#9467bd;stroke-linecap:square;stroke-width:2;"/>
   </g>
   <g id="line2d_30">
    <path clip-path="url(#p8837a0836f)" d="M 73.832727 295.486624 
L 109.94558 294.307619 
L 146.058433 292.390386 
L 182.171285 289.79205 
L 218.284138 286.627874 
L 254.396991 283.037947 
L 290.509843 279.120258 
L 326.622696 275.042188 
L 362.735549 270.92911 
L 366.346834 270.497734 
L 366.707962 270.42575 
L 367.069091 270.396828 
L 367.430219 270.26032 
L 367.791348 270.448836 
L 368.152476 270.257131 
L 368.513605 270.306731 
L 368.874734 270.188496 
L 369.235862 270.155976 
L 369.596991 270.087029 
L 369.958119 270.088825 
L 370.319248 270.104022 
L 370.680376 270.00386 
L 371.041505 269.964678 
L 371.402633 269.963433 
L 371.763762 269.710158 
L 372.12489 269.884002 
L 372.486019 269.677543 
L 372.847147 269.676663 
L 373.208276 269.635676 
L 373.569404 269.612621 
L 373.930533 269.55366 
L 374.291661 269.506043 
L 374.65279 269.562058 
L 375.013918 269.457212 
L 375.375047 269.678151 
L 375.736176 269.209499 
L 376.097304 269.147957 
L 376.458433 269.343225 
L 376.819561 269.044128 
L 377.18069 269.411812 
L 377.541818 269.16486 
L 377.902947 269.049664 
L 378.264075 269.25143 
L 378.625204 268.947262 
L 378.986332 269.288156 
L 379.347461 269.149492 
L 379.708589 268.778778 
L 380.069718 268.753372 
L 380.430846 268.880591 
L 380.791975 268.778468 
L 381.153103 268.79642 
L 381.514232 268.721092 
L 381.875361 268.492443 
L 382.236489 268.596674 
L 382.597618 268.593192 
L 382.958746 268.414076 
L 383.319875 268.688257 
L 383.681003 268.382172 
L 384.042132 268.407888 
L 384.40326 268.210884 
L 384.764389 268.211519 
L 385.125517 268.272059 
L 385.486646 268.042504 
L 385.847774 268.238526 
L 386.208903 267.994627 
L 386.570031 267.733765 
L 386.93116 267.487619 
L 387.292288 267.826305 
L 387.653417 267.924823 
L 388.014545 267.701691 
L 388.375674 267.887066 
L 388.736803 267.683293 
L 389.097931 267.751923 
L 389.45906 267.659589 
L 389.820188 267.187882 
L 390.181317 267.786756 
L 390.542445 267.482047 
L 390.903574 267.37622 
L 391.264702 267.020712 
L 391.625831 267.151453 
L 391.986959 267.070748 
L 392.348088 266.649733 
L 392.709216 266.863854 
L 393.070345 267.789049 
L 393.431473 267.231119 
L 393.792602 267.358536 
L 394.15373 267.376553 
L 394.514859 267.260726 
L 394.875987 266.212221 
L 395.237116 266.91713 
L 395.598245 267.534634 
L 395.959373 266.292358 
L 396.320502 265.375345 
L 396.68163 266.694843 
L 397.042759 266.150428 
L 397.403887 265.818424 
L 397.765016 262.948589 
L 398.126144 265.146079 
L 398.487273 268.456263 
" style="fill:none;stroke:#8c564b;stroke-linecap:square;stroke-width:2;"/>
   </g>
   <g id="patch_3">
    <path d="M 57.6 307.584 
L 57.6 41.472 
" style="fill:none;stroke:#000000;stroke-linecap:square;stroke-linejoin:miter;stroke-width:0.8;"/>
   </g>
   <g id="patch_4">
    <path d="M 414.72 307.584 
L 414.72 41.472 
" style="fill:none;stroke:#000000;stroke-linecap:square;stroke-linejoin:miter;stroke-width:0.8;"/>
   </g>
   <g id="patch_5">
    <path d="M 57.6 307.584 
L 414.72 307.584 
" style="fill:none;stroke:#000000;stroke-linecap:square;stroke-linejoin:miter;stroke-width:0.8;"/>
   </g>
   <g id="patch_6">
    <path d="M 57.6 41.472 
L 414.72 41.472 
" style="fill:none;stroke:#000000;stroke-linecap:square;stroke-linejoin:miter;stroke-width:0.8;"/>
   </g>
   <g id="text_15">
    <!-- (1 - S) * E[Q11 + Q22 + Q12 + Q21] vs Traffic Intensity, Vs Value: [0.5, 0.5, 0.5, 0.5] -->
    <defs>
     <path d="M 11.71875 12.40625 
L 22.015625 12.40625 
L 22.015625 4 
L 14.015625 -11.625 
L 7.71875 -11.625 
L 11.71875 4 
z
" id="DejaVuSans-2c"/>
     <path d="M 28.609375 0 
L 0.78125 72.90625 
L 11.078125 72.90625 
L 34.1875 11.53125 
L 57.328125 72.90625 
L 67.578125 72.90625 
L 39.796875 0 
z
" id="DejaVuSans-56"/>
     <path d="M 11.71875 12.40625 
L 22.015625 12.40625 
L 22.015625 0 
L 11.71875 0 
z
M 11.71875 51.703125 
L 22.015625 51.703125 
L 22.015625 39.3125 
L 11.71875 39.3125 
z
" id="DejaVuSans-3a"/>
    </defs>
    <g transform="translate(-18.974063 35.472)scale(0.12 -0.12)">
     <use xlink:href="#DejaVuSans-28"/>
     <use x="39.013672" xlink:href="#DejaVuSans-31"/>
     <use x="102.636719" xlink:href="#DejaVuSans-20"/>
     <use x="134.423828" xlink:href="#DejaVuSans-2d"/>
     <use x="170.507812" xlink:href="#DejaVuSans-20"/>
     <use x="202.294922" xlink:href="#DejaVuSans-53"/>
     <use x="265.771484" xlink:href="#DejaVuSans-29"/>
     <use x="304.785156" xlink:href="#DejaVuSans-20"/>
     <use x="336.572266" xlink:href="#DejaVuSans-2a"/>
     <use x="386.572266" xlink:href="#DejaVuSans-20"/>
     <use x="418.359375" xlink:href="#DejaVuSans-45"/>
     <use x="481.542969" xlink:href="#DejaVuSans-5b"/>
     <use x="520.556641" xlink:href="#DejaVuSans-51"/>
     <use x="599.267578" xlink:href="#DejaVuSans-31"/>
     <use x="662.890625" xlink:href="#DejaVuSans-31"/>
     <use x="726.513672" xlink:href="#DejaVuSans-20"/>
     <use x="758.300781" xlink:href="#DejaVuSans-2b"/>
     <use x="842.089844" xlink:href="#DejaVuSans-20"/>
     <use x="873.876953" xlink:href="#DejaVuSans-51"/>
     <use x="952.587891" xlink:href="#DejaVuSans-32"/>
     <use x="1016.210938" xlink:href="#DejaVuSans-32"/>
     <use x="1079.833984" xlink:href="#DejaVuSans-20"/>
     <use x="1111.621094" xlink:href="#DejaVuSans-2b"/>
     <use x="1195.410156" xlink:href="#DejaVuSans-20"/>
     <use x="1227.197266" xlink:href="#DejaVuSans-51"/>
     <use x="1305.908203" xlink:href="#DejaVuSans-31"/>
     <use x="1369.53125" xlink:href="#DejaVuSans-32"/>
     <use x="1433.154297" xlink:href="#DejaVuSans-20"/>
     <use x="1464.941406" xlink:href="#DejaVuSans-2b"/>
     <use x="1548.730469" xlink:href="#DejaVuSans-20"/>
     <use x="1580.517578" xlink:href="#DejaVuSans-51"/>
     <use x="1659.228516" xlink:href="#DejaVuSans-32"/>
     <use x="1722.851562" xlink:href="#DejaVuSans-31"/>
     <use x="1786.474609" xlink:href="#DejaVuSans-5d"/>
     <use x="1825.488281" xlink:href="#DejaVuSans-20"/>
     <use x="1857.275391" xlink:href="#DejaVuSans-76"/>
     <use x="1916.455078" xlink:href="#DejaVuSans-73"/>
     <use x="1968.554688" xlink:href="#DejaVuSans-20"/>
     <use x="2000.341797" xlink:href="#DejaVuSans-54"/>
     <use x="2061.207031" xlink:href="#DejaVuSans-72"/>
     <use x="2102.320312" xlink:href="#DejaVuSans-61"/>
     <use x="2163.599609" xlink:href="#DejaVuSans-66"/>
     <use x="2198.804688" xlink:href="#DejaVuSans-66"/>
     <use x="2234.009766" xlink:href="#DejaVuSans-69"/>
     <use x="2261.792969" xlink:href="#DejaVuSans-63"/>
     <use x="2316.773438" xlink:href="#DejaVuSans-20"/>
     <use x="2348.560547" xlink:href="#DejaVuSans-49"/>
     <use x="2378.052734" xlink:href="#DejaVuSans-6e"/>
     <use x="2441.431641" xlink:href="#DejaVuSans-74"/>
     <use x="2480.640625" xlink:href="#DejaVuSans-65"/>
     <use x="2542.164062" xlink:href="#DejaVuSans-6e"/>
     <use x="2605.542969" xlink:href="#DejaVuSans-73"/>
     <use x="2657.642578" xlink:href="#DejaVuSans-69"/>
     <use x="2685.425781" xlink:href="#DejaVuSans-74"/>
     <use x="2724.634766" xlink:href="#DejaVuSans-79"/>
     <use x="2783.814453" xlink:href="#DejaVuSans-2c"/>
     <use x="2815.601562" xlink:href="#DejaVuSans-20"/>
     <use x="2847.388672" xlink:href="#DejaVuSans-56"/>
     <use x="2915.796875" xlink:href="#DejaVuSans-73"/>
     <use x="2967.896484" xlink:href="#DejaVuSans-20"/>
     <use x="2999.683594" xlink:href="#DejaVuSans-56"/>
     <use x="3067.982422" xlink:href="#DejaVuSans-61"/>
     <use x="3129.261719" xlink:href="#DejaVuSans-6c"/>
     <use x="3157.044922" xlink:href="#DejaVuSans-75"/>
     <use x="3220.423828" xlink:href="#DejaVuSans-65"/>
     <use x="3281.947266" xlink:href="#DejaVuSans-3a"/>
     <use x="3315.638672" xlink:href="#DejaVuSans-20"/>
     <use x="3347.425781" xlink:href="#DejaVuSans-5b"/>
     <use x="3386.439453" xlink:href="#DejaVuSans-30"/>
     <use x="3450.0625" xlink:href="#DejaVuSans-2e"/>
     <use x="3481.849609" xlink:href="#DejaVuSans-35"/>
     <use x="3545.472656" xlink:href="#DejaVuSans-2c"/>
     <use x="3577.259766" xlink:href="#DejaVuSans-20"/>
     <use x="3609.046875" xlink:href="#DejaVuSans-30"/>
     <use x="3672.669922" xlink:href="#DejaVuSans-2e"/>
     <use x="3704.457031" xlink:href="#DejaVuSans-35"/>
     <use x="3768.080078" xlink:href="#DejaVuSans-2c"/>
     <use x="3799.867188" xlink:href="#DejaVuSans-20"/>
     <use x="3831.654297" xlink:href="#DejaVuSans-30"/>
     <use x="3895.277344" xlink:href="#DejaVuSans-2e"/>
     <use x="3927.064453" xlink:href="#DejaVuSans-35"/>
     <use x="3990.6875" xlink:href="#DejaVuSans-2c"/>
     <use x="4022.474609" xlink:href="#DejaVuSans-20"/>
     <use x="4054.261719" xlink:href="#DejaVuSans-30"/>
     <use x="4117.884766" xlink:href="#DejaVuSans-2e"/>
     <use x="4149.671875" xlink:href="#DejaVuSans-35"/>
     <use x="4213.294922" xlink:href="#DejaVuSans-5d"/>
    </g>
   </g>
   <g id="legend_1">
    <g id="patch_7">
     <path d="M 64.6 138.931375 
L 202.339062 138.931375 
Q 204.339062 138.931375 204.339062 136.931375 
L 204.339062 48.472 
Q 204.339062 46.472 202.339062 46.472 
L 64.6 46.472 
Q 62.6 46.472 62.6 48.472 
L 62.6 136.931375 
Q 62.6 138.931375 64.6 138.931375 
z
" style="fill:#ffffff;opacity:0.8;stroke:#cccccc;stroke-linejoin:miter;"/>
    </g>
    <g id="line2d_31">
     <path d="M 66.6 54.570438 
L 86.6 54.570438 
" style="fill:none;stroke:#1f77b4;stroke-linecap:square;stroke-width:4;"/>
    </g>
    <g id="line2d_32"/>
    <g id="text_16">
     <!-- MaxWt -->
     <defs>
      <path d="M 9.8125 72.90625 
L 24.515625 72.90625 
L 43.109375 23.296875 
L 61.8125 72.90625 
L 76.515625 72.90625 
L 76.515625 0 
L 66.890625 0 
L 66.890625 64.015625 
L 48.09375 14.015625 
L 38.1875 14.015625 
L 19.390625 64.015625 
L 19.390625 0 
L 9.8125 0 
z
" id="DejaVuSans-4d"/>
      <path d="M 54.890625 54.6875 
L 35.109375 28.078125 
L 55.90625 0 
L 45.3125 0 
L 29.390625 21.484375 
L 13.484375 0 
L 2.875 0 
L 24.125 28.609375 
L 4.6875 54.6875 
L 15.28125 54.6875 
L 29.78125 35.203125 
L 44.28125 54.6875 
z
" id="DejaVuSans-78"/>
      <path d="M 3.328125 72.90625 
L 13.28125 72.90625 
L 28.609375 11.28125 
L 43.890625 72.90625 
L 54.984375 72.90625 
L 70.3125 11.28125 
L 85.59375 72.90625 
L 95.609375 72.90625 
L 77.296875 0 
L 64.890625 0 
L 49.515625 63.28125 
L 33.984375 0 
L 21.578125 0 
z
" id="DejaVuSans-57"/>
     </defs>
     <g transform="translate(94.6 58.070438)scale(0.1 -0.1)">
      <use xlink:href="#DejaVuSans-4d"/>
      <use x="86.279297" xlink:href="#DejaVuSans-61"/>
      <use x="147.558594" xlink:href="#DejaVuSans-78"/>
      <use x="206.738281" xlink:href="#DejaVuSans-57"/>
      <use x="305.615234" xlink:href="#DejaVuSans-74"/>
     </g>
    </g>
    <g id="line2d_33">
     <path d="M 66.6 69.248563 
L 86.6 69.248563 
" style="fill:none;stroke:#ff7f0e;stroke-linecap:square;stroke-width:2;"/>
    </g>
    <g id="line2d_34"/>
    <g id="text_17">
     <!-- MaxSize_random -->
     <defs>
      <path d="M 5.515625 54.6875 
L 48.1875 54.6875 
L 48.1875 46.484375 
L 14.40625 7.171875 
L 48.1875 7.171875 
L 48.1875 0 
L 4.296875 0 
L 4.296875 8.203125 
L 38.09375 47.515625 
L 5.515625 47.515625 
z
" id="DejaVuSans-7a"/>
      <path d="M 50.984375 -16.609375 
L 50.984375 -23.578125 
L -0.984375 -23.578125 
L -0.984375 -16.609375 
z
" id="DejaVuSans-5f"/>
      <path d="M 45.40625 46.390625 
L 45.40625 75.984375 
L 54.390625 75.984375 
L 54.390625 0 
L 45.40625 0 
L 45.40625 8.203125 
Q 42.578125 3.328125 38.25 0.953125 
Q 33.9375 -1.421875 27.875 -1.421875 
Q 17.96875 -1.421875 11.734375 6.484375 
Q 5.515625 14.40625 5.515625 27.296875 
Q 5.515625 40.1875 11.734375 48.09375 
Q 17.96875 56 27.875 56 
Q 33.9375 56 38.25 53.625 
Q 42.578125 51.265625 45.40625 46.390625 
z
M 14.796875 27.296875 
Q 14.796875 17.390625 18.875 11.75 
Q 22.953125 6.109375 30.078125 6.109375 
Q 37.203125 6.109375 41.296875 11.75 
Q 45.40625 17.390625 45.40625 27.296875 
Q 45.40625 37.203125 41.296875 42.84375 
Q 37.203125 48.484375 30.078125 48.484375 
Q 22.953125 48.484375 18.875 42.84375 
Q 14.796875 37.203125 14.796875 27.296875 
z
" id="DejaVuSans-64"/>
     </defs>
     <g transform="translate(94.6 72.748563)scale(0.1 -0.1)">
      <use xlink:href="#DejaVuSans-4d"/>
      <use x="86.279297" xlink:href="#DejaVuSans-61"/>
      <use x="147.558594" xlink:href="#DejaVuSans-78"/>
      <use x="206.738281" xlink:href="#DejaVuSans-53"/>
      <use x="270.214844" xlink:href="#DejaVuSans-69"/>
      <use x="297.998047" xlink:href="#DejaVuSans-7a"/>
      <use x="350.488281" xlink:href="#DejaVuSans-65"/>
      <use x="412.011719" xlink:href="#DejaVuSans-5f"/>
      <use x="462.011719" xlink:href="#DejaVuSans-72"/>
      <use x="503.125" xlink:href="#DejaVuSans-61"/>
      <use x="564.404297" xlink:href="#DejaVuSans-6e"/>
      <use x="627.783203" xlink:href="#DejaVuSans-64"/>
      <use x="691.259766" xlink:href="#DejaVuSans-6f"/>
      <use x="752.441406" xlink:href="#DejaVuSans-6d"/>
     </g>
    </g>
    <g id="line2d_35">
     <path d="M 66.6 84.204813 
L 86.6 84.204813 
" style="fill:none;stroke:#2ca02c;stroke-linecap:square;stroke-width:2;"/>
    </g>
    <g id="line2d_36"/>
    <g id="text_18">
     <!-- MaxSize_Pri11_22 -->
     <defs>
      <path d="M 19.671875 64.796875 
L 19.671875 37.40625 
L 32.078125 37.40625 
Q 38.96875 37.40625 42.71875 40.96875 
Q 46.484375 44.53125 46.484375 51.125 
Q 46.484375 57.671875 42.71875 61.234375 
Q 38.96875 64.796875 32.078125 64.796875 
z
M 9.8125 72.90625 
L 32.078125 72.90625 
Q 44.34375 72.90625 50.609375 67.359375 
Q 56.890625 61.8125 56.890625 51.125 
Q 56.890625 40.328125 50.609375 34.8125 
Q 44.34375 29.296875 32.078125 29.296875 
L 19.671875 29.296875 
L 19.671875 0 
L 9.8125 0 
z
" id="DejaVuSans-50"/>
     </defs>
     <g transform="translate(94.6 87.704813)scale(0.1 -0.1)">
      <use xlink:href="#DejaVuSans-4d"/>
      <use x="86.279297" xlink:href="#DejaVuSans-61"/>
      <use x="147.558594" xlink:href="#DejaVuSans-78"/>
      <use x="206.738281" xlink:href="#DejaVuSans-53"/>
      <use x="270.214844" xlink:href="#DejaVuSans-69"/>
      <use x="297.998047" xlink:href="#DejaVuSans-7a"/>
      <use x="350.488281" xlink:href="#DejaVuSans-65"/>
      <use x="412.011719" xlink:href="#DejaVuSans-5f"/>
      <use x="462.011719" xlink:href="#DejaVuSans-50"/>
      <use x="522.298828" xlink:href="#DejaVuSans-72"/>
      <use x="563.412109" xlink:href="#DejaVuSans-69"/>
      <use x="591.195312" xlink:href="#DejaVuSans-31"/>
      <use x="654.818359" xlink:href="#DejaVuSans-31"/>
      <use x="718.441406" xlink:href="#DejaVuSans-5f"/>
      <use x="768.441406" xlink:href="#DejaVuSans-32"/>
      <use x="832.064453" xlink:href="#DejaVuSans-32"/>
     </g>
    </g>
    <g id="line2d_37">
     <path d="M 66.6 99.161063 
L 86.6 99.161063 
" style="fill:none;stroke:#d62728;stroke-linecap:square;stroke-width:2;"/>
    </g>
    <g id="line2d_38"/>
    <g id="text_19">
     <!-- MaxSize_PriMaxWt -->
     <g transform="translate(94.6 102.661063)scale(0.1 -0.1)">
      <use xlink:href="#DejaVuSans-4d"/>
      <use x="86.279297" xlink:href="#DejaVuSans-61"/>
      <use x="147.558594" xlink:href="#DejaVuSans-78"/>
      <use x="206.738281" xlink:href="#DejaVuSans-53"/>
      <use x="270.214844" xlink:href="#DejaVuSans-69"/>
      <use x="297.998047" xlink:href="#DejaVuSans-7a"/>
      <use x="350.488281" xlink:href="#DejaVuSans-65"/>
      <use x="412.011719" xlink:href="#DejaVuSans-5f"/>
      <use x="462.011719" xlink:href="#DejaVuSans-50"/>
      <use x="522.298828" xlink:href="#DejaVuSans-72"/>
      <use x="563.412109" xlink:href="#DejaVuSans-69"/>
      <use x="591.195312" xlink:href="#DejaVuSans-4d"/>
      <use x="677.474609" xlink:href="#DejaVuSans-61"/>
      <use x="738.753906" xlink:href="#DejaVuSans-78"/>
      <use x="797.933594" xlink:href="#DejaVuSans-57"/>
      <use x="896.810547" xlink:href="#DejaVuSans-74"/>
     </g>
    </g>
    <g id="line2d_39">
     <path d="M 66.6 114.117313 
L 86.6 114.117313 
" style="fill:none;stroke:#9467bd;stroke-linecap:square;stroke-width:2;"/>
    </g>
    <g id="line2d_40"/>
    <g id="text_20">
     <!-- MaxSize_PriMinWt -->
     <g transform="translate(94.6 117.617313)scale(0.1 -0.1)">
      <use xlink:href="#DejaVuSans-4d"/>
      <use x="86.279297" xlink:href="#DejaVuSans-61"/>
      <use x="147.558594" xlink:href="#DejaVuSans-78"/>
      <use x="206.738281" xlink:href="#DejaVuSans-53"/>
      <use x="270.214844" xlink:href="#DejaVuSans-69"/>
      <use x="297.998047" xlink:href="#DejaVuSans-7a"/>
      <use x="350.488281" xlink:href="#DejaVuSans-65"/>
      <use x="412.011719" xlink:href="#DejaVuSans-5f"/>
      <use x="462.011719" xlink:href="#DejaVuSans-50"/>
      <use x="522.298828" xlink:href="#DejaVuSans-72"/>
      <use x="563.412109" xlink:href="#DejaVuSans-69"/>
      <use x="591.195312" xlink:href="#DejaVuSans-4d"/>
      <use x="677.474609" xlink:href="#DejaVuSans-69"/>
      <use x="705.257812" xlink:href="#DejaVuSans-6e"/>
      <use x="768.636719" xlink:href="#DejaVuSans-57"/>
      <use x="867.513672" xlink:href="#DejaVuSans-74"/>
     </g>
    </g>
    <g id="line2d_41">
     <path d="M 66.6 129.073563 
L 86.6 129.073563 
" style="fill:none;stroke:#8c564b;stroke-linecap:square;stroke-width:2;"/>
    </g>
    <g id="line2d_42"/>
    <g id="text_21">
     <!-- MaxArrival_PriMaxWt -->
     <g transform="translate(94.6 132.573563)scale(0.1 -0.1)">
      <use xlink:href="#DejaVuSans-4d"/>
      <use x="86.279297" xlink:href="#DejaVuSans-61"/>
      <use x="147.558594" xlink:href="#DejaVuSans-78"/>
      <use x="206.738281" xlink:href="#DejaVuSans-41"/>
      <use x="275.146484" xlink:href="#DejaVuSans-72"/>
      <use x="316.244141" xlink:href="#DejaVuSans-72"/>
      <use x="357.357422" xlink:href="#DejaVuSans-69"/>
      <use x="385.140625" xlink:href="#DejaVuSans-76"/>
      <use x="444.320312" xlink:href="#DejaVuSans-61"/>
      <use x="505.599609" xlink:href="#DejaVuSans-6c"/>
      <use x="533.382812" xlink:href="#DejaVuSans-5f"/>
      <use x="583.382812" xlink:href="#DejaVuSans-50"/>
      <use x="643.669922" xlink:href="#DejaVuSans-72"/>
      <use x="684.783203" xlink:href="#DejaVuSans-69"/>
      <use x="712.566406" xlink:href="#DejaVuSans-4d"/>
      <use x="798.845703" xlink:href="#DejaVuSans-61"/>
      <use x="860.125" xlink:href="#DejaVuSans-78"/>
      <use x="919.304688" xlink:href="#DejaVuSans-57"/>
      <use x="1018.181641" xlink:href="#DejaVuSans-74"/>
     </g>
    </g>
   </g>
  </g>
 </g>
 <defs>
  <clipPath id="p8837a0836f">
   <rect height="266.112" width="357.12" x="57.6" y="41.472"/>
  </clipPath>
 </defs>
</svg>
