<?xml version="1.0" encoding="utf-8" standalone="no"?>
<!DOCTYPE svg PUBLIC "-//W3C//DTD SVG 1.1//EN"
  "http://www.w3.org/Graphics/SVG/1.1/DTD/svg11.dtd">
<!-- Created with matplotlib (http://matplotlib.org/) -->
<svg height="345pt" version="1.1" viewBox="0 0 460 345" width="460pt" xmlns="http://www.w3.org/2000/svg" xmlns:xlink="http://www.w3.org/1999/xlink">
 <defs>
  <style type="text/css">
*{stroke-linecap:butt;stroke-linejoin:round;}
  </style>
 </defs>
 <g id="figure_1">
  <g id="patch_1">
   <path d="M 0 345.6 
L 460.8 345.6 
L 460.8 0 
L 0 0 
z
" style="fill:#ffffff;"/>
  </g>
  <g id="axes_1">
   <g id="patch_2">
    <path d="M 57.6 307.584 
L 414.72 307.584 
L 414.72 41.472 
L 57.6 41.472 
z
" style="fill:#ffffff;"/>
   </g>
   <g id="matplotlib.axis_1">
    <g id="xtick_1">
     <g id="line2d_1">
      <path clip-path="url(#pc7c8ffe39c)" d="M 109.94558 307.584 
L 109.94558 41.472 
" style="fill:none;stroke:#b0b0b0;stroke-linecap:square;stroke-width:0.8;"/>
     </g>
     <g id="line2d_2">
      <defs>
       <path d="M 0 0 
L 0 3.5 
" id="mcd98d0fbc3" style="stroke:#000000;stroke-width:0.8;"/>
      </defs>
      <g>
       <use style="stroke:#000000;stroke-width:0.8;" x="109.94558" xlink:href="#mcd98d0fbc3" y="307.584"/>
      </g>
     </g>
     <g id="text_1">
      <!-- 0.2 -->
      <defs>
       <path d="M 31.78125 66.40625 
Q 24.171875 66.40625 20.328125 58.90625 
Q 16.5 51.421875 16.5 36.375 
Q 16.5 21.390625 20.328125 13.890625 
Q 24.171875 6.390625 31.78125 6.390625 
Q 39.453125 6.390625 43.28125 13.890625 
Q 47.125 21.390625 47.125 36.375 
Q 47.125 51.421875 43.28125 58.90625 
Q 39.453125 66.40625 31.78125 66.40625 
z
M 31.78125 74.21875 
Q 44.046875 74.21875 50.515625 64.515625 
Q 56.984375 54.828125 56.984375 36.375 
Q 56.984375 17.96875 50.515625 8.265625 
Q 44.046875 -1.421875 31.78125 -1.421875 
Q 19.53125 -1.421875 13.0625 8.265625 
Q 6.59375 17.96875 6.59375 36.375 
Q 6.59375 54.828125 13.0625 64.515625 
Q 19.53125 74.21875 31.78125 74.21875 
z
" id="DejaVuSans-30"/>
       <path d="M 10.6875 12.40625 
L 21 12.40625 
L 21 0 
L 10.6875 0 
z
" id="DejaVuSans-2e"/>
       <path d="M 19.1875 8.296875 
L 53.609375 8.296875 
L 53.609375 0 
L 7.328125 0 
L 7.328125 8.296875 
Q 12.9375 14.109375 22.625 23.890625 
Q 32.328125 33.6875 34.8125 36.53125 
Q 39.546875 41.84375 41.421875 45.53125 
Q 43.3125 49.21875 43.3125 52.78125 
Q 43.3125 58.59375 39.234375 62.25 
Q 35.15625 65.921875 28.609375 65.921875 
Q 23.96875 65.921875 18.8125 64.3125 
Q 13.671875 62.703125 7.8125 59.421875 
L 7.8125 69.390625 
Q 13.765625 71.78125 18.9375 73 
Q 24.125 74.21875 28.421875 74.21875 
Q 39.75 74.21875 46.484375 68.546875 
Q 53.21875 62.890625 53.21875 53.421875 
Q 53.21875 48.921875 51.53125 44.890625 
Q 49.859375 40.875 45.40625 35.40625 
Q 44.1875 33.984375 37.640625 27.21875 
Q 31.109375 20.453125 19.1875 8.296875 
z
" id="DejaVuSans-32"/>
      </defs>
      <g transform="translate(101.994017 322.182437)scale(0.1 -0.1)">
       <use xlink:href="#DejaVuSans-30"/>
       <use x="63.623047" xlink:href="#DejaVuSans-2e"/>
       <use x="95.410156" xlink:href="#DejaVuSans-32"/>
      </g>
     </g>
    </g>
    <g id="xtick_2">
     <g id="line2d_3">
      <path clip-path="url(#pc7c8ffe39c)" d="M 182.171285 307.584 
L 182.171285 41.472 
" style="fill:none;stroke:#b0b0b0;stroke-linecap:square;stroke-width:0.8;"/>
     </g>
     <g id="line2d_4">
      <g>
       <use style="stroke:#000000;stroke-width:0.8;" x="182.171285" xlink:href="#mcd98d0fbc3" y="307.584"/>
      </g>
     </g>
     <g id="text_2">
      <!-- 0.4 -->
      <defs>
       <path d="M 37.796875 64.3125 
L 12.890625 25.390625 
L 37.796875 25.390625 
z
M 35.203125 72.90625 
L 47.609375 72.90625 
L 47.609375 25.390625 
L 58.015625 25.390625 
L 58.015625 17.1875 
L 47.609375 17.1875 
L 47.609375 0 
L 37.796875 0 
L 37.796875 17.1875 
L 4.890625 17.1875 
L 4.890625 26.703125 
z
" id="DejaVuSans-34"/>
      </defs>
      <g transform="translate(174.219723 322.182437)scale(0.1 -0.1)">
       <use xlink:href="#DejaVuSans-30"/>
       <use x="63.623047" xlink:href="#DejaVuSans-2e"/>
       <use x="95.410156" xlink:href="#DejaVuSans-34"/>
      </g>
     </g>
    </g>
    <g id="xtick_3">
     <g id="line2d_5">
      <path clip-path="url(#pc7c8ffe39c)" d="M 254.396991 307.584 
L 254.396991 41.472 
" style="fill:none;stroke:#b0b0b0;stroke-linecap:square;stroke-width:0.8;"/>
     </g>
     <g id="line2d_6">
      <g>
       <use style="stroke:#000000;stroke-width:0.8;" x="254.396991" xlink:href="#mcd98d0fbc3" y="307.584"/>
      </g>
     </g>
     <g id="text_3">
      <!-- 0.6 -->
      <defs>
       <path d="M 33.015625 40.375 
Q 26.375 40.375 22.484375 35.828125 
Q 18.609375 31.296875 18.609375 23.390625 
Q 18.609375 15.53125 22.484375 10.953125 
Q 26.375 6.390625 33.015625 6.390625 
Q 39.65625 6.390625 43.53125 10.953125 
Q 47.40625 15.53125 47.40625 23.390625 
Q 47.40625 31.296875 43.53125 35.828125 
Q 39.65625 40.375 33.015625 40.375 
z
M 52.59375 71.296875 
L 52.59375 62.3125 
Q 48.875 64.0625 45.09375 64.984375 
Q 41.3125 65.921875 37.59375 65.921875 
Q 27.828125 65.921875 22.671875 59.328125 
Q 17.53125 52.734375 16.796875 39.40625 
Q 19.671875 43.65625 24.015625 45.921875 
Q 28.375 48.1875 33.59375 48.1875 
Q 44.578125 48.1875 50.953125 41.515625 
Q 57.328125 34.859375 57.328125 23.390625 
Q 57.328125 12.15625 50.6875 5.359375 
Q 44.046875 -1.421875 33.015625 -1.421875 
Q 20.359375 -1.421875 13.671875 8.265625 
Q 6.984375 17.96875 6.984375 36.375 
Q 6.984375 53.65625 15.1875 63.9375 
Q 23.390625 74.21875 37.203125 74.21875 
Q 40.921875 74.21875 44.703125 73.484375 
Q 48.484375 72.75 52.59375 71.296875 
z
" id="DejaVuSans-36"/>
      </defs>
      <g transform="translate(246.445428 322.182437)scale(0.1 -0.1)">
       <use xlink:href="#DejaVuSans-30"/>
       <use x="63.623047" xlink:href="#DejaVuSans-2e"/>
       <use x="95.410156" xlink:href="#DejaVuSans-36"/>
      </g>
     </g>
    </g>
    <g id="xtick_4">
     <g id="line2d_7">
      <path clip-path="url(#pc7c8ffe39c)" d="M 326.622696 307.584 
L 326.622696 41.472 
" style="fill:none;stroke:#b0b0b0;stroke-linecap:square;stroke-width:0.8;"/>
     </g>
     <g id="line2d_8">
      <g>
       <use style="stroke:#000000;stroke-width:0.8;" x="326.622696" xlink:href="#mcd98d0fbc3" y="307.584"/>
      </g>
     </g>
     <g id="text_4">
      <!-- 0.8 -->
      <defs>
       <path d="M 31.78125 34.625 
Q 24.75 34.625 20.71875 30.859375 
Q 16.703125 27.09375 16.703125 20.515625 
Q 16.703125 13.921875 20.71875 10.15625 
Q 24.75 6.390625 31.78125 6.390625 
Q 38.8125 6.390625 42.859375 10.171875 
Q 46.921875 13.96875 46.921875 20.515625 
Q 46.921875 27.09375 42.890625 30.859375 
Q 38.875 34.625 31.78125 34.625 
z
M 21.921875 38.8125 
Q 15.578125 40.375 12.03125 44.71875 
Q 8.5 49.078125 8.5 55.328125 
Q 8.5 64.0625 14.71875 69.140625 
Q 20.953125 74.21875 31.78125 74.21875 
Q 42.671875 74.21875 48.875 69.140625 
Q 55.078125 64.0625 55.078125 55.328125 
Q 55.078125 49.078125 51.53125 44.71875 
Q 48 40.375 41.703125 38.8125 
Q 48.828125 37.15625 52.796875 32.3125 
Q 56.78125 27.484375 56.78125 20.515625 
Q 56.78125 9.90625 50.3125 4.234375 
Q 43.84375 -1.421875 31.78125 -1.421875 
Q 19.734375 -1.421875 13.25 4.234375 
Q 6.78125 9.90625 6.78125 20.515625 
Q 6.78125 27.484375 10.78125 32.3125 
Q 14.796875 37.15625 21.921875 38.8125 
z
M 18.3125 54.390625 
Q 18.3125 48.734375 21.84375 45.5625 
Q 25.390625 42.390625 31.78125 42.390625 
Q 38.140625 42.390625 41.71875 45.5625 
Q 45.3125 48.734375 45.3125 54.390625 
Q 45.3125 60.0625 41.71875 63.234375 
Q 38.140625 66.40625 31.78125 66.40625 
Q 25.390625 66.40625 21.84375 63.234375 
Q 18.3125 60.0625 18.3125 54.390625 
z
" id="DejaVuSans-38"/>
      </defs>
      <g transform="translate(318.671133 322.182437)scale(0.1 -0.1)">
       <use xlink:href="#DejaVuSans-30"/>
       <use x="63.623047" xlink:href="#DejaVuSans-2e"/>
       <use x="95.410156" xlink:href="#DejaVuSans-38"/>
      </g>
     </g>
    </g>
    <g id="xtick_5">
     <g id="line2d_9">
      <path clip-path="url(#pc7c8ffe39c)" d="M 398.848401 307.584 
L 398.848401 41.472 
" style="fill:none;stroke:#b0b0b0;stroke-linecap:square;stroke-width:0.8;"/>
     </g>
     <g id="line2d_10">
      <g>
       <use style="stroke:#000000;stroke-width:0.8;" x="398.848401" xlink:href="#mcd98d0fbc3" y="307.584"/>
      </g>
     </g>
     <g id="text_5">
      <!-- 1.0 -->
      <defs>
       <path d="M 12.40625 8.296875 
L 28.515625 8.296875 
L 28.515625 63.921875 
L 10.984375 60.40625 
L 10.984375 69.390625 
L 28.421875 72.90625 
L 38.28125 72.90625 
L 38.28125 8.296875 
L 54.390625 8.296875 
L 54.390625 0 
L 12.40625 0 
z
" id="DejaVuSans-31"/>
      </defs>
      <g transform="translate(390.896839 322.182437)scale(0.1 -0.1)">
       <use xlink:href="#DejaVuSans-31"/>
       <use x="63.623047" xlink:href="#DejaVuSans-2e"/>
       <use x="95.410156" xlink:href="#DejaVuSans-30"/>
      </g>
     </g>
    </g>
    <g id="text_6">
     <!-- Traffic Intnesity -->
     <defs>
      <path d="M -0.296875 72.90625 
L 61.375 72.90625 
L 61.375 64.59375 
L 35.5 64.59375 
L 35.5 0 
L 25.59375 0 
L 25.59375 64.59375 
L -0.296875 64.59375 
z
" id="DejaVuSans-54"/>
      <path d="M 41.109375 46.296875 
Q 39.59375 47.171875 37.8125 47.578125 
Q 36.03125 48 33.890625 48 
Q 26.265625 48 22.1875 43.046875 
Q 18.109375 38.09375 18.109375 28.8125 
L 18.109375 0 
L 9.078125 0 
L 9.078125 54.6875 
L 18.109375 54.6875 
L 18.109375 46.1875 
Q 20.953125 51.171875 25.484375 53.578125 
Q 30.03125 56 36.53125 56 
Q 37.453125 56 38.578125 55.875 
Q 39.703125 55.765625 41.0625 55.515625 
z
" id="DejaVuSans-72"/>
      <path d="M 34.28125 27.484375 
Q 23.390625 27.484375 19.1875 25 
Q 14.984375 22.515625 14.984375 16.5 
Q 14.984375 11.71875 18.140625 8.90625 
Q 21.296875 6.109375 26.703125 6.109375 
Q 34.1875 6.109375 38.703125 11.40625 
Q 43.21875 16.703125 43.21875 25.484375 
L 43.21875 27.484375 
z
M 52.203125 31.203125 
L 52.203125 0 
L 43.21875 0 
L 43.21875 8.296875 
Q 40.140625 3.328125 35.546875 0.953125 
Q 30.953125 -1.421875 24.3125 -1.421875 
Q 15.921875 -1.421875 10.953125 3.296875 
Q 6 8.015625 6 15.921875 
Q 6 25.140625 12.171875 29.828125 
Q 18.359375 34.515625 30.609375 34.515625 
L 43.21875 34.515625 
L 43.21875 35.40625 
Q 43.21875 41.609375 39.140625 45 
Q 35.0625 48.390625 27.6875 48.390625 
Q 23 48.390625 18.546875 47.265625 
Q 14.109375 46.140625 10.015625 43.890625 
L 10.015625 52.203125 
Q 14.9375 54.109375 19.578125 55.046875 
Q 24.21875 56 28.609375 56 
Q 40.484375 56 46.34375 49.84375 
Q 52.203125 43.703125 52.203125 31.203125 
z
" id="DejaVuSans-61"/>
      <path d="M 37.109375 75.984375 
L 37.109375 68.5 
L 28.515625 68.5 
Q 23.6875 68.5 21.796875 66.546875 
Q 19.921875 64.59375 19.921875 59.515625 
L 19.921875 54.6875 
L 34.71875 54.6875 
L 34.71875 47.703125 
L 19.921875 47.703125 
L 19.921875 0 
L 10.890625 0 
L 10.890625 47.703125 
L 2.296875 47.703125 
L 2.296875 54.6875 
L 10.890625 54.6875 
L 10.890625 58.5 
Q 10.890625 67.625 15.140625 71.796875 
Q 19.390625 75.984375 28.609375 75.984375 
z
" id="DejaVuSans-66"/>
      <path d="M 9.421875 54.6875 
L 18.40625 54.6875 
L 18.40625 0 
L 9.421875 0 
z
M 9.421875 75.984375 
L 18.40625 75.984375 
L 18.40625 64.59375 
L 9.421875 64.59375 
z
" id="DejaVuSans-69"/>
      <path d="M 48.78125 52.59375 
L 48.78125 44.1875 
Q 44.96875 46.296875 41.140625 47.34375 
Q 37.3125 48.390625 33.40625 48.390625 
Q 24.65625 48.390625 19.8125 42.84375 
Q 14.984375 37.3125 14.984375 27.296875 
Q 14.984375 17.28125 19.8125 11.734375 
Q 24.65625 6.203125 33.40625 6.203125 
Q 37.3125 6.203125 41.140625 7.25 
Q 44.96875 8.296875 48.78125 10.40625 
L 48.78125 2.09375 
Q 45.015625 0.34375 40.984375 -0.53125 
Q 36.96875 -1.421875 32.421875 -1.421875 
Q 20.0625 -1.421875 12.78125 6.34375 
Q 5.515625 14.109375 5.515625 27.296875 
Q 5.515625 40.671875 12.859375 48.328125 
Q 20.21875 56 33.015625 56 
Q 37.15625 56 41.109375 55.140625 
Q 45.0625 54.296875 48.78125 52.59375 
z
" id="DejaVuSans-63"/>
      <path id="DejaVuSans-20"/>
      <path d="M 9.8125 72.90625 
L 19.671875 72.90625 
L 19.671875 0 
L 9.8125 0 
z
" id="DejaVuSans-49"/>
      <path d="M 54.890625 33.015625 
L 54.890625 0 
L 45.90625 0 
L 45.90625 32.71875 
Q 45.90625 40.484375 42.875 44.328125 
Q 39.84375 48.1875 33.796875 48.1875 
Q 26.515625 48.1875 22.3125 43.546875 
Q 18.109375 38.921875 18.109375 30.90625 
L 18.109375 0 
L 9.078125 0 
L 9.078125 54.6875 
L 18.109375 54.6875 
L 18.109375 46.1875 
Q 21.34375 51.125 25.703125 53.5625 
Q 30.078125 56 35.796875 56 
Q 45.21875 56 50.046875 50.171875 
Q 54.890625 44.34375 54.890625 33.015625 
z
" id="DejaVuSans-6e"/>
      <path d="M 18.3125 70.21875 
L 18.3125 54.6875 
L 36.8125 54.6875 
L 36.8125 47.703125 
L 18.3125 47.703125 
L 18.3125 18.015625 
Q 18.3125 11.328125 20.140625 9.421875 
Q 21.96875 7.515625 27.59375 7.515625 
L 36.8125 7.515625 
L 36.8125 0 
L 27.59375 0 
Q 17.1875 0 13.234375 3.875 
Q 9.28125 7.765625 9.28125 18.015625 
L 9.28125 47.703125 
L 2.6875 47.703125 
L 2.6875 54.6875 
L 9.28125 54.6875 
L 9.28125 70.21875 
z
" id="DejaVuSans-74"/>
      <path d="M 56.203125 29.59375 
L 56.203125 25.203125 
L 14.890625 25.203125 
Q 15.484375 15.921875 20.484375 11.0625 
Q 25.484375 6.203125 34.421875 6.203125 
Q 39.59375 6.203125 44.453125 7.46875 
Q 49.3125 8.734375 54.109375 11.28125 
L 54.109375 2.78125 
Q 49.265625 0.734375 44.1875 -0.34375 
Q 39.109375 -1.421875 33.890625 -1.421875 
Q 20.796875 -1.421875 13.15625 6.1875 
Q 5.515625 13.8125 5.515625 26.8125 
Q 5.515625 40.234375 12.765625 48.109375 
Q 20.015625 56 32.328125 56 
Q 43.359375 56 49.78125 48.890625 
Q 56.203125 41.796875 56.203125 29.59375 
z
M 47.21875 32.234375 
Q 47.125 39.59375 43.09375 43.984375 
Q 39.0625 48.390625 32.421875 48.390625 
Q 24.90625 48.390625 20.390625 44.140625 
Q 15.875 39.890625 15.1875 32.171875 
z
" id="DejaVuSans-65"/>
      <path d="M 44.28125 53.078125 
L 44.28125 44.578125 
Q 40.484375 46.53125 36.375 47.5 
Q 32.28125 48.484375 27.875 48.484375 
Q 21.1875 48.484375 17.84375 46.4375 
Q 14.5 44.390625 14.5 40.28125 
Q 14.5 37.15625 16.890625 35.375 
Q 19.28125 33.59375 26.515625 31.984375 
L 29.59375 31.296875 
Q 39.15625 29.25 43.1875 25.515625 
Q 47.21875 21.78125 47.21875 15.09375 
Q 47.21875 7.46875 41.1875 3.015625 
Q 35.15625 -1.421875 24.609375 -1.421875 
Q 20.21875 -1.421875 15.453125 -0.5625 
Q 10.6875 0.296875 5.421875 2 
L 5.421875 11.28125 
Q 10.40625 8.6875 15.234375 7.390625 
Q 20.0625 6.109375 24.8125 6.109375 
Q 31.15625 6.109375 34.5625 8.28125 
Q 37.984375 10.453125 37.984375 14.40625 
Q 37.984375 18.0625 35.515625 20.015625 
Q 33.0625 21.96875 24.703125 23.78125 
L 21.578125 24.515625 
Q 13.234375 26.265625 9.515625 29.90625 
Q 5.8125 33.546875 5.8125 39.890625 
Q 5.8125 47.609375 11.28125 51.796875 
Q 16.75 56 26.8125 56 
Q 31.78125 56 36.171875 55.265625 
Q 40.578125 54.546875 44.28125 53.078125 
z
" id="DejaVuSans-73"/>
      <path d="M 32.171875 -5.078125 
Q 28.375 -14.84375 24.75 -17.8125 
Q 21.140625 -20.796875 15.09375 -20.796875 
L 7.90625 -20.796875 
L 7.90625 -13.28125 
L 13.1875 -13.28125 
Q 16.890625 -13.28125 18.9375 -11.515625 
Q 21 -9.765625 23.484375 -3.21875 
L 25.09375 0.875 
L 2.984375 54.6875 
L 12.5 54.6875 
L 29.59375 11.921875 
L 46.6875 54.6875 
L 56.203125 54.6875 
z
" id="DejaVuSans-79"/>
     </defs>
     <g transform="translate(196.987344 335.860562)scale(0.1 -0.1)">
      <use xlink:href="#DejaVuSans-54"/>
      <use x="60.865234" xlink:href="#DejaVuSans-72"/>
      <use x="101.978516" xlink:href="#DejaVuSans-61"/>
      <use x="163.257812" xlink:href="#DejaVuSans-66"/>
      <use x="198.462891" xlink:href="#DejaVuSans-66"/>
      <use x="233.667969" xlink:href="#DejaVuSans-69"/>
      <use x="261.451172" xlink:href="#DejaVuSans-63"/>
      <use x="316.431641" xlink:href="#DejaVuSans-20"/>
      <use x="348.21875" xlink:href="#DejaVuSans-49"/>
      <use x="377.710938" xlink:href="#DejaVuSans-6e"/>
      <use x="441.089844" xlink:href="#DejaVuSans-74"/>
      <use x="480.298828" xlink:href="#DejaVuSans-6e"/>
      <use x="543.677734" xlink:href="#DejaVuSans-65"/>
      <use x="605.201172" xlink:href="#DejaVuSans-73"/>
      <use x="657.300781" xlink:href="#DejaVuSans-69"/>
      <use x="685.083984" xlink:href="#DejaVuSans-74"/>
      <use x="724.292969" xlink:href="#DejaVuSans-79"/>
     </g>
    </g>
   </g>
   <g id="matplotlib.axis_2">
    <g id="ytick_1">
     <g id="line2d_11">
      <path clip-path="url(#pc7c8ffe39c)" d="M 57.6 298.324537 
L 414.72 298.324537 
" style="fill:none;stroke:#b0b0b0;stroke-linecap:square;stroke-width:0.8;"/>
     </g>
     <g id="line2d_12">
      <defs>
       <path d="M 0 0 
L -3.5 0 
" id="m44b64bb26f" style="stroke:#000000;stroke-width:0.8;"/>
      </defs>
      <g>
       <use style="stroke:#000000;stroke-width:0.8;" x="57.6" xlink:href="#m44b64bb26f" y="298.324537"/>
      </g>
     </g>
     <g id="text_7">
      <!-- 0.0 -->
      <g transform="translate(34.696875 302.123756)scale(0.1 -0.1)">
       <use xlink:href="#DejaVuSans-30"/>
       <use x="63.623047" xlink:href="#DejaVuSans-2e"/>
       <use x="95.410156" xlink:href="#DejaVuSans-30"/>
      </g>
     </g>
    </g>
    <g id="ytick_2">
     <g id="line2d_13">
      <path clip-path="url(#pc7c8ffe39c)" d="M 57.6 260.39379 
L 414.72 260.39379 
" style="fill:none;stroke:#b0b0b0;stroke-linecap:square;stroke-width:0.8;"/>
     </g>
     <g id="line2d_14">
      <g>
       <use style="stroke:#000000;stroke-width:0.8;" x="57.6" xlink:href="#m44b64bb26f" y="260.39379"/>
      </g>
     </g>
     <g id="text_8">
      <!-- 0.1 -->
      <g transform="translate(34.696875 264.193009)scale(0.1 -0.1)">
       <use xlink:href="#DejaVuSans-30"/>
       <use x="63.623047" xlink:href="#DejaVuSans-2e"/>
       <use x="95.410156" xlink:href="#DejaVuSans-31"/>
      </g>
     </g>
    </g>
    <g id="ytick_3">
     <g id="line2d_15">
      <path clip-path="url(#pc7c8ffe39c)" d="M 57.6 222.463043 
L 414.72 222.463043 
" style="fill:none;stroke:#b0b0b0;stroke-linecap:square;stroke-width:0.8;"/>
     </g>
     <g id="line2d_16">
      <g>
       <use style="stroke:#000000;stroke-width:0.8;" x="57.6" xlink:href="#m44b64bb26f" y="222.463043"/>
      </g>
     </g>
     <g id="text_9">
      <!-- 0.2 -->
      <g transform="translate(34.696875 226.262262)scale(0.1 -0.1)">
       <use xlink:href="#DejaVuSans-30"/>
       <use x="63.623047" xlink:href="#DejaVuSans-2e"/>
       <use x="95.410156" xlink:href="#DejaVuSans-32"/>
      </g>
     </g>
    </g>
    <g id="ytick_4">
     <g id="line2d_17">
      <path clip-path="url(#pc7c8ffe39c)" d="M 57.6 184.532296 
L 414.72 184.532296 
" style="fill:none;stroke:#b0b0b0;stroke-linecap:square;stroke-width:0.8;"/>
     </g>
     <g id="line2d_18">
      <g>
       <use style="stroke:#000000;stroke-width:0.8;" x="57.6" xlink:href="#m44b64bb26f" y="184.532296"/>
      </g>
     </g>
     <g id="text_10">
      <!-- 0.3 -->
      <defs>
       <path d="M 40.578125 39.3125 
Q 47.65625 37.796875 51.625 33 
Q 55.609375 28.21875 55.609375 21.1875 
Q 55.609375 10.40625 48.1875 4.484375 
Q 40.765625 -1.421875 27.09375 -1.421875 
Q 22.515625 -1.421875 17.65625 -0.515625 
Q 12.796875 0.390625 7.625 2.203125 
L 7.625 11.71875 
Q 11.71875 9.328125 16.59375 8.109375 
Q 21.484375 6.890625 26.8125 6.890625 
Q 36.078125 6.890625 40.9375 10.546875 
Q 45.796875 14.203125 45.796875 21.1875 
Q 45.796875 27.640625 41.28125 31.265625 
Q 36.765625 34.90625 28.71875 34.90625 
L 20.21875 34.90625 
L 20.21875 43.015625 
L 29.109375 43.015625 
Q 36.375 43.015625 40.234375 45.921875 
Q 44.09375 48.828125 44.09375 54.296875 
Q 44.09375 59.90625 40.109375 62.90625 
Q 36.140625 65.921875 28.71875 65.921875 
Q 24.65625 65.921875 20.015625 65.03125 
Q 15.375 64.15625 9.8125 62.3125 
L 9.8125 71.09375 
Q 15.4375 72.65625 20.34375 73.4375 
Q 25.25 74.21875 29.59375 74.21875 
Q 40.828125 74.21875 47.359375 69.109375 
Q 53.90625 64.015625 53.90625 55.328125 
Q 53.90625 49.265625 50.4375 45.09375 
Q 46.96875 40.921875 40.578125 39.3125 
z
" id="DejaVuSans-33"/>
      </defs>
      <g transform="translate(34.696875 188.331514)scale(0.1 -0.1)">
       <use xlink:href="#DejaVuSans-30"/>
       <use x="63.623047" xlink:href="#DejaVuSans-2e"/>
       <use x="95.410156" xlink:href="#DejaVuSans-33"/>
      </g>
     </g>
    </g>
    <g id="ytick_5">
     <g id="line2d_19">
      <path clip-path="url(#pc7c8ffe39c)" d="M 57.6 146.601548 
L 414.72 146.601548 
" style="fill:none;stroke:#b0b0b0;stroke-linecap:square;stroke-width:0.8;"/>
     </g>
     <g id="line2d_20">
      <g>
       <use style="stroke:#000000;stroke-width:0.8;" x="57.6" xlink:href="#m44b64bb26f" y="146.601548"/>
      </g>
     </g>
     <g id="text_11">
      <!-- 0.4 -->
      <g transform="translate(34.696875 150.400767)scale(0.1 -0.1)">
       <use xlink:href="#DejaVuSans-30"/>
       <use x="63.623047" xlink:href="#DejaVuSans-2e"/>
       <use x="95.410156" xlink:href="#DejaVuSans-34"/>
      </g>
     </g>
    </g>
    <g id="ytick_6">
     <g id="line2d_21">
      <path clip-path="url(#pc7c8ffe39c)" d="M 57.6 108.670801 
L 414.72 108.670801 
" style="fill:none;stroke:#b0b0b0;stroke-linecap:square;stroke-width:0.8;"/>
     </g>
     <g id="line2d_22">
      <g>
       <use style="stroke:#000000;stroke-width:0.8;" x="57.6" xlink:href="#m44b64bb26f" y="108.670801"/>
      </g>
     </g>
     <g id="text_12">
      <!-- 0.5 -->
      <defs>
       <path d="M 10.796875 72.90625 
L 49.515625 72.90625 
L 49.515625 64.59375 
L 19.828125 64.59375 
L 19.828125 46.734375 
Q 21.96875 47.46875 24.109375 47.828125 
Q 26.265625 48.1875 28.421875 48.1875 
Q 40.625 48.1875 47.75 41.5 
Q 54.890625 34.8125 54.890625 23.390625 
Q 54.890625 11.625 47.5625 5.09375 
Q 40.234375 -1.421875 26.90625 -1.421875 
Q 22.3125 -1.421875 17.546875 -0.640625 
Q 12.796875 0.140625 7.71875 1.703125 
L 7.71875 11.625 
Q 12.109375 9.234375 16.796875 8.0625 
Q 21.484375 6.890625 26.703125 6.890625 
Q 35.15625 6.890625 40.078125 11.328125 
Q 45.015625 15.765625 45.015625 23.390625 
Q 45.015625 31 40.078125 35.4375 
Q 35.15625 39.890625 26.703125 39.890625 
Q 22.75 39.890625 18.8125 39.015625 
Q 14.890625 38.140625 10.796875 36.28125 
z
" id="DejaVuSans-35"/>
      </defs>
      <g transform="translate(34.696875 112.47002)scale(0.1 -0.1)">
       <use xlink:href="#DejaVuSans-30"/>
       <use x="63.623047" xlink:href="#DejaVuSans-2e"/>
       <use x="95.410156" xlink:href="#DejaVuSans-35"/>
      </g>
     </g>
    </g>
    <g id="ytick_7">
     <g id="line2d_23">
      <path clip-path="url(#pc7c8ffe39c)" d="M 57.6 70.740054 
L 414.72 70.740054 
" style="fill:none;stroke:#b0b0b0;stroke-linecap:square;stroke-width:0.8;"/>
     </g>
     <g id="line2d_24">
      <g>
       <use style="stroke:#000000;stroke-width:0.8;" x="57.6" xlink:href="#m44b64bb26f" y="70.740054"/>
      </g>
     </g>
     <g id="text_13">
      <!-- 0.6 -->
      <g transform="translate(34.696875 74.539273)scale(0.1 -0.1)">
       <use xlink:href="#DejaVuSans-30"/>
       <use x="63.623047" xlink:href="#DejaVuSans-2e"/>
       <use x="95.410156" xlink:href="#DejaVuSans-36"/>
      </g>
     </g>
    </g>
    <g id="text_14">
     <!-- Epsilon Times Average Total Queue Length - - (1 - S) * E[Q11 + Q22 + Q12 + Q21] -->
     <defs>
      <path d="M 9.8125 72.90625 
L 55.90625 72.90625 
L 55.90625 64.59375 
L 19.671875 64.59375 
L 19.671875 43.015625 
L 54.390625 43.015625 
L 54.390625 34.71875 
L 19.671875 34.71875 
L 19.671875 8.296875 
L 56.78125 8.296875 
L 56.78125 0 
L 9.8125 0 
z
" id="DejaVuSans-45"/>
      <path d="M 18.109375 8.203125 
L 18.109375 -20.796875 
L 9.078125 -20.796875 
L 9.078125 54.6875 
L 18.109375 54.6875 
L 18.109375 46.390625 
Q 20.953125 51.265625 25.265625 53.625 
Q 29.59375 56 35.59375 56 
Q 45.5625 56 51.78125 48.09375 
Q 58.015625 40.1875 58.015625 27.296875 
Q 58.015625 14.40625 51.78125 6.484375 
Q 45.5625 -1.421875 35.59375 -1.421875 
Q 29.59375 -1.421875 25.265625 0.953125 
Q 20.953125 3.328125 18.109375 8.203125 
z
M 48.6875 27.296875 
Q 48.6875 37.203125 44.609375 42.84375 
Q 40.53125 48.484375 33.40625 48.484375 
Q 26.265625 48.484375 22.1875 42.84375 
Q 18.109375 37.203125 18.109375 27.296875 
Q 18.109375 17.390625 22.1875 11.75 
Q 26.265625 6.109375 33.40625 6.109375 
Q 40.53125 6.109375 44.609375 11.75 
Q 48.6875 17.390625 48.6875 27.296875 
z
" id="DejaVuSans-70"/>
      <path d="M 9.421875 75.984375 
L 18.40625 75.984375 
L 18.40625 0 
L 9.421875 0 
z
" id="DejaVuSans-6c"/>
      <path d="M 30.609375 48.390625 
Q 23.390625 48.390625 19.1875 42.75 
Q 14.984375 37.109375 14.984375 27.296875 
Q 14.984375 17.484375 19.15625 11.84375 
Q 23.34375 6.203125 30.609375 6.203125 
Q 37.796875 6.203125 41.984375 11.859375 
Q 46.1875 17.53125 46.1875 27.296875 
Q 46.1875 37.015625 41.984375 42.703125 
Q 37.796875 48.390625 30.609375 48.390625 
z
M 30.609375 56 
Q 42.328125 56 49.015625 48.375 
Q 55.71875 40.765625 55.71875 27.296875 
Q 55.71875 13.875 49.015625 6.21875 
Q 42.328125 -1.421875 30.609375 -1.421875 
Q 18.84375 -1.421875 12.171875 6.21875 
Q 5.515625 13.875 5.515625 27.296875 
Q 5.515625 40.765625 12.171875 48.375 
Q 18.84375 56 30.609375 56 
z
" id="DejaVuSans-6f"/>
      <path d="M 52 44.1875 
Q 55.375 50.25 60.0625 53.125 
Q 64.75 56 71.09375 56 
Q 79.640625 56 84.28125 50.015625 
Q 88.921875 44.046875 88.921875 33.015625 
L 88.921875 0 
L 79.890625 0 
L 79.890625 32.71875 
Q 79.890625 40.578125 77.09375 44.375 
Q 74.3125 48.1875 68.609375 48.1875 
Q 61.625 48.1875 57.5625 43.546875 
Q 53.515625 38.921875 53.515625 30.90625 
L 53.515625 0 
L 44.484375 0 
L 44.484375 32.71875 
Q 44.484375 40.625 41.703125 44.40625 
Q 38.921875 48.1875 33.109375 48.1875 
Q 26.21875 48.1875 22.15625 43.53125 
Q 18.109375 38.875 18.109375 30.90625 
L 18.109375 0 
L 9.078125 0 
L 9.078125 54.6875 
L 18.109375 54.6875 
L 18.109375 46.1875 
Q 21.1875 51.21875 25.484375 53.609375 
Q 29.78125 56 35.6875 56 
Q 41.65625 56 45.828125 52.96875 
Q 50 49.953125 52 44.1875 
z
" id="DejaVuSans-6d"/>
      <path d="M 34.1875 63.1875 
L 20.796875 26.90625 
L 47.609375 26.90625 
z
M 28.609375 72.90625 
L 39.796875 72.90625 
L 67.578125 0 
L 57.328125 0 
L 50.6875 18.703125 
L 17.828125 18.703125 
L 11.1875 0 
L 0.78125 0 
z
" id="DejaVuSans-41"/>
      <path d="M 2.984375 54.6875 
L 12.5 54.6875 
L 29.59375 8.796875 
L 46.6875 54.6875 
L 56.203125 54.6875 
L 35.6875 0 
L 23.484375 0 
z
" id="DejaVuSans-76"/>
      <path d="M 45.40625 27.984375 
Q 45.40625 37.75 41.375 43.109375 
Q 37.359375 48.484375 30.078125 48.484375 
Q 22.859375 48.484375 18.828125 43.109375 
Q 14.796875 37.75 14.796875 27.984375 
Q 14.796875 18.265625 18.828125 12.890625 
Q 22.859375 7.515625 30.078125 7.515625 
Q 37.359375 7.515625 41.375 12.890625 
Q 45.40625 18.265625 45.40625 27.984375 
z
M 54.390625 6.78125 
Q 54.390625 -7.171875 48.1875 -13.984375 
Q 42 -20.796875 29.203125 -20.796875 
Q 24.46875 -20.796875 20.265625 -20.09375 
Q 16.0625 -19.390625 12.109375 -17.921875 
L 12.109375 -9.1875 
Q 16.0625 -11.328125 19.921875 -12.34375 
Q 23.78125 -13.375 27.78125 -13.375 
Q 36.625 -13.375 41.015625 -8.765625 
Q 45.40625 -4.15625 45.40625 5.171875 
L 45.40625 9.625 
Q 42.625 4.78125 38.28125 2.390625 
Q 33.9375 0 27.875 0 
Q 17.828125 0 11.671875 7.65625 
Q 5.515625 15.328125 5.515625 27.984375 
Q 5.515625 40.671875 11.671875 48.328125 
Q 17.828125 56 27.875 56 
Q 33.9375 56 38.28125 53.609375 
Q 42.625 51.21875 45.40625 46.390625 
L 45.40625 54.6875 
L 54.390625 54.6875 
z
" id="DejaVuSans-67"/>
      <path d="M 39.40625 66.21875 
Q 28.65625 66.21875 22.328125 58.203125 
Q 16.015625 50.203125 16.015625 36.375 
Q 16.015625 22.609375 22.328125 14.59375 
Q 28.65625 6.59375 39.40625 6.59375 
Q 50.140625 6.59375 56.421875 14.59375 
Q 62.703125 22.609375 62.703125 36.375 
Q 62.703125 50.203125 56.421875 58.203125 
Q 50.140625 66.21875 39.40625 66.21875 
z
M 53.21875 1.3125 
L 66.21875 -12.890625 
L 54.296875 -12.890625 
L 43.5 -1.21875 
Q 41.890625 -1.3125 41.03125 -1.359375 
Q 40.1875 -1.421875 39.40625 -1.421875 
Q 24.03125 -1.421875 14.8125 8.859375 
Q 5.609375 19.140625 5.609375 36.375 
Q 5.609375 53.65625 14.8125 63.9375 
Q 24.03125 74.21875 39.40625 74.21875 
Q 54.734375 74.21875 63.90625 63.9375 
Q 73.09375 53.65625 73.09375 36.375 
Q 73.09375 23.6875 67.984375 14.640625 
Q 62.890625 5.609375 53.21875 1.3125 
z
" id="DejaVuSans-51"/>
      <path d="M 8.5 21.578125 
L 8.5 54.6875 
L 17.484375 54.6875 
L 17.484375 21.921875 
Q 17.484375 14.15625 20.5 10.265625 
Q 23.53125 6.390625 29.59375 6.390625 
Q 36.859375 6.390625 41.078125 11.03125 
Q 45.3125 15.671875 45.3125 23.6875 
L 45.3125 54.6875 
L 54.296875 54.6875 
L 54.296875 0 
L 45.3125 0 
L 45.3125 8.40625 
Q 42.046875 3.421875 37.71875 1 
Q 33.40625 -1.421875 27.6875 -1.421875 
Q 18.265625 -1.421875 13.375 4.4375 
Q 8.5 10.296875 8.5 21.578125 
z
M 31.109375 56 
z
" id="DejaVuSans-75"/>
      <path d="M 9.8125 72.90625 
L 19.671875 72.90625 
L 19.671875 8.296875 
L 55.171875 8.296875 
L 55.171875 0 
L 9.8125 0 
z
" id="DejaVuSans-4c"/>
      <path d="M 54.890625 33.015625 
L 54.890625 0 
L 45.90625 0 
L 45.90625 32.71875 
Q 45.90625 40.484375 42.875 44.328125 
Q 39.84375 48.1875 33.796875 48.1875 
Q 26.515625 48.1875 22.3125 43.546875 
Q 18.109375 38.921875 18.109375 30.90625 
L 18.109375 0 
L 9.078125 0 
L 9.078125 75.984375 
L 18.109375 75.984375 
L 18.109375 46.1875 
Q 21.34375 51.125 25.703125 53.5625 
Q 30.078125 56 35.796875 56 
Q 45.21875 56 50.046875 50.171875 
Q 54.890625 44.34375 54.890625 33.015625 
z
" id="DejaVuSans-68"/>
      <path d="M 4.890625 31.390625 
L 31.203125 31.390625 
L 31.203125 23.390625 
L 4.890625 23.390625 
z
" id="DejaVuSans-2d"/>
      <path d="M 31 75.875 
Q 24.46875 64.65625 21.28125 53.65625 
Q 18.109375 42.671875 18.109375 31.390625 
Q 18.109375 20.125 21.3125 9.0625 
Q 24.515625 -2 31 -13.1875 
L 23.1875 -13.1875 
Q 15.875 -1.703125 12.234375 9.375 
Q 8.59375 20.453125 8.59375 31.390625 
Q 8.59375 42.28125 12.203125 53.3125 
Q 15.828125 64.359375 23.1875 75.875 
z
" id="DejaVuSans-28"/>
      <path d="M 53.515625 70.515625 
L 53.515625 60.890625 
Q 47.90625 63.578125 42.921875 64.890625 
Q 37.9375 66.21875 33.296875 66.21875 
Q 25.25 66.21875 20.875 63.09375 
Q 16.5 59.96875 16.5 54.203125 
Q 16.5 49.359375 19.40625 46.890625 
Q 22.3125 44.4375 30.421875 42.921875 
L 36.375 41.703125 
Q 47.40625 39.59375 52.65625 34.296875 
Q 57.90625 29 57.90625 20.125 
Q 57.90625 9.515625 50.796875 4.046875 
Q 43.703125 -1.421875 29.984375 -1.421875 
Q 24.8125 -1.421875 18.96875 -0.25 
Q 13.140625 0.921875 6.890625 3.21875 
L 6.890625 13.375 
Q 12.890625 10.015625 18.65625 8.296875 
Q 24.421875 6.59375 29.984375 6.59375 
Q 38.421875 6.59375 43.015625 9.90625 
Q 47.609375 13.234375 47.609375 19.390625 
Q 47.609375 24.75 44.3125 27.78125 
Q 41.015625 30.8125 33.5 32.328125 
L 27.484375 33.5 
Q 16.453125 35.6875 11.515625 40.375 
Q 6.59375 45.0625 6.59375 53.421875 
Q 6.59375 63.09375 13.40625 68.65625 
Q 20.21875 74.21875 32.171875 74.21875 
Q 37.3125 74.21875 42.625 73.28125 
Q 47.953125 72.359375 53.515625 70.515625 
z
" id="DejaVuSans-53"/>
      <path d="M 8.015625 75.875 
L 15.828125 75.875 
Q 23.140625 64.359375 26.78125 53.3125 
Q 30.421875 42.28125 30.421875 31.390625 
Q 30.421875 20.453125 26.78125 9.375 
Q 23.140625 -1.703125 15.828125 -13.1875 
L 8.015625 -13.1875 
Q 14.5 -2 17.703125 9.0625 
Q 20.90625 20.125 20.90625 31.390625 
Q 20.90625 42.671875 17.703125 53.65625 
Q 14.5 64.65625 8.015625 75.875 
z
" id="DejaVuSans-29"/>
      <path d="M 47.015625 60.890625 
L 29.5 51.421875 
L 47.015625 41.890625 
L 44.1875 37.109375 
L 27.78125 47.015625 
L 27.78125 28.609375 
L 22.21875 28.609375 
L 22.21875 47.015625 
L 5.8125 37.109375 
L 2.984375 41.890625 
L 20.515625 51.421875 
L 2.984375 60.890625 
L 5.8125 65.71875 
L 22.21875 55.8125 
L 22.21875 74.21875 
L 27.78125 74.21875 
L 27.78125 55.8125 
L 44.1875 65.71875 
z
" id="DejaVuSans-2a"/>
      <path d="M 8.59375 75.984375 
L 29.296875 75.984375 
L 29.296875 69 
L 17.578125 69 
L 17.578125 -6.203125 
L 29.296875 -6.203125 
L 29.296875 -13.1875 
L 8.59375 -13.1875 
z
" id="DejaVuSans-5b"/>
      <path d="M 46 62.703125 
L 46 35.5 
L 73.1875 35.5 
L 73.1875 27.203125 
L 46 27.203125 
L 46 0 
L 37.796875 0 
L 37.796875 27.203125 
L 10.59375 27.203125 
L 10.59375 35.5 
L 37.796875 35.5 
L 37.796875 62.703125 
z
" id="DejaVuSans-2b"/>
      <path d="M 30.421875 75.984375 
L 30.421875 -13.1875 
L 9.71875 -13.1875 
L 9.71875 -6.203125 
L 21.390625 -6.203125 
L 21.390625 69 
L 9.71875 69 
L 9.71875 75.984375 
z
" id="DejaVuSans-5d"/>
     </defs>
     <g transform="translate(28.617187 380.567844)rotate(-90)scale(0.1 -0.1)">
      <use xlink:href="#DejaVuSans-45"/>
      <use x="63.183594" xlink:href="#DejaVuSans-70"/>
      <use x="126.660156" xlink:href="#DejaVuSans-73"/>
      <use x="178.759766" xlink:href="#DejaVuSans-69"/>
      <use x="206.542969" xlink:href="#DejaVuSans-6c"/>
      <use x="234.326172" xlink:href="#DejaVuSans-6f"/>
      <use x="295.507812" xlink:href="#DejaVuSans-6e"/>
      <use x="358.886719" xlink:href="#DejaVuSans-20"/>
      <use x="390.673828" xlink:href="#DejaVuSans-54"/>
      <use x="451.710938" xlink:href="#DejaVuSans-69"/>
      <use x="479.494141" xlink:href="#DejaVuSans-6d"/>
      <use x="576.90625" xlink:href="#DejaVuSans-65"/>
      <use x="638.429688" xlink:href="#DejaVuSans-73"/>
      <use x="690.529297" xlink:href="#DejaVuSans-20"/>
      <use x="722.316406" xlink:href="#DejaVuSans-41"/>
      <use x="790.646484" xlink:href="#DejaVuSans-76"/>
      <use x="849.826172" xlink:href="#DejaVuSans-65"/>
      <use x="911.349609" xlink:href="#DejaVuSans-72"/>
      <use x="952.462891" xlink:href="#DejaVuSans-61"/>
      <use x="1013.742188" xlink:href="#DejaVuSans-67"/>
      <use x="1077.21875" xlink:href="#DejaVuSans-65"/>
      <use x="1138.742188" xlink:href="#DejaVuSans-20"/>
      <use x="1170.529297" xlink:href="#DejaVuSans-54"/>
      <use x="1231.347656" xlink:href="#DejaVuSans-6f"/>
      <use x="1292.529297" xlink:href="#DejaVuSans-74"/>
      <use x="1331.738281" xlink:href="#DejaVuSans-61"/>
      <use x="1393.017578" xlink:href="#DejaVuSans-6c"/>
      <use x="1420.800781" xlink:href="#DejaVuSans-20"/>
      <use x="1452.587891" xlink:href="#DejaVuSans-51"/>
      <use x="1531.298828" xlink:href="#DejaVuSans-75"/>
      <use x="1594.677734" xlink:href="#DejaVuSans-65"/>
      <use x="1656.201172" xlink:href="#DejaVuSans-75"/>
      <use x="1719.580078" xlink:href="#DejaVuSans-65"/>
      <use x="1781.103516" xlink:href="#DejaVuSans-20"/>
      <use x="1812.890625" xlink:href="#DejaVuSans-4c"/>
      <use x="1868.587891" xlink:href="#DejaVuSans-65"/>
      <use x="1930.111328" xlink:href="#DejaVuSans-6e"/>
      <use x="1993.490234" xlink:href="#DejaVuSans-67"/>
      <use x="2056.966797" xlink:href="#DejaVuSans-74"/>
      <use x="2096.175781" xlink:href="#DejaVuSans-68"/>
      <use x="2159.554688" xlink:href="#DejaVuSans-20"/>
      <use x="2191.341797" xlink:href="#DejaVuSans-2d"/>
      <use x="2227.425781" xlink:href="#DejaVuSans-2d"/>
      <use x="2263.509766" xlink:href="#DejaVuSans-20"/>
      <use x="2295.296875" xlink:href="#DejaVuSans-28"/>
      <use x="2334.310547" xlink:href="#DejaVuSans-31"/>
      <use x="2397.933594" xlink:href="#DejaVuSans-20"/>
      <use x="2429.720703" xlink:href="#DejaVuSans-2d"/>
      <use x="2465.804688" xlink:href="#DejaVuSans-20"/>
      <use x="2497.591797" xlink:href="#DejaVuSans-53"/>
      <use x="2561.068359" xlink:href="#DejaVuSans-29"/>
      <use x="2600.082031" xlink:href="#DejaVuSans-20"/>
      <use x="2631.869141" xlink:href="#DejaVuSans-2a"/>
      <use x="2681.869141" xlink:href="#DejaVuSans-20"/>
      <use x="2713.65625" xlink:href="#DejaVuSans-45"/>
      <use x="2776.839844" xlink:href="#DejaVuSans-5b"/>
      <use x="2815.853516" xlink:href="#DejaVuSans-51"/>
      <use x="2894.564453" xlink:href="#DejaVuSans-31"/>
      <use x="2958.1875" xlink:href="#DejaVuSans-31"/>
      <use x="3021.810547" xlink:href="#DejaVuSans-20"/>
      <use x="3053.597656" xlink:href="#DejaVuSans-2b"/>
      <use x="3137.386719" xlink:href="#DejaVuSans-20"/>
      <use x="3169.173828" xlink:href="#DejaVuSans-51"/>
      <use x="3247.884766" xlink:href="#DejaVuSans-32"/>
      <use x="3311.507812" xlink:href="#DejaVuSans-32"/>
      <use x="3375.130859" xlink:href="#DejaVuSans-20"/>
      <use x="3406.917969" xlink:href="#DejaVuSans-2b"/>
      <use x="3490.707031" xlink:href="#DejaVuSans-20"/>
      <use x="3522.494141" xlink:href="#DejaVuSans-51"/>
      <use x="3601.205078" xlink:href="#DejaVuSans-31"/>
      <use x="3664.828125" xlink:href="#DejaVuSans-32"/>
      <use x="3728.451172" xlink:href="#DejaVuSans-20"/>
      <use x="3760.238281" xlink:href="#DejaVuSans-2b"/>
      <use x="3844.027344" xlink:href="#DejaVuSans-20"/>
      <use x="3875.814453" xlink:href="#DejaVuSans-51"/>
      <use x="3954.525391" xlink:href="#DejaVuSans-32"/>
      <use x="4018.148438" xlink:href="#DejaVuSans-31"/>
      <use x="4081.771484" xlink:href="#DejaVuSans-5d"/>
     </g>
    </g>
   </g>
   <g id="line2d_25">
    <path clip-path="url(#pc7c8ffe39c)" d="M 73.832727 295.424276 
L 109.94558 286.420082 
L 146.058433 271.331846 
L 182.171285 250.371096 
L 218.284138 225.138678 
L 254.396991 197.837997 
L 290.509843 170.375997 
L 326.622696 144.217373 
L 362.735549 118.033054 
L 366.346834 114.728986 
L 366.707962 113.78044 
L 367.069091 113.455328 
L 367.430219 113.705888 
L 367.791348 113.237154 
L 368.152476 113.51163 
L 368.513605 112.524934 
L 368.874734 112.63059 
L 369.235862 111.585327 
L 369.596991 111.81207 
L 369.958119 111.330724 
L 370.319248 110.723794 
L 370.680376 110.58855 
L 371.041505 110.670678 
L 371.402633 109.452213 
L 371.763762 111.393037 
L 372.12489 110.403226 
L 372.486019 109.099577 
L 372.847147 108.132458 
L 373.208276 107.76093 
L 373.569404 108.294638 
L 373.930533 107.955952 
L 374.291661 107.792377 
L 374.65279 108.615499 
L 375.013918 106.770443 
L 375.375047 107.769251 
L 375.736176 107.948764 
L 376.097304 104.682397 
L 376.458433 106.368928 
L 376.819561 105.990125 
L 377.18069 105.178712 
L 377.541818 105.810246 
L 377.902947 106.21868 
L 378.264075 105.658078 
L 378.625204 104.547314 
L 378.986332 103.40315 
L 379.347461 104.139374 
L 379.708589 103.192993 
L 380.069718 103.546276 
L 380.430846 102.905255 
L 380.791975 101.21439 
L 381.153103 103.114942 
L 381.514232 102.361643 
L 381.875361 101.118229 
L 382.236489 101.345219 
L 382.597618 101.074915 
L 382.958746 101.00508 
L 383.319875 99.90574 
L 383.681003 98.599664 
L 384.042132 100.517304 
L 384.40326 98.290582 
L 384.764389 99.547484 
L 385.125517 97.538084 
L 385.486646 98.783573 
L 385.847774 100.333107 
L 386.208903 97.939836 
L 386.570031 97.684266 
L 386.93116 97.240377 
L 387.292288 95.775425 
L 387.653417 96.731249 
L 388.014545 96.200065 
L 388.375674 96.782778 
L 388.736803 94.959427 
L 389.097931 93.247666 
L 389.45906 95.214633 
L 389.820188 95.658201 
L 390.181317 94.595673 
L 390.542445 90.383978 
L 390.903574 88.329088 
L 391.264702 95.228835 
L 391.625831 90.7444 
L 391.986959 90.958757 
L 392.348088 88.95635 
L 392.709216 91.157092 
L 393.070345 89.129055 
L 393.431473 94.715071 
L 393.792602 90.816643 
L 394.15373 90.084961 
L 394.514859 86.614608 
L 394.875987 86.544169 
L 395.237116 84.519752 
L 395.598245 80.446495 
L 395.959373 86.38367 
L 396.320502 89.361793 
L 396.68163 88.335182 
L 397.042759 91.916833 
L 397.403887 90.038972 
L 397.765016 80.993752 
L 398.126144 74.232463 
L 398.487273 104.716383 
" style="fill:none;stroke:#1f77b4;stroke-linecap:square;stroke-width:4;"/>
   </g>
   <g id="line2d_26">
    <path clip-path="url(#pc7c8ffe39c)" d="M 73.832727 295.488 
L 109.94558 286.956844 
L 146.058433 273.057724 
L 182.171285 253.783017 
L 218.284138 230.055409 
L 254.396991 202.455501 
L 290.509843 171.841439 
L 326.622696 141.027895 
L 362.735549 110.854344 
L 366.346834 108.956731 
L 366.707962 107.739129 
L 367.069091 108.138552 
L 367.430219 108.033154 
L 367.791348 107.333749 
L 368.152476 107.115122 
L 368.513605 105.843859 
L 368.874734 106.284417 
L 369.235862 105.765906 
L 369.596991 106.273925 
L 369.958119 106.364072 
L 370.319248 105.83509 
L 370.680376 104.987122 
L 371.041505 104.561745 
L 371.402633 103.751233 
L 371.763762 104.554035 
L 372.12489 105.295873 
L 372.486019 102.870876 
L 372.847147 103.067826 
L 373.208276 102.297479 
L 373.569404 102.117703 
L 373.930533 102.138592 
L 374.291661 102.261053 
L 374.65279 101.456058 
L 375.013918 102.22614 
L 375.375047 102.077946 
L 375.736176 100.426608 
L 376.097304 101.342935 
L 376.458433 101.644013 
L 376.819561 99.967431 
L 377.18069 100.174754 
L 377.541818 98.5263 
L 377.902947 97.575877 
L 378.264075 98.951153 
L 378.625204 99.53209 
L 378.986332 97.328024 
L 379.347461 100.042125 
L 379.708589 98.100569 
L 380.069718 96.189101 
L 380.430846 96.91839 
L 380.791975 95.077696 
L 381.153103 96.884558 
L 381.514232 96.417195 
L 381.875361 97.062624 
L 382.236489 95.899875 
L 382.597618 94.40951 
L 382.958746 95.720914 
L 383.319875 96.640726 
L 383.681003 94.341904 
L 384.042132 93.809577 
L 384.40326 94.80754 
L 384.764389 94.459116 
L 385.125517 95.553736 
L 385.486646 95.198284 
L 385.847774 95.032655 
L 386.208903 93.775255 
L 386.570031 93.200201 
L 386.93116 92.207531 
L 387.292288 92.906452 
L 387.653417 96.33788 
L 388.014545 91.387011 
L 388.375674 92.22923 
L 388.736803 91.535001 
L 389.097931 90.328368 
L 389.45906 90.709298 
L 389.820188 90.974441 
L 390.181317 89.666337 
L 390.542445 93.873663 
L 390.903574 90.180382 
L 391.264702 93.674799 
L 391.625831 91.03059 
L 391.986959 90.029758 
L 392.348088 90.582812 
L 392.709216 96.589181 
L 393.070345 88.406945 
L 393.431473 87.217265 
L 393.792602 85.39418 
L 394.15373 92.622797 
L 394.514859 86.415627 
L 394.875987 89.72643 
L 395.237116 80.782046 
L 395.598245 94.647657 
L 395.959373 87.233407 
L 396.320502 80.20416 
L 396.68163 87.81924 
L 397.042759 77.389756 
L 397.403887 65.183712 
L 397.765016 86.268226 
L 398.126144 91.097348 
L 398.487273 96.035841 
" style="fill:none;stroke:#ff7f0e;stroke-linecap:square;stroke-width:2;"/>
   </g>
   <g id="line2d_27">
    <path clip-path="url(#pc7c8ffe39c)" d="M 73.832727 295.385473 
L 109.94558 286.474163 
L 146.058433 271.230684 
L 182.171285 250.5432 
L 218.284138 225.888611 
L 254.396991 199.469626 
L 290.509843 174.834643 
L 326.622696 153.240559 
L 362.735549 134.747343 
L 366.346834 132.757364 
L 366.707962 132.582364 
L 367.069091 132.009934 
L 367.430219 132.46138 
L 367.791348 133.470882 
L 368.152476 131.631148 
L 368.513605 132.130738 
L 368.874734 131.896252 
L 369.235862 132.189968 
L 369.596991 130.829717 
L 369.958119 131.725059 
L 370.319248 130.420329 
L 370.680376 130.943532 
L 371.041505 130.782794 
L 371.402633 130.228901 
L 371.763762 131.263985 
L 372.12489 129.730097 
L 372.486019 130.344114 
L 372.847147 130.865368 
L 373.208276 129.456817 
L 373.569404 129.521719 
L 373.930533 129.196906 
L 374.291661 128.248268 
L 374.65279 129.581123 
L 375.013918 128.591039 
L 375.375047 129.10175 
L 375.736176 128.049679 
L 376.097304 128.504044 
L 376.458433 127.30255 
L 376.819561 127.341448 
L 377.18069 128.058711 
L 377.541818 127.435212 
L 377.902947 127.075818 
L 378.264075 128.051458 
L 378.625204 127.546331 
L 378.986332 127.18675 
L 379.347461 127.509444 
L 379.708589 127.49642 
L 380.069718 126.180655 
L 380.430846 125.665381 
L 380.791975 125.16419 
L 381.153103 124.836699 
L 381.514232 124.748447 
L 381.875361 124.869536 
L 382.236489 125.436833 
L 382.597618 125.913649 
L 382.958746 125.685559 
L 383.319875 123.495605 
L 383.681003 125.186481 
L 384.042132 123.523068 
L 384.40326 122.44149 
L 384.764389 123.222046 
L 385.125517 123.333162 
L 385.486646 125.027424 
L 385.847774 123.227865 
L 386.208903 123.363667 
L 386.570031 122.059933 
L 386.93116 122.623447 
L 387.292288 123.573273 
L 387.653417 123.498678 
L 388.014545 120.657437 
L 388.375674 123.285661 
L 388.736803 119.442678 
L 389.097931 119.592621 
L 389.45906 121.728313 
L 389.820188 122.506658 
L 390.181317 120.079496 
L 390.542445 120.344744 
L 390.903574 119.602771 
L 391.264702 120.867691 
L 391.625831 119.515648 
L 391.986959 117.274436 
L 392.348088 118.032941 
L 392.709216 121.339545 
L 393.070345 119.540424 
L 393.431473 121.849787 
L 393.792602 117.221708 
L 394.15373 115.726701 
L 394.514859 118.091668 
L 394.875987 113.437244 
L 395.237116 117.272007 
L 395.598245 118.959507 
L 395.959373 125.556626 
L 396.320502 103.109604 
L 396.68163 105.381911 
L 397.042759 97.039897 
L 397.403887 122.111275 
L 397.765016 127.320966 
L 398.126144 115.450993 
L 398.487273 110.078452 
" style="fill:none;stroke:#2ca02c;stroke-linecap:square;stroke-width:2;"/>
   </g>
   <g id="line2d_28">
    <path clip-path="url(#pc7c8ffe39c)" d="M 73.832727 295.41779 
L 109.94558 286.390344 
L 146.058433 271.193748 
L 182.171285 249.879665 
L 218.284138 222.984801 
L 254.396991 191.185433 
L 290.509843 155.064998 
L 326.622696 114.968839 
L 362.735549 72.633055 
L 366.346834 68.317535 
L 366.707962 67.584421 
L 367.069091 66.359948 
L 367.430219 66.813837 
L 367.791348 65.566034 
L 368.152476 66.183621 
L 368.513605 66.26777 
L 368.874734 65.986365 
L 369.235862 64.444669 
L 369.596991 64.980577 
L 369.958119 64.012589 
L 370.319248 63.154885 
L 370.680376 64.539993 
L 371.041505 63.236886 
L 371.402633 63.492359 
L 371.763762 62.736777 
L 372.12489 62.871537 
L 372.486019 61.804002 
L 372.847147 63.535221 
L 373.208276 61.084187 
L 373.569404 61.984861 
L 373.930533 60.413645 
L 374.291661 61.086983 
L 374.65279 59.955086 
L 375.013918 59.876617 
L 375.375047 59.897167 
L 375.736176 58.50912 
L 376.097304 59.083712 
L 376.458433 57.971188 
L 376.819561 56.849902 
L 377.18069 58.209644 
L 377.541818 57.652026 
L 377.902947 58.260033 
L 378.264075 56.007621 
L 378.625204 56.711514 
L 378.986332 56.495613 
L 379.347461 55.948153 
L 379.708589 57.401045 
L 380.069718 55.297323 
L 380.430846 56.571784 
L 380.791975 56.672973 
L 381.153103 54.415703 
L 381.514232 57.335271 
L 381.875361 56.190701 
L 382.236489 53.826912 
L 382.597618 54.285353 
L 382.958746 53.58856 
L 383.319875 54.533005 
L 383.681003 54.971217 
L 384.042132 55.143414 
L 384.40326 53.921389 
L 384.764389 56.015045 
L 385.125517 56.35476 
L 385.486646 56.293542 
L 385.847774 56.303768 
L 386.208903 53.568 
L 386.570031 55.84521 
L 386.93116 56.445237 
L 387.292288 56.434506 
L 387.653417 56.394685 
L 388.014545 53.72605 
L 388.375674 53.983373 
L 388.736803 57.471757 
L 389.097931 55.81839 
L 389.45906 55.543356 
L 389.820188 56.004763 
L 390.181317 57.111141 
L 390.542445 55.847421 
L 390.903574 54.293174 
L 391.264702 62.138833 
L 391.625831 57.874245 
L 391.986959 57.739525 
L 392.348088 60.528711 
L 392.709216 64.133436 
L 393.070345 62.588504 
L 393.431473 66.368075 
L 393.792602 56.412624 
L 394.15373 64.597057 
L 394.514859 64.798329 
L 394.875987 67.611742 
L 395.237116 60.801427 
L 395.598245 67.611607 
L 395.959373 80.6282 
L 396.320502 70.135073 
L 396.68163 78.896852 
L 397.042759 68.247582 
L 397.403887 68.327011 
L 397.765016 79.413843 
L 398.126144 94.927191 
L 398.487273 105.337161 
" style="fill:none;stroke:#d62728;stroke-linecap:square;stroke-width:2;"/>
   </g>
   <g id="patch_3">
    <path d="M 57.6 307.584 
L 57.6 41.472 
" style="fill:none;stroke:#000000;stroke-linecap:square;stroke-linejoin:miter;stroke-width:0.8;"/>
   </g>
   <g id="patch_4">
    <path d="M 414.72 307.584 
L 414.72 41.472 
" style="fill:none;stroke:#000000;stroke-linecap:square;stroke-linejoin:miter;stroke-width:0.8;"/>
   </g>
   <g id="patch_5">
    <path d="M 57.6 307.584 
L 414.72 307.584 
" style="fill:none;stroke:#000000;stroke-linecap:square;stroke-linejoin:miter;stroke-width:0.8;"/>
   </g>
   <g id="patch_6">
    <path d="M 57.6 41.472 
L 414.72 41.472 
" style="fill:none;stroke:#000000;stroke-linecap:square;stroke-linejoin:miter;stroke-width:0.8;"/>
   </g>
   <g id="text_15">
    <!-- (1 - S) * E[Q11 + Q22 + Q12 + Q21] vs Traffic Intensity, Vs Value: [0.75, 0.75, 0.25, 0.25] -->
    <defs>
     <path d="M 11.71875 12.40625 
L 22.015625 12.40625 
L 22.015625 4 
L 14.015625 -11.625 
L 7.71875 -11.625 
L 11.71875 4 
z
" id="DejaVuSans-2c"/>
     <path d="M 28.609375 0 
L 0.78125 72.90625 
L 11.078125 72.90625 
L 34.1875 11.53125 
L 57.328125 72.90625 
L 67.578125 72.90625 
L 39.796875 0 
z
" id="DejaVuSans-56"/>
     <path d="M 11.71875 12.40625 
L 22.015625 12.40625 
L 22.015625 0 
L 11.71875 0 
z
M 11.71875 51.703125 
L 22.015625 51.703125 
L 22.015625 39.3125 
L 11.71875 39.3125 
z
" id="DejaVuSans-3a"/>
     <path d="M 8.203125 72.90625 
L 55.078125 72.90625 
L 55.078125 68.703125 
L 28.609375 0 
L 18.3125 0 
L 43.21875 64.59375 
L 8.203125 64.59375 
z
" id="DejaVuSans-37"/>
    </defs>
    <g transform="translate(-34.244063 35.472)scale(0.12 -0.12)">
     <use xlink:href="#DejaVuSans-28"/>
     <use x="39.013672" xlink:href="#DejaVuSans-31"/>
     <use x="102.636719" xlink:href="#DejaVuSans-20"/>
     <use x="134.423828" xlink:href="#DejaVuSans-2d"/>
     <use x="170.507812" xlink:href="#DejaVuSans-20"/>
     <use x="202.294922" xlink:href="#DejaVuSans-53"/>
     <use x="265.771484" xlink:href="#DejaVuSans-29"/>
     <use x="304.785156" xlink:href="#DejaVuSans-20"/>
     <use x="336.572266" xlink:href="#DejaVuSans-2a"/>
     <use x="386.572266" xlink:href="#DejaVuSans-20"/>
     <use x="418.359375" xlink:href="#DejaVuSans-45"/>
     <use x="481.542969" xlink:href="#DejaVuSans-5b"/>
     <use x="520.556641" xlink:href="#DejaVuSans-51"/>
     <use x="599.267578" xlink:href="#DejaVuSans-31"/>
     <use x="662.890625" xlink:href="#DejaVuSans-31"/>
     <use x="726.513672" xlink:href="#DejaVuSans-20"/>
     <use x="758.300781" xlink:href="#DejaVuSans-2b"/>
     <use x="842.089844" xlink:href="#DejaVuSans-20"/>
     <use x="873.876953" xlink:href="#DejaVuSans-51"/>
     <use x="952.587891" xlink:href="#DejaVuSans-32"/>
     <use x="1016.210938" xlink:href="#DejaVuSans-32"/>
     <use x="1079.833984" xlink:href="#DejaVuSans-20"/>
     <use x="1111.621094" xlink:href="#DejaVuSans-2b"/>
     <use x="1195.410156" xlink:href="#DejaVuSans-20"/>
     <use x="1227.197266" xlink:href="#DejaVuSans-51"/>
     <use x="1305.908203" xlink:href="#DejaVuSans-31"/>
     <use x="1369.53125" xlink:href="#DejaVuSans-32"/>
     <use x="1433.154297" xlink:href="#DejaVuSans-20"/>
     <use x="1464.941406" xlink:href="#DejaVuSans-2b"/>
     <use x="1548.730469" xlink:href="#DejaVuSans-20"/>
     <use x="1580.517578" xlink:href="#DejaVuSans-51"/>
     <use x="1659.228516" xlink:href="#DejaVuSans-32"/>
     <use x="1722.851562" xlink:href="#DejaVuSans-31"/>
     <use x="1786.474609" xlink:href="#DejaVuSans-5d"/>
     <use x="1825.488281" xlink:href="#DejaVuSans-20"/>
     <use x="1857.275391" xlink:href="#DejaVuSans-76"/>
     <use x="1916.455078" xlink:href="#DejaVuSans-73"/>
     <use x="1968.554688" xlink:href="#DejaVuSans-20"/>
     <use x="2000.341797" xlink:href="#DejaVuSans-54"/>
     <use x="2061.207031" xlink:href="#DejaVuSans-72"/>
     <use x="2102.320312" xlink:href="#DejaVuSans-61"/>
     <use x="2163.599609" xlink:href="#DejaVuSans-66"/>
     <use x="2198.804688" xlink:href="#DejaVuSans-66"/>
     <use x="2234.009766" xlink:href="#DejaVuSans-69"/>
     <use x="2261.792969" xlink:href="#DejaVuSans-63"/>
     <use x="2316.773438" xlink:href="#DejaVuSans-20"/>
     <use x="2348.560547" xlink:href="#DejaVuSans-49"/>
     <use x="2378.052734" xlink:href="#DejaVuSans-6e"/>
     <use x="2441.431641" xlink:href="#DejaVuSans-74"/>
     <use x="2480.640625" xlink:href="#DejaVuSans-65"/>
     <use x="2542.164062" xlink:href="#DejaVuSans-6e"/>
     <use x="2605.542969" xlink:href="#DejaVuSans-73"/>
     <use x="2657.642578" xlink:href="#DejaVuSans-69"/>
     <use x="2685.425781" xlink:href="#DejaVuSans-74"/>
     <use x="2724.634766" xlink:href="#DejaVuSans-79"/>
     <use x="2783.814453" xlink:href="#DejaVuSans-2c"/>
     <use x="2815.601562" xlink:href="#DejaVuSans-20"/>
     <use x="2847.388672" xlink:href="#DejaVuSans-56"/>
     <use x="2915.796875" xlink:href="#DejaVuSans-73"/>
     <use x="2967.896484" xlink:href="#DejaVuSans-20"/>
     <use x="2999.683594" xlink:href="#DejaVuSans-56"/>
     <use x="3067.982422" xlink:href="#DejaVuSans-61"/>
     <use x="3129.261719" xlink:href="#DejaVuSans-6c"/>
     <use x="3157.044922" xlink:href="#DejaVuSans-75"/>
     <use x="3220.423828" xlink:href="#DejaVuSans-65"/>
     <use x="3281.947266" xlink:href="#DejaVuSans-3a"/>
     <use x="3315.638672" xlink:href="#DejaVuSans-20"/>
     <use x="3347.425781" xlink:href="#DejaVuSans-5b"/>
     <use x="3386.439453" xlink:href="#DejaVuSans-30"/>
     <use x="3450.0625" xlink:href="#DejaVuSans-2e"/>
     <use x="3481.849609" xlink:href="#DejaVuSans-37"/>
     <use x="3545.472656" xlink:href="#DejaVuSans-35"/>
     <use x="3609.095703" xlink:href="#DejaVuSans-2c"/>
     <use x="3640.882812" xlink:href="#DejaVuSans-20"/>
     <use x="3672.669922" xlink:href="#DejaVuSans-30"/>
     <use x="3736.292969" xlink:href="#DejaVuSans-2e"/>
     <use x="3768.080078" xlink:href="#DejaVuSans-37"/>
     <use x="3831.703125" xlink:href="#DejaVuSans-35"/>
     <use x="3895.326172" xlink:href="#DejaVuSans-2c"/>
     <use x="3927.113281" xlink:href="#DejaVuSans-20"/>
     <use x="3958.900391" xlink:href="#DejaVuSans-30"/>
     <use x="4022.523438" xlink:href="#DejaVuSans-2e"/>
     <use x="4054.310547" xlink:href="#DejaVuSans-32"/>
     <use x="4117.933594" xlink:href="#DejaVuSans-35"/>
     <use x="4181.556641" xlink:href="#DejaVuSans-2c"/>
     <use x="4213.34375" xlink:href="#DejaVuSans-20"/>
     <use x="4245.130859" xlink:href="#DejaVuSans-30"/>
     <use x="4308.753906" xlink:href="#DejaVuSans-2e"/>
     <use x="4340.541016" xlink:href="#DejaVuSans-32"/>
     <use x="4404.164062" xlink:href="#DejaVuSans-35"/>
     <use x="4467.787109" xlink:href="#DejaVuSans-5d"/>
    </g>
   </g>
   <g id="legend_1">
    <g id="patch_7">
     <path d="M 64.6 109.018875 
L 202.339062 109.018875 
Q 204.339062 109.018875 204.339062 107.018875 
L 204.339062 48.472 
Q 204.339062 46.472 202.339062 46.472 
L 64.6 46.472 
Q 62.6 46.472 62.6 48.472 
L 62.6 107.018875 
Q 62.6 109.018875 64.6 109.018875 
z
" style="fill:#ffffff;opacity:0.8;stroke:#cccccc;stroke-linejoin:miter;"/>
    </g>
    <g id="line2d_29">
     <path d="M 66.6 54.570438 
L 86.6 54.570438 
" style="fill:none;stroke:#1f77b4;stroke-linecap:square;stroke-width:4;"/>
    </g>
    <g id="line2d_30"/>
    <g id="text_16">
     <!-- MaxWt -->
     <defs>
      <path d="M 9.8125 72.90625 
L 24.515625 72.90625 
L 43.109375 23.296875 
L 61.8125 72.90625 
L 76.515625 72.90625 
L 76.515625 0 
L 66.890625 0 
L 66.890625 64.015625 
L 48.09375 14.015625 
L 38.1875 14.015625 
L 19.390625 64.015625 
L 19.390625 0 
L 9.8125 0 
z
" id="DejaVuSans-4d"/>
      <path d="M 54.890625 54.6875 
L 35.109375 28.078125 
L 55.90625 0 
L 45.3125 0 
L 29.390625 21.484375 
L 13.484375 0 
L 2.875 0 
L 24.125 28.609375 
L 4.6875 54.6875 
L 15.28125 54.6875 
L 29.78125 35.203125 
L 44.28125 54.6875 
z
" id="DejaVuSans-78"/>
      <path d="M 3.328125 72.90625 
L 13.28125 72.90625 
L 28.609375 11.28125 
L 43.890625 72.90625 
L 54.984375 72.90625 
L 70.3125 11.28125 
L 85.59375 72.90625 
L 95.609375 72.90625 
L 77.296875 0 
L 64.890625 0 
L 49.515625 63.28125 
L 33.984375 0 
L 21.578125 0 
z
" id="DejaVuSans-57"/>
     </defs>
     <g transform="translate(94.6 58.070438)scale(0.1 -0.1)">
      <use xlink:href="#DejaVuSans-4d"/>
      <use x="86.279297" xlink:href="#DejaVuSans-61"/>
      <use x="147.558594" xlink:href="#DejaVuSans-78"/>
      <use x="206.738281" xlink:href="#DejaVuSans-57"/>
      <use x="305.615234" xlink:href="#DejaVuSans-74"/>
     </g>
    </g>
    <g id="line2d_31">
     <path d="M 66.6 69.248563 
L 86.6 69.248563 
" style="fill:none;stroke:#ff7f0e;stroke-linecap:square;stroke-width:2;"/>
    </g>
    <g id="line2d_32"/>
    <g id="text_17">
     <!-- MaxSize_random -->
     <defs>
      <path d="M 5.515625 54.6875 
L 48.1875 54.6875 
L 48.1875 46.484375 
L 14.40625 7.171875 
L 48.1875 7.171875 
L 48.1875 0 
L 4.296875 0 
L 4.296875 8.203125 
L 38.09375 47.515625 
L 5.515625 47.515625 
z
" id="DejaVuSans-7a"/>
      <path d="M 50.984375 -16.609375 
L 50.984375 -23.578125 
L -0.984375 -23.578125 
L -0.984375 -16.609375 
z
" id="DejaVuSans-5f"/>
      <path d="M 45.40625 46.390625 
L 45.40625 75.984375 
L 54.390625 75.984375 
L 54.390625 0 
L 45.40625 0 
L 45.40625 8.203125 
Q 42.578125 3.328125 38.25 0.953125 
Q 33.9375 -1.421875 27.875 -1.421875 
Q 17.96875 -1.421875 11.734375 6.484375 
Q 5.515625 14.40625 5.515625 27.296875 
Q 5.515625 40.1875 11.734375 48.09375 
Q 17.96875 56 27.875 56 
Q 33.9375 56 38.25 53.625 
Q 42.578125 51.265625 45.40625 46.390625 
z
M 14.796875 27.296875 
Q 14.796875 17.390625 18.875 11.75 
Q 22.953125 6.109375 30.078125 6.109375 
Q 37.203125 6.109375 41.296875 11.75 
Q 45.40625 17.390625 45.40625 27.296875 
Q 45.40625 37.203125 41.296875 42.84375 
Q 37.203125 48.484375 30.078125 48.484375 
Q 22.953125 48.484375 18.875 42.84375 
Q 14.796875 37.203125 14.796875 27.296875 
z
" id="DejaVuSans-64"/>
     </defs>
     <g transform="translate(94.6 72.748563)scale(0.1 -0.1)">
      <use xlink:href="#DejaVuSans-4d"/>
      <use x="86.279297" xlink:href="#DejaVuSans-61"/>
      <use x="147.558594" xlink:href="#DejaVuSans-78"/>
      <use x="206.738281" xlink:href="#DejaVuSans-53"/>
      <use x="270.214844" xlink:href="#DejaVuSans-69"/>
      <use x="297.998047" xlink:href="#DejaVuSans-7a"/>
      <use x="350.488281" xlink:href="#DejaVuSans-65"/>
      <use x="412.011719" xlink:href="#DejaVuSans-5f"/>
      <use x="462.011719" xlink:href="#DejaVuSans-72"/>
      <use x="503.125" xlink:href="#DejaVuSans-61"/>
      <use x="564.404297" xlink:href="#DejaVuSans-6e"/>
      <use x="627.783203" xlink:href="#DejaVuSans-64"/>
      <use x="691.259766" xlink:href="#DejaVuSans-6f"/>
      <use x="752.441406" xlink:href="#DejaVuSans-6d"/>
     </g>
    </g>
    <g id="line2d_33">
     <path d="M 66.6 84.204813 
L 86.6 84.204813 
" style="fill:none;stroke:#2ca02c;stroke-linecap:square;stroke-width:2;"/>
    </g>
    <g id="line2d_34"/>
    <g id="text_18">
     <!-- MaxSize_PriMaxWt -->
     <defs>
      <path d="M 19.671875 64.796875 
L 19.671875 37.40625 
L 32.078125 37.40625 
Q 38.96875 37.40625 42.71875 40.96875 
Q 46.484375 44.53125 46.484375 51.125 
Q 46.484375 57.671875 42.71875 61.234375 
Q 38.96875 64.796875 32.078125 64.796875 
z
M 9.8125 72.90625 
L 32.078125 72.90625 
Q 44.34375 72.90625 50.609375 67.359375 
Q 56.890625 61.8125 56.890625 51.125 
Q 56.890625 40.328125 50.609375 34.8125 
Q 44.34375 29.296875 32.078125 29.296875 
L 19.671875 29.296875 
L 19.671875 0 
L 9.8125 0 
z
" id="DejaVuSans-50"/>
     </defs>
     <g transform="translate(94.6 87.704813)scale(0.1 -0.1)">
      <use xlink:href="#DejaVuSans-4d"/>
      <use x="86.279297" xlink:href="#DejaVuSans-61"/>
      <use x="147.558594" xlink:href="#DejaVuSans-78"/>
      <use x="206.738281" xlink:href="#DejaVuSans-53"/>
      <use x="270.214844" xlink:href="#DejaVuSans-69"/>
      <use x="297.998047" xlink:href="#DejaVuSans-7a"/>
      <use x="350.488281" xlink:href="#DejaVuSans-65"/>
      <use x="412.011719" xlink:href="#DejaVuSans-5f"/>
      <use x="462.011719" xlink:href="#DejaVuSans-50"/>
      <use x="522.298828" xlink:href="#DejaVuSans-72"/>
      <use x="563.412109" xlink:href="#DejaVuSans-69"/>
      <use x="591.195312" xlink:href="#DejaVuSans-4d"/>
      <use x="677.474609" xlink:href="#DejaVuSans-61"/>
      <use x="738.753906" xlink:href="#DejaVuSans-78"/>
      <use x="797.933594" xlink:href="#DejaVuSans-57"/>
      <use x="896.810547" xlink:href="#DejaVuSans-74"/>
     </g>
    </g>
    <g id="line2d_35">
     <path d="M 66.6 99.161063 
L 86.6 99.161063 
" style="fill:none;stroke:#d62728;stroke-linecap:square;stroke-width:2;"/>
    </g>
    <g id="line2d_36"/>
    <g id="text_19">
     <!-- MaxArrival_PriMaxWt -->
     <g transform="translate(94.6 102.661063)scale(0.1 -0.1)">
      <use xlink:href="#DejaVuSans-4d"/>
      <use x="86.279297" xlink:href="#DejaVuSans-61"/>
      <use x="147.558594" xlink:href="#DejaVuSans-78"/>
      <use x="206.738281" xlink:href="#DejaVuSans-41"/>
      <use x="275.146484" xlink:href="#DejaVuSans-72"/>
      <use x="316.244141" xlink:href="#DejaVuSans-72"/>
      <use x="357.357422" xlink:href="#DejaVuSans-69"/>
      <use x="385.140625" xlink:href="#DejaVuSans-76"/>
      <use x="444.320312" xlink:href="#DejaVuSans-61"/>
      <use x="505.599609" xlink:href="#DejaVuSans-6c"/>
      <use x="533.382812" xlink:href="#DejaVuSans-5f"/>
      <use x="583.382812" xlink:href="#DejaVuSans-50"/>
      <use x="643.669922" xlink:href="#DejaVuSans-72"/>
      <use x="684.783203" xlink:href="#DejaVuSans-69"/>
      <use x="712.566406" xlink:href="#DejaVuSans-4d"/>
      <use x="798.845703" xlink:href="#DejaVuSans-61"/>
      <use x="860.125" xlink:href="#DejaVuSans-78"/>
      <use x="919.304688" xlink:href="#DejaVuSans-57"/>
      <use x="1018.181641" xlink:href="#DejaVuSans-74"/>
     </g>
    </g>
   </g>
  </g>
 </g>
 <defs>
  <clipPath id="pc7c8ffe39c">
   <rect height="266.112" width="357.12" x="57.6" y="41.472"/>
  </clipPath>
 </defs>
</svg>
