<?xml version="1.0" encoding="utf-8" standalone="no"?>
<!DOCTYPE svg PUBLIC "-//W3C//DTD SVG 1.1//EN"
  "http://www.w3.org/Graphics/SVG/1.1/DTD/svg11.dtd">
<!-- Created with matplotlib (http://matplotlib.org/) -->
<svg height="345pt" version="1.1" viewBox="0 0 460 345" width="460pt" xmlns="http://www.w3.org/2000/svg" xmlns:xlink="http://www.w3.org/1999/xlink">
 <defs>
  <style type="text/css">
*{stroke-linecap:butt;stroke-linejoin:round;}
  </style>
 </defs>
 <g id="figure_1">
  <g id="patch_1">
   <path d="M 0 345.6 
L 460.8 345.6 
L 460.8 0 
L 0 0 
z
" style="fill:#ffffff;"/>
  </g>
  <g id="axes_1">
   <g id="patch_2">
    <path d="M 57.6 307.584 
L 414.72 307.584 
L 414.72 41.472 
L 57.6 41.472 
z
" style="fill:#ffffff;"/>
   </g>
   <g id="matplotlib.axis_1">
    <g id="xtick_1">
     <g id="line2d_1">
      <path clip-path="url(#p8c286e8af9)" d="M 109.94558 307.584 
L 109.94558 41.472 
" style="fill:none;stroke:#b0b0b0;stroke-linecap:square;stroke-width:0.8;"/>
     </g>
     <g id="line2d_2">
      <defs>
       <path d="M 0 0 
L 0 3.5 
" id="m8e3e43e754" style="stroke:#000000;stroke-width:0.8;"/>
      </defs>
      <g>
       <use style="stroke:#000000;stroke-width:0.8;" x="109.94558" xlink:href="#m8e3e43e754" y="307.584"/>
      </g>
     </g>
     <g id="text_1">
      <!-- 0.2 -->
      <defs>
       <path d="M 31.78125 66.40625 
Q 24.171875 66.40625 20.328125 58.90625 
Q 16.5 51.421875 16.5 36.375 
Q 16.5 21.390625 20.328125 13.890625 
Q 24.171875 6.390625 31.78125 6.390625 
Q 39.453125 6.390625 43.28125 13.890625 
Q 47.125 21.390625 47.125 36.375 
Q 47.125 51.421875 43.28125 58.90625 
Q 39.453125 66.40625 31.78125 66.40625 
z
M 31.78125 74.21875 
Q 44.046875 74.21875 50.515625 64.515625 
Q 56.984375 54.828125 56.984375 36.375 
Q 56.984375 17.96875 50.515625 8.265625 
Q 44.046875 -1.421875 31.78125 -1.421875 
Q 19.53125 -1.421875 13.0625 8.265625 
Q 6.59375 17.96875 6.59375 36.375 
Q 6.59375 54.828125 13.0625 64.515625 
Q 19.53125 74.21875 31.78125 74.21875 
z
" id="DejaVuSans-30"/>
       <path d="M 10.6875 12.40625 
L 21 12.40625 
L 21 0 
L 10.6875 0 
z
" id="DejaVuSans-2e"/>
       <path d="M 19.1875 8.296875 
L 53.609375 8.296875 
L 53.609375 0 
L 7.328125 0 
L 7.328125 8.296875 
Q 12.9375 14.109375 22.625 23.890625 
Q 32.328125 33.6875 34.8125 36.53125 
Q 39.546875 41.84375 41.421875 45.53125 
Q 43.3125 49.21875 43.3125 52.78125 
Q 43.3125 58.59375 39.234375 62.25 
Q 35.15625 65.921875 28.609375 65.921875 
Q 23.96875 65.921875 18.8125 64.3125 
Q 13.671875 62.703125 7.8125 59.421875 
L 7.8125 69.390625 
Q 13.765625 71.78125 18.9375 73 
Q 24.125 74.21875 28.421875 74.21875 
Q 39.75 74.21875 46.484375 68.546875 
Q 53.21875 62.890625 53.21875 53.421875 
Q 53.21875 48.921875 51.53125 44.890625 
Q 49.859375 40.875 45.40625 35.40625 
Q 44.1875 33.984375 37.640625 27.21875 
Q 31.109375 20.453125 19.1875 8.296875 
z
" id="DejaVuSans-32"/>
      </defs>
      <g transform="translate(101.994017 322.182437)scale(0.1 -0.1)">
       <use xlink:href="#DejaVuSans-30"/>
       <use x="63.623047" xlink:href="#DejaVuSans-2e"/>
       <use x="95.410156" xlink:href="#DejaVuSans-32"/>
      </g>
     </g>
    </g>
    <g id="xtick_2">
     <g id="line2d_3">
      <path clip-path="url(#p8c286e8af9)" d="M 182.171285 307.584 
L 182.171285 41.472 
" style="fill:none;stroke:#b0b0b0;stroke-linecap:square;stroke-width:0.8;"/>
     </g>
     <g id="line2d_4">
      <g>
       <use style="stroke:#000000;stroke-width:0.8;" x="182.171285" xlink:href="#m8e3e43e754" y="307.584"/>
      </g>
     </g>
     <g id="text_2">
      <!-- 0.4 -->
      <defs>
       <path d="M 37.796875 64.3125 
L 12.890625 25.390625 
L 37.796875 25.390625 
z
M 35.203125 72.90625 
L 47.609375 72.90625 
L 47.609375 25.390625 
L 58.015625 25.390625 
L 58.015625 17.1875 
L 47.609375 17.1875 
L 47.609375 0 
L 37.796875 0 
L 37.796875 17.1875 
L 4.890625 17.1875 
L 4.890625 26.703125 
z
" id="DejaVuSans-34"/>
      </defs>
      <g transform="translate(174.219723 322.182437)scale(0.1 -0.1)">
       <use xlink:href="#DejaVuSans-30"/>
       <use x="63.623047" xlink:href="#DejaVuSans-2e"/>
       <use x="95.410156" xlink:href="#DejaVuSans-34"/>
      </g>
     </g>
    </g>
    <g id="xtick_3">
     <g id="line2d_5">
      <path clip-path="url(#p8c286e8af9)" d="M 254.396991 307.584 
L 254.396991 41.472 
" style="fill:none;stroke:#b0b0b0;stroke-linecap:square;stroke-width:0.8;"/>
     </g>
     <g id="line2d_6">
      <g>
       <use style="stroke:#000000;stroke-width:0.8;" x="254.396991" xlink:href="#m8e3e43e754" y="307.584"/>
      </g>
     </g>
     <g id="text_3">
      <!-- 0.6 -->
      <defs>
       <path d="M 33.015625 40.375 
Q 26.375 40.375 22.484375 35.828125 
Q 18.609375 31.296875 18.609375 23.390625 
Q 18.609375 15.53125 22.484375 10.953125 
Q 26.375 6.390625 33.015625 6.390625 
Q 39.65625 6.390625 43.53125 10.953125 
Q 47.40625 15.53125 47.40625 23.390625 
Q 47.40625 31.296875 43.53125 35.828125 
Q 39.65625 40.375 33.015625 40.375 
z
M 52.59375 71.296875 
L 52.59375 62.3125 
Q 48.875 64.0625 45.09375 64.984375 
Q 41.3125 65.921875 37.59375 65.921875 
Q 27.828125 65.921875 22.671875 59.328125 
Q 17.53125 52.734375 16.796875 39.40625 
Q 19.671875 43.65625 24.015625 45.921875 
Q 28.375 48.1875 33.59375 48.1875 
Q 44.578125 48.1875 50.953125 41.515625 
Q 57.328125 34.859375 57.328125 23.390625 
Q 57.328125 12.15625 50.6875 5.359375 
Q 44.046875 -1.421875 33.015625 -1.421875 
Q 20.359375 -1.421875 13.671875 8.265625 
Q 6.984375 17.96875 6.984375 36.375 
Q 6.984375 53.65625 15.1875 63.9375 
Q 23.390625 74.21875 37.203125 74.21875 
Q 40.921875 74.21875 44.703125 73.484375 
Q 48.484375 72.75 52.59375 71.296875 
z
" id="DejaVuSans-36"/>
      </defs>
      <g transform="translate(246.445428 322.182437)scale(0.1 -0.1)">
       <use xlink:href="#DejaVuSans-30"/>
       <use x="63.623047" xlink:href="#DejaVuSans-2e"/>
       <use x="95.410156" xlink:href="#DejaVuSans-36"/>
      </g>
     </g>
    </g>
    <g id="xtick_4">
     <g id="line2d_7">
      <path clip-path="url(#p8c286e8af9)" d="M 326.622696 307.584 
L 326.622696 41.472 
" style="fill:none;stroke:#b0b0b0;stroke-linecap:square;stroke-width:0.8;"/>
     </g>
     <g id="line2d_8">
      <g>
       <use style="stroke:#000000;stroke-width:0.8;" x="326.622696" xlink:href="#m8e3e43e754" y="307.584"/>
      </g>
     </g>
     <g id="text_4">
      <!-- 0.8 -->
      <defs>
       <path d="M 31.78125 34.625 
Q 24.75 34.625 20.71875 30.859375 
Q 16.703125 27.09375 16.703125 20.515625 
Q 16.703125 13.921875 20.71875 10.15625 
Q 24.75 6.390625 31.78125 6.390625 
Q 38.8125 6.390625 42.859375 10.171875 
Q 46.921875 13.96875 46.921875 20.515625 
Q 46.921875 27.09375 42.890625 30.859375 
Q 38.875 34.625 31.78125 34.625 
z
M 21.921875 38.8125 
Q 15.578125 40.375 12.03125 44.71875 
Q 8.5 49.078125 8.5 55.328125 
Q 8.5 64.0625 14.71875 69.140625 
Q 20.953125 74.21875 31.78125 74.21875 
Q 42.671875 74.21875 48.875 69.140625 
Q 55.078125 64.0625 55.078125 55.328125 
Q 55.078125 49.078125 51.53125 44.71875 
Q 48 40.375 41.703125 38.8125 
Q 48.828125 37.15625 52.796875 32.3125 
Q 56.78125 27.484375 56.78125 20.515625 
Q 56.78125 9.90625 50.3125 4.234375 
Q 43.84375 -1.421875 31.78125 -1.421875 
Q 19.734375 -1.421875 13.25 4.234375 
Q 6.78125 9.90625 6.78125 20.515625 
Q 6.78125 27.484375 10.78125 32.3125 
Q 14.796875 37.15625 21.921875 38.8125 
z
M 18.3125 54.390625 
Q 18.3125 48.734375 21.84375 45.5625 
Q 25.390625 42.390625 31.78125 42.390625 
Q 38.140625 42.390625 41.71875 45.5625 
Q 45.3125 48.734375 45.3125 54.390625 
Q 45.3125 60.0625 41.71875 63.234375 
Q 38.140625 66.40625 31.78125 66.40625 
Q 25.390625 66.40625 21.84375 63.234375 
Q 18.3125 60.0625 18.3125 54.390625 
z
" id="DejaVuSans-38"/>
      </defs>
      <g transform="translate(318.671133 322.182437)scale(0.1 -0.1)">
       <use xlink:href="#DejaVuSans-30"/>
       <use x="63.623047" xlink:href="#DejaVuSans-2e"/>
       <use x="95.410156" xlink:href="#DejaVuSans-38"/>
      </g>
     </g>
    </g>
    <g id="xtick_5">
     <g id="line2d_9">
      <path clip-path="url(#p8c286e8af9)" d="M 398.848401 307.584 
L 398.848401 41.472 
" style="fill:none;stroke:#b0b0b0;stroke-linecap:square;stroke-width:0.8;"/>
     </g>
     <g id="line2d_10">
      <g>
       <use style="stroke:#000000;stroke-width:0.8;" x="398.848401" xlink:href="#m8e3e43e754" y="307.584"/>
      </g>
     </g>
     <g id="text_5">
      <!-- 1.0 -->
      <defs>
       <path d="M 12.40625 8.296875 
L 28.515625 8.296875 
L 28.515625 63.921875 
L 10.984375 60.40625 
L 10.984375 69.390625 
L 28.421875 72.90625 
L 38.28125 72.90625 
L 38.28125 8.296875 
L 54.390625 8.296875 
L 54.390625 0 
L 12.40625 0 
z
" id="DejaVuSans-31"/>
      </defs>
      <g transform="translate(390.896839 322.182437)scale(0.1 -0.1)">
       <use xlink:href="#DejaVuSans-31"/>
       <use x="63.623047" xlink:href="#DejaVuSans-2e"/>
       <use x="95.410156" xlink:href="#DejaVuSans-30"/>
      </g>
     </g>
    </g>
    <g id="text_6">
     <!-- Traffic Intnesity -->
     <defs>
      <path d="M -0.296875 72.90625 
L 61.375 72.90625 
L 61.375 64.59375 
L 35.5 64.59375 
L 35.5 0 
L 25.59375 0 
L 25.59375 64.59375 
L -0.296875 64.59375 
z
" id="DejaVuSans-54"/>
      <path d="M 41.109375 46.296875 
Q 39.59375 47.171875 37.8125 47.578125 
Q 36.03125 48 33.890625 48 
Q 26.265625 48 22.1875 43.046875 
Q 18.109375 38.09375 18.109375 28.8125 
L 18.109375 0 
L 9.078125 0 
L 9.078125 54.6875 
L 18.109375 54.6875 
L 18.109375 46.1875 
Q 20.953125 51.171875 25.484375 53.578125 
Q 30.03125 56 36.53125 56 
Q 37.453125 56 38.578125 55.875 
Q 39.703125 55.765625 41.0625 55.515625 
z
" id="DejaVuSans-72"/>
      <path d="M 34.28125 27.484375 
Q 23.390625 27.484375 19.1875 25 
Q 14.984375 22.515625 14.984375 16.5 
Q 14.984375 11.71875 18.140625 8.90625 
Q 21.296875 6.109375 26.703125 6.109375 
Q 34.1875 6.109375 38.703125 11.40625 
Q 43.21875 16.703125 43.21875 25.484375 
L 43.21875 27.484375 
z
M 52.203125 31.203125 
L 52.203125 0 
L 43.21875 0 
L 43.21875 8.296875 
Q 40.140625 3.328125 35.546875 0.953125 
Q 30.953125 -1.421875 24.3125 -1.421875 
Q 15.921875 -1.421875 10.953125 3.296875 
Q 6 8.015625 6 15.921875 
Q 6 25.140625 12.171875 29.828125 
Q 18.359375 34.515625 30.609375 34.515625 
L 43.21875 34.515625 
L 43.21875 35.40625 
Q 43.21875 41.609375 39.140625 45 
Q 35.0625 48.390625 27.6875 48.390625 
Q 23 48.390625 18.546875 47.265625 
Q 14.109375 46.140625 10.015625 43.890625 
L 10.015625 52.203125 
Q 14.9375 54.109375 19.578125 55.046875 
Q 24.21875 56 28.609375 56 
Q 40.484375 56 46.34375 49.84375 
Q 52.203125 43.703125 52.203125 31.203125 
z
" id="DejaVuSans-61"/>
      <path d="M 37.109375 75.984375 
L 37.109375 68.5 
L 28.515625 68.5 
Q 23.6875 68.5 21.796875 66.546875 
Q 19.921875 64.59375 19.921875 59.515625 
L 19.921875 54.6875 
L 34.71875 54.6875 
L 34.71875 47.703125 
L 19.921875 47.703125 
L 19.921875 0 
L 10.890625 0 
L 10.890625 47.703125 
L 2.296875 47.703125 
L 2.296875 54.6875 
L 10.890625 54.6875 
L 10.890625 58.5 
Q 10.890625 67.625 15.140625 71.796875 
Q 19.390625 75.984375 28.609375 75.984375 
z
" id="DejaVuSans-66"/>
      <path d="M 9.421875 54.6875 
L 18.40625 54.6875 
L 18.40625 0 
L 9.421875 0 
z
M 9.421875 75.984375 
L 18.40625 75.984375 
L 18.40625 64.59375 
L 9.421875 64.59375 
z
" id="DejaVuSans-69"/>
      <path d="M 48.78125 52.59375 
L 48.78125 44.1875 
Q 44.96875 46.296875 41.140625 47.34375 
Q 37.3125 48.390625 33.40625 48.390625 
Q 24.65625 48.390625 19.8125 42.84375 
Q 14.984375 37.3125 14.984375 27.296875 
Q 14.984375 17.28125 19.8125 11.734375 
Q 24.65625 6.203125 33.40625 6.203125 
Q 37.3125 6.203125 41.140625 7.25 
Q 44.96875 8.296875 48.78125 10.40625 
L 48.78125 2.09375 
Q 45.015625 0.34375 40.984375 -0.53125 
Q 36.96875 -1.421875 32.421875 -1.421875 
Q 20.0625 -1.421875 12.78125 6.34375 
Q 5.515625 14.109375 5.515625 27.296875 
Q 5.515625 40.671875 12.859375 48.328125 
Q 20.21875 56 33.015625 56 
Q 37.15625 56 41.109375 55.140625 
Q 45.0625 54.296875 48.78125 52.59375 
z
" id="DejaVuSans-63"/>
      <path id="DejaVuSans-20"/>
      <path d="M 9.8125 72.90625 
L 19.671875 72.90625 
L 19.671875 0 
L 9.8125 0 
z
" id="DejaVuSans-49"/>
      <path d="M 54.890625 33.015625 
L 54.890625 0 
L 45.90625 0 
L 45.90625 32.71875 
Q 45.90625 40.484375 42.875 44.328125 
Q 39.84375 48.1875 33.796875 48.1875 
Q 26.515625 48.1875 22.3125 43.546875 
Q 18.109375 38.921875 18.109375 30.90625 
L 18.109375 0 
L 9.078125 0 
L 9.078125 54.6875 
L 18.109375 54.6875 
L 18.109375 46.1875 
Q 21.34375 51.125 25.703125 53.5625 
Q 30.078125 56 35.796875 56 
Q 45.21875 56 50.046875 50.171875 
Q 54.890625 44.34375 54.890625 33.015625 
z
" id="DejaVuSans-6e"/>
      <path d="M 18.3125 70.21875 
L 18.3125 54.6875 
L 36.8125 54.6875 
L 36.8125 47.703125 
L 18.3125 47.703125 
L 18.3125 18.015625 
Q 18.3125 11.328125 20.140625 9.421875 
Q 21.96875 7.515625 27.59375 7.515625 
L 36.8125 7.515625 
L 36.8125 0 
L 27.59375 0 
Q 17.1875 0 13.234375 3.875 
Q 9.28125 7.765625 9.28125 18.015625 
L 9.28125 47.703125 
L 2.6875 47.703125 
L 2.6875 54.6875 
L 9.28125 54.6875 
L 9.28125 70.21875 
z
" id="DejaVuSans-74"/>
      <path d="M 56.203125 29.59375 
L 56.203125 25.203125 
L 14.890625 25.203125 
Q 15.484375 15.921875 20.484375 11.0625 
Q 25.484375 6.203125 34.421875 6.203125 
Q 39.59375 6.203125 44.453125 7.46875 
Q 49.3125 8.734375 54.109375 11.28125 
L 54.109375 2.78125 
Q 49.265625 0.734375 44.1875 -0.34375 
Q 39.109375 -1.421875 33.890625 -1.421875 
Q 20.796875 -1.421875 13.15625 6.1875 
Q 5.515625 13.8125 5.515625 26.8125 
Q 5.515625 40.234375 12.765625 48.109375 
Q 20.015625 56 32.328125 56 
Q 43.359375 56 49.78125 48.890625 
Q 56.203125 41.796875 56.203125 29.59375 
z
M 47.21875 32.234375 
Q 47.125 39.59375 43.09375 43.984375 
Q 39.0625 48.390625 32.421875 48.390625 
Q 24.90625 48.390625 20.390625 44.140625 
Q 15.875 39.890625 15.1875 32.171875 
z
" id="DejaVuSans-65"/>
      <path d="M 44.28125 53.078125 
L 44.28125 44.578125 
Q 40.484375 46.53125 36.375 47.5 
Q 32.28125 48.484375 27.875 48.484375 
Q 21.1875 48.484375 17.84375 46.4375 
Q 14.5 44.390625 14.5 40.28125 
Q 14.5 37.15625 16.890625 35.375 
Q 19.28125 33.59375 26.515625 31.984375 
L 29.59375 31.296875 
Q 39.15625 29.25 43.1875 25.515625 
Q 47.21875 21.78125 47.21875 15.09375 
Q 47.21875 7.46875 41.1875 3.015625 
Q 35.15625 -1.421875 24.609375 -1.421875 
Q 20.21875 -1.421875 15.453125 -0.5625 
Q 10.6875 0.296875 5.421875 2 
L 5.421875 11.28125 
Q 10.40625 8.6875 15.234375 7.390625 
Q 20.0625 6.109375 24.8125 6.109375 
Q 31.15625 6.109375 34.5625 8.28125 
Q 37.984375 10.453125 37.984375 14.40625 
Q 37.984375 18.0625 35.515625 20.015625 
Q 33.0625 21.96875 24.703125 23.78125 
L 21.578125 24.515625 
Q 13.234375 26.265625 9.515625 29.90625 
Q 5.8125 33.546875 5.8125 39.890625 
Q 5.8125 47.609375 11.28125 51.796875 
Q 16.75 56 26.8125 56 
Q 31.78125 56 36.171875 55.265625 
Q 40.578125 54.546875 44.28125 53.078125 
z
" id="DejaVuSans-73"/>
      <path d="M 32.171875 -5.078125 
Q 28.375 -14.84375 24.75 -17.8125 
Q 21.140625 -20.796875 15.09375 -20.796875 
L 7.90625 -20.796875 
L 7.90625 -13.28125 
L 13.1875 -13.28125 
Q 16.890625 -13.28125 18.9375 -11.515625 
Q 21 -9.765625 23.484375 -3.21875 
L 25.09375 0.875 
L 2.984375 54.6875 
L 12.5 54.6875 
L 29.59375 11.921875 
L 46.6875 54.6875 
L 56.203125 54.6875 
z
" id="DejaVuSans-79"/>
     </defs>
     <g transform="translate(196.987344 335.860562)scale(0.1 -0.1)">
      <use xlink:href="#DejaVuSans-54"/>
      <use x="60.865234" xlink:href="#DejaVuSans-72"/>
      <use x="101.978516" xlink:href="#DejaVuSans-61"/>
      <use x="163.257812" xlink:href="#DejaVuSans-66"/>
      <use x="198.462891" xlink:href="#DejaVuSans-66"/>
      <use x="233.667969" xlink:href="#DejaVuSans-69"/>
      <use x="261.451172" xlink:href="#DejaVuSans-63"/>
      <use x="316.431641" xlink:href="#DejaVuSans-20"/>
      <use x="348.21875" xlink:href="#DejaVuSans-49"/>
      <use x="377.710938" xlink:href="#DejaVuSans-6e"/>
      <use x="441.089844" xlink:href="#DejaVuSans-74"/>
      <use x="480.298828" xlink:href="#DejaVuSans-6e"/>
      <use x="543.677734" xlink:href="#DejaVuSans-65"/>
      <use x="605.201172" xlink:href="#DejaVuSans-73"/>
      <use x="657.300781" xlink:href="#DejaVuSans-69"/>
      <use x="685.083984" xlink:href="#DejaVuSans-74"/>
      <use x="724.292969" xlink:href="#DejaVuSans-79"/>
     </g>
    </g>
   </g>
   <g id="matplotlib.axis_2">
    <g id="ytick_1">
     <g id="line2d_11">
      <path clip-path="url(#p8c286e8af9)" d="M 57.6 298.177662 
L 414.72 298.177662 
" style="fill:none;stroke:#b0b0b0;stroke-linecap:square;stroke-width:0.8;"/>
     </g>
     <g id="line2d_12">
      <defs>
       <path d="M 0 0 
L -3.5 0 
" id="mccd9dde759" style="stroke:#000000;stroke-width:0.8;"/>
      </defs>
      <g>
       <use style="stroke:#000000;stroke-width:0.8;" x="57.6" xlink:href="#mccd9dde759" y="298.177662"/>
      </g>
     </g>
     <g id="text_7">
      <!-- 0.0 -->
      <g transform="translate(34.696875 301.976881)scale(0.1 -0.1)">
       <use xlink:href="#DejaVuSans-30"/>
       <use x="63.623047" xlink:href="#DejaVuSans-2e"/>
       <use x="95.410156" xlink:href="#DejaVuSans-30"/>
      </g>
     </g>
    </g>
    <g id="ytick_2">
     <g id="line2d_13">
      <path clip-path="url(#p8c286e8af9)" d="M 57.6 244.277157 
L 414.72 244.277157 
" style="fill:none;stroke:#b0b0b0;stroke-linecap:square;stroke-width:0.8;"/>
     </g>
     <g id="line2d_14">
      <g>
       <use style="stroke:#000000;stroke-width:0.8;" x="57.6" xlink:href="#mccd9dde759" y="244.277157"/>
      </g>
     </g>
     <g id="text_8">
      <!-- 0.2 -->
      <g transform="translate(34.696875 248.076375)scale(0.1 -0.1)">
       <use xlink:href="#DejaVuSans-30"/>
       <use x="63.623047" xlink:href="#DejaVuSans-2e"/>
       <use x="95.410156" xlink:href="#DejaVuSans-32"/>
      </g>
     </g>
    </g>
    <g id="ytick_3">
     <g id="line2d_15">
      <path clip-path="url(#p8c286e8af9)" d="M 57.6 190.376651 
L 414.72 190.376651 
" style="fill:none;stroke:#b0b0b0;stroke-linecap:square;stroke-width:0.8;"/>
     </g>
     <g id="line2d_16">
      <g>
       <use style="stroke:#000000;stroke-width:0.8;" x="57.6" xlink:href="#mccd9dde759" y="190.376651"/>
      </g>
     </g>
     <g id="text_9">
      <!-- 0.4 -->
      <g transform="translate(34.696875 194.17587)scale(0.1 -0.1)">
       <use xlink:href="#DejaVuSans-30"/>
       <use x="63.623047" xlink:href="#DejaVuSans-2e"/>
       <use x="95.410156" xlink:href="#DejaVuSans-34"/>
      </g>
     </g>
    </g>
    <g id="ytick_4">
     <g id="line2d_17">
      <path clip-path="url(#p8c286e8af9)" d="M 57.6 136.476145 
L 414.72 136.476145 
" style="fill:none;stroke:#b0b0b0;stroke-linecap:square;stroke-width:0.8;"/>
     </g>
     <g id="line2d_18">
      <g>
       <use style="stroke:#000000;stroke-width:0.8;" x="57.6" xlink:href="#mccd9dde759" y="136.476145"/>
      </g>
     </g>
     <g id="text_10">
      <!-- 0.6 -->
      <g transform="translate(34.696875 140.275364)scale(0.1 -0.1)">
       <use xlink:href="#DejaVuSans-30"/>
       <use x="63.623047" xlink:href="#DejaVuSans-2e"/>
       <use x="95.410156" xlink:href="#DejaVuSans-36"/>
      </g>
     </g>
    </g>
    <g id="ytick_5">
     <g id="line2d_19">
      <path clip-path="url(#p8c286e8af9)" d="M 57.6 82.57564 
L 414.72 82.57564 
" style="fill:none;stroke:#b0b0b0;stroke-linecap:square;stroke-width:0.8;"/>
     </g>
     <g id="line2d_20">
      <g>
       <use style="stroke:#000000;stroke-width:0.8;" x="57.6" xlink:href="#mccd9dde759" y="82.57564"/>
      </g>
     </g>
     <g id="text_11">
      <!-- 0.8 -->
      <g transform="translate(34.696875 86.374858)scale(0.1 -0.1)">
       <use xlink:href="#DejaVuSans-30"/>
       <use x="63.623047" xlink:href="#DejaVuSans-2e"/>
       <use x="95.410156" xlink:href="#DejaVuSans-38"/>
      </g>
     </g>
    </g>
    <g id="text_12">
     <!-- Epsilon Times Average Total Queue Length - - (1 - S) * E[Q11 + Q22 + Q12 + Q21] -->
     <defs>
      <path d="M 9.8125 72.90625 
L 55.90625 72.90625 
L 55.90625 64.59375 
L 19.671875 64.59375 
L 19.671875 43.015625 
L 54.390625 43.015625 
L 54.390625 34.71875 
L 19.671875 34.71875 
L 19.671875 8.296875 
L 56.78125 8.296875 
L 56.78125 0 
L 9.8125 0 
z
" id="DejaVuSans-45"/>
      <path d="M 18.109375 8.203125 
L 18.109375 -20.796875 
L 9.078125 -20.796875 
L 9.078125 54.6875 
L 18.109375 54.6875 
L 18.109375 46.390625 
Q 20.953125 51.265625 25.265625 53.625 
Q 29.59375 56 35.59375 56 
Q 45.5625 56 51.78125 48.09375 
Q 58.015625 40.1875 58.015625 27.296875 
Q 58.015625 14.40625 51.78125 6.484375 
Q 45.5625 -1.421875 35.59375 -1.421875 
Q 29.59375 -1.421875 25.265625 0.953125 
Q 20.953125 3.328125 18.109375 8.203125 
z
M 48.6875 27.296875 
Q 48.6875 37.203125 44.609375 42.84375 
Q 40.53125 48.484375 33.40625 48.484375 
Q 26.265625 48.484375 22.1875 42.84375 
Q 18.109375 37.203125 18.109375 27.296875 
Q 18.109375 17.390625 22.1875 11.75 
Q 26.265625 6.109375 33.40625 6.109375 
Q 40.53125 6.109375 44.609375 11.75 
Q 48.6875 17.390625 48.6875 27.296875 
z
" id="DejaVuSans-70"/>
      <path d="M 9.421875 75.984375 
L 18.40625 75.984375 
L 18.40625 0 
L 9.421875 0 
z
" id="DejaVuSans-6c"/>
      <path d="M 30.609375 48.390625 
Q 23.390625 48.390625 19.1875 42.75 
Q 14.984375 37.109375 14.984375 27.296875 
Q 14.984375 17.484375 19.15625 11.84375 
Q 23.34375 6.203125 30.609375 6.203125 
Q 37.796875 6.203125 41.984375 11.859375 
Q 46.1875 17.53125 46.1875 27.296875 
Q 46.1875 37.015625 41.984375 42.703125 
Q 37.796875 48.390625 30.609375 48.390625 
z
M 30.609375 56 
Q 42.328125 56 49.015625 48.375 
Q 55.71875 40.765625 55.71875 27.296875 
Q 55.71875 13.875 49.015625 6.21875 
Q 42.328125 -1.421875 30.609375 -1.421875 
Q 18.84375 -1.421875 12.171875 6.21875 
Q 5.515625 13.875 5.515625 27.296875 
Q 5.515625 40.765625 12.171875 48.375 
Q 18.84375 56 30.609375 56 
z
" id="DejaVuSans-6f"/>
      <path d="M 52 44.1875 
Q 55.375 50.25 60.0625 53.125 
Q 64.75 56 71.09375 56 
Q 79.640625 56 84.28125 50.015625 
Q 88.921875 44.046875 88.921875 33.015625 
L 88.921875 0 
L 79.890625 0 
L 79.890625 32.71875 
Q 79.890625 40.578125 77.09375 44.375 
Q 74.3125 48.1875 68.609375 48.1875 
Q 61.625 48.1875 57.5625 43.546875 
Q 53.515625 38.921875 53.515625 30.90625 
L 53.515625 0 
L 44.484375 0 
L 44.484375 32.71875 
Q 44.484375 40.625 41.703125 44.40625 
Q 38.921875 48.1875 33.109375 48.1875 
Q 26.21875 48.1875 22.15625 43.53125 
Q 18.109375 38.875 18.109375 30.90625 
L 18.109375 0 
L 9.078125 0 
L 9.078125 54.6875 
L 18.109375 54.6875 
L 18.109375 46.1875 
Q 21.1875 51.21875 25.484375 53.609375 
Q 29.78125 56 35.6875 56 
Q 41.65625 56 45.828125 52.96875 
Q 50 49.953125 52 44.1875 
z
" id="DejaVuSans-6d"/>
      <path d="M 34.1875 63.1875 
L 20.796875 26.90625 
L 47.609375 26.90625 
z
M 28.609375 72.90625 
L 39.796875 72.90625 
L 67.578125 0 
L 57.328125 0 
L 50.6875 18.703125 
L 17.828125 18.703125 
L 11.1875 0 
L 0.78125 0 
z
" id="DejaVuSans-41"/>
      <path d="M 2.984375 54.6875 
L 12.5 54.6875 
L 29.59375 8.796875 
L 46.6875 54.6875 
L 56.203125 54.6875 
L 35.6875 0 
L 23.484375 0 
z
" id="DejaVuSans-76"/>
      <path d="M 45.40625 27.984375 
Q 45.40625 37.75 41.375 43.109375 
Q 37.359375 48.484375 30.078125 48.484375 
Q 22.859375 48.484375 18.828125 43.109375 
Q 14.796875 37.75 14.796875 27.984375 
Q 14.796875 18.265625 18.828125 12.890625 
Q 22.859375 7.515625 30.078125 7.515625 
Q 37.359375 7.515625 41.375 12.890625 
Q 45.40625 18.265625 45.40625 27.984375 
z
M 54.390625 6.78125 
Q 54.390625 -7.171875 48.1875 -13.984375 
Q 42 -20.796875 29.203125 -20.796875 
Q 24.46875 -20.796875 20.265625 -20.09375 
Q 16.0625 -19.390625 12.109375 -17.921875 
L 12.109375 -9.1875 
Q 16.0625 -11.328125 19.921875 -12.34375 
Q 23.78125 -13.375 27.78125 -13.375 
Q 36.625 -13.375 41.015625 -8.765625 
Q 45.40625 -4.15625 45.40625 5.171875 
L 45.40625 9.625 
Q 42.625 4.78125 38.28125 2.390625 
Q 33.9375 0 27.875 0 
Q 17.828125 0 11.671875 7.65625 
Q 5.515625 15.328125 5.515625 27.984375 
Q 5.515625 40.671875 11.671875 48.328125 
Q 17.828125 56 27.875 56 
Q 33.9375 56 38.28125 53.609375 
Q 42.625 51.21875 45.40625 46.390625 
L 45.40625 54.6875 
L 54.390625 54.6875 
z
" id="DejaVuSans-67"/>
      <path d="M 39.40625 66.21875 
Q 28.65625 66.21875 22.328125 58.203125 
Q 16.015625 50.203125 16.015625 36.375 
Q 16.015625 22.609375 22.328125 14.59375 
Q 28.65625 6.59375 39.40625 6.59375 
Q 50.140625 6.59375 56.421875 14.59375 
Q 62.703125 22.609375 62.703125 36.375 
Q 62.703125 50.203125 56.421875 58.203125 
Q 50.140625 66.21875 39.40625 66.21875 
z
M 53.21875 1.3125 
L 66.21875 -12.890625 
L 54.296875 -12.890625 
L 43.5 -1.21875 
Q 41.890625 -1.3125 41.03125 -1.359375 
Q 40.1875 -1.421875 39.40625 -1.421875 
Q 24.03125 -1.421875 14.8125 8.859375 
Q 5.609375 19.140625 5.609375 36.375 
Q 5.609375 53.65625 14.8125 63.9375 
Q 24.03125 74.21875 39.40625 74.21875 
Q 54.734375 74.21875 63.90625 63.9375 
Q 73.09375 53.65625 73.09375 36.375 
Q 73.09375 23.6875 67.984375 14.640625 
Q 62.890625 5.609375 53.21875 1.3125 
z
" id="DejaVuSans-51"/>
      <path d="M 8.5 21.578125 
L 8.5 54.6875 
L 17.484375 54.6875 
L 17.484375 21.921875 
Q 17.484375 14.15625 20.5 10.265625 
Q 23.53125 6.390625 29.59375 6.390625 
Q 36.859375 6.390625 41.078125 11.03125 
Q 45.3125 15.671875 45.3125 23.6875 
L 45.3125 54.6875 
L 54.296875 54.6875 
L 54.296875 0 
L 45.3125 0 
L 45.3125 8.40625 
Q 42.046875 3.421875 37.71875 1 
Q 33.40625 -1.421875 27.6875 -1.421875 
Q 18.265625 -1.421875 13.375 4.4375 
Q 8.5 10.296875 8.5 21.578125 
z
M 31.109375 56 
z
" id="DejaVuSans-75"/>
      <path d="M 9.8125 72.90625 
L 19.671875 72.90625 
L 19.671875 8.296875 
L 55.171875 8.296875 
L 55.171875 0 
L 9.8125 0 
z
" id="DejaVuSans-4c"/>
      <path d="M 54.890625 33.015625 
L 54.890625 0 
L 45.90625 0 
L 45.90625 32.71875 
Q 45.90625 40.484375 42.875 44.328125 
Q 39.84375 48.1875 33.796875 48.1875 
Q 26.515625 48.1875 22.3125 43.546875 
Q 18.109375 38.921875 18.109375 30.90625 
L 18.109375 0 
L 9.078125 0 
L 9.078125 75.984375 
L 18.109375 75.984375 
L 18.109375 46.1875 
Q 21.34375 51.125 25.703125 53.5625 
Q 30.078125 56 35.796875 56 
Q 45.21875 56 50.046875 50.171875 
Q 54.890625 44.34375 54.890625 33.015625 
z
" id="DejaVuSans-68"/>
      <path d="M 4.890625 31.390625 
L 31.203125 31.390625 
L 31.203125 23.390625 
L 4.890625 23.390625 
z
" id="DejaVuSans-2d"/>
      <path d="M 31 75.875 
Q 24.46875 64.65625 21.28125 53.65625 
Q 18.109375 42.671875 18.109375 31.390625 
Q 18.109375 20.125 21.3125 9.0625 
Q 24.515625 -2 31 -13.1875 
L 23.1875 -13.1875 
Q 15.875 -1.703125 12.234375 9.375 
Q 8.59375 20.453125 8.59375 31.390625 
Q 8.59375 42.28125 12.203125 53.3125 
Q 15.828125 64.359375 23.1875 75.875 
z
" id="DejaVuSans-28"/>
      <path d="M 53.515625 70.515625 
L 53.515625 60.890625 
Q 47.90625 63.578125 42.921875 64.890625 
Q 37.9375 66.21875 33.296875 66.21875 
Q 25.25 66.21875 20.875 63.09375 
Q 16.5 59.96875 16.5 54.203125 
Q 16.5 49.359375 19.40625 46.890625 
Q 22.3125 44.4375 30.421875 42.921875 
L 36.375 41.703125 
Q 47.40625 39.59375 52.65625 34.296875 
Q 57.90625 29 57.90625 20.125 
Q 57.90625 9.515625 50.796875 4.046875 
Q 43.703125 -1.421875 29.984375 -1.421875 
Q 24.8125 -1.421875 18.96875 -0.25 
Q 13.140625 0.921875 6.890625 3.21875 
L 6.890625 13.375 
Q 12.890625 10.015625 18.65625 8.296875 
Q 24.421875 6.59375 29.984375 6.59375 
Q 38.421875 6.59375 43.015625 9.90625 
Q 47.609375 13.234375 47.609375 19.390625 
Q 47.609375 24.75 44.3125 27.78125 
Q 41.015625 30.8125 33.5 32.328125 
L 27.484375 33.5 
Q 16.453125 35.6875 11.515625 40.375 
Q 6.59375 45.0625 6.59375 53.421875 
Q 6.59375 63.09375 13.40625 68.65625 
Q 20.21875 74.21875 32.171875 74.21875 
Q 37.3125 74.21875 42.625 73.28125 
Q 47.953125 72.359375 53.515625 70.515625 
z
" id="DejaVuSans-53"/>
      <path d="M 8.015625 75.875 
L 15.828125 75.875 
Q 23.140625 64.359375 26.78125 53.3125 
Q 30.421875 42.28125 30.421875 31.390625 
Q 30.421875 20.453125 26.78125 9.375 
Q 23.140625 -1.703125 15.828125 -13.1875 
L 8.015625 -13.1875 
Q 14.5 -2 17.703125 9.0625 
Q 20.90625 20.125 20.90625 31.390625 
Q 20.90625 42.671875 17.703125 53.65625 
Q 14.5 64.65625 8.015625 75.875 
z
" id="DejaVuSans-29"/>
      <path d="M 47.015625 60.890625 
L 29.5 51.421875 
L 47.015625 41.890625 
L 44.1875 37.109375 
L 27.78125 47.015625 
L 27.78125 28.609375 
L 22.21875 28.609375 
L 22.21875 47.015625 
L 5.8125 37.109375 
L 2.984375 41.890625 
L 20.515625 51.421875 
L 2.984375 60.890625 
L 5.8125 65.71875 
L 22.21875 55.8125 
L 22.21875 74.21875 
L 27.78125 74.21875 
L 27.78125 55.8125 
L 44.1875 65.71875 
z
" id="DejaVuSans-2a"/>
      <path d="M 8.59375 75.984375 
L 29.296875 75.984375 
L 29.296875 69 
L 17.578125 69 
L 17.578125 -6.203125 
L 29.296875 -6.203125 
L 29.296875 -13.1875 
L 8.59375 -13.1875 
z
" id="DejaVuSans-5b"/>
      <path d="M 46 62.703125 
L 46 35.5 
L 73.1875 35.5 
L 73.1875 27.203125 
L 46 27.203125 
L 46 0 
L 37.796875 0 
L 37.796875 27.203125 
L 10.59375 27.203125 
L 10.59375 35.5 
L 37.796875 35.5 
L 37.796875 62.703125 
z
" id="DejaVuSans-2b"/>
      <path d="M 30.421875 75.984375 
L 30.421875 -13.1875 
L 9.71875 -13.1875 
L 9.71875 -6.203125 
L 21.390625 -6.203125 
L 21.390625 69 
L 9.71875 69 
L 9.71875 75.984375 
z
" id="DejaVuSans-5d"/>
     </defs>
     <g transform="translate(28.617187 380.567844)rotate(-90)scale(0.1 -0.1)">
      <use xlink:href="#DejaVuSans-45"/>
      <use x="63.183594" xlink:href="#DejaVuSans-70"/>
      <use x="126.660156" xlink:href="#DejaVuSans-73"/>
      <use x="178.759766" xlink:href="#DejaVuSans-69"/>
      <use x="206.542969" xlink:href="#DejaVuSans-6c"/>
      <use x="234.326172" xlink:href="#DejaVuSans-6f"/>
      <use x="295.507812" xlink:href="#DejaVuSans-6e"/>
      <use x="358.886719" xlink:href="#DejaVuSans-20"/>
      <use x="390.673828" xlink:href="#DejaVuSans-54"/>
      <use x="451.710938" xlink:href="#DejaVuSans-69"/>
      <use x="479.494141" xlink:href="#DejaVuSans-6d"/>
      <use x="576.90625" xlink:href="#DejaVuSans-65"/>
      <use x="638.429688" xlink:href="#DejaVuSans-73"/>
      <use x="690.529297" xlink:href="#DejaVuSans-20"/>
      <use x="722.316406" xlink:href="#DejaVuSans-41"/>
      <use x="790.646484" xlink:href="#DejaVuSans-76"/>
      <use x="849.826172" xlink:href="#DejaVuSans-65"/>
      <use x="911.349609" xlink:href="#DejaVuSans-72"/>
      <use x="952.462891" xlink:href="#DejaVuSans-61"/>
      <use x="1013.742188" xlink:href="#DejaVuSans-67"/>
      <use x="1077.21875" xlink:href="#DejaVuSans-65"/>
      <use x="1138.742188" xlink:href="#DejaVuSans-20"/>
      <use x="1170.529297" xlink:href="#DejaVuSans-54"/>
      <use x="1231.347656" xlink:href="#DejaVuSans-6f"/>
      <use x="1292.529297" xlink:href="#DejaVuSans-74"/>
      <use x="1331.738281" xlink:href="#DejaVuSans-61"/>
      <use x="1393.017578" xlink:href="#DejaVuSans-6c"/>
      <use x="1420.800781" xlink:href="#DejaVuSans-20"/>
      <use x="1452.587891" xlink:href="#DejaVuSans-51"/>
      <use x="1531.298828" xlink:href="#DejaVuSans-75"/>
      <use x="1594.677734" xlink:href="#DejaVuSans-65"/>
      <use x="1656.201172" xlink:href="#DejaVuSans-75"/>
      <use x="1719.580078" xlink:href="#DejaVuSans-65"/>
      <use x="1781.103516" xlink:href="#DejaVuSans-20"/>
      <use x="1812.890625" xlink:href="#DejaVuSans-4c"/>
      <use x="1868.587891" xlink:href="#DejaVuSans-65"/>
      <use x="1930.111328" xlink:href="#DejaVuSans-6e"/>
      <use x="1993.490234" xlink:href="#DejaVuSans-67"/>
      <use x="2056.966797" xlink:href="#DejaVuSans-74"/>
      <use x="2096.175781" xlink:href="#DejaVuSans-68"/>
      <use x="2159.554688" xlink:href="#DejaVuSans-20"/>
      <use x="2191.341797" xlink:href="#DejaVuSans-2d"/>
      <use x="2227.425781" xlink:href="#DejaVuSans-2d"/>
      <use x="2263.509766" xlink:href="#DejaVuSans-20"/>
      <use x="2295.296875" xlink:href="#DejaVuSans-28"/>
      <use x="2334.310547" xlink:href="#DejaVuSans-31"/>
      <use x="2397.933594" xlink:href="#DejaVuSans-20"/>
      <use x="2429.720703" xlink:href="#DejaVuSans-2d"/>
      <use x="2465.804688" xlink:href="#DejaVuSans-20"/>
      <use x="2497.591797" xlink:href="#DejaVuSans-53"/>
      <use x="2561.068359" xlink:href="#DejaVuSans-29"/>
      <use x="2600.082031" xlink:href="#DejaVuSans-20"/>
      <use x="2631.869141" xlink:href="#DejaVuSans-2a"/>
      <use x="2681.869141" xlink:href="#DejaVuSans-20"/>
      <use x="2713.65625" xlink:href="#DejaVuSans-45"/>
      <use x="2776.839844" xlink:href="#DejaVuSans-5b"/>
      <use x="2815.853516" xlink:href="#DejaVuSans-51"/>
      <use x="2894.564453" xlink:href="#DejaVuSans-31"/>
      <use x="2958.1875" xlink:href="#DejaVuSans-31"/>
      <use x="3021.810547" xlink:href="#DejaVuSans-20"/>
      <use x="3053.597656" xlink:href="#DejaVuSans-2b"/>
      <use x="3137.386719" xlink:href="#DejaVuSans-20"/>
      <use x="3169.173828" xlink:href="#DejaVuSans-51"/>
      <use x="3247.884766" xlink:href="#DejaVuSans-32"/>
      <use x="3311.507812" xlink:href="#DejaVuSans-32"/>
      <use x="3375.130859" xlink:href="#DejaVuSans-20"/>
      <use x="3406.917969" xlink:href="#DejaVuSans-2b"/>
      <use x="3490.707031" xlink:href="#DejaVuSans-20"/>
      <use x="3522.494141" xlink:href="#DejaVuSans-51"/>
      <use x="3601.205078" xlink:href="#DejaVuSans-31"/>
      <use x="3664.828125" xlink:href="#DejaVuSans-32"/>
      <use x="3728.451172" xlink:href="#DejaVuSans-20"/>
      <use x="3760.238281" xlink:href="#DejaVuSans-2b"/>
      <use x="3844.027344" xlink:href="#DejaVuSans-20"/>
      <use x="3875.814453" xlink:href="#DejaVuSans-51"/>
      <use x="3954.525391" xlink:href="#DejaVuSans-32"/>
      <use x="4018.148438" xlink:href="#DejaVuSans-31"/>
      <use x="4081.771484" xlink:href="#DejaVuSans-5d"/>
     </g>
    </g>
   </g>
   <g id="line2d_21">
    <path clip-path="url(#p8c286e8af9)" d="M 73.832727 295.487677 
L 109.94558 287.463751 
L 146.058433 274.407875 
L 182.171285 257.035047 
L 218.284138 235.892154 
L 254.396991 212.199912 
L 290.509843 186.82176 
L 326.622696 159.626448 
L 362.735549 130.705207 
L 366.346834 127.370647 
L 366.707962 126.816927 
L 367.069091 127.203108 
L 367.430219 125.963195 
L 367.791348 126.092542 
L 368.152476 125.702875 
L 368.513605 125.307373 
L 368.874734 125.431627 
L 369.235862 125.263971 
L 369.596991 125.160637 
L 369.958119 124.619241 
L 370.319248 124.145145 
L 370.680376 123.226228 
L 371.041505 123.315476 
L 371.402633 122.573922 
L 371.763762 121.420047 
L 372.12489 122.383476 
L 372.486019 120.849057 
L 372.847147 121.550703 
L 373.208276 121.330366 
L 373.569404 120.942557 
L 373.930533 120.245137 
L 374.291661 120.526285 
L 374.65279 120.019955 
L 375.013918 119.642465 
L 375.375047 119.492359 
L 375.736176 118.94299 
L 376.097304 118.805884 
L 376.458433 119.561333 
L 376.819561 117.297276 
L 377.18069 115.863503 
L 377.541818 116.711276 
L 377.902947 118.217014 
L 378.264075 117.284575 
L 378.625204 116.331642 
L 378.986332 115.832864 
L 379.347461 116.214979 
L 379.708589 115.438551 
L 380.069718 114.442967 
L 380.430846 114.469522 
L 380.791975 114.179473 
L 381.153103 113.485666 
L 381.514232 112.201994 
L 381.875361 114.753662 
L 382.236489 113.25575 
L 382.597618 112.687189 
L 382.958746 113.464368 
L 383.319875 109.901941 
L 383.681003 111.356503 
L 384.042132 111.986644 
L 384.40326 110.412586 
L 384.764389 111.850062 
L 385.125517 109.65962 
L 385.486646 111.81438 
L 385.847774 109.928864 
L 386.208903 107.480297 
L 386.570031 105.798262 
L 386.93116 107.719328 
L 387.292288 108.729127 
L 387.653417 108.478314 
L 388.014545 107.398417 
L 388.375674 106.901869 
L 388.736803 110.101602 
L 389.097931 107.162929 
L 389.45906 104.282463 
L 389.820188 105.305663 
L 390.181317 105.889112 
L 390.542445 106.943773 
L 390.903574 107.063262 
L 391.264702 102.221776 
L 391.625831 100.107295 
L 391.986959 99.521041 
L 392.348088 100.992687 
L 392.709216 100.775094 
L 393.070345 101.305168 
L 393.431473 103.549511 
L 393.792602 100.569809 
L 394.15373 99.793207 
L 394.514859 108.809428 
L 394.875987 92.468459 
L 395.237116 101.049361 
L 395.598245 102.913287 
L 395.959373 96.878409 
L 396.320502 90.735312 
L 396.68163 83.109573 
L 397.042759 86.206427 
L 397.403887 106.042312 
L 397.765016 53.568 
L 398.126144 78.739688 
L 398.487273 88.196668 
" style="fill:none;stroke:#1f77b4;stroke-linecap:square;stroke-width:4;"/>
   </g>
   <g id="line2d_22">
    <path clip-path="url(#p8c286e8af9)" d="M 73.832727 295.488 
L 109.94558 287.459535 
L 146.058433 274.274896 
L 182.171285 256.301479 
L 218.284138 234.243038 
L 254.396991 208.484634 
L 290.509843 180.74614 
L 326.622696 152.270221 
L 362.735549 123.880543 
L 366.346834 120.299625 
L 366.707962 121.172718 
L 367.069091 120.88517 
L 367.430219 120.251496 
L 367.791348 119.272932 
L 368.152476 119.499789 
L 368.513605 119.505624 
L 368.874734 119.808521 
L 369.235862 118.549071 
L 369.596991 118.810143 
L 369.958119 117.925211 
L 370.319248 117.316217 
L 370.680376 118.065387 
L 371.041505 117.017021 
L 371.402633 116.2482 
L 371.763762 116.452397 
L 372.12489 116.921708 
L 372.486019 116.231322 
L 372.847147 114.65691 
L 373.208276 115.909571 
L 373.569404 116.015258 
L 373.930533 114.280818 
L 374.291661 115.551552 
L 374.65279 114.302673 
L 375.013918 113.364 
L 375.375047 114.623821 
L 375.736176 113.686419 
L 376.097304 112.851295 
L 376.458433 114.19181 
L 376.819561 110.925222 
L 377.18069 112.905357 
L 377.541818 110.712632 
L 377.902947 111.246492 
L 378.264075 111.583564 
L 378.625204 110.616194 
L 378.986332 112.146948 
L 379.347461 111.675393 
L 379.708589 110.649441 
L 380.069718 109.391844 
L 380.430846 110.185972 
L 380.791975 108.304833 
L 381.153103 109.452658 
L 381.514232 108.237156 
L 381.875361 108.509195 
L 382.236489 108.651523 
L 382.597618 104.99849 
L 382.958746 109.08159 
L 383.319875 108.209456 
L 383.681003 108.13505 
L 384.042132 106.299837 
L 384.40326 107.495453 
L 384.764389 109.248732 
L 385.125517 105.604183 
L 385.486646 104.208072 
L 385.847774 106.643145 
L 386.208903 106.734363 
L 386.570031 104.181059 
L 386.93116 105.743928 
L 387.292288 100.923508 
L 387.653417 103.6632 
L 388.014545 103.376439 
L 388.375674 100.512024 
L 388.736803 105.245774 
L 389.097931 104.31622 
L 389.45906 103.379419 
L 389.820188 105.589061 
L 390.181317 102.99548 
L 390.542445 98.658519 
L 390.903574 98.431858 
L 391.264702 101.699259 
L 391.625831 103.788624 
L 391.986959 102.355322 
L 392.348088 102.880742 
L 392.709216 98.025873 
L 393.070345 107.603666 
L 393.431473 92.671907 
L 393.792602 96.538522 
L 394.15373 101.627282 
L 394.514859 98.4417 
L 394.875987 95.369266 
L 395.237116 100.347023 
L 395.598245 94.831308 
L 395.959373 103.219144 
L 396.320502 98.136886 
L 396.68163 102.112867 
L 397.042759 107.869617 
L 397.403887 78.42918 
L 397.765016 90.13485 
L 398.126144 108.77746 
L 398.487273 97.167806 
" style="fill:none;stroke:#ff7f0e;stroke-linecap:square;stroke-width:2;"/>
   </g>
   <g id="line2d_23">
    <path clip-path="url(#p8c286e8af9)" d="M 73.832727 295.48067 
L 109.94558 287.527904 
L 146.058433 274.52966 
L 182.171285 257.200611 
L 218.284138 236.632882 
L 254.396991 214.463745 
L 290.509843 191.878085 
L 326.622696 170.012243 
L 362.735549 148.437988 
L 366.346834 145.66233 
L 366.707962 146.533222 
L 367.069091 145.628932 
L 367.430219 145.869411 
L 367.791348 144.924732 
L 368.152476 144.924098 
L 368.513605 144.949121 
L 368.874734 144.780404 
L 369.235862 145.406409 
L 369.596991 144.181611 
L 369.958119 144.360615 
L 370.319248 143.540365 
L 370.680376 143.104027 
L 371.041505 143.89979 
L 371.402633 142.773781 
L 371.763762 143.443226 
L 372.12489 142.694728 
L 372.486019 142.657459 
L 372.847147 142.227894 
L 373.208276 141.166761 
L 373.569404 141.521901 
L 373.930533 141.748553 
L 374.291661 141.454838 
L 374.65279 140.090876 
L 375.013918 141.35034 
L 375.375047 140.255362 
L 375.736176 140.030049 
L 376.097304 139.997594 
L 376.458433 139.3107 
L 376.819561 139.71288 
L 377.18069 139.028959 
L 377.541818 139.526985 
L 377.902947 138.931851 
L 378.264075 138.859636 
L 378.625204 138.246293 
L 378.986332 138.432174 
L 379.347461 137.389149 
L 379.708589 137.304376 
L 380.069718 138.817779 
L 380.430846 136.857837 
L 380.791975 137.189502 
L 381.153103 137.104104 
L 381.514232 136.849657 
L 381.875361 136.898373 
L 382.236489 136.699032 
L 382.597618 135.423483 
L 382.958746 136.237701 
L 383.319875 136.42064 
L 383.681003 135.99872 
L 384.042132 137.295793 
L 384.40326 133.301159 
L 384.764389 135.448035 
L 385.125517 134.755894 
L 385.486646 135.221235 
L 385.847774 134.23186 
L 386.208903 133.617333 
L 386.570031 131.805055 
L 386.93116 132.485345 
L 387.292288 134.714407 
L 387.653417 131.77191 
L 388.014545 132.081794 
L 388.375674 133.624557 
L 388.736803 130.575633 
L 389.097931 132.216563 
L 389.45906 130.573859 
L 389.820188 130.792675 
L 390.181317 132.154231 
L 390.542445 131.63406 
L 390.903574 130.088868 
L 391.264702 129.329542 
L 391.625831 131.045787 
L 391.986959 127.528447 
L 392.348088 130.288685 
L 392.709216 127.163706 
L 393.070345 125.852786 
L 393.431473 124.765215 
L 393.792602 130.575356 
L 394.15373 127.761401 
L 394.514859 128.206218 
L 394.875987 125.4862 
L 395.237116 122.566607 
L 395.598245 125.36681 
L 395.959373 126.278214 
L 396.320502 133.564566 
L 396.68163 125.333673 
L 397.042759 118.452735 
L 397.403887 116.615425 
L 397.765016 133.245847 
L 398.126144 149.520365 
L 398.487273 74.451595 
" style="fill:none;stroke:#2ca02c;stroke-linecap:square;stroke-width:2;"/>
   </g>
   <g id="line2d_24">
    <path clip-path="url(#p8c286e8af9)" d="M 73.832727 295.478621 
L 109.94558 287.445521 
L 146.058433 274.382532 
L 182.171285 256.678872 
L 218.284138 235.11988 
L 254.396991 210.660058 
L 290.509843 183.967036 
L 326.622696 156.181272 
L 362.735549 128.156977 
L 366.346834 125.217812 
L 366.707962 124.727354 
L 367.069091 124.530293 
L 367.430219 123.600203 
L 367.791348 124.884649 
L 368.152476 123.578472 
L 368.513605 123.916426 
L 368.874734 123.110836 
L 369.235862 122.889259 
L 369.596991 122.419491 
L 369.958119 122.431731 
L 370.319248 122.53527 
L 370.680376 121.852822 
L 371.041505 121.585859 
L 371.402633 121.577373 
L 371.763762 119.851693 
L 372.12489 121.036172 
L 372.486019 119.629472 
L 372.847147 119.623482 
L 373.208276 119.344214 
L 373.569404 119.187133 
L 373.930533 118.785404 
L 374.291661 118.460968 
L 374.65279 118.84262 
L 375.013918 118.128261 
L 375.375047 119.633618 
L 375.736176 116.440474 
L 376.097304 116.02116 
L 376.458433 117.351615 
L 376.819561 115.313729 
L 377.18069 117.818927 
L 377.541818 116.136329 
L 377.902947 115.351445 
L 378.264075 116.726168 
L 378.625204 114.653738 
L 378.986332 116.976404 
L 379.347461 116.031618 
L 379.708589 113.505777 
L 380.069718 113.332676 
L 380.430846 114.199475 
L 380.791975 113.503661 
L 381.153103 113.625977 
L 381.514232 113.112731 
L 381.875361 111.554842 
L 382.236489 112.26502 
L 382.597618 112.241295 
L 382.958746 111.020891 
L 383.319875 112.889013 
L 383.681003 110.803516 
L 384.042132 110.978728 
L 384.40326 109.636453 
L 384.764389 109.640779 
L 385.125517 110.053266 
L 385.486646 108.489204 
L 385.847774 109.824789 
L 386.208903 108.16299 
L 386.570031 106.385622 
L 386.93116 104.708515 
L 387.292288 107.016135 
L 387.653417 107.687389 
L 388.014545 106.167083 
L 388.375674 107.430133 
L 388.736803 106.041733 
L 389.097931 106.50934 
L 389.45906 105.880228 
L 389.820188 102.666269 
L 390.181317 106.746675 
L 390.542445 104.670552 
L 390.903574 103.949505 
L 391.264702 101.527264 
L 391.625831 102.418064 
L 391.986959 101.868181 
L 392.348088 98.99961 
L 392.709216 100.458518 
L 393.070345 106.762296 
L 393.431473 102.960862 
L 393.792602 103.829013 
L 394.15373 103.95177 
L 394.514859 103.16259 
L 394.875987 96.01864 
L 395.237116 100.821512 
L 395.598245 105.028851 
L 395.959373 96.564652 
L 396.320502 90.316623 
L 396.68163 99.30697 
L 397.042759 95.59762 
L 397.403887 93.335523 
L 397.765016 73.782012 
L 398.126144 88.754526 
L 398.487273 111.30833 
" style="fill:none;stroke:#d62728;stroke-linecap:square;stroke-width:2;"/>
   </g>
   <g id="patch_3">
    <path d="M 57.6 307.584 
L 57.6 41.472 
" style="fill:none;stroke:#000000;stroke-linecap:square;stroke-linejoin:miter;stroke-width:0.8;"/>
   </g>
   <g id="patch_4">
    <path d="M 414.72 307.584 
L 414.72 41.472 
" style="fill:none;stroke:#000000;stroke-linecap:square;stroke-linejoin:miter;stroke-width:0.8;"/>
   </g>
   <g id="patch_5">
    <path d="M 57.6 307.584 
L 414.72 307.584 
" style="fill:none;stroke:#000000;stroke-linecap:square;stroke-linejoin:miter;stroke-width:0.8;"/>
   </g>
   <g id="patch_6">
    <path d="M 57.6 41.472 
L 414.72 41.472 
" style="fill:none;stroke:#000000;stroke-linecap:square;stroke-linejoin:miter;stroke-width:0.8;"/>
   </g>
   <g id="text_13">
    <!-- (1 - S) * E[Q11 + Q22 + Q12 + Q21] vs Traffic Intensity, Vs Value: [0.5, 0.5, 0.5, 0.5] -->
    <defs>
     <path d="M 11.71875 12.40625 
L 22.015625 12.40625 
L 22.015625 4 
L 14.015625 -11.625 
L 7.71875 -11.625 
L 11.71875 4 
z
" id="DejaVuSans-2c"/>
     <path d="M 28.609375 0 
L 0.78125 72.90625 
L 11.078125 72.90625 
L 34.1875 11.53125 
L 57.328125 72.90625 
L 67.578125 72.90625 
L 39.796875 0 
z
" id="DejaVuSans-56"/>
     <path d="M 11.71875 12.40625 
L 22.015625 12.40625 
L 22.015625 0 
L 11.71875 0 
z
M 11.71875 51.703125 
L 22.015625 51.703125 
L 22.015625 39.3125 
L 11.71875 39.3125 
z
" id="DejaVuSans-3a"/>
     <path d="M 10.796875 72.90625 
L 49.515625 72.90625 
L 49.515625 64.59375 
L 19.828125 64.59375 
L 19.828125 46.734375 
Q 21.96875 47.46875 24.109375 47.828125 
Q 26.265625 48.1875 28.421875 48.1875 
Q 40.625 48.1875 47.75 41.5 
Q 54.890625 34.8125 54.890625 23.390625 
Q 54.890625 11.625 47.5625 5.09375 
Q 40.234375 -1.421875 26.90625 -1.421875 
Q 22.3125 -1.421875 17.546875 -0.640625 
Q 12.796875 0.140625 7.71875 1.703125 
L 7.71875 11.625 
Q 12.109375 9.234375 16.796875 8.0625 
Q 21.484375 6.890625 26.703125 6.890625 
Q 35.15625 6.890625 40.078125 11.328125 
Q 45.015625 15.765625 45.015625 23.390625 
Q 45.015625 31 40.078125 35.4375 
Q 35.15625 39.890625 26.703125 39.890625 
Q 22.75 39.890625 18.8125 39.015625 
Q 14.890625 38.140625 10.796875 36.28125 
z
" id="DejaVuSans-35"/>
    </defs>
    <g transform="translate(-18.974063 35.472)scale(0.12 -0.12)">
     <use xlink:href="#DejaVuSans-28"/>
     <use x="39.013672" xlink:href="#DejaVuSans-31"/>
     <use x="102.636719" xlink:href="#DejaVuSans-20"/>
     <use x="134.423828" xlink:href="#DejaVuSans-2d"/>
     <use x="170.507812" xlink:href="#DejaVuSans-20"/>
     <use x="202.294922" xlink:href="#DejaVuSans-53"/>
     <use x="265.771484" xlink:href="#DejaVuSans-29"/>
     <use x="304.785156" xlink:href="#DejaVuSans-20"/>
     <use x="336.572266" xlink:href="#DejaVuSans-2a"/>
     <use x="386.572266" xlink:href="#DejaVuSans-20"/>
     <use x="418.359375" xlink:href="#DejaVuSans-45"/>
     <use x="481.542969" xlink:href="#DejaVuSans-5b"/>
     <use x="520.556641" xlink:href="#DejaVuSans-51"/>
     <use x="599.267578" xlink:href="#DejaVuSans-31"/>
     <use x="662.890625" xlink:href="#DejaVuSans-31"/>
     <use x="726.513672" xlink:href="#DejaVuSans-20"/>
     <use x="758.300781" xlink:href="#DejaVuSans-2b"/>
     <use x="842.089844" xlink:href="#DejaVuSans-20"/>
     <use x="873.876953" xlink:href="#DejaVuSans-51"/>
     <use x="952.587891" xlink:href="#DejaVuSans-32"/>
     <use x="1016.210938" xlink:href="#DejaVuSans-32"/>
     <use x="1079.833984" xlink:href="#DejaVuSans-20"/>
     <use x="1111.621094" xlink:href="#DejaVuSans-2b"/>
     <use x="1195.410156" xlink:href="#DejaVuSans-20"/>
     <use x="1227.197266" xlink:href="#DejaVuSans-51"/>
     <use x="1305.908203" xlink:href="#DejaVuSans-31"/>
     <use x="1369.53125" xlink:href="#DejaVuSans-32"/>
     <use x="1433.154297" xlink:href="#DejaVuSans-20"/>
     <use x="1464.941406" xlink:href="#DejaVuSans-2b"/>
     <use x="1548.730469" xlink:href="#DejaVuSans-20"/>
     <use x="1580.517578" xlink:href="#DejaVuSans-51"/>
     <use x="1659.228516" xlink:href="#DejaVuSans-32"/>
     <use x="1722.851562" xlink:href="#DejaVuSans-31"/>
     <use x="1786.474609" xlink:href="#DejaVuSans-5d"/>
     <use x="1825.488281" xlink:href="#DejaVuSans-20"/>
     <use x="1857.275391" xlink:href="#DejaVuSans-76"/>
     <use x="1916.455078" xlink:href="#DejaVuSans-73"/>
     <use x="1968.554688" xlink:href="#DejaVuSans-20"/>
     <use x="2000.341797" xlink:href="#DejaVuSans-54"/>
     <use x="2061.207031" xlink:href="#DejaVuSans-72"/>
     <use x="2102.320312" xlink:href="#DejaVuSans-61"/>
     <use x="2163.599609" xlink:href="#DejaVuSans-66"/>
     <use x="2198.804688" xlink:href="#DejaVuSans-66"/>
     <use x="2234.009766" xlink:href="#DejaVuSans-69"/>
     <use x="2261.792969" xlink:href="#DejaVuSans-63"/>
     <use x="2316.773438" xlink:href="#DejaVuSans-20"/>
     <use x="2348.560547" xlink:href="#DejaVuSans-49"/>
     <use x="2378.052734" xlink:href="#DejaVuSans-6e"/>
     <use x="2441.431641" xlink:href="#DejaVuSans-74"/>
     <use x="2480.640625" xlink:href="#DejaVuSans-65"/>
     <use x="2542.164062" xlink:href="#DejaVuSans-6e"/>
     <use x="2605.542969" xlink:href="#DejaVuSans-73"/>
     <use x="2657.642578" xlink:href="#DejaVuSans-69"/>
     <use x="2685.425781" xlink:href="#DejaVuSans-74"/>
     <use x="2724.634766" xlink:href="#DejaVuSans-79"/>
     <use x="2783.814453" xlink:href="#DejaVuSans-2c"/>
     <use x="2815.601562" xlink:href="#DejaVuSans-20"/>
     <use x="2847.388672" xlink:href="#DejaVuSans-56"/>
     <use x="2915.796875" xlink:href="#DejaVuSans-73"/>
     <use x="2967.896484" xlink:href="#DejaVuSans-20"/>
     <use x="2999.683594" xlink:href="#DejaVuSans-56"/>
     <use x="3067.982422" xlink:href="#DejaVuSans-61"/>
     <use x="3129.261719" xlink:href="#DejaVuSans-6c"/>
     <use x="3157.044922" xlink:href="#DejaVuSans-75"/>
     <use x="3220.423828" xlink:href="#DejaVuSans-65"/>
     <use x="3281.947266" xlink:href="#DejaVuSans-3a"/>
     <use x="3315.638672" xlink:href="#DejaVuSans-20"/>
     <use x="3347.425781" xlink:href="#DejaVuSans-5b"/>
     <use x="3386.439453" xlink:href="#DejaVuSans-30"/>
     <use x="3450.0625" xlink:href="#DejaVuSans-2e"/>
     <use x="3481.849609" xlink:href="#DejaVuSans-35"/>
     <use x="3545.472656" xlink:href="#DejaVuSans-2c"/>
     <use x="3577.259766" xlink:href="#DejaVuSans-20"/>
     <use x="3609.046875" xlink:href="#DejaVuSans-30"/>
     <use x="3672.669922" xlink:href="#DejaVuSans-2e"/>
     <use x="3704.457031" xlink:href="#DejaVuSans-35"/>
     <use x="3768.080078" xlink:href="#DejaVuSans-2c"/>
     <use x="3799.867188" xlink:href="#DejaVuSans-20"/>
     <use x="3831.654297" xlink:href="#DejaVuSans-30"/>
     <use x="3895.277344" xlink:href="#DejaVuSans-2e"/>
     <use x="3927.064453" xlink:href="#DejaVuSans-35"/>
     <use x="3990.6875" xlink:href="#DejaVuSans-2c"/>
     <use x="4022.474609" xlink:href="#DejaVuSans-20"/>
     <use x="4054.261719" xlink:href="#DejaVuSans-30"/>
     <use x="4117.884766" xlink:href="#DejaVuSans-2e"/>
     <use x="4149.671875" xlink:href="#DejaVuSans-35"/>
     <use x="4213.294922" xlink:href="#DejaVuSans-5d"/>
    </g>
   </g>
   <g id="legend_1">
    <g id="patch_7">
     <path d="M 64.6 109.018875 
L 202.339062 109.018875 
Q 204.339062 109.018875 204.339062 107.018875 
L 204.339062 48.472 
Q 204.339062 46.472 202.339062 46.472 
L 64.6 46.472 
Q 62.6 46.472 62.6 48.472 
L 62.6 107.018875 
Q 62.6 109.018875 64.6 109.018875 
z
" style="fill:#ffffff;opacity:0.8;stroke:#cccccc;stroke-linejoin:miter;"/>
    </g>
    <g id="line2d_25">
     <path d="M 66.6 54.570438 
L 86.6 54.570438 
" style="fill:none;stroke:#1f77b4;stroke-linecap:square;stroke-width:4;"/>
    </g>
    <g id="line2d_26"/>
    <g id="text_14">
     <!-- MaxWt -->
     <defs>
      <path d="M 9.8125 72.90625 
L 24.515625 72.90625 
L 43.109375 23.296875 
L 61.8125 72.90625 
L 76.515625 72.90625 
L 76.515625 0 
L 66.890625 0 
L 66.890625 64.015625 
L 48.09375 14.015625 
L 38.1875 14.015625 
L 19.390625 64.015625 
L 19.390625 0 
L 9.8125 0 
z
" id="DejaVuSans-4d"/>
      <path d="M 54.890625 54.6875 
L 35.109375 28.078125 
L 55.90625 0 
L 45.3125 0 
L 29.390625 21.484375 
L 13.484375 0 
L 2.875 0 
L 24.125 28.609375 
L 4.6875 54.6875 
L 15.28125 54.6875 
L 29.78125 35.203125 
L 44.28125 54.6875 
z
" id="DejaVuSans-78"/>
      <path d="M 3.328125 72.90625 
L 13.28125 72.90625 
L 28.609375 11.28125 
L 43.890625 72.90625 
L 54.984375 72.90625 
L 70.3125 11.28125 
L 85.59375 72.90625 
L 95.609375 72.90625 
L 77.296875 0 
L 64.890625 0 
L 49.515625 63.28125 
L 33.984375 0 
L 21.578125 0 
z
" id="DejaVuSans-57"/>
     </defs>
     <g transform="translate(94.6 58.070438)scale(0.1 -0.1)">
      <use xlink:href="#DejaVuSans-4d"/>
      <use x="86.279297" xlink:href="#DejaVuSans-61"/>
      <use x="147.558594" xlink:href="#DejaVuSans-78"/>
      <use x="206.738281" xlink:href="#DejaVuSans-57"/>
      <use x="305.615234" xlink:href="#DejaVuSans-74"/>
     </g>
    </g>
    <g id="line2d_27">
     <path d="M 66.6 69.248563 
L 86.6 69.248563 
" style="fill:none;stroke:#ff7f0e;stroke-linecap:square;stroke-width:2;"/>
    </g>
    <g id="line2d_28"/>
    <g id="text_15">
     <!-- MaxSize_random -->
     <defs>
      <path d="M 5.515625 54.6875 
L 48.1875 54.6875 
L 48.1875 46.484375 
L 14.40625 7.171875 
L 48.1875 7.171875 
L 48.1875 0 
L 4.296875 0 
L 4.296875 8.203125 
L 38.09375 47.515625 
L 5.515625 47.515625 
z
" id="DejaVuSans-7a"/>
      <path d="M 50.984375 -16.609375 
L 50.984375 -23.578125 
L -0.984375 -23.578125 
L -0.984375 -16.609375 
z
" id="DejaVuSans-5f"/>
      <path d="M 45.40625 46.390625 
L 45.40625 75.984375 
L 54.390625 75.984375 
L 54.390625 0 
L 45.40625 0 
L 45.40625 8.203125 
Q 42.578125 3.328125 38.25 0.953125 
Q 33.9375 -1.421875 27.875 -1.421875 
Q 17.96875 -1.421875 11.734375 6.484375 
Q 5.515625 14.40625 5.515625 27.296875 
Q 5.515625 40.1875 11.734375 48.09375 
Q 17.96875 56 27.875 56 
Q 33.9375 56 38.25 53.625 
Q 42.578125 51.265625 45.40625 46.390625 
z
M 14.796875 27.296875 
Q 14.796875 17.390625 18.875 11.75 
Q 22.953125 6.109375 30.078125 6.109375 
Q 37.203125 6.109375 41.296875 11.75 
Q 45.40625 17.390625 45.40625 27.296875 
Q 45.40625 37.203125 41.296875 42.84375 
Q 37.203125 48.484375 30.078125 48.484375 
Q 22.953125 48.484375 18.875 42.84375 
Q 14.796875 37.203125 14.796875 27.296875 
z
" id="DejaVuSans-64"/>
     </defs>
     <g transform="translate(94.6 72.748563)scale(0.1 -0.1)">
      <use xlink:href="#DejaVuSans-4d"/>
      <use x="86.279297" xlink:href="#DejaVuSans-61"/>
      <use x="147.558594" xlink:href="#DejaVuSans-78"/>
      <use x="206.738281" xlink:href="#DejaVuSans-53"/>
      <use x="270.214844" xlink:href="#DejaVuSans-69"/>
      <use x="297.998047" xlink:href="#DejaVuSans-7a"/>
      <use x="350.488281" xlink:href="#DejaVuSans-65"/>
      <use x="412.011719" xlink:href="#DejaVuSans-5f"/>
      <use x="462.011719" xlink:href="#DejaVuSans-72"/>
      <use x="503.125" xlink:href="#DejaVuSans-61"/>
      <use x="564.404297" xlink:href="#DejaVuSans-6e"/>
      <use x="627.783203" xlink:href="#DejaVuSans-64"/>
      <use x="691.259766" xlink:href="#DejaVuSans-6f"/>
      <use x="752.441406" xlink:href="#DejaVuSans-6d"/>
     </g>
    </g>
    <g id="line2d_29">
     <path d="M 66.6 84.204813 
L 86.6 84.204813 
" style="fill:none;stroke:#2ca02c;stroke-linecap:square;stroke-width:2;"/>
    </g>
    <g id="line2d_30"/>
    <g id="text_16">
     <!-- MaxSize_PriMaxWt -->
     <defs>
      <path d="M 19.671875 64.796875 
L 19.671875 37.40625 
L 32.078125 37.40625 
Q 38.96875 37.40625 42.71875 40.96875 
Q 46.484375 44.53125 46.484375 51.125 
Q 46.484375 57.671875 42.71875 61.234375 
Q 38.96875 64.796875 32.078125 64.796875 
z
M 9.8125 72.90625 
L 32.078125 72.90625 
Q 44.34375 72.90625 50.609375 67.359375 
Q 56.890625 61.8125 56.890625 51.125 
Q 56.890625 40.328125 50.609375 34.8125 
Q 44.34375 29.296875 32.078125 29.296875 
L 19.671875 29.296875 
L 19.671875 0 
L 9.8125 0 
z
" id="DejaVuSans-50"/>
     </defs>
     <g transform="translate(94.6 87.704813)scale(0.1 -0.1)">
      <use xlink:href="#DejaVuSans-4d"/>
      <use x="86.279297" xlink:href="#DejaVuSans-61"/>
      <use x="147.558594" xlink:href="#DejaVuSans-78"/>
      <use x="206.738281" xlink:href="#DejaVuSans-53"/>
      <use x="270.214844" xlink:href="#DejaVuSans-69"/>
      <use x="297.998047" xlink:href="#DejaVuSans-7a"/>
      <use x="350.488281" xlink:href="#DejaVuSans-65"/>
      <use x="412.011719" xlink:href="#DejaVuSans-5f"/>
      <use x="462.011719" xlink:href="#DejaVuSans-50"/>
      <use x="522.298828" xlink:href="#DejaVuSans-72"/>
      <use x="563.412109" xlink:href="#DejaVuSans-69"/>
      <use x="591.195312" xlink:href="#DejaVuSans-4d"/>
      <use x="677.474609" xlink:href="#DejaVuSans-61"/>
      <use x="738.753906" xlink:href="#DejaVuSans-78"/>
      <use x="797.933594" xlink:href="#DejaVuSans-57"/>
      <use x="896.810547" xlink:href="#DejaVuSans-74"/>
     </g>
    </g>
    <g id="line2d_31">
     <path d="M 66.6 99.161063 
L 86.6 99.161063 
" style="fill:none;stroke:#d62728;stroke-linecap:square;stroke-width:2;"/>
    </g>
    <g id="line2d_32"/>
    <g id="text_17">
     <!-- MaxArrival_PriMaxWt -->
     <g transform="translate(94.6 102.661063)scale(0.1 -0.1)">
      <use xlink:href="#DejaVuSans-4d"/>
      <use x="86.279297" xlink:href="#DejaVuSans-61"/>
      <use x="147.558594" xlink:href="#DejaVuSans-78"/>
      <use x="206.738281" xlink:href="#DejaVuSans-41"/>
      <use x="275.146484" xlink:href="#DejaVuSans-72"/>
      <use x="316.244141" xlink:href="#DejaVuSans-72"/>
      <use x="357.357422" xlink:href="#DejaVuSans-69"/>
      <use x="385.140625" xlink:href="#DejaVuSans-76"/>
      <use x="444.320312" xlink:href="#DejaVuSans-61"/>
      <use x="505.599609" xlink:href="#DejaVuSans-6c"/>
      <use x="533.382812" xlink:href="#DejaVuSans-5f"/>
      <use x="583.382812" xlink:href="#DejaVuSans-50"/>
      <use x="643.669922" xlink:href="#DejaVuSans-72"/>
      <use x="684.783203" xlink:href="#DejaVuSans-69"/>
      <use x="712.566406" xlink:href="#DejaVuSans-4d"/>
      <use x="798.845703" xlink:href="#DejaVuSans-61"/>
      <use x="860.125" xlink:href="#DejaVuSans-78"/>
      <use x="919.304688" xlink:href="#DejaVuSans-57"/>
      <use x="1018.181641" xlink:href="#DejaVuSans-74"/>
     </g>
    </g>
   </g>
  </g>
 </g>
 <defs>
  <clipPath id="p8c286e8af9">
   <rect height="266.112" width="357.12" x="57.6" y="41.472"/>
  </clipPath>
 </defs>
</svg>
