<?xml version="1.0" encoding="utf-8" standalone="no"?>
<!DOCTYPE svg PUBLIC "-//W3C//DTD SVG 1.1//EN"
  "http://www.w3.org/Graphics/SVG/1.1/DTD/svg11.dtd">
<!-- Created with matplotlib (http://matplotlib.org/) -->
<svg height="345pt" version="1.1" viewBox="0 0 460 345" width="460pt" xmlns="http://www.w3.org/2000/svg" xmlns:xlink="http://www.w3.org/1999/xlink">
 <defs>
  <style type="text/css">
*{stroke-linecap:butt;stroke-linejoin:round;}
  </style>
 </defs>
 <g id="figure_1">
  <g id="patch_1">
   <path d="M 0 345.6 
L 460.8 345.6 
L 460.8 0 
L 0 0 
z
" style="fill:#ffffff;"/>
  </g>
  <g id="axes_1">
   <g id="patch_2">
    <path d="M 57.6 307.584 
L 414.72 307.584 
L 414.72 41.472 
L 57.6 41.472 
z
" style="fill:#ffffff;"/>
   </g>
   <g id="matplotlib.axis_1">
    <g id="xtick_1">
     <g id="line2d_1">
      <path clip-path="url(#p5aa36a52bc)" d="M 109.913472 307.584 
L 109.913472 41.472 
" style="fill:none;stroke:#b0b0b0;stroke-linecap:square;stroke-width:0.8;"/>
     </g>
     <g id="line2d_2">
      <defs>
       <path d="M 0 0 
L 0 3.5 
" id="md75115c9dd" style="stroke:#000000;stroke-width:0.8;"/>
      </defs>
      <g>
       <use style="stroke:#000000;stroke-width:0.8;" x="109.913472" xlink:href="#md75115c9dd" y="307.584"/>
      </g>
     </g>
     <g id="text_1">
      <!-- 0.2 -->
      <defs>
       <path d="M 31.78125 66.40625 
Q 24.171875 66.40625 20.328125 58.90625 
Q 16.5 51.421875 16.5 36.375 
Q 16.5 21.390625 20.328125 13.890625 
Q 24.171875 6.390625 31.78125 6.390625 
Q 39.453125 6.390625 43.28125 13.890625 
Q 47.125 21.390625 47.125 36.375 
Q 47.125 51.421875 43.28125 58.90625 
Q 39.453125 66.40625 31.78125 66.40625 
z
M 31.78125 74.21875 
Q 44.046875 74.21875 50.515625 64.515625 
Q 56.984375 54.828125 56.984375 36.375 
Q 56.984375 17.96875 50.515625 8.265625 
Q 44.046875 -1.421875 31.78125 -1.421875 
Q 19.53125 -1.421875 13.0625 8.265625 
Q 6.59375 17.96875 6.59375 36.375 
Q 6.59375 54.828125 13.0625 64.515625 
Q 19.53125 74.21875 31.78125 74.21875 
z
" id="DejaVuSans-30"/>
       <path d="M 10.6875 12.40625 
L 21 12.40625 
L 21 0 
L 10.6875 0 
z
" id="DejaVuSans-2e"/>
       <path d="M 19.1875 8.296875 
L 53.609375 8.296875 
L 53.609375 0 
L 7.328125 0 
L 7.328125 8.296875 
Q 12.9375 14.109375 22.625 23.890625 
Q 32.328125 33.6875 34.8125 36.53125 
Q 39.546875 41.84375 41.421875 45.53125 
Q 43.3125 49.21875 43.3125 52.78125 
Q 43.3125 58.59375 39.234375 62.25 
Q 35.15625 65.921875 28.609375 65.921875 
Q 23.96875 65.921875 18.8125 64.3125 
Q 13.671875 62.703125 7.8125 59.421875 
L 7.8125 69.390625 
Q 13.765625 71.78125 18.9375 73 
Q 24.125 74.21875 28.421875 74.21875 
Q 39.75 74.21875 46.484375 68.546875 
Q 53.21875 62.890625 53.21875 53.421875 
Q 53.21875 48.921875 51.53125 44.890625 
Q 49.859375 40.875 45.40625 35.40625 
Q 44.1875 33.984375 37.640625 27.21875 
Q 31.109375 20.453125 19.1875 8.296875 
z
" id="DejaVuSans-32"/>
      </defs>
      <g transform="translate(101.96191 322.182437)scale(0.1 -0.1)">
       <use xlink:href="#DejaVuSans-30"/>
       <use x="63.623047" xlink:href="#DejaVuSans-2e"/>
       <use x="95.410156" xlink:href="#DejaVuSans-32"/>
      </g>
     </g>
    </g>
    <g id="xtick_2">
     <g id="line2d_3">
      <path clip-path="url(#p5aa36a52bc)" d="M 182.074963 307.584 
L 182.074963 41.472 
" style="fill:none;stroke:#b0b0b0;stroke-linecap:square;stroke-width:0.8;"/>
     </g>
     <g id="line2d_4">
      <g>
       <use style="stroke:#000000;stroke-width:0.8;" x="182.074963" xlink:href="#md75115c9dd" y="307.584"/>
      </g>
     </g>
     <g id="text_2">
      <!-- 0.4 -->
      <defs>
       <path d="M 37.796875 64.3125 
L 12.890625 25.390625 
L 37.796875 25.390625 
z
M 35.203125 72.90625 
L 47.609375 72.90625 
L 47.609375 25.390625 
L 58.015625 25.390625 
L 58.015625 17.1875 
L 47.609375 17.1875 
L 47.609375 0 
L 37.796875 0 
L 37.796875 17.1875 
L 4.890625 17.1875 
L 4.890625 26.703125 
z
" id="DejaVuSans-34"/>
      </defs>
      <g transform="translate(174.1234 322.182437)scale(0.1 -0.1)">
       <use xlink:href="#DejaVuSans-30"/>
       <use x="63.623047" xlink:href="#DejaVuSans-2e"/>
       <use x="95.410156" xlink:href="#DejaVuSans-34"/>
      </g>
     </g>
    </g>
    <g id="xtick_3">
     <g id="line2d_5">
      <path clip-path="url(#p5aa36a52bc)" d="M 254.236453 307.584 
L 254.236453 41.472 
" style="fill:none;stroke:#b0b0b0;stroke-linecap:square;stroke-width:0.8;"/>
     </g>
     <g id="line2d_6">
      <g>
       <use style="stroke:#000000;stroke-width:0.8;" x="254.236453" xlink:href="#md75115c9dd" y="307.584"/>
      </g>
     </g>
     <g id="text_3">
      <!-- 0.6 -->
      <defs>
       <path d="M 33.015625 40.375 
Q 26.375 40.375 22.484375 35.828125 
Q 18.609375 31.296875 18.609375 23.390625 
Q 18.609375 15.53125 22.484375 10.953125 
Q 26.375 6.390625 33.015625 6.390625 
Q 39.65625 6.390625 43.53125 10.953125 
Q 47.40625 15.53125 47.40625 23.390625 
Q 47.40625 31.296875 43.53125 35.828125 
Q 39.65625 40.375 33.015625 40.375 
z
M 52.59375 71.296875 
L 52.59375 62.3125 
Q 48.875 64.0625 45.09375 64.984375 
Q 41.3125 65.921875 37.59375 65.921875 
Q 27.828125 65.921875 22.671875 59.328125 
Q 17.53125 52.734375 16.796875 39.40625 
Q 19.671875 43.65625 24.015625 45.921875 
Q 28.375 48.1875 33.59375 48.1875 
Q 44.578125 48.1875 50.953125 41.515625 
Q 57.328125 34.859375 57.328125 23.390625 
Q 57.328125 12.15625 50.6875 5.359375 
Q 44.046875 -1.421875 33.015625 -1.421875 
Q 20.359375 -1.421875 13.671875 8.265625 
Q 6.984375 17.96875 6.984375 36.375 
Q 6.984375 53.65625 15.1875 63.9375 
Q 23.390625 74.21875 37.203125 74.21875 
Q 40.921875 74.21875 44.703125 73.484375 
Q 48.484375 72.75 52.59375 71.296875 
z
" id="DejaVuSans-36"/>
      </defs>
      <g transform="translate(246.284891 322.182437)scale(0.1 -0.1)">
       <use xlink:href="#DejaVuSans-30"/>
       <use x="63.623047" xlink:href="#DejaVuSans-2e"/>
       <use x="95.410156" xlink:href="#DejaVuSans-36"/>
      </g>
     </g>
    </g>
    <g id="xtick_4">
     <g id="line2d_7">
      <path clip-path="url(#p5aa36a52bc)" d="M 326.397944 307.584 
L 326.397944 41.472 
" style="fill:none;stroke:#b0b0b0;stroke-linecap:square;stroke-width:0.8;"/>
     </g>
     <g id="line2d_8">
      <g>
       <use style="stroke:#000000;stroke-width:0.8;" x="326.397944" xlink:href="#md75115c9dd" y="307.584"/>
      </g>
     </g>
     <g id="text_4">
      <!-- 0.8 -->
      <defs>
       <path d="M 31.78125 34.625 
Q 24.75 34.625 20.71875 30.859375 
Q 16.703125 27.09375 16.703125 20.515625 
Q 16.703125 13.921875 20.71875 10.15625 
Q 24.75 6.390625 31.78125 6.390625 
Q 38.8125 6.390625 42.859375 10.171875 
Q 46.921875 13.96875 46.921875 20.515625 
Q 46.921875 27.09375 42.890625 30.859375 
Q 38.875 34.625 31.78125 34.625 
z
M 21.921875 38.8125 
Q 15.578125 40.375 12.03125 44.71875 
Q 8.5 49.078125 8.5 55.328125 
Q 8.5 64.0625 14.71875 69.140625 
Q 20.953125 74.21875 31.78125 74.21875 
Q 42.671875 74.21875 48.875 69.140625 
Q 55.078125 64.0625 55.078125 55.328125 
Q 55.078125 49.078125 51.53125 44.71875 
Q 48 40.375 41.703125 38.8125 
Q 48.828125 37.15625 52.796875 32.3125 
Q 56.78125 27.484375 56.78125 20.515625 
Q 56.78125 9.90625 50.3125 4.234375 
Q 43.84375 -1.421875 31.78125 -1.421875 
Q 19.734375 -1.421875 13.25 4.234375 
Q 6.78125 9.90625 6.78125 20.515625 
Q 6.78125 27.484375 10.78125 32.3125 
Q 14.796875 37.15625 21.921875 38.8125 
z
M 18.3125 54.390625 
Q 18.3125 48.734375 21.84375 45.5625 
Q 25.390625 42.390625 31.78125 42.390625 
Q 38.140625 42.390625 41.71875 45.5625 
Q 45.3125 48.734375 45.3125 54.390625 
Q 45.3125 60.0625 41.71875 63.234375 
Q 38.140625 66.40625 31.78125 66.40625 
Q 25.390625 66.40625 21.84375 63.234375 
Q 18.3125 60.0625 18.3125 54.390625 
z
" id="DejaVuSans-38"/>
      </defs>
      <g transform="translate(318.446381 322.182437)scale(0.1 -0.1)">
       <use xlink:href="#DejaVuSans-30"/>
       <use x="63.623047" xlink:href="#DejaVuSans-2e"/>
       <use x="95.410156" xlink:href="#DejaVuSans-38"/>
      </g>
     </g>
    </g>
    <g id="xtick_5">
     <g id="line2d_9">
      <path clip-path="url(#p5aa36a52bc)" d="M 398.559434 307.584 
L 398.559434 41.472 
" style="fill:none;stroke:#b0b0b0;stroke-linecap:square;stroke-width:0.8;"/>
     </g>
     <g id="line2d_10">
      <g>
       <use style="stroke:#000000;stroke-width:0.8;" x="398.559434" xlink:href="#md75115c9dd" y="307.584"/>
      </g>
     </g>
     <g id="text_5">
      <!-- 1.0 -->
      <defs>
       <path d="M 12.40625 8.296875 
L 28.515625 8.296875 
L 28.515625 63.921875 
L 10.984375 60.40625 
L 10.984375 69.390625 
L 28.421875 72.90625 
L 38.28125 72.90625 
L 38.28125 8.296875 
L 54.390625 8.296875 
L 54.390625 0 
L 12.40625 0 
z
" id="DejaVuSans-31"/>
      </defs>
      <g transform="translate(390.607872 322.182437)scale(0.1 -0.1)">
       <use xlink:href="#DejaVuSans-31"/>
       <use x="63.623047" xlink:href="#DejaVuSans-2e"/>
       <use x="95.410156" xlink:href="#DejaVuSans-30"/>
      </g>
     </g>
    </g>
    <g id="text_6">
     <!-- Traffic Intensity -->
     <defs>
      <path d="M -0.296875 72.90625 
L 61.375 72.90625 
L 61.375 64.59375 
L 35.5 64.59375 
L 35.5 0 
L 25.59375 0 
L 25.59375 64.59375 
L -0.296875 64.59375 
z
" id="DejaVuSans-54"/>
      <path d="M 41.109375 46.296875 
Q 39.59375 47.171875 37.8125 47.578125 
Q 36.03125 48 33.890625 48 
Q 26.265625 48 22.1875 43.046875 
Q 18.109375 38.09375 18.109375 28.8125 
L 18.109375 0 
L 9.078125 0 
L 9.078125 54.6875 
L 18.109375 54.6875 
L 18.109375 46.1875 
Q 20.953125 51.171875 25.484375 53.578125 
Q 30.03125 56 36.53125 56 
Q 37.453125 56 38.578125 55.875 
Q 39.703125 55.765625 41.0625 55.515625 
z
" id="DejaVuSans-72"/>
      <path d="M 34.28125 27.484375 
Q 23.390625 27.484375 19.1875 25 
Q 14.984375 22.515625 14.984375 16.5 
Q 14.984375 11.71875 18.140625 8.90625 
Q 21.296875 6.109375 26.703125 6.109375 
Q 34.1875 6.109375 38.703125 11.40625 
Q 43.21875 16.703125 43.21875 25.484375 
L 43.21875 27.484375 
z
M 52.203125 31.203125 
L 52.203125 0 
L 43.21875 0 
L 43.21875 8.296875 
Q 40.140625 3.328125 35.546875 0.953125 
Q 30.953125 -1.421875 24.3125 -1.421875 
Q 15.921875 -1.421875 10.953125 3.296875 
Q 6 8.015625 6 15.921875 
Q 6 25.140625 12.171875 29.828125 
Q 18.359375 34.515625 30.609375 34.515625 
L 43.21875 34.515625 
L 43.21875 35.40625 
Q 43.21875 41.609375 39.140625 45 
Q 35.0625 48.390625 27.6875 48.390625 
Q 23 48.390625 18.546875 47.265625 
Q 14.109375 46.140625 10.015625 43.890625 
L 10.015625 52.203125 
Q 14.9375 54.109375 19.578125 55.046875 
Q 24.21875 56 28.609375 56 
Q 40.484375 56 46.34375 49.84375 
Q 52.203125 43.703125 52.203125 31.203125 
z
" id="DejaVuSans-61"/>
      <path d="M 37.109375 75.984375 
L 37.109375 68.5 
L 28.515625 68.5 
Q 23.6875 68.5 21.796875 66.546875 
Q 19.921875 64.59375 19.921875 59.515625 
L 19.921875 54.6875 
L 34.71875 54.6875 
L 34.71875 47.703125 
L 19.921875 47.703125 
L 19.921875 0 
L 10.890625 0 
L 10.890625 47.703125 
L 2.296875 47.703125 
L 2.296875 54.6875 
L 10.890625 54.6875 
L 10.890625 58.5 
Q 10.890625 67.625 15.140625 71.796875 
Q 19.390625 75.984375 28.609375 75.984375 
z
" id="DejaVuSans-66"/>
      <path d="M 9.421875 54.6875 
L 18.40625 54.6875 
L 18.40625 0 
L 9.421875 0 
z
M 9.421875 75.984375 
L 18.40625 75.984375 
L 18.40625 64.59375 
L 9.421875 64.59375 
z
" id="DejaVuSans-69"/>
      <path d="M 48.78125 52.59375 
L 48.78125 44.1875 
Q 44.96875 46.296875 41.140625 47.34375 
Q 37.3125 48.390625 33.40625 48.390625 
Q 24.65625 48.390625 19.8125 42.84375 
Q 14.984375 37.3125 14.984375 27.296875 
Q 14.984375 17.28125 19.8125 11.734375 
Q 24.65625 6.203125 33.40625 6.203125 
Q 37.3125 6.203125 41.140625 7.25 
Q 44.96875 8.296875 48.78125 10.40625 
L 48.78125 2.09375 
Q 45.015625 0.34375 40.984375 -0.53125 
Q 36.96875 -1.421875 32.421875 -1.421875 
Q 20.0625 -1.421875 12.78125 6.34375 
Q 5.515625 14.109375 5.515625 27.296875 
Q 5.515625 40.671875 12.859375 48.328125 
Q 20.21875 56 33.015625 56 
Q 37.15625 56 41.109375 55.140625 
Q 45.0625 54.296875 48.78125 52.59375 
z
" id="DejaVuSans-63"/>
      <path id="DejaVuSans-20"/>
      <path d="M 9.8125 72.90625 
L 19.671875 72.90625 
L 19.671875 0 
L 9.8125 0 
z
" id="DejaVuSans-49"/>
      <path d="M 54.890625 33.015625 
L 54.890625 0 
L 45.90625 0 
L 45.90625 32.71875 
Q 45.90625 40.484375 42.875 44.328125 
Q 39.84375 48.1875 33.796875 48.1875 
Q 26.515625 48.1875 22.3125 43.546875 
Q 18.109375 38.921875 18.109375 30.90625 
L 18.109375 0 
L 9.078125 0 
L 9.078125 54.6875 
L 18.109375 54.6875 
L 18.109375 46.1875 
Q 21.34375 51.125 25.703125 53.5625 
Q 30.078125 56 35.796875 56 
Q 45.21875 56 50.046875 50.171875 
Q 54.890625 44.34375 54.890625 33.015625 
z
" id="DejaVuSans-6e"/>
      <path d="M 18.3125 70.21875 
L 18.3125 54.6875 
L 36.8125 54.6875 
L 36.8125 47.703125 
L 18.3125 47.703125 
L 18.3125 18.015625 
Q 18.3125 11.328125 20.140625 9.421875 
Q 21.96875 7.515625 27.59375 7.515625 
L 36.8125 7.515625 
L 36.8125 0 
L 27.59375 0 
Q 17.1875 0 13.234375 3.875 
Q 9.28125 7.765625 9.28125 18.015625 
L 9.28125 47.703125 
L 2.6875 47.703125 
L 2.6875 54.6875 
L 9.28125 54.6875 
L 9.28125 70.21875 
z
" id="DejaVuSans-74"/>
      <path d="M 56.203125 29.59375 
L 56.203125 25.203125 
L 14.890625 25.203125 
Q 15.484375 15.921875 20.484375 11.0625 
Q 25.484375 6.203125 34.421875 6.203125 
Q 39.59375 6.203125 44.453125 7.46875 
Q 49.3125 8.734375 54.109375 11.28125 
L 54.109375 2.78125 
Q 49.265625 0.734375 44.1875 -0.34375 
Q 39.109375 -1.421875 33.890625 -1.421875 
Q 20.796875 -1.421875 13.15625 6.1875 
Q 5.515625 13.8125 5.515625 26.8125 
Q 5.515625 40.234375 12.765625 48.109375 
Q 20.015625 56 32.328125 56 
Q 43.359375 56 49.78125 48.890625 
Q 56.203125 41.796875 56.203125 29.59375 
z
M 47.21875 32.234375 
Q 47.125 39.59375 43.09375 43.984375 
Q 39.0625 48.390625 32.421875 48.390625 
Q 24.90625 48.390625 20.390625 44.140625 
Q 15.875 39.890625 15.1875 32.171875 
z
" id="DejaVuSans-65"/>
      <path d="M 44.28125 53.078125 
L 44.28125 44.578125 
Q 40.484375 46.53125 36.375 47.5 
Q 32.28125 48.484375 27.875 48.484375 
Q 21.1875 48.484375 17.84375 46.4375 
Q 14.5 44.390625 14.5 40.28125 
Q 14.5 37.15625 16.890625 35.375 
Q 19.28125 33.59375 26.515625 31.984375 
L 29.59375 31.296875 
Q 39.15625 29.25 43.1875 25.515625 
Q 47.21875 21.78125 47.21875 15.09375 
Q 47.21875 7.46875 41.1875 3.015625 
Q 35.15625 -1.421875 24.609375 -1.421875 
Q 20.21875 -1.421875 15.453125 -0.5625 
Q 10.6875 0.296875 5.421875 2 
L 5.421875 11.28125 
Q 10.40625 8.6875 15.234375 7.390625 
Q 20.0625 6.109375 24.8125 6.109375 
Q 31.15625 6.109375 34.5625 8.28125 
Q 37.984375 10.453125 37.984375 14.40625 
Q 37.984375 18.0625 35.515625 20.015625 
Q 33.0625 21.96875 24.703125 23.78125 
L 21.578125 24.515625 
Q 13.234375 26.265625 9.515625 29.90625 
Q 5.8125 33.546875 5.8125 39.890625 
Q 5.8125 47.609375 11.28125 51.796875 
Q 16.75 56 26.8125 56 
Q 31.78125 56 36.171875 55.265625 
Q 40.578125 54.546875 44.28125 53.078125 
z
" id="DejaVuSans-73"/>
      <path d="M 32.171875 -5.078125 
Q 28.375 -14.84375 24.75 -17.8125 
Q 21.140625 -20.796875 15.09375 -20.796875 
L 7.90625 -20.796875 
L 7.90625 -13.28125 
L 13.1875 -13.28125 
Q 16.890625 -13.28125 18.9375 -11.515625 
Q 21 -9.765625 23.484375 -3.21875 
L 25.09375 0.875 
L 2.984375 54.6875 
L 12.5 54.6875 
L 29.59375 11.921875 
L 46.6875 54.6875 
L 56.203125 54.6875 
z
" id="DejaVuSans-79"/>
     </defs>
     <g transform="translate(196.987344 335.860562)scale(0.1 -0.1)">
      <use xlink:href="#DejaVuSans-54"/>
      <use x="60.865234" xlink:href="#DejaVuSans-72"/>
      <use x="101.978516" xlink:href="#DejaVuSans-61"/>
      <use x="163.257812" xlink:href="#DejaVuSans-66"/>
      <use x="198.462891" xlink:href="#DejaVuSans-66"/>
      <use x="233.667969" xlink:href="#DejaVuSans-69"/>
      <use x="261.451172" xlink:href="#DejaVuSans-63"/>
      <use x="316.431641" xlink:href="#DejaVuSans-20"/>
      <use x="348.21875" xlink:href="#DejaVuSans-49"/>
      <use x="377.710938" xlink:href="#DejaVuSans-6e"/>
      <use x="441.089844" xlink:href="#DejaVuSans-74"/>
      <use x="480.298828" xlink:href="#DejaVuSans-65"/>
      <use x="541.822266" xlink:href="#DejaVuSans-6e"/>
      <use x="605.201172" xlink:href="#DejaVuSans-73"/>
      <use x="657.300781" xlink:href="#DejaVuSans-69"/>
      <use x="685.083984" xlink:href="#DejaVuSans-74"/>
      <use x="724.292969" xlink:href="#DejaVuSans-79"/>
     </g>
    </g>
   </g>
   <g id="matplotlib.axis_2">
    <g id="ytick_1">
     <g id="line2d_11">
      <path clip-path="url(#p5aa36a52bc)" d="M 57.6 296.302738 
L 414.72 296.302738 
" style="fill:none;stroke:#b0b0b0;stroke-linecap:square;stroke-width:0.8;"/>
     </g>
     <g id="line2d_12">
      <defs>
       <path d="M 0 0 
L -3.5 0 
" id="m946edb39aa" style="stroke:#000000;stroke-width:0.8;"/>
      </defs>
      <g>
       <use style="stroke:#000000;stroke-width:0.8;" x="57.6" xlink:href="#m946edb39aa" y="296.302738"/>
      </g>
     </g>
     <g id="text_7">
      <!-- 0.0 -->
      <g transform="translate(34.696875 300.101956)scale(0.1 -0.1)">
       <use xlink:href="#DejaVuSans-30"/>
       <use x="63.623047" xlink:href="#DejaVuSans-2e"/>
       <use x="95.410156" xlink:href="#DejaVuSans-30"/>
      </g>
     </g>
    </g>
    <g id="ytick_2">
     <g id="line2d_13">
      <path clip-path="url(#p5aa36a52bc)" d="M 57.6 263.713231 
L 414.72 263.713231 
" style="fill:none;stroke:#b0b0b0;stroke-linecap:square;stroke-width:0.8;"/>
     </g>
     <g id="line2d_14">
      <g>
       <use style="stroke:#000000;stroke-width:0.8;" x="57.6" xlink:href="#m946edb39aa" y="263.713231"/>
      </g>
     </g>
     <g id="text_8">
      <!-- 0.2 -->
      <g transform="translate(34.696875 267.51245)scale(0.1 -0.1)">
       <use xlink:href="#DejaVuSans-30"/>
       <use x="63.623047" xlink:href="#DejaVuSans-2e"/>
       <use x="95.410156" xlink:href="#DejaVuSans-32"/>
      </g>
     </g>
    </g>
    <g id="ytick_3">
     <g id="line2d_15">
      <path clip-path="url(#p5aa36a52bc)" d="M 57.6 231.123724 
L 414.72 231.123724 
" style="fill:none;stroke:#b0b0b0;stroke-linecap:square;stroke-width:0.8;"/>
     </g>
     <g id="line2d_16">
      <g>
       <use style="stroke:#000000;stroke-width:0.8;" x="57.6" xlink:href="#m946edb39aa" y="231.123724"/>
      </g>
     </g>
     <g id="text_9">
      <!-- 0.4 -->
      <g transform="translate(34.696875 234.922943)scale(0.1 -0.1)">
       <use xlink:href="#DejaVuSans-30"/>
       <use x="63.623047" xlink:href="#DejaVuSans-2e"/>
       <use x="95.410156" xlink:href="#DejaVuSans-34"/>
      </g>
     </g>
    </g>
    <g id="ytick_4">
     <g id="line2d_17">
      <path clip-path="url(#p5aa36a52bc)" d="M 57.6 198.534217 
L 414.72 198.534217 
" style="fill:none;stroke:#b0b0b0;stroke-linecap:square;stroke-width:0.8;"/>
     </g>
     <g id="line2d_18">
      <g>
       <use style="stroke:#000000;stroke-width:0.8;" x="57.6" xlink:href="#m946edb39aa" y="198.534217"/>
      </g>
     </g>
     <g id="text_10">
      <!-- 0.6 -->
      <g transform="translate(34.696875 202.333436)scale(0.1 -0.1)">
       <use xlink:href="#DejaVuSans-30"/>
       <use x="63.623047" xlink:href="#DejaVuSans-2e"/>
       <use x="95.410156" xlink:href="#DejaVuSans-36"/>
      </g>
     </g>
    </g>
    <g id="ytick_5">
     <g id="line2d_19">
      <path clip-path="url(#p5aa36a52bc)" d="M 57.6 165.94471 
L 414.72 165.94471 
" style="fill:none;stroke:#b0b0b0;stroke-linecap:square;stroke-width:0.8;"/>
     </g>
     <g id="line2d_20">
      <g>
       <use style="stroke:#000000;stroke-width:0.8;" x="57.6" xlink:href="#m946edb39aa" y="165.94471"/>
      </g>
     </g>
     <g id="text_11">
      <!-- 0.8 -->
      <g transform="translate(34.696875 169.743929)scale(0.1 -0.1)">
       <use xlink:href="#DejaVuSans-30"/>
       <use x="63.623047" xlink:href="#DejaVuSans-2e"/>
       <use x="95.410156" xlink:href="#DejaVuSans-38"/>
      </g>
     </g>
    </g>
    <g id="ytick_6">
     <g id="line2d_21">
      <path clip-path="url(#p5aa36a52bc)" d="M 57.6 133.355204 
L 414.72 133.355204 
" style="fill:none;stroke:#b0b0b0;stroke-linecap:square;stroke-width:0.8;"/>
     </g>
     <g id="line2d_22">
      <g>
       <use style="stroke:#000000;stroke-width:0.8;" x="57.6" xlink:href="#m946edb39aa" y="133.355204"/>
      </g>
     </g>
     <g id="text_12">
      <!-- 1.0 -->
      <g transform="translate(34.696875 137.154422)scale(0.1 -0.1)">
       <use xlink:href="#DejaVuSans-31"/>
       <use x="63.623047" xlink:href="#DejaVuSans-2e"/>
       <use x="95.410156" xlink:href="#DejaVuSans-30"/>
      </g>
     </g>
    </g>
    <g id="ytick_7">
     <g id="line2d_23">
      <path clip-path="url(#p5aa36a52bc)" d="M 57.6 100.765697 
L 414.72 100.765697 
" style="fill:none;stroke:#b0b0b0;stroke-linecap:square;stroke-width:0.8;"/>
     </g>
     <g id="line2d_24">
      <g>
       <use style="stroke:#000000;stroke-width:0.8;" x="57.6" xlink:href="#m946edb39aa" y="100.765697"/>
      </g>
     </g>
     <g id="text_13">
      <!-- 1.2 -->
      <g transform="translate(34.696875 104.564916)scale(0.1 -0.1)">
       <use xlink:href="#DejaVuSans-31"/>
       <use x="63.623047" xlink:href="#DejaVuSans-2e"/>
       <use x="95.410156" xlink:href="#DejaVuSans-32"/>
      </g>
     </g>
    </g>
    <g id="ytick_8">
     <g id="line2d_25">
      <path clip-path="url(#p5aa36a52bc)" d="M 57.6 68.17619 
L 414.72 68.17619 
" style="fill:none;stroke:#b0b0b0;stroke-linecap:square;stroke-width:0.8;"/>
     </g>
     <g id="line2d_26">
      <g>
       <use style="stroke:#000000;stroke-width:0.8;" x="57.6" xlink:href="#m946edb39aa" y="68.17619"/>
      </g>
     </g>
     <g id="text_14">
      <!-- 1.4 -->
      <g transform="translate(34.696875 71.975409)scale(0.1 -0.1)">
       <use xlink:href="#DejaVuSans-31"/>
       <use x="63.623047" xlink:href="#DejaVuSans-2e"/>
       <use x="95.410156" xlink:href="#DejaVuSans-34"/>
      </g>
     </g>
    </g>
    <g id="text_15">
     <!-- $(1-2\lambda) E[\sum_{i,j} Q_{i,j}]$ -->
     <defs>
      <path d="M 31 75.875 
Q 24.46875 64.65625 21.28125 53.65625 
Q 18.109375 42.671875 18.109375 31.390625 
Q 18.109375 20.125 21.3125 9.0625 
Q 24.515625 -2 31 -13.1875 
L 23.1875 -13.1875 
Q 15.875 -1.703125 12.234375 9.375 
Q 8.59375 20.453125 8.59375 31.390625 
Q 8.59375 42.28125 12.203125 53.3125 
Q 15.828125 64.359375 23.1875 75.875 
z
" id="DejaVuSans-28"/>
      <path d="M 10.59375 35.5 
L 73.1875 35.5 
L 73.1875 27.203125 
L 10.59375 27.203125 
z
" id="DejaVuSans-2212"/>
      <path d="M 36.71875 67.4375 
L 48.828125 0 
L 39.3125 0 
L 31.84375 40.4375 
L 5.125 0 
L -4.390625 0 
L 29.734375 52.4375 
L 28.03125 62.109375 
Q 26.953125 68.265625 21.734375 68.265625 
L 17.046875 68.265625 
L 18.5 75.984375 
L 24.21875 75.875 
Q 35.203125 75.734375 36.71875 67.4375 
z
" id="DejaVuSans-Oblique-3bb"/>
      <path d="M 8.015625 75.875 
L 15.828125 75.875 
Q 23.140625 64.359375 26.78125 53.3125 
Q 30.421875 42.28125 30.421875 31.390625 
Q 30.421875 20.453125 26.78125 9.375 
Q 23.140625 -1.703125 15.828125 -13.1875 
L 8.015625 -13.1875 
Q 14.5 -2 17.703125 9.0625 
Q 20.90625 20.125 20.90625 31.390625 
Q 20.90625 42.671875 17.703125 53.65625 
Q 14.5 64.65625 8.015625 75.875 
z
" id="DejaVuSans-29"/>
      <path d="M 16.890625 72.90625 
L 62.984375 72.90625 
L 61.375 64.59375 
L 25.09375 64.59375 
L 20.90625 43.015625 
L 55.71875 43.015625 
L 54.109375 34.71875 
L 19.28125 34.71875 
L 14.203125 8.296875 
L 51.3125 8.296875 
L 49.703125 0 
L 2.6875 0 
z
" id="DejaVuSans-Oblique-45"/>
      <path d="M 8.59375 75.984375 
L 29.296875 75.984375 
L 29.296875 69 
L 17.578125 69 
L 17.578125 -6.203125 
L 29.296875 -6.203125 
L 29.296875 -13.1875 
L 8.59375 -13.1875 
z
" id="DejaVuSans-5b"/>
      <path d="M 3.8125 101.703125 
L 90.671875 101.703125 
L 90.671875 88.375 
L 24.46875 88.375 
L 70.84375 38.875 
L 22.953125 -13.875 
L 92.484375 -13.875 
L 92.484375 -27.15625 
L 1.703125 -27.15625 
L 1.703125 -16.84375 
L 51.8125 38.484375 
L 3.8125 89.5 
z
" id="DejaVuSansDisplay-2211"/>
      <path d="M 18.3125 75.984375 
L 27.296875 75.984375 
L 25.09375 64.59375 
L 16.109375 64.59375 
z
M 14.203125 54.6875 
L 23.1875 54.6875 
L 12.5 0 
L 3.515625 0 
z
" id="DejaVuSans-Oblique-69"/>
      <path d="M 11.71875 12.40625 
L 22.015625 12.40625 
L 22.015625 4 
L 14.015625 -11.625 
L 7.71875 -11.625 
L 11.71875 4 
z
" id="DejaVuSans-2c"/>
      <path d="M 14.5 54.6875 
L 23.484375 54.6875 
L 12.703125 -0.984375 
L 12.640625 -1.21875 
Q 10.84375 -10.546875 8.5 -14.015625 
Q 6.296875 -17.28125 2.0625 -19.03125 
Q -2.15625 -20.796875 -7.90625 -20.796875 
L -11.28125 -20.796875 
L -9.8125 -13.1875 
L -7.515625 -13.1875 
Q -2.25 -13.1875 -0.015625 -10.984375 
Q 2.203125 -8.796875 3.71875 -0.984375 
z
M 18.703125 75.984375 
L 27.6875 75.984375 
L 25.484375 64.59375 
L 16.5 64.59375 
z
" id="DejaVuSans-Oblique-6a"/>
      <path d="M 36.078125 -1.3125 
Q 35.546875 -1.375 34.953125 -1.390625 
Q 34.375 -1.421875 33.203125 -1.421875 
Q 19.53125 -1.421875 11.8125 6.421875 
Q 4.109375 14.265625 4.109375 28.078125 
Q 4.109375 36.234375 7.0625 44.4375 
Q 10.015625 52.640625 15.28125 59.1875 
Q 21.390625 66.703125 29.03125 70.453125 
Q 36.671875 74.21875 45.90625 74.21875 
Q 59.28125 74.21875 66.984375 66.328125 
Q 74.703125 58.453125 74.703125 44.828125 
Q 74.703125 30.125 66.640625 17.921875 
Q 58.59375 5.71875 45.609375 0.6875 
L 55.515625 -12.890625 
L 44.484375 -12.890625 
z
M 45.609375 66.21875 
Q 37.5 66.21875 31.296875 62.28125 
Q 25.09375 58.34375 20.515625 50.296875 
Q 17.578125 45.171875 16.03125 39.40625 
Q 14.5 33.640625 14.5 27.78125 
Q 14.5 17.625 19.359375 12.109375 
Q 24.21875 6.59375 33.109375 6.59375 
Q 41.109375 6.59375 47.375 10.5625 
Q 53.65625 14.546875 58.109375 22.40625 
Q 61.078125 27.6875 62.640625 33.46875 
Q 64.203125 39.265625 64.203125 45.015625 
Q 64.203125 55.125 59.3125 60.671875 
Q 54.4375 66.21875 45.609375 66.21875 
z
" id="DejaVuSans-Oblique-51"/>
      <path d="M 30.421875 75.984375 
L 30.421875 -13.1875 
L 9.71875 -13.1875 
L 9.71875 -6.203125 
L 21.390625 -6.203125 
L 21.390625 69 
L 9.71875 69 
L 9.71875 75.984375 
z
" id="DejaVuSans-5d"/>
     </defs>
     <g transform="translate(21.196875 213.328)rotate(-90)scale(0.1 -0.1)">
      <use transform="translate(0 0.546875)" xlink:href="#DejaVuSans-28"/>
      <use transform="translate(39.013672 0.546875)" xlink:href="#DejaVuSans-31"/>
      <use transform="translate(122.119141 0.546875)" xlink:href="#DejaVuSans-2212"/>
      <use transform="translate(225.390625 0.546875)" xlink:href="#DejaVuSans-32"/>
      <use transform="translate(289.013672 0.546875)" xlink:href="#DejaVuSans-Oblique-3bb"/>
      <use transform="translate(348.193359 0.546875)" xlink:href="#DejaVuSans-29"/>
      <use transform="translate(387.207031 0.546875)" xlink:href="#DejaVuSans-Oblique-45"/>
      <use transform="translate(450.390625 0.546875)" xlink:href="#DejaVuSans-5b"/>
      <use transform="translate(489.404297 19.296875)" xlink:href="#DejaVuSansDisplay-2211"/>
      <use transform="translate(497.404297 -79.798438)scale(0.7)" xlink:href="#DejaVuSans-Oblique-69"/>
      <use transform="translate(516.852539 -79.798438)scale(0.7)" xlink:href="#DejaVuSans-2c"/>
      <use transform="translate(552.741211 -79.798438)scale(0.7)" xlink:href="#DejaVuSans-Oblique-6a"/>
      <use transform="translate(580.169922 0.546875)" xlink:href="#DejaVuSans-Oblique-51"/>
      <use transform="translate(658.880859 -15.859375)scale(0.7)" xlink:href="#DejaVuSans-Oblique-69"/>
      <use transform="translate(678.329102 -15.859375)scale(0.7)" xlink:href="#DejaVuSans-2c"/>
      <use transform="translate(714.217773 -15.859375)scale(0.7)" xlink:href="#DejaVuSans-Oblique-6a"/>
      <use transform="translate(736.400391 0.546875)" xlink:href="#DejaVuSans-5d"/>
     </g>
    </g>
   </g>
   <g id="line2d_27">
    <path clip-path="url(#p5aa36a52bc)" d="M 73.832727 294.676969 
L 109.913472 289.820359 
L 145.994218 281.973596 
L 182.074963 271.358729 
L 218.155708 258.631101 
L 254.236453 244.300509 
L 290.317199 229.06265 
L 326.397944 212.571246 
L 362.478689 195.100991 
L 366.086764 193.226743 
L 366.158925 192.795537 
L 366.231087 193.296289 
L 366.375409 192.335101 
L 366.447571 193.262144 
L 366.519732 192.961497 
L 366.591894 193.391596 
L 366.736217 192.374772 
L 366.808378 192.638508 
L 366.88054 192.726787 
L 367.024863 191.929207 
L 367.169186 192.598188 
L 367.241347 192.759126 
L 367.313509 191.790215 
L 367.38567 192.274224 
L 367.529993 192.574989 
L 367.602155 191.644388 
L 367.746478 192.563782 
L 367.818639 192.609879 
L 367.962962 191.624929 
L 368.035124 191.520594 
L 368.107285 191.720529 
L 368.179447 192.382482 
L 368.251608 191.572933 
L 368.32377 192.58986 
L 368.395931 192.057123 
L 368.468093 191.100936 
L 368.612416 191.944568 
L 368.756739 191.313943 
L 368.8289 192.157671 
L 368.973223 190.874203 
L 369.045385 191.168503 
L 369.117546 190.707129 
L 369.261869 191.357015 
L 369.478354 190.689168 
L 369.622677 191.709 
L 369.694838 190.597338 
L 369.767 191.157271 
L 369.839161 190.723562 
L 369.911323 191.528529 
L 370.055645 190.716591 
L 370.27213 190.424795 
L 370.344291 190.566558 
L 370.416453 191.38427 
L 370.488614 190.949958 
L 370.560776 190.945282 
L 370.632937 190.59102 
L 370.705099 190.805934 
L 370.849422 189.799178 
L 370.993745 190.856047 
L 371.065906 189.946027 
L 371.210229 191.165393 
L 371.282391 189.704226 
L 371.354552 189.999336 
L 371.426714 190.479066 
L 371.498875 190.467135 
L 371.571037 190.562156 
L 371.643198 189.503481 
L 371.71536 190.108277 
L 371.787521 189.987188 
L 371.859683 189.08556 
L 371.931844 190.294558 
L 372.004006 189.877128 
L 372.076167 190.114113 
L 372.148329 189.441652 
L 372.292652 190.195957 
L 372.364813 189.827785 
L 372.436975 190.174234 
L 372.509136 190.066725 
L 372.581298 188.513366 
L 372.653459 189.789687 
L 372.797782 188.792299 
L 372.869944 189.540084 
L 372.942105 189.261837 
L 373.014267 189.864315 
L 373.15859 188.820298 
L 373.230751 189.067467 
L 373.375074 189.381354 
L 373.447236 189.210608 
L 373.519397 187.868128 
L 373.591559 188.625979 
L 373.66372 188.43538 
L 373.880204 189.608847 
L 373.952366 188.284154 
L 374.096689 190.258124 
L 374.241012 188.803916 
L 374.313173 189.023305 
L 374.457496 188.3788 
L 374.529658 187.133199 
L 374.601819 187.338603 
L 374.818304 188.891981 
L 374.962627 187.304371 
L 375.034788 187.521182 
L 375.10695 187.118248 
L 375.179111 188.59381 
L 375.251273 188.112962 
L 375.323434 188.292864 
L 375.395596 187.982498 
L 375.467757 188.414098 
L 375.539919 187.397441 
L 375.61208 187.56319 
L 375.684242 188.038767 
L 375.828565 186.905429 
L 375.972888 187.55482 
L 376.045049 186.699922 
L 376.189372 187.529011 
L 376.261534 186.740099 
L 376.333695 187.84119 
L 376.405857 187.229732 
L 376.478018 187.512122 
L 376.55018 187.295926 
L 376.622341 187.935375 
L 376.766664 186.170133 
L 376.910987 187.523694 
L 376.983149 186.689675 
L 377.05531 187.370255 
L 377.127472 187.173149 
L 377.199633 187.282331 
L 377.416118 186.163193 
L 377.488279 186.534656 
L 377.560441 186.313002 
L 377.632602 186.979758 
L 377.704763 186.734095 
L 377.776925 187.007462 
L 377.849086 186.227301 
L 377.921248 186.42348 
L 377.993409 186.63063 
L 378.065571 187.244891 
L 378.137732 185.679597 
L 378.209894 186.359526 
L 378.282055 187.759119 
L 378.426378 185.75661 
L 378.570701 186.35709 
L 378.642863 186.856914 
L 378.787186 185.402914 
L 379.00367 186.600536 
L 379.147993 185.440915 
L 379.220155 186.787954 
L 379.292316 184.837553 
L 379.364478 185.576697 
L 379.436639 185.390593 
L 379.508801 185.731229 
L 379.580962 185.394658 
L 379.725285 186.205622 
L 380.013931 184.009197 
L 380.086093 186.03929 
L 380.158254 185.642797 
L 380.230416 184.783432 
L 380.374739 185.623767 
L 380.4469 185.102158 
L 380.519062 183.701205 
L 380.663385 185.767678 
L 381.096354 182.866872 
L 381.240677 184.674618 
L 381.312838 184.169468 
L 381.384999 185.09133 
L 381.457161 184.384573 
L 381.529322 184.512452 
L 381.601484 184.221045 
L 381.673645 183.403734 
L 381.745807 184.828039 
L 381.817968 184.488461 
L 381.89013 184.640835 
L 381.962291 185.068582 
L 382.034453 184.570822 
L 382.106614 182.686978 
L 382.178776 185.335892 
L 382.250937 183.202328 
L 382.323099 184.395159 
L 382.39526 182.462609 
L 382.467422 184.417807 
L 382.539583 184.398961 
L 382.611745 183.147484 
L 382.683906 185.074151 
L 382.756068 183.42887 
L 382.828229 184.145844 
L 382.900391 182.913102 
L 383.044714 184.713401 
L 383.189037 182.045259 
L 383.261198 182.569819 
L 383.405521 184.172718 
L 383.477683 183.887708 
L 383.549844 183.934063 
L 383.694167 181.334389 
L 383.766329 181.667316 
L 383.83849 184.138265 
L 383.910652 183.11413 
L 383.982813 183.137851 
L 384.054975 183.444871 
L 384.127136 182.091623 
L 384.271459 184.286898 
L 384.487944 182.003339 
L 384.560105 183.996972 
L 384.704428 182.356803 
L 384.77659 182.391363 
L 384.848751 183.395152 
L 384.920913 183.083524 
L 384.993074 183.762893 
L 385.065236 180.836374 
L 385.137397 181.150682 
L 385.353881 184.103075 
L 385.570366 181.109696 
L 385.642527 182.389004 
L 385.714689 181.839153 
L 385.78685 181.566556 
L 386.003335 182.613287 
L 386.075496 180.519717 
L 386.147658 182.092469 
L 386.219819 180.909179 
L 386.291981 181.440964 
L 386.364142 183.298183 
L 386.508465 180.039292 
L 386.652788 180.926004 
L 386.72495 180.017483 
L 386.797111 181.141593 
L 386.869273 180.698102 
L 386.941434 180.53899 
L 387.013596 181.81488 
L 387.085757 181.415271 
L 387.157919 181.015402 
L 387.23008 181.175215 
L 387.374403 183.570785 
L 387.518726 179.541539 
L 387.590888 181.39767 
L 387.735211 179.503529 
L 387.807372 181.665601 
L 387.879534 180.556594 
L 387.951695 180.219673 
L 388.096018 182.074621 
L 388.312503 178.936187 
L 388.384664 180.051294 
L 388.456826 181.369447 
L 388.528987 178.213828 
L 388.67331 181.004861 
L 388.745472 180.355314 
L 388.817633 180.376079 
L 388.889794 181.51281 
L 389.034117 178.249651 
L 389.106279 181.153617 
L 389.17844 178.395077 
L 389.250602 178.757209 
L 389.322763 178.42628 
L 389.394925 179.532773 
L 389.467086 179.427924 
L 389.539248 178.631849 
L 389.611409 179.898094 
L 389.683571 179.262007 
L 389.755732 178.891974 
L 389.900055 180.986565 
L 389.972217 179.306337 
L 390.044378 181.546846 
L 390.11654 177.876385 
L 390.188701 179.390923 
L 390.260863 178.983331 
L 390.333024 180.203489 
L 390.405186 178.072925 
L 390.477347 178.640812 
L 390.549509 179.502181 
L 390.693832 177.880684 
L 390.765993 179.054672 
L 390.838155 177.421809 
L 390.910316 181.735877 
L 390.982478 179.817691 
L 391.054639 177.27461 
L 391.126801 179.944946 
L 391.198962 178.492956 
L 391.343285 181.103088 
L 391.55977 175.879418 
L 391.704093 180.204466 
L 391.848416 174.559557 
L 391.920577 176.58871 
L 392.0649 181.133096 
L 392.209223 176.398377 
L 392.353546 179.030983 
L 392.425708 174.879837 
L 392.570031 181.154158 
L 392.642192 177.552038 
L 392.714353 178.407854 
L 392.786515 177.746569 
L 392.858676 180.599883 
L 392.930838 180.433409 
L 393.147322 177.7305 
L 393.219484 176.763942 
L 393.291645 173.398996 
L 393.363807 177.740077 
L 393.435968 177.611888 
L 393.50813 178.798843 
L 393.580291 174.4391 
L 393.724614 178.967265 
L 393.941099 175.233647 
L 394.01326 175.379954 
L 394.085422 177.429621 
L 394.157583 173.430636 
L 394.301906 179.591051 
L 394.446229 173.528989 
L 394.662714 177.447364 
L 394.734875 176.771909 
L 394.807037 179.402242 
L 395.023521 174.565888 
L 395.095683 179.197241 
L 395.167844 174.08805 
L 395.240006 178.42814 
L 395.312167 173.823539 
L 395.384329 178.827941 
L 395.45649 174.048861 
L 395.528652 182.275999 
L 395.600813 174.700565 
L 395.672975 178.326583 
L 395.889459 172.898155 
L 395.961621 183.365095 
L 396.033782 174.637108 
L 396.105944 175.976727 
L 396.250267 181.804483 
L 396.39459 170.605683 
L 396.466751 174.417497 
L 396.538912 173.524254 
L 396.683235 180.970451 
L 396.755397 161.466819 
L 396.827558 181.512699 
L 396.89972 176.978852 
L 396.971881 160.743955 
L 397.044043 165.100398 
L 397.188366 175.359279 
L 397.260527 162.191406 
L 397.332689 186.39881 
L 397.40485 161.238919 
L 397.477012 184.659966 
L 397.549173 169.579992 
L 397.621335 183.865153 
L 397.693496 156.707896 
L 397.765658 188.90832 
L 397.837819 177.95504 
L 397.909981 178.517133 
L 397.982142 196.653868 
L 398.054304 188.782113 
L 398.198627 170.785827 
L 398.415111 246.620021 
L 398.487273 252.32586 
L 398.487273 252.32586 
" style="fill:none;stroke:#1f77b4;stroke-linecap:square;stroke-width:4;"/>
   </g>
   <g id="line2d_28">
    <path clip-path="url(#p5aa36a52bc)" d="M 73.832727 294.677336 
L 109.913472 289.834807 
L 145.994218 281.908105 
L 182.074963 271.01812 
L 218.155708 257.605468 
L 254.236453 242.253834 
L 290.317199 225.421905 
L 326.397944 208.092676 
L 362.478689 189.998124 
L 366.086764 189.051991 
L 366.158925 189.588557 
L 366.231087 189.402397 
L 366.303248 189.08594 
L 366.375409 189.146823 
L 366.591894 189.449775 
L 366.664055 188.025232 
L 366.736217 188.821539 
L 366.808378 188.731846 
L 366.88054 189.05537 
L 366.952701 187.967739 
L 367.024863 188.999951 
L 367.097024 188.578064 
L 367.169186 188.521102 
L 367.241347 189.128874 
L 367.313509 188.858274 
L 367.38567 188.797478 
L 367.457832 188.987616 
L 367.602155 188.113878 
L 367.674316 188.120621 
L 367.746478 187.657894 
L 368.035124 189.292882 
L 368.107285 187.645924 
L 368.179447 188.233119 
L 368.251608 187.654828 
L 368.32377 188.35378 
L 368.395931 187.683272 
L 368.468093 187.884145 
L 368.540254 188.322569 
L 368.612416 187.964182 
L 368.684577 188.004488 
L 368.8289 187.9756 
L 368.901062 187.732121 
L 368.973223 186.853332 
L 369.117546 188.327205 
L 369.189708 186.982489 
L 369.261869 187.90345 
L 369.334031 186.894095 
L 369.478354 187.652069 
L 369.550515 187.456279 
L 369.622677 188.048737 
L 369.694838 186.985446 
L 369.767 187.331034 
L 369.911323 186.659887 
L 370.127807 187.561509 
L 370.199968 187.35518 
L 370.344291 186.092937 
L 370.416453 187.325051 
L 370.488614 187.25052 
L 370.560776 185.825961 
L 370.632937 187.454978 
L 370.705099 186.126627 
L 370.921583 187.418536 
L 370.993745 185.751825 
L 371.065906 186.49206 
L 371.138068 186.698978 
L 371.210229 187.618988 
L 371.282391 185.866103 
L 371.354552 186.357247 
L 371.498875 186.945234 
L 371.643198 186.580987 
L 371.71536 186.308206 
L 371.787521 186.432532 
L 371.859683 187.409715 
L 371.931844 186.128742 
L 372.004006 186.525277 
L 372.148329 185.872149 
L 372.22049 186.436297 
L 372.292652 185.754706 
L 372.364813 186.878766 
L 372.436975 186.083623 
L 372.509136 186.950599 
L 372.581298 185.925568 
L 372.653459 186.168968 
L 372.725621 186.70351 
L 372.942105 184.835088 
L 373.014267 184.82948 
L 373.086428 185.592396 
L 373.15859 184.605016 
L 373.230751 186.574472 
L 373.302913 186.08712 
L 373.375074 185.33127 
L 373.447236 185.602361 
L 373.519397 185.570637 
L 373.591559 185.092161 
L 373.66372 185.850682 
L 373.735882 184.989255 
L 373.808043 185.400839 
L 373.880204 185.33298 
L 373.952366 184.745828 
L 374.024527 185.5651 
L 374.096689 185.192657 
L 374.241012 184.689572 
L 374.313173 184.684424 
L 374.385335 184.348608 
L 374.673981 185.605387 
L 374.818304 184.422274 
L 374.890465 186.006252 
L 374.962627 185.305898 
L 375.10695 184.460373 
L 375.251273 184.963957 
L 375.395596 183.965108 
L 375.539919 184.701133 
L 375.61208 184.137112 
L 375.684242 185.101715 
L 375.756403 183.922607 
L 375.900726 185.051023 
L 375.972888 183.682738 
L 376.045049 184.689713 
L 376.261534 183.743816 
L 376.333695 184.446704 
L 376.405857 183.556112 
L 376.478018 183.873588 
L 376.55018 184.421984 
L 376.622341 183.367141 
L 376.694503 184.92495 
L 376.766664 184.564639 
L 376.838826 182.843683 
L 376.910987 184.454501 
L 376.983149 184.003266 
L 377.05531 184.310657 
L 377.127472 184.185872 
L 377.271795 182.78253 
L 377.343956 183.004176 
L 377.416118 183.331389 
L 377.488279 182.999412 
L 377.560441 184.819802 
L 377.632602 182.8923 
L 377.704763 183.3978 
L 377.849086 182.053163 
L 377.921248 182.247468 
L 377.993409 183.571975 
L 378.065571 182.293485 
L 378.137732 184.64999 
L 378.209894 183.649843 
L 378.282055 183.981808 
L 378.354217 185.054211 
L 378.49854 182.746138 
L 378.570701 182.619587 
L 378.642863 183.362095 
L 378.859347 182.468896 
L 378.931509 183.677097 
L 379.00367 183.091003 
L 379.075832 183.104114 
L 379.147993 183.820875 
L 379.220155 182.540944 
L 379.364478 184.622079 
L 379.508801 182.117064 
L 379.580962 181.514766 
L 379.653124 181.799147 
L 379.725285 183.344692 
L 379.797447 182.749891 
L 379.869608 181.50877 
L 380.013931 182.657868 
L 380.158254 181.726892 
L 380.302577 182.815858 
L 380.374739 182.284737 
L 380.4469 182.681471 
L 380.663385 181.662262 
L 380.807708 182.624589 
L 380.952031 181.858203 
L 381.024192 182.090347 
L 381.168515 183.012049 
L 381.240677 182.717015 
L 381.312838 181.376971 
L 381.529322 183.12755 
L 381.745807 181.249864 
L 381.817968 181.312325 
L 381.89013 181.994192 
L 381.962291 181.462076 
L 382.034453 182.425682 
L 382.106614 181.322215 
L 382.178776 181.912527 
L 382.39526 181.324446 
L 382.467422 180.558409 
L 382.539583 180.568742 
L 382.683906 182.212414 
L 382.756068 181.946726 
L 382.828229 181.135023 
L 383.044714 182.602047 
L 383.189037 180.425699 
L 383.261198 181.320151 
L 383.405521 180.632618 
L 383.477683 181.948202 
L 383.549844 180.722097 
L 383.694167 182.610915 
L 383.83849 179.74318 
L 383.910652 180.723761 
L 383.982813 180.387494 
L 384.199298 181.123391 
L 384.271459 180.723443 
L 384.343621 181.736638 
L 384.415782 181.224647 
L 384.487944 180.652846 
L 384.560105 182.046008 
L 384.632267 180.161772 
L 384.704428 181.357796 
L 384.848751 178.428624 
L 384.920913 182.132504 
L 384.993074 181.331071 
L 385.137397 179.319154 
L 385.209558 179.524138 
L 385.28172 182.442084 
L 385.426043 178.674213 
L 385.642527 181.183007 
L 385.714689 179.611202 
L 385.78685 179.917626 
L 385.859012 179.248695 
L 385.931173 179.598651 
L 386.003335 180.813395 
L 386.075496 180.047726 
L 386.147658 180.812305 
L 386.291981 179.201522 
L 386.364142 179.239689 
L 386.508465 180.428689 
L 386.580627 179.568249 
L 386.652788 181.25478 
L 386.797111 177.762391 
L 386.869273 177.928566 
L 386.941434 180.387526 
L 387.013596 177.276538 
L 387.085757 180.62399 
L 387.23008 177.718759 
L 387.374403 181.053403 
L 387.518726 179.369566 
L 387.590888 179.84753 
L 387.735211 177.947476 
L 387.807372 180.174584 
L 387.879534 179.356259 
L 387.951695 178.745336 
L 388.023857 178.941216 
L 388.096018 178.716193 
L 388.16818 179.503947 
L 388.240341 178.696118 
L 388.312503 176.203852 
L 388.456826 181.896745 
L 388.601149 179.233698 
L 388.67331 181.281145 
L 388.817633 176.640584 
L 388.889794 179.168624 
L 388.961956 178.936811 
L 389.034117 179.012369 
L 389.106279 178.831411 
L 389.17844 177.968129 
L 389.250602 180.029287 
L 389.394925 177.401413 
L 389.539248 179.70534 
L 389.611409 177.381042 
L 389.683571 179.42415 
L 389.755732 175.037616 
L 389.900055 179.680313 
L 389.972217 177.210692 
L 390.044378 179.379312 
L 390.11654 177.359259 
L 390.188701 181.475818 
L 390.260863 180.026416 
L 390.333024 177.003011 
L 390.405186 178.623585 
L 390.62167 177.641714 
L 390.693832 177.323486 
L 390.765993 180.067322 
L 390.982478 177.204086 
L 391.054639 178.534095 
L 391.271124 174.122866 
L 391.343285 178.082081 
L 391.415447 174.476765 
L 391.487608 178.267085 
L 391.55977 177.746953 
L 391.631931 175.185483 
L 391.704093 176.111791 
L 391.776254 176.682596 
L 391.920577 179.840178 
L 392.209223 176.184475 
L 392.281385 176.949294 
L 392.353546 172.612147 
L 392.425708 179.162435 
L 392.497869 176.457952 
L 392.570031 176.38922 
L 392.642192 175.06035 
L 392.714353 183.784779 
L 392.858676 175.509097 
L 393.002999 178.615559 
L 393.075161 171.815255 
L 393.219484 178.793414 
L 393.291645 175.43709 
L 393.363807 177.096658 
L 393.435968 176.78326 
L 393.580291 179.594442 
L 393.652453 171.983146 
L 393.796776 178.148081 
L 393.868937 176.640257 
L 393.941099 171.198802 
L 394.01326 179.264414 
L 394.085422 173.329973 
L 394.157583 174.373321 
L 394.229745 178.164665 
L 394.301906 172.050128 
L 394.446229 182.553551 
L 394.662714 168.046463 
L 394.734875 178.661426 
L 394.807037 167.174679 
L 394.879198 171.614449 
L 394.95136 179.044109 
L 395.023521 175.510906 
L 395.095683 173.435319 
L 395.312167 177.568593 
L 395.528652 171.783021 
L 395.600813 175.393909 
L 395.672975 170.603377 
L 395.745136 177.302354 
L 395.817298 176.564232 
L 395.889459 176.942599 
L 395.961621 178.571657 
L 396.033782 173.797341 
L 396.178105 182.448033 
L 396.322428 164.819539 
L 396.39459 178.836526 
L 396.466751 170.347753 
L 396.538912 176.660174 
L 396.683235 163.088745 
L 396.827558 175.5185 
L 396.89972 173.523632 
L 396.971881 173.946077 
L 397.044043 185.901559 
L 397.116204 180.630906 
L 397.188366 180.442808 
L 397.332689 164.948996 
L 397.549173 188.729182 
L 397.621335 184.268809 
L 397.693496 191.031365 
L 397.837819 167.66609 
L 397.909981 188.009132 
L 397.982142 187.507555 
L 398.054304 154.317144 
L 398.126465 155.081821 
L 398.34295 226.171282 
L 398.487273 196.634463 
L 398.487273 196.634463 
" style="fill:none;stroke:#ff7f0e;stroke-dasharray:7.4,3.2;stroke-dashoffset:0;stroke-width:2;"/>
   </g>
   <g id="line2d_29">
    <path clip-path="url(#p5aa36a52bc)" d="M 73.832727 294.676089 
L 109.913472 289.841303 
L 145.994218 281.942419 
L 182.074963 271.515289 
L 218.155708 259.198376 
L 254.236453 245.669659 
L 290.317199 231.933989 
L 326.397944 218.503774 
L 362.478689 205.781779 
L 366.086764 203.446389 
L 366.303248 204.641809 
L 366.375409 203.710452 
L 366.447571 204.699608 
L 366.519732 203.542963 
L 366.591894 203.778828 
L 366.664055 203.598218 
L 366.952701 204.820525 
L 367.097024 203.696947 
L 367.313509 204.116491 
L 367.457832 203.337342 
L 367.529993 203.875157 
L 367.602155 203.07601 
L 367.818639 204.110673 
L 367.890801 203.986783 
L 368.035124 203.444808 
L 368.107285 204.463389 
L 368.179447 203.172952 
L 368.251608 203.408686 
L 368.32377 203.873913 
L 368.540254 202.825118 
L 368.612416 203.053065 
L 368.684577 203.497897 
L 368.8289 203.181233 
L 368.901062 203.748123 
L 368.973223 202.850997 
L 369.045385 203.423818 
L 369.117546 202.651132 
L 369.189708 203.088954 
L 369.261869 202.186359 
L 369.334031 203.333293 
L 369.406192 202.835686 
L 369.478354 202.809502 
L 369.550515 203.325926 
L 369.622677 202.6796 
L 369.694838 202.824769 
L 369.767 203.2428 
L 369.839161 202.782881 
L 369.911323 202.843601 
L 369.983484 202.839124 
L 370.055645 202.343701 
L 370.127807 202.757047 
L 370.199968 202.168196 
L 370.27213 202.700297 
L 370.344291 202.625038 
L 370.416453 202.477439 
L 370.488614 202.971126 
L 370.560776 201.891725 
L 370.632937 203.126843 
L 370.705099 202.209577 
L 370.77726 202.237115 
L 370.849422 202.827347 
L 370.921583 201.504588 
L 370.993745 202.771322 
L 371.065906 202.650634 
L 371.138068 202.637134 
L 371.210229 202.093086 
L 371.282391 202.520164 
L 371.354552 202.491701 
L 371.426714 202.501014 
L 371.498875 202.927664 
L 371.571037 202.028648 
L 371.643198 202.650356 
L 371.787521 202.126828 
L 371.859683 202.125429 
L 372.004006 201.785112 
L 372.076167 202.010944 
L 372.148329 201.904606 
L 372.22049 201.574975 
L 372.364813 202.459509 
L 372.436975 202.426748 
L 372.509136 201.125325 
L 372.581298 201.638254 
L 372.653459 201.632051 
L 372.725621 202.501486 
L 372.797782 201.340064 
L 372.869944 201.424319 
L 372.942105 201.165844 
L 373.014267 201.694028 
L 373.086428 201.49097 
L 373.15859 201.371499 
L 373.230751 201.445933 
L 373.302913 201.641412 
L 373.375074 200.817071 
L 373.447236 201.203935 
L 373.591559 201.572772 
L 373.66372 200.778072 
L 373.735882 202.487666 
L 373.952366 200.451504 
L 374.096689 200.862473 
L 374.16885 200.701088 
L 374.313173 201.901664 
L 374.385335 201.366357 
L 374.457496 201.797258 
L 374.529658 201.046944 
L 374.673981 201.80026 
L 374.962627 201.121941 
L 375.10695 201.566424 
L 375.179111 201.035501 
L 375.251273 201.337194 
L 375.323434 199.922459 
L 375.467757 200.821514 
L 375.539919 200.595549 
L 375.828565 201.082692 
L 375.900726 200.429367 
L 375.972888 200.873174 
L 376.189372 199.8383 
L 376.261534 200.868797 
L 376.333695 200.571557 
L 376.405857 200.39246 
L 376.55018 199.24934 
L 376.622341 200.784447 
L 376.694503 200.526866 
L 376.766664 199.277953 
L 376.910987 200.762333 
L 377.127472 200.140435 
L 377.199633 200.985033 
L 377.271795 200.355069 
L 377.343956 200.82284 
L 377.488279 199.475597 
L 377.560441 200.056715 
L 377.632602 199.443758 
L 377.704763 199.670052 
L 377.776925 200.551809 
L 377.849086 199.893367 
L 377.921248 200.390489 
L 377.993409 199.647428 
L 378.065571 199.82921 
L 378.209894 199.806629 
L 378.282055 199.47191 
L 378.354217 200.577319 
L 378.49854 199.440046 
L 378.715024 200.215897 
L 378.787186 199.83127 
L 378.859347 198.584433 
L 378.931509 200.117665 
L 379.00367 199.445496 
L 379.075832 199.334982 
L 379.147993 199.913706 
L 379.292316 199.024616 
L 379.364478 199.05177 
L 379.436639 200.170835 
L 379.580962 199.221786 
L 379.653124 199.397012 
L 379.725285 199.169343 
L 379.797447 199.236758 
L 379.869608 199.229763 
L 379.94177 199.655873 
L 380.086093 199.009795 
L 380.158254 200.482701 
L 380.230416 199.804315 
L 380.374739 197.846618 
L 380.4469 199.624538 
L 380.519062 199.126442 
L 380.591223 200.032058 
L 380.663385 198.486471 
L 380.735546 199.325232 
L 380.807708 197.9785 
L 380.879869 198.24801 
L 380.952031 198.197417 
L 381.024192 198.640318 
L 381.096354 198.055483 
L 381.168515 199.281029 
L 381.240677 198.82857 
L 381.312838 198.941947 
L 381.384999 198.861826 
L 381.529322 198.010925 
L 381.673645 198.943391 
L 381.817968 197.7372 
L 381.962291 199.237455 
L 382.034453 198.214768 
L 382.106614 198.778345 
L 382.250937 197.971153 
L 382.323099 197.888068 
L 382.39526 198.007268 
L 382.467422 198.791653 
L 382.539583 198.118371 
L 382.611745 198.288136 
L 382.756068 197.212954 
L 382.828229 198.23829 
L 382.900391 197.630995 
L 382.972552 197.967079 
L 383.044714 197.941303 
L 383.189037 197.280586 
L 383.261198 198.49041 
L 383.33336 196.62342 
L 383.405521 198.406681 
L 383.477683 197.995069 
L 383.549844 196.890547 
L 383.622006 197.060712 
L 383.694167 197.050586 
L 383.766329 197.397699 
L 383.83849 198.341815 
L 383.982813 197.406281 
L 384.127136 197.567863 
L 384.199298 196.005761 
L 384.271459 198.378614 
L 384.343621 196.743617 
L 384.415782 197.543585 
L 384.487944 197.748977 
L 384.560105 196.463921 
L 384.77659 197.73894 
L 384.848751 196.198205 
L 384.920913 197.830661 
L 384.993074 195.360158 
L 385.065236 197.855828 
L 385.137397 196.230012 
L 385.209558 198.247194 
L 385.28172 198.159553 
L 385.353881 197.762678 
L 385.498204 195.849505 
L 385.570366 196.713683 
L 385.642527 195.368548 
L 385.714689 197.00466 
L 385.78685 194.992364 
L 385.931173 197.327165 
L 386.003335 196.987257 
L 386.075496 197.106225 
L 386.219819 195.623081 
L 386.291981 195.733029 
L 386.508465 197.571835 
L 386.652788 196.464247 
L 386.72495 196.814408 
L 386.869273 195.320517 
L 386.941434 196.758644 
L 387.013596 195.685983 
L 387.085757 195.76525 
L 387.157919 196.390463 
L 387.374403 195.253089 
L 387.446565 197.23229 
L 387.518726 195.057812 
L 387.590888 195.08635 
L 387.663049 196.749023 
L 387.807372 194.976943 
L 387.879534 197.064494 
L 387.951695 194.764734 
L 388.023857 196.127754 
L 388.096018 195.519442 
L 388.16818 195.512418 
L 388.240341 194.367154 
L 388.384664 195.618424 
L 388.456826 195.311691 
L 388.528987 196.777984 
L 388.67331 194.995883 
L 388.745472 197.453565 
L 388.889794 193.755111 
L 389.034117 196.251195 
L 389.17844 195.291412 
L 389.250602 196.252476 
L 389.394925 194.370256 
L 389.467086 195.863349 
L 389.539248 195.695152 
L 389.683571 196.827278 
L 389.827894 194.759212 
L 389.900055 194.978601 
L 389.972217 198.151366 
L 390.044378 197.757552 
L 390.11654 194.724759 
L 390.188701 197.080494 
L 390.260863 193.458181 
L 390.333024 194.070832 
L 390.405186 194.509859 
L 390.477347 193.703172 
L 390.62167 196.209004 
L 390.693832 194.158049 
L 390.765993 194.160938 
L 390.838155 195.906723 
L 390.910316 193.645671 
L 391.054639 197.893966 
L 391.126801 193.46363 
L 391.198962 198.40102 
L 391.271124 195.17846 
L 391.343285 195.634267 
L 391.415447 195.245841 
L 391.487608 193.504926 
L 391.55977 195.72545 
L 391.631931 193.246727 
L 391.776254 195.813066 
L 391.848416 192.359472 
L 391.920577 193.964197 
L 391.992739 193.610707 
L 392.0649 196.879158 
L 392.209223 190.642985 
L 392.425708 196.160736 
L 392.497869 194.26181 
L 392.570031 194.32325 
L 392.642192 193.663674 
L 392.714353 197.813058 
L 392.786515 193.495369 
L 392.858676 196.633483 
L 392.930838 195.091242 
L 393.002999 193.097452 
L 393.075161 193.577588 
L 393.147322 193.58397 
L 393.219484 194.420954 
L 393.291645 193.298799 
L 393.363807 196.716774 
L 393.50813 190.780051 
L 393.580291 191.670257 
L 393.652453 195.756283 
L 393.724614 193.805265 
L 393.796776 191.059551 
L 393.868937 193.95397 
L 393.941099 190.924809 
L 394.157583 195.932141 
L 394.229745 192.43274 
L 394.301906 196.995025 
L 394.374068 195.950009 
L 394.446229 189.454872 
L 394.518391 191.283703 
L 394.590552 194.420424 
L 394.662714 190.640329 
L 394.734875 193.091249 
L 394.807037 189.972076 
L 394.95136 192.256444 
L 395.023521 188.690615 
L 395.095683 196.373593 
L 395.167844 194.400376 
L 395.240006 197.759523 
L 395.312167 189.634476 
L 395.384329 196.793214 
L 395.600813 190.024398 
L 395.745136 192.27013 
L 395.817298 190.702991 
L 395.889459 181.837871 
L 396.033782 191.614274 
L 396.105944 187.769399 
L 396.178105 193.271047 
L 396.250267 191.869792 
L 396.322428 195.558618 
L 396.39459 195.405766 
L 396.611074 186.458247 
L 396.683235 199.98746 
L 396.755397 199.347034 
L 396.971881 181.458987 
L 397.044043 198.743714 
L 397.116204 196.311189 
L 397.188366 197.370981 
L 397.260527 200.963071 
L 397.332689 187.828891 
L 397.40485 191.707996 
L 397.477012 197.352722 
L 397.549173 183.359168 
L 397.621335 201.341354 
L 397.693496 195.449638 
L 397.765658 187.693012 
L 397.837819 207.678206 
L 398.054304 53.568 
L 398.198627 205.297151 
L 398.270788 189.404148 
L 398.415111 242.228124 
L 398.487273 235.648701 
" style="fill:none;stroke:#2ca02c;stroke-dasharray:12.8,3.2,2,3.2;stroke-dashoffset:0;stroke-width:2;"/>
   </g>
   <g id="line2d_30">
    <path clip-path="url(#p5aa36a52bc)" d="M 73.832727 295.488 
L 109.913472 293.043787 
L 145.994218 288.970099 
L 182.074963 283.266935 
L 218.155708 275.934296 
L 254.236453 266.972182 
L 290.317199 256.380592 
L 326.397944 244.159527 
L 367.097024 228.418482 
L 380.952031 222.586785 
L 394.879198 216.482559 
L 398.487273 214.861557 
L 398.487273 214.861557 
" style="fill:none;stroke:#d62728;stroke-dasharray:3,4.95;stroke-dashoffset:0;stroke-width:3;"/>
   </g>
   <g id="patch_3">
    <path d="M 57.6 307.584 
L 57.6 41.472 
" style="fill:none;stroke:#000000;stroke-linecap:square;stroke-linejoin:miter;stroke-width:0.8;"/>
   </g>
   <g id="patch_4">
    <path d="M 414.72 307.584 
L 414.72 41.472 
" style="fill:none;stroke:#000000;stroke-linecap:square;stroke-linejoin:miter;stroke-width:0.8;"/>
   </g>
   <g id="patch_5">
    <path d="M 57.6 307.584 
L 414.72 307.584 
" style="fill:none;stroke:#000000;stroke-linecap:square;stroke-linejoin:miter;stroke-width:0.8;"/>
   </g>
   <g id="patch_6">
    <path d="M 57.6 41.472 
L 414.72 41.472 
" style="fill:none;stroke:#000000;stroke-linecap:square;stroke-linejoin:miter;stroke-width:0.8;"/>
   </g>
   <g id="text_16">
    <!-- $(1-2\lambda) E[\sum_{i,j} Q_{i,j}]$ vs Traffic Intensity -->
    <defs>
     <path d="M 2.984375 54.6875 
L 12.5 54.6875 
L 29.59375 8.796875 
L 46.6875 54.6875 
L 56.203125 54.6875 
L 35.6875 0 
L 23.484375 0 
z
" id="DejaVuSans-76"/>
    </defs>
    <g transform="translate(132.12 35.472)scale(0.12 -0.12)">
     <use transform="translate(0 0.546875)" xlink:href="#DejaVuSans-28"/>
     <use transform="translate(39.013672 0.546875)" xlink:href="#DejaVuSans-31"/>
     <use transform="translate(122.119141 0.546875)" xlink:href="#DejaVuSans-2212"/>
     <use transform="translate(225.390625 0.546875)" xlink:href="#DejaVuSans-32"/>
     <use transform="translate(289.013672 0.546875)" xlink:href="#DejaVuSans-Oblique-3bb"/>
     <use transform="translate(348.193359 0.546875)" xlink:href="#DejaVuSans-29"/>
     <use transform="translate(387.207031 0.546875)" xlink:href="#DejaVuSans-Oblique-45"/>
     <use transform="translate(450.390625 0.546875)" xlink:href="#DejaVuSans-5b"/>
     <use transform="translate(489.404297 19.296875)" xlink:href="#DejaVuSansDisplay-2211"/>
     <use transform="translate(497.404297 -79.798438)scale(0.7)" xlink:href="#DejaVuSans-Oblique-69"/>
     <use transform="translate(516.852539 -79.798438)scale(0.7)" xlink:href="#DejaVuSans-2c"/>
     <use transform="translate(552.741211 -79.798438)scale(0.7)" xlink:href="#DejaVuSans-Oblique-6a"/>
     <use transform="translate(580.169922 0.546875)" xlink:href="#DejaVuSans-Oblique-51"/>
     <use transform="translate(658.880859 -15.859375)scale(0.7)" xlink:href="#DejaVuSans-Oblique-69"/>
     <use transform="translate(678.329102 -15.859375)scale(0.7)" xlink:href="#DejaVuSans-2c"/>
     <use transform="translate(714.217773 -15.859375)scale(0.7)" xlink:href="#DejaVuSans-Oblique-6a"/>
     <use transform="translate(736.400391 0.546875)" xlink:href="#DejaVuSans-5d"/>
     <use transform="translate(775.414062 0.546875)" xlink:href="#DejaVuSans-20"/>
     <use transform="translate(807.201172 0.546875)" xlink:href="#DejaVuSans-76"/>
     <use transform="translate(866.380859 0.546875)" xlink:href="#DejaVuSans-73"/>
     <use transform="translate(918.480469 0.546875)" xlink:href="#DejaVuSans-20"/>
     <use transform="translate(950.267578 0.546875)" xlink:href="#DejaVuSans-54"/>
     <use transform="translate(1011.351562 0.546875)" xlink:href="#DejaVuSans-72"/>
     <use transform="translate(1052.464844 0.546875)" xlink:href="#DejaVuSans-61"/>
     <use transform="translate(1113.744141 0.546875)" xlink:href="#DejaVuSans-66"/>
     <use transform="translate(1148.949219 0.546875)" xlink:href="#DejaVuSans-66"/>
     <use transform="translate(1184.154297 0.546875)" xlink:href="#DejaVuSans-69"/>
     <use transform="translate(1211.9375 0.546875)" xlink:href="#DejaVuSans-63"/>
     <use transform="translate(1266.917969 0.546875)" xlink:href="#DejaVuSans-20"/>
     <use transform="translate(1298.705078 0.546875)" xlink:href="#DejaVuSans-49"/>
     <use transform="translate(1328.197266 0.546875)" xlink:href="#DejaVuSans-6e"/>
     <use transform="translate(1391.576172 0.546875)" xlink:href="#DejaVuSans-74"/>
     <use transform="translate(1430.785156 0.546875)" xlink:href="#DejaVuSans-65"/>
     <use transform="translate(1492.308594 0.546875)" xlink:href="#DejaVuSans-6e"/>
     <use transform="translate(1555.6875 0.546875)" xlink:href="#DejaVuSans-73"/>
     <use transform="translate(1607.787109 0.546875)" xlink:href="#DejaVuSans-69"/>
     <use transform="translate(1635.570312 0.546875)" xlink:href="#DejaVuSans-74"/>
     <use transform="translate(1674.779297 0.546875)" xlink:href="#DejaVuSans-79"/>
    </g>
   </g>
   <g id="legend_1">
    <g id="patch_7">
     <path d="M 64.6 108.74075 
L 208.51875 108.74075 
Q 210.51875 108.74075 210.51875 106.74075 
L 210.51875 48.472 
Q 210.51875 46.472 208.51875 46.472 
L 64.6 46.472 
Q 62.6 46.472 62.6 48.472 
L 62.6 106.74075 
Q 62.6 108.74075 64.6 108.74075 
z
" style="fill:#ffffff;opacity:0.8;stroke:#cccccc;stroke-linejoin:miter;"/>
    </g>
    <g id="line2d_31">
     <path d="M 66.6 54.570438 
L 86.6 54.570438 
" style="fill:none;stroke:#1f77b4;stroke-linecap:square;stroke-width:4;"/>
    </g>
    <g id="line2d_32"/>
    <g id="text_17">
     <!-- MaxWt -->
     <defs>
      <path d="M 9.8125 72.90625 
L 24.515625 72.90625 
L 43.109375 23.296875 
L 61.8125 72.90625 
L 76.515625 72.90625 
L 76.515625 0 
L 66.890625 0 
L 66.890625 64.015625 
L 48.09375 14.015625 
L 38.1875 14.015625 
L 19.390625 64.015625 
L 19.390625 0 
L 9.8125 0 
z
" id="DejaVuSans-4d"/>
      <path d="M 54.890625 54.6875 
L 35.109375 28.078125 
L 55.90625 0 
L 45.3125 0 
L 29.390625 21.484375 
L 13.484375 0 
L 2.875 0 
L 24.125 28.609375 
L 4.6875 54.6875 
L 15.28125 54.6875 
L 29.78125 35.203125 
L 44.28125 54.6875 
z
" id="DejaVuSans-78"/>
      <path d="M 3.328125 72.90625 
L 13.28125 72.90625 
L 28.609375 11.28125 
L 43.890625 72.90625 
L 54.984375 72.90625 
L 70.3125 11.28125 
L 85.59375 72.90625 
L 95.609375 72.90625 
L 77.296875 0 
L 64.890625 0 
L 49.515625 63.28125 
L 33.984375 0 
L 21.578125 0 
z
" id="DejaVuSans-57"/>
     </defs>
     <g transform="translate(94.6 58.070438)scale(0.1 -0.1)">
      <use xlink:href="#DejaVuSans-4d"/>
      <use x="86.279297" xlink:href="#DejaVuSans-61"/>
      <use x="147.558594" xlink:href="#DejaVuSans-78"/>
      <use x="206.738281" xlink:href="#DejaVuSans-57"/>
      <use x="305.615234" xlink:href="#DejaVuSans-74"/>
     </g>
    </g>
    <g id="line2d_33">
     <path d="M 66.6 69.248563 
L 86.6 69.248563 
" style="fill:none;stroke:#ff7f0e;stroke-dasharray:7.4,3.2;stroke-dashoffset:0;stroke-width:2;"/>
    </g>
    <g id="line2d_34"/>
    <g id="text_18">
     <!-- MaxSize_random -->
     <defs>
      <path d="M 53.515625 70.515625 
L 53.515625 60.890625 
Q 47.90625 63.578125 42.921875 64.890625 
Q 37.9375 66.21875 33.296875 66.21875 
Q 25.25 66.21875 20.875 63.09375 
Q 16.5 59.96875 16.5 54.203125 
Q 16.5 49.359375 19.40625 46.890625 
Q 22.3125 44.4375 30.421875 42.921875 
L 36.375 41.703125 
Q 47.40625 39.59375 52.65625 34.296875 
Q 57.90625 29 57.90625 20.125 
Q 57.90625 9.515625 50.796875 4.046875 
Q 43.703125 -1.421875 29.984375 -1.421875 
Q 24.8125 -1.421875 18.96875 -0.25 
Q 13.140625 0.921875 6.890625 3.21875 
L 6.890625 13.375 
Q 12.890625 10.015625 18.65625 8.296875 
Q 24.421875 6.59375 29.984375 6.59375 
Q 38.421875 6.59375 43.015625 9.90625 
Q 47.609375 13.234375 47.609375 19.390625 
Q 47.609375 24.75 44.3125 27.78125 
Q 41.015625 30.8125 33.5 32.328125 
L 27.484375 33.5 
Q 16.453125 35.6875 11.515625 40.375 
Q 6.59375 45.0625 6.59375 53.421875 
Q 6.59375 63.09375 13.40625 68.65625 
Q 20.21875 74.21875 32.171875 74.21875 
Q 37.3125 74.21875 42.625 73.28125 
Q 47.953125 72.359375 53.515625 70.515625 
z
" id="DejaVuSans-53"/>
      <path d="M 5.515625 54.6875 
L 48.1875 54.6875 
L 48.1875 46.484375 
L 14.40625 7.171875 
L 48.1875 7.171875 
L 48.1875 0 
L 4.296875 0 
L 4.296875 8.203125 
L 38.09375 47.515625 
L 5.515625 47.515625 
z
" id="DejaVuSans-7a"/>
      <path d="M 50.984375 -16.609375 
L 50.984375 -23.578125 
L -0.984375 -23.578125 
L -0.984375 -16.609375 
z
" id="DejaVuSans-5f"/>
      <path d="M 45.40625 46.390625 
L 45.40625 75.984375 
L 54.390625 75.984375 
L 54.390625 0 
L 45.40625 0 
L 45.40625 8.203125 
Q 42.578125 3.328125 38.25 0.953125 
Q 33.9375 -1.421875 27.875 -1.421875 
Q 17.96875 -1.421875 11.734375 6.484375 
Q 5.515625 14.40625 5.515625 27.296875 
Q 5.515625 40.1875 11.734375 48.09375 
Q 17.96875 56 27.875 56 
Q 33.9375 56 38.25 53.625 
Q 42.578125 51.265625 45.40625 46.390625 
z
M 14.796875 27.296875 
Q 14.796875 17.390625 18.875 11.75 
Q 22.953125 6.109375 30.078125 6.109375 
Q 37.203125 6.109375 41.296875 11.75 
Q 45.40625 17.390625 45.40625 27.296875 
Q 45.40625 37.203125 41.296875 42.84375 
Q 37.203125 48.484375 30.078125 48.484375 
Q 22.953125 48.484375 18.875 42.84375 
Q 14.796875 37.203125 14.796875 27.296875 
z
" id="DejaVuSans-64"/>
      <path d="M 30.609375 48.390625 
Q 23.390625 48.390625 19.1875 42.75 
Q 14.984375 37.109375 14.984375 27.296875 
Q 14.984375 17.484375 19.15625 11.84375 
Q 23.34375 6.203125 30.609375 6.203125 
Q 37.796875 6.203125 41.984375 11.859375 
Q 46.1875 17.53125 46.1875 27.296875 
Q 46.1875 37.015625 41.984375 42.703125 
Q 37.796875 48.390625 30.609375 48.390625 
z
M 30.609375 56 
Q 42.328125 56 49.015625 48.375 
Q 55.71875 40.765625 55.71875 27.296875 
Q 55.71875 13.875 49.015625 6.21875 
Q 42.328125 -1.421875 30.609375 -1.421875 
Q 18.84375 -1.421875 12.171875 6.21875 
Q 5.515625 13.875 5.515625 27.296875 
Q 5.515625 40.765625 12.171875 48.375 
Q 18.84375 56 30.609375 56 
z
" id="DejaVuSans-6f"/>
      <path d="M 52 44.1875 
Q 55.375 50.25 60.0625 53.125 
Q 64.75 56 71.09375 56 
Q 79.640625 56 84.28125 50.015625 
Q 88.921875 44.046875 88.921875 33.015625 
L 88.921875 0 
L 79.890625 0 
L 79.890625 32.71875 
Q 79.890625 40.578125 77.09375 44.375 
Q 74.3125 48.1875 68.609375 48.1875 
Q 61.625 48.1875 57.5625 43.546875 
Q 53.515625 38.921875 53.515625 30.90625 
L 53.515625 0 
L 44.484375 0 
L 44.484375 32.71875 
Q 44.484375 40.625 41.703125 44.40625 
Q 38.921875 48.1875 33.109375 48.1875 
Q 26.21875 48.1875 22.15625 43.53125 
Q 18.109375 38.875 18.109375 30.90625 
L 18.109375 0 
L 9.078125 0 
L 9.078125 54.6875 
L 18.109375 54.6875 
L 18.109375 46.1875 
Q 21.1875 51.21875 25.484375 53.609375 
Q 29.78125 56 35.6875 56 
Q 41.65625 56 45.828125 52.96875 
Q 50 49.953125 52 44.1875 
z
" id="DejaVuSans-6d"/>
     </defs>
     <g transform="translate(94.6 72.748563)scale(0.1 -0.1)">
      <use xlink:href="#DejaVuSans-4d"/>
      <use x="86.279297" xlink:href="#DejaVuSans-61"/>
      <use x="147.558594" xlink:href="#DejaVuSans-78"/>
      <use x="206.738281" xlink:href="#DejaVuSans-53"/>
      <use x="270.214844" xlink:href="#DejaVuSans-69"/>
      <use x="297.998047" xlink:href="#DejaVuSans-7a"/>
      <use x="350.488281" xlink:href="#DejaVuSans-65"/>
      <use x="412.011719" xlink:href="#DejaVuSans-5f"/>
      <use x="462.011719" xlink:href="#DejaVuSans-72"/>
      <use x="503.125" xlink:href="#DejaVuSans-61"/>
      <use x="564.404297" xlink:href="#DejaVuSans-6e"/>
      <use x="627.783203" xlink:href="#DejaVuSans-64"/>
      <use x="691.259766" xlink:href="#DejaVuSans-6f"/>
      <use x="752.441406" xlink:href="#DejaVuSans-6d"/>
     </g>
    </g>
    <g id="line2d_35">
     <path d="M 66.6 84.204813 
L 86.6 84.204813 
" style="fill:none;stroke:#2ca02c;stroke-dasharray:12.8,3.2,2,3.2;stroke-dashoffset:0;stroke-width:2;"/>
    </g>
    <g id="line2d_36"/>
    <g id="text_19">
     <!-- MaxSize_PriMaxWt -->
     <defs>
      <path d="M 19.671875 64.796875 
L 19.671875 37.40625 
L 32.078125 37.40625 
Q 38.96875 37.40625 42.71875 40.96875 
Q 46.484375 44.53125 46.484375 51.125 
Q 46.484375 57.671875 42.71875 61.234375 
Q 38.96875 64.796875 32.078125 64.796875 
z
M 9.8125 72.90625 
L 32.078125 72.90625 
Q 44.34375 72.90625 50.609375 67.359375 
Q 56.890625 61.8125 56.890625 51.125 
Q 56.890625 40.328125 50.609375 34.8125 
Q 44.34375 29.296875 32.078125 29.296875 
L 19.671875 29.296875 
L 19.671875 0 
L 9.8125 0 
z
" id="DejaVuSans-50"/>
     </defs>
     <g transform="translate(94.6 87.704813)scale(0.1 -0.1)">
      <use xlink:href="#DejaVuSans-4d"/>
      <use x="86.279297" xlink:href="#DejaVuSans-61"/>
      <use x="147.558594" xlink:href="#DejaVuSans-78"/>
      <use x="206.738281" xlink:href="#DejaVuSans-53"/>
      <use x="270.214844" xlink:href="#DejaVuSans-69"/>
      <use x="297.998047" xlink:href="#DejaVuSans-7a"/>
      <use x="350.488281" xlink:href="#DejaVuSans-65"/>
      <use x="412.011719" xlink:href="#DejaVuSans-5f"/>
      <use x="462.011719" xlink:href="#DejaVuSans-50"/>
      <use x="522.298828" xlink:href="#DejaVuSans-72"/>
      <use x="563.412109" xlink:href="#DejaVuSans-69"/>
      <use x="591.195312" xlink:href="#DejaVuSans-4d"/>
      <use x="677.474609" xlink:href="#DejaVuSans-61"/>
      <use x="738.753906" xlink:href="#DejaVuSans-78"/>
      <use x="797.933594" xlink:href="#DejaVuSans-57"/>
      <use x="896.810547" xlink:href="#DejaVuSans-74"/>
     </g>
    </g>
    <g id="line2d_37">
     <path d="M 66.6 99.161063 
L 86.6 99.161063 
" style="fill:none;stroke:#d62728;stroke-dasharray:3,4.95;stroke-dashoffset:0;stroke-width:3;"/>
    </g>
    <g id="line2d_38"/>
    <g id="text_20">
     <!-- Universal lower bound -->
     <defs>
      <path d="M 8.6875 72.90625 
L 18.609375 72.90625 
L 18.609375 28.609375 
Q 18.609375 16.890625 22.84375 11.734375 
Q 27.09375 6.59375 36.625 6.59375 
Q 46.09375 6.59375 50.34375 11.734375 
Q 54.59375 16.890625 54.59375 28.609375 
L 54.59375 72.90625 
L 64.5 72.90625 
L 64.5 27.390625 
Q 64.5 13.140625 57.4375 5.859375 
Q 50.390625 -1.421875 36.625 -1.421875 
Q 22.796875 -1.421875 15.734375 5.859375 
Q 8.6875 13.140625 8.6875 27.390625 
z
" id="DejaVuSans-55"/>
      <path d="M 9.421875 75.984375 
L 18.40625 75.984375 
L 18.40625 0 
L 9.421875 0 
z
" id="DejaVuSans-6c"/>
      <path d="M 4.203125 54.6875 
L 13.1875 54.6875 
L 24.421875 12.015625 
L 35.59375 54.6875 
L 46.1875 54.6875 
L 57.421875 12.015625 
L 68.609375 54.6875 
L 77.59375 54.6875 
L 63.28125 0 
L 52.6875 0 
L 40.921875 44.828125 
L 29.109375 0 
L 18.5 0 
z
" id="DejaVuSans-77"/>
      <path d="M 48.6875 27.296875 
Q 48.6875 37.203125 44.609375 42.84375 
Q 40.53125 48.484375 33.40625 48.484375 
Q 26.265625 48.484375 22.1875 42.84375 
Q 18.109375 37.203125 18.109375 27.296875 
Q 18.109375 17.390625 22.1875 11.75 
Q 26.265625 6.109375 33.40625 6.109375 
Q 40.53125 6.109375 44.609375 11.75 
Q 48.6875 17.390625 48.6875 27.296875 
z
M 18.109375 46.390625 
Q 20.953125 51.265625 25.265625 53.625 
Q 29.59375 56 35.59375 56 
Q 45.5625 56 51.78125 48.09375 
Q 58.015625 40.1875 58.015625 27.296875 
Q 58.015625 14.40625 51.78125 6.484375 
Q 45.5625 -1.421875 35.59375 -1.421875 
Q 29.59375 -1.421875 25.265625 0.953125 
Q 20.953125 3.328125 18.109375 8.203125 
L 18.109375 0 
L 9.078125 0 
L 9.078125 75.984375 
L 18.109375 75.984375 
z
" id="DejaVuSans-62"/>
      <path d="M 8.5 21.578125 
L 8.5 54.6875 
L 17.484375 54.6875 
L 17.484375 21.921875 
Q 17.484375 14.15625 20.5 10.265625 
Q 23.53125 6.390625 29.59375 6.390625 
Q 36.859375 6.390625 41.078125 11.03125 
Q 45.3125 15.671875 45.3125 23.6875 
L 45.3125 54.6875 
L 54.296875 54.6875 
L 54.296875 0 
L 45.3125 0 
L 45.3125 8.40625 
Q 42.046875 3.421875 37.71875 1 
Q 33.40625 -1.421875 27.6875 -1.421875 
Q 18.265625 -1.421875 13.375 4.4375 
Q 8.5 10.296875 8.5 21.578125 
z
M 31.109375 56 
z
" id="DejaVuSans-75"/>
     </defs>
     <g transform="translate(94.6 102.661063)scale(0.1 -0.1)">
      <use xlink:href="#DejaVuSans-55"/>
      <use x="73.193359" xlink:href="#DejaVuSans-6e"/>
      <use x="136.572266" xlink:href="#DejaVuSans-69"/>
      <use x="164.355469" xlink:href="#DejaVuSans-76"/>
      <use x="223.535156" xlink:href="#DejaVuSans-65"/>
      <use x="285.058594" xlink:href="#DejaVuSans-72"/>
      <use x="326.171875" xlink:href="#DejaVuSans-73"/>
      <use x="378.271484" xlink:href="#DejaVuSans-61"/>
      <use x="439.550781" xlink:href="#DejaVuSans-6c"/>
      <use x="467.333984" xlink:href="#DejaVuSans-20"/>
      <use x="499.121094" xlink:href="#DejaVuSans-6c"/>
      <use x="526.904297" xlink:href="#DejaVuSans-6f"/>
      <use x="588.085938" xlink:href="#DejaVuSans-77"/>
      <use x="669.873047" xlink:href="#DejaVuSans-65"/>
      <use x="731.396484" xlink:href="#DejaVuSans-72"/>
      <use x="772.509766" xlink:href="#DejaVuSans-20"/>
      <use x="804.296875" xlink:href="#DejaVuSans-62"/>
      <use x="867.773438" xlink:href="#DejaVuSans-6f"/>
      <use x="928.955078" xlink:href="#DejaVuSans-75"/>
      <use x="992.333984" xlink:href="#DejaVuSans-6e"/>
      <use x="1055.712891" xlink:href="#DejaVuSans-64"/>
     </g>
    </g>
   </g>
  </g>
 </g>
 <defs>
  <clipPath id="p5aa36a52bc">
   <rect height="266.112" width="357.12" x="57.6" y="41.472"/>
  </clipPath>
 </defs>
</svg>
